<svg xmlns="http://www.w3.org/2000/svg" xmlns:xlink="http://www.w3.org/1999/xlink" width="505" height="451.316" viewBox="0 0 505 451.316">
  <defs>
    <clipPath id="clip-path">
      <rect id="Rectángulo_402093" data-name="Rectángulo 402093" width="253.174" height="165.709" fill="none"/>
    </clipPath>
    <clipPath id="clip-path-3">
      <rect id="Rectángulo_402090" data-name="Rectángulo 402090" width="90.83" height="66.51" fill="none"/>
    </clipPath>
    <clipPath id="clip-path-4">
      <rect id="Rectángulo_402091" data-name="Rectángulo 402091" width="58.213" height="40.167" fill="none"/>
    </clipPath>
    <clipPath id="clip-path-5">
      <rect id="Rectángulo_402086" data-name="Rectángulo 402086" width="310.065" height="166.271" fill="none"/>
    </clipPath>
    <clipPath id="clip-path-7">
      <rect id="Rectángulo_402076" data-name="Rectángulo 402076" width="13.144" height="56.586" fill="none"/>
    </clipPath>
    <clipPath id="clip-path-8">
      <rect id="Rectángulo_402078" data-name="Rectángulo 402078" width="13.143" height="82.38" fill="none"/>
    </clipPath>
    <clipPath id="clip-path-9">
      <rect id="Rectángulo_402080" data-name="Rectángulo 402080" width="13.144" height="44.088" fill="none"/>
    </clipPath>
    <clipPath id="clip-path-10">
      <rect id="Rectángulo_402082" data-name="Rectángulo 402082" width="13.143" height="63.031" fill="none"/>
    </clipPath>
    <clipPath id="clip-path-11">
      <rect id="Rectángulo_402084" data-name="Rectángulo 402084" width="13.143" height="50.489" fill="none"/>
    </clipPath>
    <clipPath id="clip-path-12">
      <rect id="Rectángulo_402094" data-name="Rectángulo 402094" width="431" height="451" rx="15" fill="#e2dacc"/>
    </clipPath>
    <clipPath id="clip-path-13">
      <rect id="Rectángulo_402062" data-name="Rectángulo 402062" width="235.978" height="616.064" fill="none"/>
    </clipPath>
    <clipPath id="clip-path-15">
      <rect id="Rectángulo_402059" data-name="Rectángulo 402059" width="45.611" height="43.035" fill="none"/>
    </clipPath>
    <clipPath id="clip-path-16">
      <rect id="Rectángulo_402060" data-name="Rectángulo 402060" width="25.019" height="31.93" fill="none"/>
    </clipPath>
  </defs>
  <g id="_11" data-name="11" transform="translate(74)">
    <rect id="Rectángulo_401939" data-name="Rectángulo 401939" width="355" height="451" rx="15" transform="translate(-74 0.316)" fill="#706c65"/>
    <g id="Grupo_1101116" data-name="Grupo 1101116" transform="translate(0 237.702)">
      <g id="Grupo_1101115" data-name="Grupo 1101115" clip-path="url(#clip-path)">
        <rect id="Rectángulo_402087" data-name="Rectángulo 402087" width="252.573" height="165.159" transform="translate(0.271 0.288)" fill="#fff"/>
        <rect id="Rectángulo_402088" data-name="Rectángulo 402088" width="252.573" height="20.414" transform="translate(0.271 0.289)" fill="#e0e0e0"/>
        <g id="Grupo_1101114" data-name="Grupo 1101114">
          <g id="Grupo_1101113" data-name="Grupo 1101113" clip-path="url(#clip-path)">
            <path id="Trazado_878212" data-name="Trazado 878212" d="M8.514,9.755A3.174,3.174,0,0,0,11.877,12.7a3.174,3.174,0,0,0,3.364-2.942,3.174,3.174,0,0,0-3.364-2.942A3.174,3.174,0,0,0,8.514,9.755" transform="translate(227.14 0.742)" fill="#fff"/>
            <path id="Trazado_878213" data-name="Trazado 878213" d="M17.46,9.755A3.174,3.174,0,0,0,20.823,12.7a3.174,3.174,0,0,0,3.364-2.942,3.174,3.174,0,0,0-3.364-2.942A3.174,3.174,0,0,0,17.46,9.755" transform="translate(206.853 0.742)" fill="#fff"/>
            <path id="Trazado_878214" data-name="Trazado 878214" d="M26.4,9.755A3.174,3.174,0,0,0,29.768,12.7a3.174,3.174,0,0,0,3.364-2.942,3.174,3.174,0,0,0-3.364-2.942A3.174,3.174,0,0,0,26.4,9.755" transform="translate(186.569 0.742)" fill="#fff"/>
            <path id="Trazado_878215" data-name="Trazado 878215" d="M.271,165.448s.02-1.036.029-3.021.018-4.93.032-8.77C.347,145.973.371,134.7.4,120.3.435,91.518.483,50.257.541.289L.271.525,252.824.578h.02l-.33-.288c.011,59.356.023,115.58.032,165.159l.3-.261-182.317.13-51.775.07-13.734.031-3.538.014c-.8.006-1.209.016-1.209.016s.39.01,1.175.016l3.505.014,13.674.031,51.708.07,182.511.13h.3v-.261c.009-49.578.02-105.8.032-165.159V0h-.351L.271.053H0V.289C.06,50.318.108,91.63.142,120.445.171,134.822.2,146.081.21,153.753c.014,3.82.024,6.745.032,8.726s.029,2.97.029,2.97" transform="translate(-0.001 0)" fill="#263238"/>
            <path id="Trazado_878216" data-name="Trazado 878216" d="M11.417,90.051c0,.16,50.264.288,112.254.288,62.01,0,112.264-.129,112.264-.288s-50.254-.288-112.264-.288c-61.99,0-112.254.129-112.254.288" transform="translate(2.765 9.772)" fill="#e0e0e0"/>
            <path id="Trazado_878217" data-name="Trazado 878217" d="M11.417,74.761c0,.16,50.264.288,112.254.288,62.01,0,112.264-.129,112.264-.288s-50.254-.288-112.264-.288c-61.99,0-112.254.129-112.254.288" transform="translate(2.765 8.108)" fill="#e0e0e0"/>
            <path id="Trazado_878218" data-name="Trazado 878218" d="M11.417,59.47c0,.16,50.264.288,112.254.288,62.01,0,112.264-.129,112.264-.288s-50.254-.288-112.264-.288c-61.99,0-112.254.129-112.254.288" transform="translate(2.765 6.443)" fill="#e0e0e0"/>
            <path id="Trazado_878219" data-name="Trazado 878219" d="M11.417,44.18c0,.16,50.264.288,112.254.288,62.01,0,112.264-.129,112.264-.288s-50.254-.288-112.264-.288c-61.99,0-112.254.129-112.254.288" transform="translate(2.765 4.778)" fill="#e0e0e0"/>
            <path id="Trazado_878220" data-name="Trazado 878220" d="M34.342,95.232C38.718,86,41.717,75.9,45.074,66.336c2.921-8.329,3.192-12.221,5.7-19.255,3.947-11.081,14.4-12.308,22-9.3,6.77,2.676,9.692,9.638,11.939,15.9q4.031,11.237,8.061,22.476C94.04,79.7,95.342,83.309,97.683,86.4a15.182,15.182,0,0,0,10.07,6.14c6.866.792,13.014-4.236,15.949-9.8s3.748-11.829,6.372-17.512S138.1,54.1,145.022,53.989c8.524-.135,14.315,7.474,17.86,14.35a150.791,150.791,0,0,1,10.747,26.878c.915,3.139,1.746,6.354,3.57,9.164a11.99,11.99,0,0,0,8.48,5.6c4.68.5,9.024-2.416,11.747-5.829s4.4-7.421,7.182-10.794,7.276-6.171,11.922-5.462c4.173.638,7.158,3.834,9.625,6.886A157.6,157.6,0,0,1,243.4,121.039H11.167c10.7-3.222,18.8-16.57,23.175-25.807" transform="translate(-4.381 3.959)" fill="#fac22d"/>
            <rect id="Rectángulo_402089" data-name="Rectángulo 402089" width="10.966" height="9.593" transform="translate(173.77 138.301)" fill="#fac22d"/>
            <path id="Trazado_878221" data-name="Trazado 878221" d="M71.9,129.264h57.192a1.112,1.112,0,1,0,0-2.2H71.9a1.112,1.112,0,1,0,0,2.2" transform="translate(33.285 13.832)" fill="#263238"/>
            <path id="Trazado_878222" data-name="Trazado 878222" d="M10.925,121.441s.283.02.835.03l2.453.029,9.429.053,34.679.092,114.412.084,60.351-.02h.307v-.268c-.048-26.027-.09-48.212-.119-63.912-.037-7.825-.067-14.034-.087-18.307-.02-2.112-.037-3.742-.048-4.868-.011-.539-.019-.951-.025-1.252-.009-.282-.025-.426-.025-.426s-.018.144-.027.426c-.005.3-.014.713-.025,1.252-.01,1.125-.027,2.756-.048,4.868-.02,4.274-.049,10.482-.087,18.307-.029,15.7-.071,37.884-.119,63.912l.307-.268-60.351-.02-114.412.084-34.679.092-9.429.054-2.453.028c-.553.01-.835.03-.835.03" transform="translate(5.935 3.557)" fill="#263238"/>
            <g id="Grupo_1101109" data-name="Grupo 1101109" transform="translate(35.727 58.488)" opacity="0.3">
              <g id="Grupo_1101108" data-name="Grupo 1101108">
                <g id="Grupo_1101107" data-name="Grupo 1101107" clip-path="url(#clip-path-3)">
                  <path id="Trazado_878223" data-name="Trazado 878223" d="M108.292,52.746l82.422,66.51H149.5L99.884,79.073Z" transform="translate(-99.884 -52.746)" fill="#fff"/>
                </g>
              </g>
            </g>
            <g id="Grupo_1101112" data-name="Grupo 1101112" transform="translate(115.556 84.83)" opacity="0.3">
              <g id="Grupo_1101111" data-name="Grupo 1101111">
                <g id="Grupo_1101110" data-name="Grupo 1101110" clip-path="url(#clip-path-4)">
                  <path id="Trazado_878224" data-name="Trazado 878224" d="M63.83,82.141l45.345,34.528h11.679L67.3,76.5,62.64,83.414" transform="translate(-62.641 -76.502)" fill="#fff"/>
                </g>
              </g>
            </g>
            <path id="Trazado_878225" data-name="Trazado 878225" d="M243.4,121.063a122.169,122.169,0,0,0-7.626-13.263,149.989,149.989,0,0,0-10.786-14.654,20.1,20.1,0,0,0-4.235-3.785,10.562,10.562,0,0,0-6.111-1.72,12.635,12.635,0,0,0-6.35,2.165,18.268,18.268,0,0,0-4.813,4.675c-2.677,3.6-4.386,7.949-7.934,11.4a14.39,14.39,0,0,1-6.654,3.716,9.974,9.974,0,0,1-4.032.043,10.356,10.356,0,0,1-3.713-1.57,14.011,14.011,0,0,1-4.939-6.056,57.208,57.208,0,0,1-2.512-7.56,149.156,149.156,0,0,0-5.651-15.775q-1.679-3.982-3.648-7.977a54.258,54.258,0,0,0-4.5-7.878,24.719,24.719,0,0,0-6.83-6.747,15.1,15.1,0,0,0-4.765-2,14.437,14.437,0,0,0-5.342-.135,16.333,16.333,0,0,0-8.967,5.011,24.117,24.117,0,0,0-5.128,8.375c-1.164,3.031-1.969,6.161-2.976,9.245a29.455,29.455,0,0,1-4.25,8.841,18.024,18.024,0,0,1-8.115,6.177,12.581,12.581,0,0,1-10.225-.729,17.264,17.264,0,0,1-6.869-6.925,54.608,54.608,0,0,1-3.648-8.679l-6.2-17.275c-1.031-2.815-1.961-5.627-3.11-8.359a28.513,28.513,0,0,0-4.512-7.671A15.748,15.748,0,0,0,75.5,38.917a16.989,16.989,0,0,0-4.29-1.927,21.349,21.349,0,0,0-4.66-.821,19.449,19.449,0,0,0-4.68.342,14.684,14.684,0,0,0-7.635,4.271,18.839,18.839,0,0,0-3.951,6.887c-1.7,4.825-2.627,9.628-3.994,14.124-.663,2.255-1.436,4.432-2.174,6.577S42.688,72.615,42,74.664a176.663,176.663,0,0,1-8.45,21.814,73.131,73.131,0,0,1-9.614,15.17,33.8,33.8,0,0,1-8.868,7.682,21.922,21.922,0,0,1-2.881,1.331c-.676.256-1.017.4-1.017.4s.355-.109,1.041-.348a20.181,20.181,0,0,0,2.928-1.286,33.49,33.49,0,0,0,9-7.647A72.589,72.589,0,0,0,33.886,96.6a174.87,174.87,0,0,0,8.559-21.826q1.046-3.07,2.142-6.285c.744-2.137,1.528-4.326,2.2-6.587,1.388-4.519,2.325-9.311,4.026-14.1A18.392,18.392,0,0,1,54.674,41.1,14.1,14.1,0,0,1,62.012,37a18.769,18.769,0,0,1,4.505-.322,20.78,20.78,0,0,1,4.505.8,15.069,15.069,0,0,1,7.441,4.786,28.006,28.006,0,0,1,4.414,7.537c1.132,2.7,2.062,5.519,3.09,8.336Q89,66.611,92.155,75.42a54.949,54.949,0,0,0,3.682,8.767,17.854,17.854,0,0,0,7.114,7.161,13.1,13.1,0,0,0,5.277,1.536,13.565,13.565,0,0,0,5.533-.765,18.649,18.649,0,0,0,8.417-6.393,29.926,29.926,0,0,0,4.335-9c1.014-3.106,1.815-6.227,2.965-9.22a23.54,23.54,0,0,1,5.006-8.191,15.673,15.673,0,0,1,8.59-4.822,13.721,13.721,0,0,1,5.062.125,14.413,14.413,0,0,1,4.551,1.912,24.189,24.189,0,0,1,6.666,6.586,53.914,53.914,0,0,1,4.471,7.8q1.962,3.977,3.646,7.947a148.858,148.858,0,0,1,5.66,15.717,57.926,57.926,0,0,0,2.548,7.617,14.538,14.538,0,0,0,5.135,6.253,10.931,10.931,0,0,0,3.922,1.648,10.563,10.563,0,0,0,4.278-.053,14.877,14.877,0,0,0,6.9-3.863c3.634-3.559,5.318-7.924,7.956-11.478a17.79,17.79,0,0,1,4.683-4.584,12.171,12.171,0,0,1,6.1-2.108,10.134,10.134,0,0,1,5.863,1.633,19.871,19.871,0,0,1,4.174,3.7,153.864,153.864,0,0,1,10.855,14.567c2.728,4.138,4.643,7.452,5.922,9.7q.934,1.683,1.427,2.576c.321.581.5.873.5.873" transform="translate(-4.38 3.935)" fill="#263238"/>
          </g>
        </g>
      </g>
    </g>
    <path id="Trazado_113320" data-name="Trazado 113320" d="M2646.666,1590.093a51.195,51.195,0,1,1,51.194-51.195A51.253,51.253,0,0,1,2646.666,1590.093Zm0-78.215a27.02,27.02,0,1,0,27.019,27.02A27.05,27.05,0,0,0,2646.666,1511.878Z" transform="translate(-2361.176 -1145.483)" fill="#fff"/>
    <g id="Grupo_1101039" data-name="Grupo 1101039" transform="translate(-11.035 130.936)">
      <path id="Trazado_873354" data-name="Trazado 873354" d="M325.19,456.667a12.22,12.22,0,0,0,3.59,8.669l12.409,12.405L328.78,490.146a12.262,12.262,0,0,0,17.341,17.341l12.4-12.4,12.405,12.4a12.261,12.261,0,0,0,17.338-17.341l-12.4-12.405,12.4-12.405a12.261,12.261,0,0,0,0-17.338h0a12.262,12.262,0,0,0-17.338,0L358.526,460.4,346.121,448a12.266,12.266,0,0,0-17.341,0h0a12.222,12.222,0,0,0-3.59,8.669Z" transform="translate(-325.19 -444.408)" fill="#10314b"/>
    </g>
    <g id="Grupo_78298" data-name="Grupo 78298" transform="translate(316.84 218.652)">
      <path id="Trazado_99257" data-name="Trazado 99257" d="M419.487,105.3a2.639,2.639,0,1,1-2.638-2.52A2.581,2.581,0,0,1,419.487,105.3Z" transform="translate(-414.214 -102.779)" fill="#10314b"/>
      <path id="Trazado_99258" data-name="Trazado 99258" d="M427.932,105.3a2.639,2.639,0,1,1-2.635-2.52A2.58,2.58,0,0,1,427.932,105.3Z" transform="translate(-398.934 -102.779)" fill="#10314b"/>
      <path id="Trazado_99259" data-name="Trazado 99259" d="M436.379,105.3a2.639,2.639,0,1,1-2.635-2.52A2.58,2.58,0,0,1,436.379,105.3Z" transform="translate(-383.655 -102.779)" fill="#10314b"/>
      <path id="Trazado_99260" data-name="Trazado 99260" d="M444.826,105.3a2.639,2.639,0,1,1-2.638-2.52A2.581,2.581,0,0,1,444.826,105.3Z" transform="translate(-368.374 -102.779)" fill="#10314b"/>
      <path id="Trazado_99261" data-name="Trazado 99261" d="M453.272,105.3a2.639,2.639,0,1,1-2.635-2.52A2.58,2.58,0,0,1,453.272,105.3Z" transform="translate(-353.095 -102.779)" fill="#10314b"/>
      <ellipse id="Elipse_3975" data-name="Elipse 3975" cx="2.636" cy="2.521" rx="2.636" ry="2.521" transform="translate(0 20.169)" fill="#10314b"/>
      <path id="Trazado_99268" data-name="Trazado 99268" d="M427.932,112.807a2.639,2.639,0,1,1-2.635-2.52A2.581,2.581,0,0,1,427.932,112.807Z" transform="translate(-398.934 -90.117)" fill="#10314b"/>
      <ellipse id="Elipse_3976" data-name="Elipse 3976" cx="2.636" cy="2.521" rx="2.636" ry="2.521" transform="translate(47.452 20.169)" fill="#10314b"/>
      <path id="Trazado_99269" data-name="Trazado 99269" d="M444.826,112.807a2.639,2.639,0,1,1-2.638-2.52A2.582,2.582,0,0,1,444.826,112.807Z" transform="translate(-368.374 -90.117)" fill="#10314b"/>
      <path id="Trazado_99270" data-name="Trazado 99270" d="M453.272,112.807a2.639,2.639,0,1,1-2.635-2.52A2.582,2.582,0,0,1,453.272,112.807Z" transform="translate(-353.095 -90.117)" fill="#10314b"/>
      <path id="Trazado_99274" data-name="Trazado 99274" d="M419.487,120.316a2.639,2.639,0,1,1-2.638-2.522A2.582,2.582,0,0,1,419.487,120.316Z" transform="translate(-414.214 -77.459)" fill="#10314b"/>
      <path id="Trazado_99275" data-name="Trazado 99275" d="M427.932,120.316a2.639,2.639,0,1,1-2.635-2.522A2.581,2.581,0,0,1,427.932,120.316Z" transform="translate(-398.934 -77.459)" fill="#10314b"/>
      <path id="Trazado_99276" data-name="Trazado 99276" d="M436.379,120.316a2.639,2.639,0,1,1-2.635-2.522A2.582,2.582,0,0,1,436.379,120.316Z" transform="translate(-383.655 -77.459)" fill="#10314b"/>
      <path id="Trazado_99277" data-name="Trazado 99277" d="M444.826,120.316a2.639,2.639,0,1,1-2.638-2.522A2.582,2.582,0,0,1,444.826,120.316Z" transform="translate(-368.374 -77.459)" fill="#10314b"/>
      <path id="Trazado_99278" data-name="Trazado 99278" d="M453.272,120.316a2.639,2.639,0,1,1-2.635-2.522A2.582,2.582,0,0,1,453.272,120.316Z" transform="translate(-353.095 -77.459)" fill="#10314b"/>
      <ellipse id="Elipse_3980" data-name="Elipse 3980" cx="2.636" cy="2.521" rx="2.636" ry="2.521" transform="translate(0 60.506)" fill="#10314b"/>
      <path id="Trazado_99285" data-name="Trazado 99285" d="M427.932,127.824A2.639,2.639,0,1,1,425.3,125.3,2.579,2.579,0,0,1,427.932,127.824Z" transform="translate(-398.934 -64.797)" fill="#10314b"/>
      <ellipse id="Elipse_3981" data-name="Elipse 3981" cx="2.636" cy="2.521" rx="2.636" ry="2.521" transform="translate(47.452 60.506)" fill="#10314b"/>
      <path id="Trazado_99286" data-name="Trazado 99286" d="M444.826,127.824a2.639,2.639,0,1,1-2.638-2.522A2.58,2.58,0,0,1,444.826,127.824Z" transform="translate(-368.374 -64.797)" fill="#10314b"/>
      <path id="Trazado_99287" data-name="Trazado 99287" d="M453.272,127.824a2.639,2.639,0,1,1-2.635-2.522A2.58,2.58,0,0,1,453.272,127.824Z" transform="translate(-353.095 -64.797)" fill="#10314b"/>
      <ellipse id="Elipse_3985" data-name="Elipse 3985" cx="2.636" cy="2.521" rx="2.636" ry="2.521" transform="translate(0 80.674)" fill="#10314b"/>
      <path id="Trazado_99291" data-name="Trazado 99291" d="M427.932,135.332a2.639,2.639,0,1,1-2.635-2.522A2.579,2.579,0,0,1,427.932,135.332Z" transform="translate(-398.934 -52.136)" fill="#10314b"/>
      <ellipse id="Elipse_3986" data-name="Elipse 3986" cx="2.636" cy="2.521" rx="2.636" ry="2.521" transform="translate(47.452 80.674)" fill="#10314b"/>
      <path id="Trazado_99292" data-name="Trazado 99292" d="M444.826,135.332a2.639,2.639,0,1,1-2.638-2.522A2.58,2.58,0,0,1,444.826,135.332Z" transform="translate(-368.374 -52.136)" fill="#10314b"/>
      <path id="Trazado_99293" data-name="Trazado 99293" d="M453.272,135.332a2.639,2.639,0,1,1-2.635-2.522A2.58,2.58,0,0,1,453.272,135.332Z" transform="translate(-353.095 -52.136)" fill="#10314b"/>
    </g>
    <g id="Grupo_1101106" data-name="Grupo 1101106" transform="translate(55.634)">
      <g id="Grupo_1101105" data-name="Grupo 1101105" transform="translate(-34.018)" clip-path="url(#clip-path-5)">
        <rect id="Rectángulo_402063" data-name="Rectángulo 402063" width="309.265" height="165.502" transform="translate(0.352 0.399)" fill="#fff"/>
        <rect id="Rectángulo_402064" data-name="Rectángulo 402064" width="309.265" height="25.441" transform="translate(0.352 0.399)" fill="#e0e0e0"/>
        <g id="Grupo_1101104" data-name="Grupo 1101104">
          <g id="Grupo_1101103" data-name="Grupo 1101103" clip-path="url(#clip-path-5)">
            <path id="Trazado_878207" data-name="Trazado 878207" d="M7.685,9.821A3.913,3.913,0,0,0,11.8,13.488a3.913,3.913,0,0,0,4.119-3.667A3.913,3.913,0,0,0,11.8,6.154,3.913,3.913,0,0,0,7.685,9.821" transform="translate(280.882 3.3)" fill="#fff"/>
            <path id="Trazado_878208" data-name="Trazado 878208" d="M15.732,9.821a3.913,3.913,0,0,0,4.119,3.667A3.913,3.913,0,0,0,23.97,9.821a3.913,3.913,0,0,0-4.119-3.667,3.913,3.913,0,0,0-4.119,3.667" transform="translate(258.95 3.3)" fill="#fff"/>
            <path id="Trazado_878209" data-name="Trazado 878209" d="M23.779,9.821A3.913,3.913,0,0,0,27.9,13.488a3.913,3.913,0,0,0,4.119-3.667A3.913,3.913,0,0,0,27.9,6.154a3.913,3.913,0,0,0-4.119,3.667" transform="translate(237.018 3.3)" fill="#fff"/>
            <path id="Trazado_878210" data-name="Trazado 878210" d="M.35,165.9s.024-1.023.038-2.983.021-4.874.038-8.673c.021-7.612.05-18.8.088-33.151C.559,92.408.623,51.07.7.4L.35.711,309.591.8h.024l-.449-.4c.012,58.629.022,114.58.033,165.5l.416-.37-222.557.18-63.818.1-17,.045-4.39.023c-.987.006-1.5.021-1.5.021s.483.015,1.455.022l4.341.023,16.912.045,63.723.1c54.677.043,132.035.106,222.834.18l.418,0V165.9c.009-50.921.021-106.871.033-165.5V0h-.475L.35.088H0V.4C.078,51.151.142,92.553.186,121.285c.038,14.324.067,25.486.088,33.081.017,3.774.029,6.659.038,8.615.014,1.94.038,2.919.038,2.919" transform="translate(0)" fill="#263238"/>
            <rect id="Rectángulo_402065" data-name="Rectángulo 402065" width="13.143" height="85.69" transform="translate(262.596 53.71)" fill="#fac22d"/>
            <rect id="Rectángulo_402066" data-name="Rectángulo 402066" width="13.143" height="56.586" transform="translate(237.223 82.814)" fill="#fac22d"/>
            <rect id="Rectángulo_402067" data-name="Rectángulo 402067" width="13.143" height="75.474" transform="translate(211.847 64.363)" fill="#fac22d"/>
            <rect id="Rectángulo_402068" data-name="Rectángulo 402068" width="13.143" height="82.381" transform="translate(186.473 57.019)" fill="#fac22d"/>
            <rect id="Rectángulo_402069" data-name="Rectángulo 402069" width="13.143" height="54.844" transform="translate(161.1 84.556)" fill="#fac22d"/>
            <rect id="Rectángulo_402070" data-name="Rectángulo 402070" width="13.143" height="44.088" transform="translate(135.724 95.312)" fill="#fac22d"/>
            <rect id="Rectángulo_402071" data-name="Rectángulo 402071" width="13.143" height="76.893" transform="translate(110.35 62.507)" fill="#fac22d"/>
            <rect id="Rectángulo_402072" data-name="Rectángulo 402072" width="13.143" height="63.031" transform="translate(84.977 76.369)" fill="#fac22d"/>
            <rect id="Rectángulo_402073" data-name="Rectángulo 402073" width="13.143" height="74.108" transform="translate(59.601 65.292)" fill="#fac22d"/>
            <rect id="Rectángulo_402074" data-name="Rectángulo 402074" width="13.143" height="50.489" transform="translate(34.227 88.911)" fill="#fac22d"/>
            <g id="Grupo_1101090" data-name="Grupo 1101090" transform="translate(237.222 82.814)" opacity="0.3">
              <g id="Grupo_1101089" data-name="Grupo 1101089">
                <g id="Grupo_1101088" data-name="Grupo 1101088" clip-path="url(#clip-path-7)">
                  <rect id="Rectángulo_402075" data-name="Rectángulo 402075" width="13.143" height="56.586" transform="translate(0.001 -0.001)" fill="#fff"/>
                </g>
              </g>
            </g>
            <g id="Grupo_1101093" data-name="Grupo 1101093" transform="translate(186.473 57.02)" opacity="0.3">
              <g id="Grupo_1101092" data-name="Grupo 1101092">
                <g id="Grupo_1101091" data-name="Grupo 1101091" clip-path="url(#clip-path-8)">
                  <rect id="Rectángulo_402077" data-name="Rectángulo 402077" width="13.143" height="82.381" transform="translate(0 -0.001)" fill="#fff"/>
                </g>
              </g>
            </g>
            <g id="Grupo_1101096" data-name="Grupo 1101096" transform="translate(135.724 95.312)" opacity="0.3">
              <g id="Grupo_1101095" data-name="Grupo 1101095">
                <g id="Grupo_1101094" data-name="Grupo 1101094" clip-path="url(#clip-path-9)">
                  <rect id="Rectángulo_402079" data-name="Rectángulo 402079" width="13.143" height="44.088" transform="translate(0 0)" fill="#fff"/>
                </g>
              </g>
            </g>
            <g id="Grupo_1101099" data-name="Grupo 1101099" transform="translate(84.977 76.369)" opacity="0.3">
              <g id="Grupo_1101098" data-name="Grupo 1101098">
                <g id="Grupo_1101097" data-name="Grupo 1101097" clip-path="url(#clip-path-10)">
                  <rect id="Rectángulo_402081" data-name="Rectángulo 402081" width="13.143" height="63.031" transform="translate(0)" fill="#fff"/>
                </g>
              </g>
            </g>
            <g id="Grupo_1101102" data-name="Grupo 1101102" transform="translate(34.227 88.911)" opacity="0.3">
              <g id="Grupo_1101101" data-name="Grupo 1101101">
                <g id="Grupo_1101100" data-name="Grupo 1101100" clip-path="url(#clip-path-11)">
                  <rect id="Rectángulo_402083" data-name="Rectángulo 402083" width="13.143" height="50.489" transform="translate(0 0)" fill="#fff"/>
                </g>
              </g>
            </g>
            <path id="Trazado_878211" data-name="Trazado 878211" d="M12.452,90.882c0,.221,61.17.4,136.609.4,75.466,0,136.621-.178,136.621-.4s-61.156-.4-136.621-.4c-75.44,0-136.609.178-136.609.4" transform="translate(2.896 48.518)" fill="#263238"/>
          </g>
        </g>
      </g>
    </g>
    <g id="Enmascarar_grupo_1098720" data-name="Enmascarar grupo 1098720" transform="translate(0 0.315)" clip-path="url(#clip-path-12)">
      <g id="Grupo_1101087" data-name="Grupo 1101087" transform="translate(195.022 46.423)">
        <g id="Grupo_1101086" data-name="Grupo 1101086" clip-path="url(#clip-path-13)">
          <g id="Grupo_1101085" data-name="Grupo 1101085">
            <g id="Grupo_1101084" data-name="Grupo 1101084" clip-path="url(#clip-path-13)">
              <path id="Trazado_878161" data-name="Trazado 878161" d="M152.355,21.525a4.126,4.126,0,0,0-2.823-1.222,14.966,14.966,0,0,0-8.779,1.7,12.828,12.828,0,0,0,1.774-15.354A14.486,14.486,0,0,0,128.2.156a16.673,16.673,0,0,0-12.467,9.972,19.674,19.674,0,0,0,.706,16.152l9.163,2.4a25.669,25.669,0,0,0,14.419,4.434c2.053,0,4.294-.351,5.679-1.867s1.151-4.488-.8-5.113c1.89.42,3.926.831,5.71.081s2.961-3.187,1.746-4.694" transform="translate(74.183 -0.001)" fill="#263238"/>
              <path id="Trazado_878162" data-name="Trazado 878162" d="M139.318,7.069A22.373,22.373,0,0,0,122.086,8.85a13.3,13.3,0,0,0-22.957,3.512,11.635,11.635,0,0,0-13.911,4.722A11.634,11.634,0,0,0,87.826,31.54,14.457,14.457,0,0,0,81.78,53.527c-4.332,2.1-5.074,7.964-4.434,12.736s2.013,9.883-.127,14.2c-1.652,3.331-5.06,5.39-7.392,8.287s-3.146,7.886.012,9.849a10.057,10.057,0,1,0,3.639,19.758c-1.759,3.754-1,8.383,1.311,11.826a19.853,19.853,0,0,0,9.887,7.207,29.548,29.548,0,0,0,32.28-9.1L152.537,18.265a22.376,22.376,0,0,0-13.219-11.2" transform="translate(39.675 2.417)" fill="#263238"/>
              <path id="Trazado_878163" data-name="Trazado 878163" d="M143.191,30.176l.473-5.936L108.381,15.3c-10.935-1.827-23.5,8.488-24.86,19.491C82.009,47.019,80.647,62,81.549,71.247c1.814,18.588,15.785,21.78,15.785,21.78l-1.019,18.281L137,114.269Z" transform="translate(52.726 9.792)" fill="#ae7461"/>
              <path id="Trazado_878164" data-name="Trazado 878164" d="M85.25,37.7a2.365,2.365,0,0,0,2.134,2.519,2.265,2.265,0,0,0,2.562-1.982,2.367,2.367,0,0,0-2.13-2.521A2.264,2.264,0,0,0,85.25,37.7" transform="translate(55.309 23.167)" fill="#263238"/>
              <path id="Trazado_878165" data-name="Trazado 878165" d="M84.718,32.8c.274.325,2.144-.89,4.683-.73,2.541.122,4.327,1.542,4.62,1.247.145-.129-.12-.7-.9-1.344a6.482,6.482,0,0,0-3.675-1.378,6.227,6.227,0,0,0-3.751.966c-.818.552-1.115,1.093-.979,1.24" transform="translate(54.95 19.844)" fill="#263238"/>
              <path id="Trazado_878166" data-name="Trazado 878166" d="M99.239,38.462a2.367,2.367,0,0,0,2.134,2.519A2.265,2.265,0,0,0,103.935,39a2.368,2.368,0,0,0-2.132-2.521,2.263,2.263,0,0,0-2.564,1.984" transform="translate(64.386 23.659)" fill="#263238"/>
              <path id="Trazado_878167" data-name="Trazado 878167" d="M99.848,34c.275.325,2.145-.89,4.683-.732,2.541.124,4.327,1.543,4.622,1.248.142-.13-.119-.7-.9-1.342a6.47,6.47,0,0,0-3.675-1.38,6.227,6.227,0,0,0-3.751.966c-.815.552-1.115,1.093-.979,1.24" transform="translate(64.767 20.622)" fill="#263238"/>
              <path id="Trazado_878168" data-name="Trazado 878168" d="M96.062,52.521c.02-.143-1.543-.511-4.083-.993-.645-.106-1.251-.272-1.334-.721a3.321,3.321,0,0,1,.549-1.9l2.216-4.825C96.5,37.211,98.776,31.544,98.5,31.422S95.491,36.772,92.4,43.646q-1.118,2.543-2.137,4.859a3.763,3.763,0,0,0-.49,2.526,1.629,1.629,0,0,0,1.011,1.012,4.375,4.375,0,0,0,1.092.219c2.567.293,4.165.4,4.183.257" transform="translate(58.199 20.387)" fill="#263238"/>
              <path id="Trazado_878169" data-name="Trazado 878169" d="M91.116,64.392A48.85,48.85,0,0,0,116.8,59.3s-6.994,12.516-25.948,9.684Z" transform="translate(58.95 38.477)" fill="#6f4439"/>
              <path id="Trazado_878170" data-name="Trazado 878170" d="M100.2,28.558c.251.693,2.793.364,5.779.724,2.993.3,5.4,1.174,5.8.554.176-.3-.242-.948-1.217-1.619a10.127,10.127,0,0,0-8.82-.973c-1.1.442-1.647.986-1.54,1.314" transform="translate(65.005 17.292)" fill="#263238"/>
              <path id="Trazado_878171" data-name="Trazado 878171" d="M85.1,29.031c.407.607,2.2.129,4.3.246,2.109.043,3.858.656,4.31.081.2-.28-.041-.877-.782-1.477a6.246,6.246,0,0,0-6.94-.264c-.785.542-1.07,1.12-.892,1.415" transform="translate(55.183 17.318)" fill="#263238"/>
              <path id="Trazado_878172" data-name="Trazado 878172" d="M85.147,23.556a30.908,30.908,0,0,1,16.808-11.1l29.808,3.75,2.539-.045c.559-1.878,3.726-2.862,3.726-2.862,2.8-2.148,12.5-2.266,19.267,4.8,2.44,2.549,4.173,8.963,4.229,12.492.021,1.336-1.41,3.167-.294,3.9.391.257,3.613.19,4.069.289,7.581,1.66,12.32,8.383,10.947,18.434a5.117,5.117,0,0,0-.163,1.517,4.15,4.15,0,0,0,1.329,1.975A13.155,13.155,0,0,1,179.5,71.354c-.739,1.444-1.769,2.793-2.026,4.394-.46,2.867,1.634,5.423,3.256,7.83,4.864,7.222,5.908,17.714.2,24.286-1.388,1.6-3.177,3.024-3.7,5.075a12.169,12.169,0,0,0-.163,3.09c.036,5.245-2.73,11.115-7.857,12.221-2.848.613-6.3-.19-8.328,1.9a12.359,12.359,0,0,0-1.817,3.322,10.641,10.641,0,0,1-12.259,5.276c-4.625-1.426-6.158-20.194-5.489-24.987-5.6-2.036-9.748-2.4-9.486-8.353,0,0,.866-10.249-.793-15.242s1.669-15.618,3.565-20.779-.363-17.173-.871-21.95a17.386,17.386,0,0,1,.4-4.086l0,0,0-.015c.208-1.161.48-2.468.8-3.87.117-1.306,1.192-8.277,1.174-9.5-.074-4.515-5.679-2.1-9.959-.663a10.973,10.973,0,0,1-3.21.579,11.431,11.431,0,0,1-9.206-4.363,16.458,16.458,0,0,1-16.245,4.442c-2.3,3.212-4.642,6.467-7.705,8.963s-6.991,4.193-10.919,3.753a30.912,30.912,0,0,1,6.284-19.135" transform="translate(51.168 7.793)" fill="#263238"/>
              <path id="Trazado_878173" data-name="Trazado 878173" d="M94.761,48.693a4.492,4.492,0,0,1,3.941-1.87,4.111,4.111,0,0,1,2.907,1.377,2.605,2.605,0,0,1,.346,2.96,3.018,3.018,0,0,1-3.227.989,9.412,9.412,0,0,1-3.278-1.74,2.728,2.728,0,0,1-.75-.7.836.836,0,0,1-.043-.927" transform="translate(61.34 30.377)" fill="#6f4439"/>
              <path id="Trazado_878174" data-name="Trazado 878174" d="M101.345,45.167c-.406,0-.277,2.7-2.495,4.737s-5.115,1.883-5.116,2.262c-.03.171.668.493,1.888.465A6.745,6.745,0,0,0,99.9,50.9a5.867,5.867,0,0,0,1.919-3.964c.046-1.136-.287-1.791-.472-1.766" transform="translate(60.82 29.307)" fill="#263238"/>
              <path id="Trazado_878175" data-name="Trazado 878175" d="M77.873,339.983l3.354,34.938s-38.08,14.226-38.494,21.265l72,.2-.041-5.265-3.019-17.974-4.45-34.911Z" transform="translate(27.728 219.464)" fill="#455a64"/>
              <path id="Trazado_878176" data-name="Trazado 878176" d="M80.636,357.244a3.009,3.009,0,0,1,2.089,3.428,2.89,2.89,0,0,1-3.38,2.1,3.173,3.173,0,0,1-2.193-3.642c.486-1.395,2.453-2.49,3.758-1.8" transform="translate(49.991 231.72)" fill="#e0e0e0"/>
              <path id="Trazado_878177" data-name="Trazado 878177" d="M114.741,375.571l-.04-5.265L45.645,371.63s-3.276,1.436-2.9,3.745Z" transform="translate(27.716 240.276)" fill="#263238"/>
              <path id="Trazado_878178" data-name="Trazado 878178" d="M65.356,360.39c.013.359,1.812.518,3.585,1.67,1.8,1.106,2.721,2.663,3.05,2.52.331-.071-.209-2.221-2.381-3.578-2.158-1.377-4.333-.941-4.254-.612" transform="translate(42.405 233.624)" fill="#263238"/>
              <path id="Trazado_878179" data-name="Trazado 878179" d="M60.674,362.266c-.081.35,1.477.956,2.7,2.475,1.27,1.482,1.583,3.128,1.941,3.11.338.058.582-2.051-.978-3.909-1.543-1.873-3.66-2.018-3.667-1.675" transform="translate(39.367 234.964)" fill="#263238"/>
              <path id="Trazado_878180" data-name="Trazado 878180" d="M59.164,370.264c.326.076.823-1.723-.106-3.69s-2.613-2.749-2.765-2.449c-.2.3.892,1.35,1.631,2.978.775,1.609.882,3.126,1.24,3.161" transform="translate(36.511 236.225)" fill="#263238"/>
              <path id="Trazado_878181" data-name="Trazado 878181" d="M63.811,355.675c.152.328,1.8-.173,3.835-.04,2.036.091,3.621.77,3.807.462.208-.262-1.341-1.59-3.74-1.712-2.4-.142-4.081,1.007-3.9,1.289" transform="translate(41.396 229.938)" fill="#263238"/>
              <path id="Trazado_878182" data-name="Trazado 878182" d="M131.421,340.5l3.085,34.342s-37.5,13.747-37.947,20.66l70.728.627-.008-5.173-2.857-17.676-4.162-34.324Z" transform="translate(62.653 219.935)" fill="#455a64"/>
              <path id="Trazado_878183" data-name="Trazado 878183" d="M133.9,357.62a2.955,2.955,0,0,1,2.031,3.38,2.84,2.84,0,0,1-3.332,2.043,3.117,3.117,0,0,1-2.134-3.591c.486-1.369,2.425-2.43,3.7-1.741" transform="translate(84.582 231.963)" fill="#e0e0e0"/>
              <path id="Trazado_878184" data-name="Trazado 878184" d="M167.3,375.667l-.008-5.173-67.847.884s-3.227,1.39-2.871,3.662Z" transform="translate(62.643 240.398)" fill="#263238"/>
              <path id="Trazado_878185" data-name="Trazado 878185" d="M118.864,360.623c.01.354,1.777.519,3.512,1.662,1.764,1.1,2.655,2.633,2.981,2.493.326-.068-.193-2.182-2.318-3.529-2.112-1.365-4.251-.951-4.175-.626" transform="translate(77.124 233.783)" fill="#263238"/>
              <path id="Trazado_878186" data-name="Trazado 878186" d="M114.252,362.44c-.082.341,1.446.948,2.641,2.449,1.238,1.464,1.537,3.082,1.888,3.067.331.058.584-2.013-.938-3.848-1.5-1.848-3.583-2-3.591-1.667" transform="translate(74.131 235.08)" fill="#263238"/>
              <path id="Trazado_878187" data-name="Trazado 878187" d="M112.721,370.289c.322.076.819-1.687-.081-3.626s-2.551-2.716-2.7-2.422c-.2.29.869,1.332,1.585,2.935.752,1.586.848,3.077,1.2,3.113" transform="translate(71.318 236.301)" fill="#263238"/>
              <path id="Trazado_878188" data-name="Trazado 878188" d="M117.377,355.976c.147.323,1.771-.158,3.768-.016,2,.1,3.552.78,3.738.477.2-.256-1.308-1.568-3.664-1.7-2.351-.153-4.015.965-3.842,1.243" transform="translate(76.153 230.162)" fill="#263238"/>
              <path id="Trazado_878189" data-name="Trazado 878189" d="M70.173,155.02S53.107,204.443,52.52,241.209s-1.177,95.23,6.472,159.722,11.181,90.408,11.181,90.408H109.01s4.119-40.382,3.53-76.547-3.415-47.614.058-87.394,8.97-63.674,14.756-75.727c0,0,16.03-19.056,17.207-45.2s-8.074-48.605-8.074-48.605Z" transform="translate(33.874 100.586)" fill="#263238"/>
              <path id="Trazado_878190" data-name="Trazado 878190" d="M84.033,223.475c.645,1.985,12.169,83.013,20.576,118.752s17.763,45.2,19.4,74.271c1.888,33.439,11.069,73.956,11.069,73.956h41.353S170.62,428.647,164.8,380.332s-14.216-107.881-12.924-125.75,4.524-39.939,0-64.975-14.3-31.637-14.3-31.637l-35.084-1.588Z" transform="translate(54.525 101.47)" fill="#263238"/>
              <path id="Trazado_878191" data-name="Trazado 878191" d="M118.889,168.965a8.674,8.674,0,0,1,.641,1.258,24.922,24.922,0,0,1,1.4,3.8,50.393,50.393,0,0,1,1.364,14.812,97.7,97.7,0,0,1-3.4,21.8,70.078,70.078,0,0,1-4.513,12.267,87.366,87.366,0,0,1-7.473,11.857c-5.621,7.743-8.4,16.563-10.5,24.528a174.8,174.8,0,0,0-3.924,21.62c-.763,6.219-1.222,11.275-1.565,14.766q-.252,2.525-.4,4.02a8.541,8.541,0,0,1-.2,1.4,8.692,8.692,0,0,1,.025-1.41q.089-1.5.242-4.033c.239-3.5.6-8.568,1.291-14.81A166.206,166.206,0,0,1,95.638,259.1a105.723,105.723,0,0,1,3.913-12.459,61.8,61.8,0,0,1,2.887-6.3,65.189,65.189,0,0,1,3.761-6.06,87.913,87.913,0,0,0,7.423-11.743,70.128,70.128,0,0,0,4.5-12.1,100.128,100.128,0,0,0,3.558-21.617,52.67,52.67,0,0,0-1.078-14.7,29.522,29.522,0,0,0-1.238-3.819,8.781,8.781,0,0,1-.48-1.327" transform="translate(58.594 109.634)" fill="#455a64"/>
              <path id="Trazado_878192" data-name="Trazado 878192" d="M13.071,109.435c7.131,4.266,20.012,8.256,20.012,8.256l14.439-11.54S37.194,87.275,33.868,81.926a28.59,28.59,0,0,1-2.693-5.71c-1.116-4.018-4.064-2.308-4.609.857a17.215,17.215,0,0,0,.9,5.093,14.931,14.931,0,0,1,1.007,6.121s-1.052-.9-3.649-2.643C22,83.741,12.441,75.774,8.4,72.438c-6.03-4.984-9.07-1.895-8.282.031.978,2.4,15.948,12.878,15.412,14.672,0,0-2.882,1.637-3.289,3.5a9.468,9.468,0,0,0,.028,3.713s-2.7.264-3.423,2,.2,4.177.2,4.177-2.5.234-2.792,1.594,1.444,4.1,6.808,7.308" transform="translate(0 45.252)" fill="#ae7461"/>
              <path id="Trazado_878193" data-name="Trazado 878193" d="M35.761,102.079c.218.653,30.961,32.13,30.961,32.13s25.656-28.9,33.465-39.531,19.656-23.668,29.853-26.11S154.406,72.7,154.406,72.7l-18.062,37.139-22.8,31.35S88.9,172.131,77.188,176.9,54,174.822,49.006,169.615s-34.593-50.2-34.593-50.2Z" transform="translate(9.352 44.138)" fill="#706c65"/>
              <path id="Trazado_878194" data-name="Trazado 878194" d="M175.889,80.613,105.143,68.354S85.5,102.937,78.152,139.276,62.428,211.92,62.428,211.92l65.348,8.051a75.313,75.313,0,0,0,20.469-.282l6.81-1.029-5.6-23.074c9.341-23.321,16.156-43.246,20.2-59.7,8.782-35.7,6.229-55.273,6.229-55.273" transform="translate(40.507 44.352)" fill="#706c65"/>
              <path id="Trazado_878195" data-name="Trazado 878195" d="M99.627,96.747A8.281,8.281,0,0,1,98.478,98.3l-3.318,4.053c-2.8,3.42-6.6,8.2-10.807,13.486s-8.089,10.015-11.018,13.343c-1.461,1.665-2.668,2.991-3.532,3.88a8.314,8.314,0,0,1-1.4,1.326,8.216,8.216,0,0,1,1.149-1.548l3.318-4.053c2.8-3.42,6.6-8.2,10.808-13.488s8.088-10.014,11.016-13.341c1.461-1.665,2.668-2.991,3.532-3.88a8.314,8.314,0,0,1,1.4-1.326" transform="translate(44.381 62.773)" fill="#263238"/>
              <path id="Trazado_878196" data-name="Trazado 878196" d="M126.82,146.165a19.116,19.116,0,0,1-4.437,1.276,65.791,65.791,0,0,1-22.2.856,19.217,19.217,0,0,1-4.523-.93,34.138,34.138,0,0,1,4.589.326,88.9,88.9,0,0,0,22.024-.849,34.248,34.248,0,0,1,4.549-.679" transform="translate(62.068 94.823)" fill="#263238"/>
              <path id="Trazado_878197" data-name="Trazado 878197" d="M45.845,126.582c-.237,0-.373-4.017-.3-8.963s.32-8.957.557-8.953.373,4.017.3,8.965-.32,8.955-.557,8.952" transform="translate(29.539 70.509)" fill="#263238"/>
              <g id="Grupo_1101080" data-name="Grupo 1101080" transform="translate(169.407 129.05)" opacity="0.3">
                <g id="Grupo_1101079" data-name="Grupo 1101079">
                  <g id="Grupo_1101078" data-name="Grupo 1101078" clip-path="url(#clip-path-15)">
                    <path id="Trazado_878198" data-name="Trazado 878198" d="M147.455,82.208l-44.2-3.942a7.376,7.376,0,0,0,4.681,9.633,14.31,14.31,0,0,0,11.356,21.34,13.223,13.223,0,0,1,3.524.439c2.45.882,3.623,3.573,5.093,5.722a13.386,13.386,0,0,0,8.241,5.717,9.773,9.773,0,0,0,9.3-3.085c2.165-2.635,2.528-6.276,2.7-9.682a172.327,172.327,0,0,0-.686-26.139" transform="translate(-102.743 -78.266)"/>
                  </g>
                </g>
              </g>
              <g id="Grupo_1101083" data-name="Grupo 1101083" transform="translate(115.986 162.091)" opacity="0.3">
                <g id="Grupo_1101082" data-name="Grupo 1101082">
                  <g id="Grupo_1101081" data-name="Grupo 1101081" clip-path="url(#clip-path-16)">
                    <path id="Trazado_878199" data-name="Trazado 878199" d="M70.343,130.235a31.221,31.221,0,0,0,24.992-31.93c-9.253,10.033-17.057,22.889-24.992,31.93" transform="translate(-70.344 -98.305)"/>
                  </g>
                </g>
              </g>
              <path id="Trazado_878200" data-name="Trazado 878200" d="M157.937,80.653l-37.721-41.98c1.38,10.653-2.635,21.254-7.458,30.852-2.745,5.463-5.809,11.961-2.925,17.353-2.356,2.628-4.747,5.308-6.231,8.51s-1.957,7.064-.406,10.233,5.489,5.248,8.783,3.982a11.506,11.506,0,0,0,15.87,14.274,18.247,18.247,0,0,0,7.054,10.99c3.684,2.5,8.8,3.088,12.635.826s5.783-7.578,3.725-11.527c8.3-1.835,13.484-10.78,13.73-19.277s-3.322-16.6-7.057-24.235" transform="translate(66.337 25.093)" fill="#263238"/>
              <path id="Trazado_878201" data-name="Trazado 878201" d="M92.307,31.743c.01.028-.2.112-.623.249a5.255,5.255,0,0,1-1.921.134,7.628,7.628,0,0,1-5.71-3.929,7.376,7.376,0,0,1-.79-4.869A9.879,9.879,0,0,1,85.855,18.3a10.735,10.735,0,0,1,5.413-3.11,14.539,14.539,0,0,1,6.688.068,18.676,18.676,0,0,1,3.674,1.3l-.58.226a15.455,15.455,0,0,1,7.9-8.142,14.89,14.89,0,0,1,14.706,1.52,9.931,9.931,0,0,1,1.265,1.064c.265.269.394.417.374.437-.048.054-.625-.481-1.814-1.243a15.569,15.569,0,0,0-5.534-2.167,14.261,14.261,0,0,0-8.681,1.08,14.849,14.849,0,0,0-7.426,7.769l-.17.419-.411-.195a18.1,18.1,0,0,0-3.5-1.237,13.856,13.856,0,0,0-6.3-.086,10.007,10.007,0,0,0-5.037,2.838,9.232,9.232,0,0,0-2.463,4.61,6.792,6.792,0,0,0,.625,4.457,7.414,7.414,0,0,0,5.217,3.885,8.787,8.787,0,0,0,2.5-.051" transform="translate(53.953 4.774)" fill="#455a64"/>
              <path id="Trazado_878202" data-name="Trazado 878202" d="M151.78,55.146c-.068-.033.317-.778.719-2.224a14.925,14.925,0,0,0,.333-6.3,13.6,13.6,0,0,0-4.417-8.135,14.317,14.317,0,0,0-10.8-3.517l-.632.066.178-.613a16.951,16.951,0,0,0,.648-3.875,17.585,17.585,0,0,0-4.1-12.16,16.887,16.887,0,0,0-9.072-5.428,18.184,18.184,0,0,0-7.253-.224c-1.7.307-2.613.661-2.641.582a2.22,2.22,0,0,1,.638-.308,12.638,12.638,0,0,1,1.937-.6,17.695,17.695,0,0,1,16.991,5.466,18.182,18.182,0,0,1,4.355,12.718,17.7,17.7,0,0,1-.691,4.078l-.453-.546a14.944,14.944,0,0,1,11.4,3.8,14,14,0,0,1,4.478,8.617,14.3,14.3,0,0,1-.6,6.475,9.894,9.894,0,0,1-.689,1.618c-.193.351-.3.528-.328.516" transform="translate(74.453 7.775)" fill="#455a64"/>
              <path id="Trazado_878203" data-name="Trazado 878203" d="M103.011,27.653c-.021.036-.435-.115-1.054-.605A7.359,7.359,0,0,1,99.94,24.4a8.648,8.648,0,0,1-.679-4.9,9.209,9.209,0,0,1,2.958-5.29,10.468,10.468,0,0,1,5.464-2.6,11.99,11.99,0,0,1,7.944,1.636c.661.412.976.711.946.752a31.545,31.545,0,0,0-4.12-1.477,12.106,12.106,0,0,0-4.642-.129,10.054,10.054,0,0,0-5.016,2.457,8.69,8.69,0,0,0-2.755,4.785,8.4,8.4,0,0,0,.458,4.531,10.538,10.538,0,0,0,2.511,3.489" transform="translate(64.34 7.452)" fill="#455a64"/>
              <path id="Trazado_878204" data-name="Trazado 878204" d="M117.832,99.83c-.018.023-.2-.087-.526-.323a10.765,10.765,0,0,1-1.34-1.151,15.475,15.475,0,0,1-3.8-15.1,15.89,15.89,0,0,1,7.412-9.087,15.04,15.04,0,0,1,4.633-1.692l-.237.7a12,12,0,0,1-2.881-9.595,11.191,11.191,0,0,1,3.939-7.029,11.372,11.372,0,0,1,4.8-2.412,7.63,7.63,0,0,1,1.433-.206c.33-.012.5-.007.5.021.007.069-.679.125-1.858.477A11.948,11.948,0,0,0,125.4,56.98a10.774,10.774,0,0,0-3.566,6.706,11.342,11.342,0,0,0,2.767,8.924l.51.564-.745.14A14.323,14.323,0,0,0,120,74.921a15.283,15.283,0,0,0-7.077,8.571,14.928,14.928,0,0,0,.157,9.171,16.2,16.2,0,0,0,3.131,5.466c1,1.123,1.674,1.637,1.622,1.7" transform="translate(72.379 34.995)" fill="#455a64"/>
              <path id="Trazado_878205" data-name="Trazado 878205" d="M121.244,27.846l-1.177-5.323A38.875,38.875,0,0,0,116.279,47.5c.727,3.923,2.033,8.131.335,11.74-1.161,2.465-3.538,4.153-4.9,6.513-1.723,2.986-.452,10.851-.9,12.4-1.007,3.529-4.424,5.781-5.229,10.043s.219,9.412,4.048,11.45c7.209-11.89,14.586-24.245,16.282-38.046,1.4-11.366-1.194-22.85-4.678-33.759" transform="translate(68.347 14.614)" fill="#263238"/>
              <path id="Trazado_878206" data-name="Trazado 878206" d="M134.294,55.464a1.621,1.621,0,0,1-.615.035,13.23,13.23,0,0,1-1.751-.183,12.037,12.037,0,0,1-5.9-2.656,9.151,9.151,0,0,1-2.58-3.749,6.989,6.989,0,0,1,.089-5.243,6.405,6.405,0,0,1,4.452-3.708,4.668,4.668,0,0,1,3.176.453,2.975,2.975,0,0,1,1.54,2.994,2.424,2.424,0,0,1-.968,1.557,3.2,3.2,0,0,1-1.66.524A6.175,6.175,0,0,1,127,44.753a14.763,14.763,0,0,1-4.51-3.562,14.591,14.591,0,0,1-2.43-15.26,12.039,12.039,0,0,1,.813-1.563c.223-.336.35-.5.374-.49.068.038-.368.762-.876,2.175a15.3,15.3,0,0,0-.843,6.215A14.444,14.444,0,0,0,127.378,44a5.382,5.382,0,0,0,2.65.633,1.754,1.754,0,0,0,1.824-1.365,2.12,2.12,0,0,0-1.116-2.117,3.857,3.857,0,0,0-2.592-.368,5.636,5.636,0,0,0-3.89,3.209,6.289,6.289,0,0,0-.137,4.681,8.658,8.658,0,0,0,2.315,3.535A12.416,12.416,0,0,0,132,54.989c1.463.34,2.305.4,2.3.475" transform="translate(77.153 15.493)" fill="#455a64"/>
            </g>
          </g>
        </g>
      </g>
    </g>
  </g>
</svg>
