<svg xmlns="http://www.w3.org/2000/svg" width="59.588" height="59.596" viewBox="0 0 59.588 59.596">
  <g id="_17" data-name="17" transform="translate(-8 -7.938)">
    <path id="Trazado_879858" data-name="Trazado 879858" d="M63.744,22.362H62.5a8.65,8.65,0,1,0-12.881,0H37.794V12.751a.961.961,0,0,0-.961-.961H32.989a.961.961,0,0,0-.961.961v9.611h-.961V8.906a.961.961,0,0,0-.961-.961H26.261a.961.961,0,0,0-.961.961V22.362h-.961V15.634a.961.961,0,0,0-.961-.961H19.533a.961.961,0,0,0-.961.961v6.728H11.844A3.849,3.849,0,0,0,8,26.206V55.039a3.849,3.849,0,0,0,3.844,3.844H31.655l-1.282,3.844H27.222a.961.961,0,0,0-.961.961v1.922H16.65a.961.961,0,1,0,0,1.922H58.938a.961.961,0,1,0,0-1.922H49.327V63.689a.961.961,0,0,0-.961-.961H45.215l-1.282-3.844H63.744a3.849,3.849,0,0,0,3.844-3.844V26.206A3.849,3.849,0,0,0,63.744,22.362ZM57.016,9.937a6.741,6.741,0,0,1,5.7,5.7h-5.7Zm-.563,7.619h6.26a6.723,6.723,0,0,1-10.685,4.425ZM49.327,16.6a6.738,6.738,0,0,1,5.767-6.658V16.2l-4.425,4.425A6.693,6.693,0,0,1,49.327,16.6ZM33.95,13.712h1.922V31.973H33.95ZM31.066,24.284h.961v7.689h-.961ZM27.222,9.868h1.922V31.973H27.222ZM24.339,24.284H25.3v7.689h-.961ZM20.494,16.6h1.922V31.973H20.494ZM47.405,64.65v.961H28.183V64.65ZM32.4,62.728l1.282-3.844h8.225l1.282,3.844Zm33.266-7.689a1.925,1.925,0,0,1-1.922,1.922h-51.9a1.925,1.925,0,0,1-1.922-1.922V53.117H65.666Zm0-3.844H9.922V26.206a1.925,1.925,0,0,1,1.922-1.922h6.728v7.689h-.961V26.206a.961.961,0,0,0-.961-.961H12.806a.961.961,0,0,0-.961.961v6.728a.961.961,0,0,0,.961.961H43.561a.961.961,0,0,0,.961-.961V26.206a.961.961,0,0,0-.961-.961H39.716a.961.961,0,0,0-.961.961v5.767h-.961V24.284H52.1a8.618,8.618,0,0,0,7.91,0h3.734a1.925,1.925,0,0,1,1.922,1.922ZM15.689,27.167v4.806H13.767V27.167Zm24.989,4.806V27.167H42.6v4.806Z" transform="translate(0 0)" fill="#12263f"/>
    <path id="Trazado_879859" data-name="Trazado 879859" d="M46.728,392H40.961a.961.961,0,1,0,0,1.922h5.767a.961.961,0,0,0,0-1.922Z" transform="translate(-28.156 -337.922)" fill="#12263f"/>
    <path id="Trazado_879860" data-name="Trazado 879860" d="M113.922,392h-.961a.961.961,0,1,0,0,1.922h.961a.961.961,0,0,0,0-1.922Z" transform="translate(-91.506 -337.922)" fill="#12263f"/>
    <path id="Trazado_879861" data-name="Trazado 879861" d="M336.961,165.767a.958.958,0,0,0,.68-.281l3.563-3.563h8.252a.961.961,0,1,0,0-1.922h-8.65a.961.961,0,0,0-.68.282l-3.844,3.844a.961.961,0,0,0,.68,1.641Z" transform="translate(-288.594 -133.794)" fill="#12263f"/>
    <path id="Trazado_879862" data-name="Trazado 879862" d="M88.99,246.728a2.883,2.883,0,0,0-2.493,1.438L76.436,242.3a2.883,2.883,0,0,0-5.66.072l-10.125,7.594a2.881,2.881,0,0,0-4.983.262l-10.007-4.17a2.885,2.885,0,1,0-.235,1.983l10.007,4.17a2.883,2.883,0,0,0,5.639-.159L71.2,244.455a2.88,2.88,0,0,0,4.909-.126l10.062,5.87a2.883,2.883,0,1,0,2.823-3.471Zm-45.172,0a.964.964,0,1,1-.965-.966.963.963,0,0,1,.965.966Zm14.417,5.762a.962.962,0,0,1-.961-.961v0a.961.961,0,1,1,.961.966Zm15.378-8.65a.961.961,0,1,1,.961-.961.961.961,0,0,1-.961.961Zm15.378,6.728a.961.961,0,1,1,.961-.961A.961.961,0,0,1,88.99,250.572Z" transform="translate(-28.13 -204.183)" fill="#12263f"/>
    <path id="Trazado_879863" data-name="Trazado 879863" d="M327.689,344h-6.728a.961.961,0,1,0,0,1.922h6.728a.961.961,0,1,0,0-1.922Z" transform="translate(-274.517 -295.688)" fill="#12263f"/>
    <path id="Trazado_879864" data-name="Trazado 879864" d="M355.844,320h-2.883a.961.961,0,0,0,0,1.922h2.883a.961.961,0,1,0,0-1.922Z" transform="translate(-302.673 -274.572)" fill="#12263f"/>
    <path id="Trazado_879865" data-name="Trazado 879865" d="M40.961,233.922H51.533a.961.961,0,0,0,0-1.922H40.961a.961.961,0,0,0,0,1.922Z" transform="translate(-28.156 -197.144)" fill="#12263f"/>
    <path id="Trazado_879866" data-name="Trazado 879866" d="M152.961,233.922h.961a.961.961,0,0,0,0-1.922h-.961a.961.961,0,0,0,0,1.922Z" transform="translate(-126.7 -197.144)" fill="#12263f"/>
  </g>
</svg>
