<svg xmlns="http://www.w3.org/2000/svg" width="73" height="73" viewBox="0 0 73 73">
  <g id="Grupo_1101804" data-name="Grupo 1101804" transform="translate(-300 -5785.639)">
    <g id="Grupo_1101596" data-name="Grupo 1101596" transform="translate(300 5785.639)">
      <circle id="Elipse_11489" data-name="Elipse 11489" cx="36.5" cy="36.5" r="36.5" fill="#3ba935"/>
    </g>
    <g id="aprendizaje" transform="translate(287.475 5791.633)">
      <g id="Grupo_1101802" data-name="Grupo 1101802" transform="translate(24.872 0.808)">
        <path id="Trazado_879867" data-name="Trazado 879867" d="M78.862,194.154a1.007,1.007,0,0,1,1.007,1.007v28.2a4.164,4.164,0,0,1-4.164,4.164H35.727a4.164,4.164,0,0,1-4.164-4.164v-28.2a1.007,1.007,0,0,1,1.007-1.007Z" transform="translate(-31.564 -174.035)" fill="#b3e5ee"/>
        <path id="Trazado_879868" data-name="Trazado 879868" d="M59.879,194.154v28.457a3.419,3.419,0,0,0,3.415,3.416H98.773a3.419,3.419,0,0,0,3.415-3.416V194.154Z" transform="translate(-56.827 -174.035)" fill="#86d7e5"/>
        <path id="Trazado_879869" data-name="Trazado 879869" d="M117.02,175.283H80.735a.856.856,0,0,0-.856.857v25.747l11.693,4.271,7.305.84,17.509-3.161,1.489-1.951V176.14A.856.856,0,0,0,117.02,175.283Z" transform="translate(-74.671 -157.198)" fill="#f9f7f7"/>
        <path id="Trazado_879870" data-name="Trazado 879870" d="M248.639,175.283h1.617v31.751h-1.617Z" transform="translate(-225.241 -157.198)" fill="#f8f3f2"/>
        <path id="Trazado_879871" data-name="Trazado 879871" d="M163.57,175.283l4.741,7.382v.573a2.809,2.809,0,0,0,1.194,2.3v.9a3.421,3.421,0,0,0,3.417,3.417h1.251a3.421,3.421,0,0,0,3.417-3.417v-.9a2.809,2.809,0,0,0,1.194-2.3v-.573l4.741-7.382Z" transform="translate(-149.341 -157.198)" fill="#f8f3f2"/>
        <g id="Grupo_1101800" data-name="Grupo 1101800" transform="translate(5.208)">
          <g id="Grupo_1101799" data-name="Grupo 1101799" transform="translate(0 18.085)">
            <g id="XMLID_248_">
              <g id="Grupo_1101798" data-name="Grupo 1101798">
                <g id="Grupo_1101796" data-name="Grupo 1101796">
                  <path id="Trazado_879872" data-name="Trazado 879872" d="M84.367,202.8V175.283H80.735a.856.856,0,0,0-.856.857v25.747l4.633,1.692A2.2,2.2,0,0,1,84.367,202.8Z" transform="translate(-79.879 -175.283)" fill="#f8f3f2"/>
                </g>
                <g id="Grupo_1101797" data-name="Grupo 1101797" transform="translate(0 26.604)">
                  <path id="Trazado_879873" data-name="Trazado 879873" d="M98.878,427.214v.036H81.138a1.259,1.259,0,0,1-1.259-1.26V422.1H93.766a5.111,5.111,0,0,1,5.111,5.111Z" transform="translate(-79.879 -422.103)" fill="#f2eae7"/>
                  <path id="Trazado_879874" data-name="Trazado 879874" d="M275.138,422.1v3.887a1.259,1.259,0,0,1-1.259,1.26h-17.74v-.036a5.111,5.111,0,0,1,5.111-5.111Z" transform="translate(-237.14 -422.103)" fill="#f2eae7"/>
                </g>
              </g>
            </g>
          </g>
          <path id="Trazado_879875" data-name="Trazado 879875" d="M238.486,248.154h-4.851v3.3a1.8,1.8,0,0,0,1.8,1.8h1.251a1.8,1.8,0,0,0,1.8-1.8Z" transform="translate(-217.062 -222.214)" fill="#a59ca6"/>
          <path id="Trazado_879876" data-name="Trazado 879876" d="M238.486,248.154h-4.851v3.3a1.8,1.8,0,0,0,1.8,1.8h1.251a1.8,1.8,0,0,0,1.6-.976,1.815,1.815,0,0,1-.211.013h-1.251a1.8,1.8,0,0,1-1.7-1.22.411.411,0,0,1,.389-.544h2.978v-2.371Z" transform="translate(-217.062 -222.214)" fill="#8f8390"/>
          <path id="Trazado_879877" data-name="Trazado 879877" d="M177.9,18.25a10.751,10.751,0,1,0-19.544,6.187l5.173,8.054v1.047a1.194,1.194,0,0,0,1.194,1.194h4.851a1.194,1.194,0,0,0,1.194-1.194V32.491l5.173-8.054A10.7,10.7,0,0,0,177.9,18.25Z" transform="translate(-148.148 -7.499)" fill="#fbe88c"/>
          <path id="Trazado_879878" data-name="Trazado 879878" d="M162.888,25.81a11.838,11.838,0,0,1-2.047-6.688,11.546,11.546,0,0,1,8.766-11.339,10.753,10.753,0,0,0-11.252,16.655l5.173,8.054v1.047a1.194,1.194,0,0,0,1.194,1.194h3.073Z" transform="translate(-148.148 -7.5)" fill="#fbe372"/>
        </g>
        <g id="Grupo_1101801" data-name="Grupo 1101801" transform="translate(5.208 44.689)">
          <path id="Trazado_879879" data-name="Trazado 879879" d="M256.541,451.046a5.1,5.1,0,0,0-.4,1.992v.036h17.74a1.259,1.259,0,0,0,1.259-1.26v-.767h-18.6Z" transform="translate(-237.139 -447.926)" fill="#ede2dd"/>
          <path id="Trazado_879880" data-name="Trazado 879880" d="M86.578,425.223a2.211,2.211,0,0,1-2.211-2.211V422.1H79.879v3.887a1.259,1.259,0,0,0,1.259,1.26h17.74v-.036a5.1,5.1,0,0,0-.4-1.992Z" transform="translate(-79.879 -422.103)" fill="#ede2dd"/>
        </g>
      </g>
      <g id="Grupo_1101803" data-name="Grupo 1101803" transform="translate(24.064 0)">
        <path id="Trazado_879881" data-name="Trazado 879881" d="M72.171,169.819H68.886v-.369a1.667,1.667,0,0,0-1.665-1.665H60.744a.808.808,0,1,0,0,1.617h6.478a.048.048,0,0,1,.048.048v9.857a.808.808,0,0,0,1.617,0v-7.871h3.284a.2.2,0,0,1,.2.2v28.2a3.359,3.359,0,0,1-3.355,3.355H29.036a3.359,3.359,0,0,1-3.355-3.355v-28.2a.2.2,0,0,1,.2-.2h3.392v27.649a2.07,2.07,0,0,0,2.067,2.067h35.48a2.07,2.07,0,0,0,2.067-2.067v-16.33a.808.808,0,1,0-1.617,0v11.634H54.19a5.9,5.9,0,0,0-4.3,1.861V185.792a.808.808,0,0,0-1.617,0v10.457a5.9,5.9,0,0,0-4.3-1.861H40.294a.808.808,0,0,0,0,1.617h3.673a4.309,4.309,0,0,1,4.232,3.53H31.339a.451.451,0,0,1-.451-.451v-3.079h5.958a.808.808,0,0,0,0-1.617H30.888V169.45a.048.048,0,0,1,.048-.048h6.478a.808.808,0,0,0,0-1.617H30.936a1.667,1.667,0,0,0-1.665,1.665v.369H25.879a1.817,1.817,0,0,0-1.815,1.815v28.2a4.977,4.977,0,0,0,4.972,4.972H69.014a4.977,4.977,0,0,0,4.972-4.972v-28.2A1.817,1.817,0,0,0,72.171,169.819ZM54.19,196.005H67.269v3.079a.451.451,0,0,1-.451.451H49.958a4.309,4.309,0,0,1,4.232-3.53Z" transform="translate(-24.064 -149.7)"/>
        <path id="Trazado_879882" data-name="Trazado 879882" d="M150.08,11.343a.809.809,0,0,0,.881-.729,9.943,9.943,0,1,1,18.03,6.667l-.02.029L163.8,25.363a.809.809,0,0,0-.128.437v1.047a.386.386,0,0,1-.385.385h-.053l.515-8.739h.921a2.393,2.393,0,0,0,2.39-2.39v-.1a2.39,2.39,0,0,0-4.776-.141l-.06,1.012h-2.835l-.06-1.012a2.39,2.39,0,0,0-4.776.141v.1a2.392,2.392,0,0,0,2.39,2.39h.921l.515,8.733a.385.385,0,0,1-.33-.38V25.8a.809.809,0,0,0-.128-.437l-5.173-8.054-.019-.029a9.85,9.85,0,0,1-1.557-3.485.808.808,0,1,0-1.576.362,11.46,11.46,0,0,0,1.8,4.04l5.036,7.84v.81a2,2,0,0,0,1.194,1.83v1.367a2.612,2.612,0,0,0,2.609,2.609h1.251a2.612,2.612,0,0,0,2.609-2.609V28.678a2,2,0,0,0,1.194-1.83v-.81l5.036-7.84a11.56,11.56,0,1,0-20.971-7.736.808.808,0,0,0,.729.881ZM163.9,15.961a.773.773,0,0,1,1.545.045v.1a.774.774,0,0,1-.773.773h-.826Zm-6.954.916a.774.774,0,0,1-.773-.773v-.1a.773.773,0,0,1,1.545-.045l.054.916Zm5.185,1.617-.515,8.739H160l-.515-8.739Zm.349,11.551a.993.993,0,0,1-.992.992h-1.251a.993.993,0,0,1-.992-.992v-1.2h3.235v1.2Z" transform="translate(-135.843 0)"/>
        <path id="Trazado_879883" data-name="Trazado 879883" d="M380.819,30.749a.805.805,0,0,0,.533-.2L383.116,29a.808.808,0,0,0-1.067-1.215l-1.764,1.549a.808.808,0,0,0,.534,1.416Z" transform="translate(-341.644 -24.61)"/>
        <path id="Trazado_879884" data-name="Trazado 879884" d="M380.286,90.463l1.764,1.549a.808.808,0,0,0,1.067-1.215l-1.764-1.549a.808.808,0,0,0-1.067,1.215Z" transform="translate(-341.644 -79.449)"/>
        <path id="Trazado_879885" data-name="Trazado 879885" d="M101.178,29l1.764,1.549a.808.808,0,0,0,1.067-1.215l-1.764-1.549A.808.808,0,0,0,101.178,29Z" transform="translate(-92.621 -24.609)"/>
        <path id="Trazado_879886" data-name="Trazado 879886" d="M101.712,92.214a.806.806,0,0,0,.533-.2l1.764-1.549a.808.808,0,0,0-1.067-1.215L101.179,90.8a.808.808,0,0,0,.534,1.416Z" transform="translate(-92.621 -79.45)"/>
        <path id="Trazado_879887" data-name="Trazado 879887" d="M110.483,253.462a.808.808,0,0,0-.808-.808h-7.963a.808.808,0,0,0,0,1.617h7.963A.808.808,0,0,0,110.483,253.462Z" transform="translate(-92.621 -225.421)"/>
        <path id="Trazado_879888" data-name="Trazado 879888" d="M124.225,290.8h-8.966a.808.808,0,0,0,0,1.617h8.966a.808.808,0,0,0,0-1.617Z" transform="translate(-104.708 -259.46)"/>
        <path id="Trazado_879889" data-name="Trazado 879889" d="M124.225,327.346h-8.966a.808.808,0,0,0,0,1.617h8.966a.808.808,0,0,0,0-1.617Z" transform="translate(-104.708 -292.062)"/>
        <path id="Trazado_879890" data-name="Trazado 879890" d="M124.225,363.887h-8.966a.808.808,0,1,0,0,1.617h8.966a.808.808,0,1,0,0-1.617Z" transform="translate(-104.708 -324.664)"/>
        <path id="Trazado_879891" data-name="Trazado 879891" d="M332.076,253.462a.808.808,0,0,0-.808-.808H323.3a.808.808,0,0,0,0,1.617h7.963A.808.808,0,0,0,332.076,253.462Z" transform="translate(-290.329 -225.421)"/>
        <path id="Trazado_879892" data-name="Trazado 879892" d="M309.421,290.8h-8.966a.808.808,0,0,0,0,1.617h8.966a.808.808,0,1,0,0-1.617Z" transform="translate(-269.943 -259.46)"/>
        <path id="Trazado_879893" data-name="Trazado 879893" d="M309.421,327.346h-8.966a.808.808,0,0,0,0,1.617h8.966a.808.808,0,1,0,0-1.617Z" transform="translate(-269.943 -292.062)"/>
        <path id="Trazado_879894" data-name="Trazado 879894" d="M309.421,363.887h-8.966a.808.808,0,1,0,0,1.617h8.966a.808.808,0,1,0,0-1.617Z" transform="translate(-269.943 -324.664)"/>
      </g>
    </g>
  </g>
</svg>
