<svg xmlns="http://www.w3.org/2000/svg" width="73" height="73" viewBox="0 0 73 73">
  <g id="_3" data-name="3" transform="translate(-300 -1002)">
    <g id="Grupo_1099861" data-name="Grupo 1099861" transform="translate(300 1002)">
      <circle id="Elipse_11489" data-name="Elipse 11489" cx="36.5" cy="36.5" r="36.5" fill="#3ba935"/>
    </g>
    <g id="analisis" transform="translate(303.994 1016.404)">
      <g id="Grupo_1101782" data-name="Grupo 1101782" transform="translate(8.004 0.824)">
        <g id="Grupo_1101778" data-name="Grupo 1101778" transform="translate(0)">
          <path id="Trazado_879807" data-name="Trazado 879807" d="M17.317,8.01H62.056a2.138,2.138,0,0,1,2.132,2.132V44.9a2.138,2.138,0,0,1-2.132,2.132H17.317A2.138,2.138,0,0,1,15.185,44.9V10.142A2.138,2.138,0,0,1,17.317,8.01Z" transform="translate(-15.185 -8.01)" fill="#eceff1" fill-rule="evenodd"/>
          <path id="Trazado_879808" data-name="Trazado 879808" d="M455.861,8.01H457.9a2.138,2.138,0,0,1,2.132,2.132V44.9a2.138,2.138,0,0,1-2.132,2.132h-2.035a2.138,2.138,0,0,0,2.132-2.132V10.142A2.138,2.138,0,0,0,455.861,8.01Z" transform="translate(-411.025 -8.01)" fill="#d1d1d6" fill-rule="evenodd"/>
          <path id="Trazado_879809" data-name="Trazado 879809" d="M17.317,8.01H62.056a2.138,2.138,0,0,1,2.132,2.132v5.481h-49V10.142A2.138,2.138,0,0,1,17.317,8.01Z" transform="translate(-15.185 -8.01)" fill="#a79ba7" fill-rule="evenodd"/>
          <path id="Trazado_879810" data-name="Trazado 879810" d="M455.861,8.01H457.9a2.138,2.138,0,0,1,2.132,2.132v5.481h-2.035V10.142A2.138,2.138,0,0,0,455.861,8.01Z" transform="translate(-411.025 -8.01)" fill="#837683" fill-rule="evenodd"/>
          <path id="Trazado_879811" data-name="Trazado 879811" d="M61.179,35.67a1.246,1.246,0,1,0-1.246-1.246A1.248,1.248,0,0,0,61.179,35.67Z" transform="translate(-55.38 -30.617)" fill="#fe646f" fill-rule="evenodd"/>
          <path id="Trazado_879812" data-name="Trazado 879812" d="M108.183,35.67a1.246,1.246,0,1,0-1.246-1.246A1.248,1.248,0,0,0,108.183,35.67Z" transform="translate(-97.602 -30.617)" fill="#ffe177" fill-rule="evenodd"/>
          <path id="Trazado_879813" data-name="Trazado 879813" d="M155.186,35.67a1.246,1.246,0,1,0-1.246-1.246A1.248,1.248,0,0,0,155.186,35.67Z" transform="translate(-139.823 -30.617)" fill="#6cf5c2" fill-rule="evenodd"/>
        </g>
        <g id="Grupo_1101779" data-name="Grupo 1101779" transform="translate(4.016 9.593)">
          <circle id="Elipse_11630" data-name="Elipse 11630" cx="6.924" cy="6.924" r="6.924" transform="matrix(0.94, -0.34, 0.34, 0.94, 0, 4.708)" fill="#60b7ff"/>
          <circle id="Elipse_11631" data-name="Elipse 11631" cx="6.063" cy="6.063" r="6.063" transform="matrix(0.94, -0.34, 0.34, 0.94, 1.101, 5.224)" fill="#8ac9fe"/>
          <path id="Trazado_879814" data-name="Trazado 879814" d="M141.877,189.393H148.8a6.921,6.921,0,0,1-3.461,6Z" transform="translate(-133.003 -180.532)" fill="#fd4755" fill-rule="evenodd"/>
          <path id="Trazado_879815" data-name="Trazado 879815" d="M141.877,189.393h6.063a6.061,6.061,0,0,1-3.031,5.252Z" transform="translate(-133.003 -180.532)" fill="#fe646f" fill-rule="evenodd"/>
          <path id="Trazado_879816" data-name="Trazado 879816" d="M148.8,128.267h-6.924v-6.924A6.924,6.924,0,0,1,148.8,128.267Z" transform="translate(-133.002 -119.405)" fill="#ffd064" fill-rule="evenodd"/>
          <path id="Trazado_879817" data-name="Trazado 879817" d="M147.939,135.861h-6.063V129.8A6.063,6.063,0,0,1,147.939,135.861Z" transform="translate(-133.002 -127)" fill="#ffe177" fill-rule="evenodd"/>
        </g>
        <g id="Grupo_1101780" data-name="Grupo 1101780" transform="translate(31.007 19.202)">
          <path id="Trazado_879818" data-name="Trazado 879818" d="M320.45,246.969h1.363a.51.51,0,0,1,.509.509v8.057a.51.51,0,0,1-.509.509H320.45a.51.51,0,0,1-.509-.509v-8.057A.51.51,0,0,1,320.45,246.969Z" transform="translate(-319.941 -241.859)" fill="#ffe177" fill-rule="evenodd"/>
          <path id="Trazado_879819" data-name="Trazado 879819" d="M328.341,246.969h1.017a.51.51,0,0,1,.509.509v8.057a.51.51,0,0,1-.509.509h-1.017a.51.51,0,0,0,.509-.509v-8.057A.51.51,0,0,0,328.341,246.969Z" transform="translate(-327.486 -241.859)" fill="#ffd064" fill-rule="evenodd"/>
          <path id="Trazado_879820" data-name="Trazado 879820" d="M370.789,221.854h1.363a.51.51,0,0,1,.509.509v10.612a.51.51,0,0,1-.509.509h-1.363a.51.51,0,0,1-.509-.509V222.363A.51.51,0,0,1,370.789,221.854Z" transform="translate(-365.158 -219.299)" fill="#6cf5c2" fill-rule="evenodd"/>
          <path id="Trazado_879821" data-name="Trazado 879821" d="M378.68,221.854H379.7a.51.51,0,0,1,.509.509v10.612a.51.51,0,0,1-.509.509H378.68a.51.51,0,0,0,.509-.509V222.363A.51.51,0,0,0,378.68,221.854Z" transform="translate(-372.704 -219.299)" fill="#00e499" fill-rule="evenodd"/>
          <path id="Trazado_879822" data-name="Trazado 879822" d="M421.128,196.74h1.363a.51.51,0,0,1,.509.509v13.167a.51.51,0,0,1-.509.509h-1.363a.51.51,0,0,1-.509-.509V197.249A.51.51,0,0,1,421.128,196.74Z" transform="translate(-410.376 -196.74)" fill="#8ac9fe" fill-rule="evenodd"/>
          <path id="Trazado_879823" data-name="Trazado 879823" d="M429.019,196.74h1.017a.51.51,0,0,1,.509.509v13.167a.51.51,0,0,1-.509.509h-1.017a.51.51,0,0,0,.509-.509V197.249A.51.51,0,0,0,429.019,196.74Z" transform="translate(-417.921 -196.74)" fill="#60b7ff" fill-rule="evenodd"/>
        </g>
        <g id="Grupo_1101781" data-name="Grupo 1101781" transform="translate(10.175 21.856)">
          <path id="Trazado_879824" data-name="Trazado 879824" d="M293.555,392.841a9.075,9.075,0,0,1-1.531,1.685l4.163,4.081,1.585-1.633Z" transform="translate(-274.033 -375.543)" fill="#a79ba7" fill-rule="evenodd"/>
          <path id="Trazado_879825" data-name="Trazado 879825" d="M303.347,392.565a1.045,1.045,0,0,1-.453.608l4.135,4.108.507-.555Z" transform="translate(-283.797 -375.295)" fill="#837683" fill-rule="evenodd"/>
          <path id="Trazado_879826" data-name="Trazado 879826" d="M328.586,430.585l1.789-1.843a.822.822,0,0,0-.018-1.16l-4.954-4.807a.823.823,0,0,0-1.16.017l-1.789,1.843a.823.823,0,0,0,.018,1.16l4.954,4.807A.823.823,0,0,0,328.586,430.585Z" transform="translate(-301.16 -402.225)" fill="#f1ba84" fill-rule="evenodd"/>
          <path id="Trazado_879827" data-name="Trazado 879827" d="M344.458,422.777l4.954,4.807a.822.822,0,0,1,.018,1.16l-1.789,1.843a.812.812,0,0,1-.222.162.823.823,0,0,0,.955-.162l1.789-1.843a.822.822,0,0,0-.018-1.16l-4.954-4.807a.823.823,0,0,0-.937-.145A.809.809,0,0,1,344.458,422.777Z" transform="translate(-320.949 -402.226)" fill="#e3a76f" fill-rule="evenodd"/>
          <ellipse id="Elipse_11632" data-name="Elipse 11632" cx="9.021" cy="9.021" rx="9.021" ry="9.021" transform="translate(0 12.756) rotate(-45)" fill="#8ac9fe"/>
          <path id="Trazado_879828" data-name="Trazado 879828" d="M236.763,259.543a9.021,9.021,0,0,1,0,18.042q-.22,0-.438-.011a9.021,9.021,0,0,0,0-18.02Q236.543,259.543,236.763,259.543Z" transform="translate(-224.001 -255.807)" fill="#60b7ff" fill-rule="evenodd"/>
          <circle id="Elipse_11633" data-name="Elipse 11633" cx="6.478" cy="6.478" r="6.478" transform="translate(4.31 9.249) rotate(-22.514)" fill="#eceff1"/>
          <path id="Trazado_879829" data-name="Trazado 879829" d="M183.441,284.541c.147,0,.293.005.438.015a6.477,6.477,0,0,0,0,12.925c-.145.01-.291.015-.438.015a6.478,6.478,0,1,1,0-12.955Z" transform="translate(-170.679 -278.262)" fill="#d1d1d6" fill-rule="evenodd"/>
        </g>
      </g>
      <path id="Trazado_879830" data-name="Trazado 879830" d="M30.942,41.1a5.664,5.664,0,1,1,5.663-5.663A5.671,5.671,0,0,1,30.942,41.1Zm0-12.955a7.291,7.291,0,1,0,7.291,7.292A7.3,7.3,0,0,0,30.942,28.145ZM42.894,16.833a.814.814,0,0,1-.814.814H34.132a.814.814,0,1,1,0-1.627H42.08A.814.814,0,0,1,42.894,16.833Zm-9.576-3.44a.814.814,0,0,1,.814-.814h15.9a.814.814,0,1,1,0,1.628h-15.9A.814.814,0,0,1,33.318,13.393Zm17.5,20h-.753V20.84h.753Zm.814-14.184H49.255a.813.813,0,0,0-.814.814V34.21a.814.814,0,0,0,.814.814h2.381a.814.814,0,0,0,.814-.814V20.026A.813.813,0,0,0,51.635,19.212ZM45.7,33.4h-.753v-10H45.7Zm.814-11.629H44.133a.814.814,0,0,0-.814.814V34.21a.814.814,0,0,0,.814.814h2.381a.814.814,0,0,0,.813-.814V22.581A.814.814,0,0,0,46.514,21.767ZM17.432,34.141a.814.814,0,0,1-.814.814H13.971a.814.814,0,1,1,0-1.627h2.648A.814.814,0,0,1,17.432,34.141Zm0-3.556a.814.814,0,0,1-.814.814H13.971a.814.814,0,1,1,0-1.627h2.648A.813.813,0,0,1,17.432,30.585Zm7.23-6.5-2.345-3.99,4.631,0A6.109,6.109,0,0,1,24.663,24.083Zm-9.878-4.8a6.109,6.109,0,0,0,8.477,5.633l-3.069-5.219a.815.815,0,0,1-.112-.413V13.224a6.119,6.119,0,0,0-5.3,6.053Zm12.164-.811-5.24,0V13.224A6.121,6.121,0,0,1,26.948,18.467Zm-6.054-6.926a7.738,7.738,0,1,0,7.738,7.737,7.746,7.746,0,0,0-7.738-7.737ZM22.122,4.63a1.246,1.246,0,1,1,1.246,1.246A1.248,1.248,0,0,1,22.122,4.63Zm-4.782,0a1.246,1.246,0,1,1,1.245,1.246A1.248,1.248,0,0,1,17.34,4.63Zm-4.783,0A1.246,1.246,0,1,1,13.8,5.877,1.248,1.248,0,0,1,12.557,4.63Zm42.318,34.4a1.319,1.319,0,0,0,1.318-1.318V9.252H8.819V37.71a1.319,1.319,0,0,0,1.317,1.318H21.786a9.777,9.777,0,0,1-.678-3.59q0-.243.011-.483H19.733a.814.814,0,1,1,0-1.627h1.6a9.838,9.838,0,0,1,.639-1.928H19.733a.814.814,0,1,1,0-1.627h3.174A9.822,9.822,0,0,1,38.2,28.8V25.136a.814.814,0,0,1,.814-.814h2.381a.814.814,0,0,1,.814.814V34.21a.814.814,0,0,1-.814.814h-.625c.006.137.009.275.009.413a9.77,9.77,0,0,1-.679,3.59ZM41.856,43.815l4.954,4.817-1.789,1.842h-.01l-4.953-4.816Zm-2.3.021L37.977,42.3c.151-.155.3-.313.438-.479l1.6,1.547ZM40.578,33.4h-.014a9.743,9.743,0,0,0-.739-2.176V25.95h.753V33.4ZM22.735,35.437a8.207,8.207,0,1,0,8.207-8.208A8.215,8.215,0,0,0,22.735,35.437Zm-12.6-33.8A1.319,1.319,0,0,0,8.819,2.955V7.623H56.193V2.955a1.319,1.319,0,0,0-1.318-1.317H10.136ZM54.875.01H10.136A2.949,2.949,0,0,0,7.191,2.955V37.71a2.948,2.948,0,0,0,2.945,2.946H22.61a9.822,9.822,0,0,0,14.135,2.716L38.529,45.1a1.637,1.637,0,0,0,.4,1.732l4.954,4.807a1.637,1.637,0,0,0,2.31-.036l1.789-1.842a1.637,1.637,0,0,0-.035-2.311l-4.954-4.807a1.633,1.633,0,0,0-1.742-.344l-1.7-1.647H54.875A2.948,2.948,0,0,0,57.82,37.71V2.955A2.948,2.948,0,0,0,54.875.01Z" fill-rule="evenodd"/>
    </g>
  </g>
</svg>
