<svg xmlns="http://www.w3.org/2000/svg" width="68" height="68" viewBox="0 0 68 68">
  <g id="Grupo_1101807" data-name="Grupo 1101807" transform="translate(-218.625 -7034.427)">
    <g id="Grupo_1101621" data-name="Grupo 1101621" transform="translate(1.574 4243.427)">
      <circle id="Elipse_11609" data-name="Elipse 11609" cx="34" cy="34" r="34" transform="translate(217.051 2791)" fill="#3ba935"/>
    </g>
    <g id="flechas" transform="translate(206.72 7042.58)">
      <g id="Grupo_1101805" data-name="Grupo 1101805" transform="translate(24.755 0.707)">
        <path id="Trazado_879895" data-name="Trazado 879895" d="M50.432,206.685l-6.8-6.8L31.548,211.973h5.288L39.1,228.591h11.33Z" transform="translate(-31.548 -181.758)" fill="#ffe07d"/>
        <path id="Trazado_879896" data-name="Trazado 879896" d="M163.876,7.5,151.79,19.586h5.288v21.79l13.6-11.933V19.586h5.288Z" transform="translate(-140.46 -7.5)" fill="#b3e59f"/>
        <path id="Trazado_879897" data-name="Trazado 879897" d="M171.43,97.9l-.755-1.511V73.007l-.044,0a13.481,13.481,0,0,0-9.669,4.909.909.909,0,0,1-1.618-.576V55.6l-7.554,7.554h5.288V97.9Z" transform="translate(-140.46 -51.065)" fill="#95d6a4"/>
        <circle id="Elipse_11634" data-name="Elipse 11634" cx="11.33" cy="11.33" r="11.33" transform="translate(19.64 24.172)" fill="#e5646e"/>
        <path id="Trazado_879898" data-name="Trazado 879898" d="M252.808,310.149a11.33,11.33,0,0,1-8.731-18.551,11.33,11.33,0,1,0,15.952,15.952A11.283,11.283,0,0,1,252.808,310.149Z" transform="translate(-220.328 -264.827)" fill="#db4655"/>
        <path id="Trazado_879899" data-name="Trazado 879899" d="M39.1,272.156V247.984l-7.554,7.554h5.288v16.618Z" transform="translate(-31.548 -225.323)" fill="#ffd064"/>
      </g>
      <g id="Grupo_1101806" data-name="Grupo 1101806" transform="translate(24.048 0)">
        <path id="Trazado_879900" data-name="Trazado 879900" d="M150.284,12.086H146.7l10.38-10.38,10.38,10.38h-3.581a.707.707,0,0,0-.707.707v9.064a.707.707,0,1,0,1.413,0V13.5h4.581a.707.707,0,0,0,.5-1.206L157.582.207a.707.707,0,0,0-1,0L144.5,12.293A.707.707,0,0,0,145,13.5h4.581v34.04a.707.707,0,0,0,1.413,0V12.793A.707.707,0,0,0,150.284,12.086Z" transform="translate(-132.959 0)"/>
        <path id="Trazado_879901" data-name="Trazado 879901" d="M37.34,192.594a.707.707,0,0,0-1,0L24.255,204.68a.707.707,0,0,0,.5,1.207h4.581V221.8a.707.707,0,0,0,1.413,0V205.18a.707.707,0,0,0-.707-.707H26.461l10.38-10.38,1.013,1.013a.707.707,0,1,0,1-1Z" transform="translate(-24.048 -174.259)"/>
        <path id="Trazado_879902" data-name="Trazado 879902" d="M244.505,256.516a12.037,12.037,0,1,0,12.037,12.037A12.051,12.051,0,0,0,244.505,256.516Zm0,22.661a10.624,10.624,0,1,1,10.624-10.624A10.636,10.636,0,0,1,244.505,279.177Z" transform="translate(-212.828 -232.344)"/>
        <path id="Trazado_879903" data-name="Trazado 879903" d="M334.119,315.683a.707.707,0,0,0-.925.378l-4.733,11.278a.707.707,0,1,0,1.3.547l4.733-11.278A.707.707,0,0,0,334.119,315.683Z" transform="translate(-299.726 -285.886)"/>
        <path id="Trazado_879904" data-name="Trazado 879904" d="M302.193,313.188a2.816,2.816,0,1,0-2.8,3.137A2.986,2.986,0,0,0,302.193,313.188Zm-2.8,1.724a1.765,1.765,0,1,1,1.385-1.724A1.584,1.584,0,0,1,299.4,314.912Z" transform="translate(-270.915 -280.835)"/>
        <path id="Trazado_879905" data-name="Trazado 879905" d="M367.233,391.883a3.158,3.158,0,1,0,2.8,3.137A2.986,2.986,0,0,0,367.233,391.883Zm0,4.861a1.765,1.765,0,1,1,1.385-1.724A1.584,1.584,0,0,1,367.233,396.743Z" transform="translate(-332.36 -354.956)"/>
      </g>
    </g>
  </g>
</svg>
