<svg xmlns="http://www.w3.org/2000/svg" width="68" height="68" viewBox="0 0 68 68">
  <g id="Grupo_1101810" data-name="Grupo 1101810" transform="translate(-638.625 -7034.427)">
    <g id="Grupo_1101622" data-name="Grupo 1101622" transform="translate(1.574 4243.427)">
      <circle id="Elipse_11610" data-name="Elipse 11610" cx="34" cy="34" r="34" transform="translate(637.051 2791)" fill="#3ba935"/>
    </g>
    <g id="diagrama-de-venn" transform="translate(646.885 7041.427)">
      <g id="Grupo_1101808" data-name="Grupo 1101808" transform="translate(0.754 0.754)">
        <circle id="Elipse_11635" data-name="Elipse 11635" cx="16.657" cy="16.657" r="16.657" transform="translate(8.329 0)" fill="#0ed290"/>
        <path id="Trazado_879906" data-name="Trazado 879906" d="M243.062,7.5c-.488,0-.97.022-1.447.063a16.657,16.657,0,0,1,0,33.188c.477.041.959.063,1.447.063a16.657,16.657,0,0,0,0-33.315Z" transform="translate(-218.075 -7.5)" fill="#00c285"/>
        <circle id="Elipse_11636" data-name="Elipse 11636" cx="16.657" cy="16.657" r="16.657" transform="translate(0 16.657)" fill="#e2f1fe"/>
        <path id="Trazado_879907" data-name="Trazado 879907" d="M160.226,173.167c-.488,0-.97.022-1.447.063a16.657,16.657,0,0,1,0,33.188c.477.041.959.063,1.447.063a16.657,16.657,0,1,0,0-33.315Z" transform="translate(-143.568 -156.51)" fill="#c4e3ff"/>
        <circle id="Elipse_11637" data-name="Elipse 11637" cx="16.657" cy="16.657" r="16.657" transform="translate(16.657 16.657)" fill="#6c7fd8"/>
        <path id="Trazado_879908" data-name="Trazado 879908" d="M325.892,173.167c-.488,0-.97.022-1.447.063a16.657,16.657,0,0,1,0,33.188c.477.041.959.063,1.447.063a16.657,16.657,0,0,0,0-33.315Z" transform="translate(-292.577 -156.51)" fill="#4f66d0"/>
        <path id="Trazado_879909" data-name="Trazado 879909" d="M108.229,175.4a16.666,16.666,0,0,0-8.191,12.279A16.666,16.666,0,0,1,91.71,175.32a16.679,16.679,0,0,1,16.519.078Z" transform="translate(-83.243 -156.512)" fill="#8ac9fe"/>
        <path id="Trazado_879910" data-name="Trazado 879910" d="M158.919,181.114a21.455,21.455,0,0,0-7.267,12.137,16.677,16.677,0,0,0,2.3,1.571,16.666,16.666,0,0,1,8.191-12.279,16.589,16.589,0,0,0-3.225-1.429Z" transform="translate(-137.158 -163.658)" fill="#60b7ff"/>
        <path id="Trazado_879911" data-name="Trazado 879911" d="M190.921,207.609a16.678,16.678,0,0,1-16.381,0,16.666,16.666,0,0,1,8.191-12.279A16.666,16.666,0,0,1,190.921,207.609Z" transform="translate(-157.745 -176.444)" fill="#ffc344"/>
        <path id="Trazado_879912" data-name="Trazado 879912" d="M248.477,208.858a16.586,16.586,0,0,0,2.779-1.249,16.666,16.666,0,0,0-8.191-12.279,16.688,16.688,0,0,0-1.446.942A16.636,16.636,0,0,1,248.477,208.858Z" transform="translate(-218.08 -176.444)" fill="#f6ab31"/>
        <path id="Trazado_879913" data-name="Trazado 879913" d="M189.827,319.6a16.654,16.654,0,0,1-8.328,14.429,16.682,16.682,0,0,1-8.191-16.579,16.678,16.678,0,0,0,16.381,0A16.661,16.661,0,0,1,189.827,319.6Z" transform="translate(-156.512 -286.285)" fill="#8ac9fe"/>
        <path id="Trazado_879914" data-name="Trazado 879914" d="M251.251,317.45a16.581,16.581,0,0,1-2.78,1.25q.024.447.024.9a16.634,16.634,0,0,1-6.882,13.487,16.675,16.675,0,0,0,1.446.942,16.682,16.682,0,0,0,8.191-16.579Z" transform="translate(-218.075 -286.285)" fill="#60b7ff"/>
        <path id="Trazado_879915" data-name="Trazado 879915" d="M272.52,175.32a16.663,16.663,0,0,1-8.329,12.357A16.666,16.666,0,0,0,256,175.4a16.68,16.68,0,0,1,16.52-.078Z" transform="translate(-231.014 -156.512)" fill="#26a6fe"/>
        <path id="Trazado_879916" data-name="Trazado 879916" d="M340.042,182.121a16.62,16.62,0,0,1-5.881,11.821,16.59,16.59,0,0,1,.332,1.786,16.663,16.663,0,0,0,8.329-12.357A16.584,16.584,0,0,0,340.042,182.121Z" transform="translate(-301.316 -164.563)" fill="#0593fc"/>
      </g>
      <g id="Grupo_1101809" data-name="Grupo 1101809" transform="translate(0 0)">
        <path id="Trazado_879917" data-name="Trazado 879917" d="M75.839,330.169l-.008-.021a.871.871,0,0,0-.808-.541h0a.871.871,0,0,0-.808.543l-.007.017-1.981,5.2a.754.754,0,0,0,1.409.537l.308-.81h2.142c.205.48.293,1.242,1.011,1.3a.755.755,0,0,0,.705-1.021Zm-1.321,3.419.5-1.317.5,1.317Z" transform="translate(-64.92 -296.466)"/>
        <path id="Trazado_879918" data-name="Trazado 879918" d="M232.488,69.93h-1.533a.754.754,0,0,0-.754.754v5.277a.754.754,0,0,0,.754.754h0s1.409-.006,1.8-.006a2.173,2.173,0,0,0,1.427-3.813,1.964,1.964,0,0,0-1.694-2.965Zm0,1.508a.46.46,0,0,1,0,.92h-.779v-.922Zm.268,3.762-1.046,0V73.869h1.046a.666.666,0,1,1,0,1.332Z" transform="translate(-207.055 -62.899)"/>
        <path id="Trazado_879919" data-name="Trazado 879919" d="M384.86,333.539c-.787-.593-1.184.6-2.147.569a1.884,1.884,0,1,1,1.053-3.447.754.754,0,1,0,.844-1.25,3.393,3.393,0,1,0-1.9,6.205,2.878,2.878,0,0,0,1.95-.715A.892.892,0,0,0,384.86,333.539Z" transform="translate(-341.181 -295.768)"/>
        <path id="Trazado_879920" data-name="Trazado 879920" d="M43.064,19.166A17.417,17.417,0,0,0,25.74,0,17.413,17.413,0,0,0,8.39,15.948a.754.754,0,1,0,1.5.125,15.9,15.9,0,0,1,31.751,1.339c0,.325-.011.647-.03.967a17.391,17.391,0,0,0-15.876.406,17.407,17.407,0,1,0,0,30.577A17.41,17.41,0,0,0,43.064,19.166Zm-9-1a15.8,15.8,0,0,1,7.367,1.813,15.932,15.932,0,0,1-6.942,10.7,17.249,17.249,0,0,0-.72-2.577,17.5,17.5,0,0,0-5.52-7.649q-.492-.392-1.012-.748A15.807,15.807,0,0,1,34.069,18.165ZM25.74,33.314q-.367,0-.731-.017l6.532-6.531q.345.665.629,1.366l-5.128,5.128q-.644.052-1.3.054Zm-4.285-.589,8.467-8.467q.441.561.833,1.162L23.083,33.09a15.793,15.793,0,0,1-1.628-.365ZM18.492,31.56l9.423-9.423q.53.466,1.018.978l-9.07,9.07q-.7-.281-1.371-.624Zm.542-2.675a15.985,15.985,0,0,1,6.7-8.358q.508.313.991.663Zm13.679.837a15.784,15.784,0,0,1,.395,1.779,15.789,15.789,0,0,1-3.514,1.34ZM24.234,19.709a17.45,17.45,0,0,0-7.245,10.972,15.883,15.883,0,0,1-6.945-10.7,15.862,15.862,0,0,1,14.19-.269Zm9.835,30.263a15.921,15.921,0,0,1-6.82-1.535,17.435,17.435,0,0,0,7.5-12.777.754.754,0,0,0-1.5-.136A15.9,15.9,0,1,1,8.659,20.8a17.415,17.415,0,0,0,8.087,11.513A17.425,17.425,0,0,0,22.194,46.8a.754.754,0,0,0,1.029-1.1,15.961,15.961,0,0,1-5.057-11.631c0-.326.011-.65.031-.972q.729.352,1.492.636A17.414,17.414,0,0,0,42.82,20.8a15.9,15.9,0,0,1-8.751,29.175Z" transform="translate(0 0)"/>
      </g>
    </g>
  </g>
</svg>
