<svg xmlns="http://www.w3.org/2000/svg" width="505" height="409" viewBox="0 0 505 409">
  <g id="Grupo_1101835" data-name="Grupo 1101835" transform="translate(-181.65 -1934)">
    <path id="Trazado_877504" data-name="Trazado 877504" d="M8.006,0H496.994C501.416,0,505,5.51,505,12.308V396.692c0,6.8-3.584,12.308-8.006,12.308H8.006C3.584,409,0,403.49,0,396.692V12.308C0,5.51,3.584,0,8.006,0Z" transform="translate(181.65 1934)" fill="#e2f4f9"/>
    <g id="Grupo_1101689" data-name="Grupo 1101689" transform="translate(483.701 2114.835)">
      <path id="Trazado_879491" data-name="Trazado 879491" d="M56,108.575V97.591h9L61.126,91h8.787l7.323,12.449L69.913,115.9H61.126l4.308-7.323Z" transform="translate(-55.268 -86.606)" fill="#fac22d"/>
      <path id="Trazado_879492" data-name="Trazado 879492" d="M56.5,402.419a.732.732,0,1,1,.926-.463A.732.732,0,0,1,56.5,402.419Z" transform="translate(-53.806 -375.363)"/>
      <path id="Trazado_879493" data-name="Trazado 879493" d="M96.495,122.425a.732.732,0,1,1,.926-.464A.732.732,0,0,1,96.495,122.425Z" transform="translate(-92.332 -114.407)"/>
      <path id="Trazado_879494" data-name="Trazado 879494" d="M186.495,32.425a.732.732,0,1,1,.926-.464A.732.732,0,0,1,186.495,32.425Z" transform="translate(-175.742 -30.997)"/>
      <path id="Trazado_879496" data-name="Trazado 879496" d="M326.5,462.425a.733.733,0,1,1,.926-.464A.732.732,0,0,1,326.5,462.425Z" transform="translate(-306.23 -437.711)"/>
      <path id="Trazado_879502" data-name="Trazado 879502" d="M60.646,107.362H51.858a.732.732,0,0,1-.631-1.1l3.659-6.219H46.732A.732.732,0,0,1,46,99.307V88.323a.732.732,0,0,1,.732-.732h7.722L51.227,82.1a.732.732,0,0,1,.631-1.1h8.787a.732.732,0,0,1,.631.361L68.6,93.81a.732.732,0,0,1,0,.743L61.277,107A.732.732,0,0,1,60.646,107.362ZM53.139,105.9h7.088l6.892-11.716L60.227,82.465H53.138l3.228,5.487a.732.732,0,0,1-.631,1.1h-8.27v9.52h8.7a.732.732,0,0,1,.631,1.1Z" transform="translate(-46 -77.338)"/>
    </g>
    <g id="Grupo_1101689-2" data-name="Grupo 1101689" transform="translate(346.701 2114.834)">
      <path id="Trazado_879491-2" data-name="Trazado 879491" d="M77.236,108.575V97.59h-9L72.11,91H63.323L56,103.449,63.323,115.9H72.11L67.8,108.575Z" transform="translate(-55.268 -86.606)" fill="#fac22d"/>
      <path id="Trazado_879492-2" data-name="Trazado 879492" d="M56.966,402.419a.732.732,0,1,0-.926-.463A.732.732,0,0,0,56.966,402.419Z" transform="translate(-36.962 -375.363)"/>
      <path id="Trazado_879493-2" data-name="Trazado 879493" d="M96.957,122.425a.732.732,0,1,0-.926-.464A.732.732,0,0,0,96.957,122.425Z" transform="translate(-78.418 -114.407)"/>
      <path id="Trazado_879494-2" data-name="Trazado 879494" d="M186.957,32.425a.732.732,0,1,0-.926-.464A.732.732,0,0,0,186.957,32.425Z" transform="translate(-175.009 -30.997)"/>
      <path id="Trazado_879496-2" data-name="Trazado 879496" d="M326.966,462.425a.733.733,0,1,0-.926-.464A.732.732,0,0,0,326.966,462.425Z" transform="translate(-324.538 -437.711)"/>
      <path id="Trazado_879502-2" data-name="Trazado 879502" d="M54.055,107.362h8.787a.732.732,0,0,0,.631-1.1l-3.659-6.219h8.154a.732.732,0,0,0,.732-.732V88.323a.732.732,0,0,0-.732-.732H60.246L63.474,82.1a.732.732,0,0,0-.631-1.1H54.055a.732.732,0,0,0-.631.361L46.1,93.81a.732.732,0,0,0,0,.743L53.424,107A.732.732,0,0,0,54.055,107.362Zm7.507-1.465H54.474L47.582,94.181l6.892-11.716h7.088l-3.228,5.487a.732.732,0,0,0,.631,1.1h8.27v9.52h-8.7a.732.732,0,0,0-.631,1.1Z" transform="translate(-46 -77.338)"/>
    </g>
    <g id="Grupo_1101689-3" data-name="Grupo 1101689" transform="translate(411.689 2080.359) rotate(-90)">
      <path id="Trazado_879491-3" data-name="Trazado 879491" d="M56,108.575V97.591h9L61.126,91h8.787l7.323,12.449L69.913,115.9H61.126l4.308-7.323Z" transform="translate(-55.268 -86.606)" fill="#fac22d"/>
      <path id="Trazado_879492-3" data-name="Trazado 879492" d="M56.5,402.419a.732.732,0,1,1,.926-.463A.732.732,0,0,1,56.5,402.419Z" transform="translate(-53.806 -375.363)"/>
      <path id="Trazado_879493-3" data-name="Trazado 879493" d="M96.495,122.425a.732.732,0,1,1,.926-.464A.732.732,0,0,1,96.495,122.425Z" transform="translate(-92.332 -114.407)"/>
      <path id="Trazado_879494-3" data-name="Trazado 879494" d="M186.495,32.425a.732.732,0,1,1,.926-.464A.732.732,0,0,1,186.495,32.425Z" transform="translate(-175.742 -30.997)"/>
      <path id="Trazado_879496-3" data-name="Trazado 879496" d="M326.5,462.425a.733.733,0,1,1,.926-.464A.732.732,0,0,1,326.5,462.425Z" transform="translate(-306.23 -437.711)"/>
      <path id="Trazado_879502-3" data-name="Trazado 879502" d="M60.646,107.362H51.858a.732.732,0,0,1-.631-1.1l3.659-6.219H46.732A.732.732,0,0,1,46,99.307V88.323a.732.732,0,0,1,.732-.732h7.722L51.227,82.1a.732.732,0,0,1,.631-1.1h8.787a.732.732,0,0,1,.631.361L68.6,93.81a.732.732,0,0,1,0,.743L61.277,107A.732.732,0,0,1,60.646,107.362ZM53.139,105.9h7.088l6.892-11.716L60.227,82.465H53.138l3.228,5.487a.732.732,0,0,1-.631,1.1h-8.27v9.52h8.7a.732.732,0,0,1,.631,1.1Z" transform="translate(-46 -77.338)"/>
    </g>
    <g id="Grupo_1101689-4" data-name="Grupo 1101689" transform="translate(443.713 2196.496) rotate(90)">
      <path id="Trazado_879491-4" data-name="Trazado 879491" d="M56,108.575V97.591h9L61.126,91h8.787l7.323,12.449L69.913,115.9H61.126l4.308-7.323Z" transform="translate(-55.268 -86.606)" fill="#fac22d"/>
      <path id="Trazado_879492-4" data-name="Trazado 879492" d="M56.5,402.419a.732.732,0,1,1,.926-.463A.732.732,0,0,1,56.5,402.419Z" transform="translate(-53.806 -375.363)"/>
      <path id="Trazado_879493-4" data-name="Trazado 879493" d="M96.495,122.425a.732.732,0,1,1,.926-.464A.732.732,0,0,1,96.495,122.425Z" transform="translate(-92.332 -114.407)"/>
      <path id="Trazado_879494-4" data-name="Trazado 879494" d="M186.495,32.425a.732.732,0,1,1,.926-.464A.732.732,0,0,1,186.495,32.425Z" transform="translate(-175.742 -30.997)"/>
      <path id="Trazado_879496-4" data-name="Trazado 879496" d="M326.5,462.425a.733.733,0,1,1,.926-.464A.732.732,0,0,1,326.5,462.425Z" transform="translate(-306.23 -437.711)"/>
      <path id="Trazado_879502-4" data-name="Trazado 879502" d="M60.646,107.362H51.858a.732.732,0,0,1-.631-1.1l3.659-6.219H46.732A.732.732,0,0,1,46,99.307V88.323a.732.732,0,0,1,.732-.732h7.722L51.227,82.1a.732.732,0,0,1,.631-1.1h8.787a.732.732,0,0,1,.631.361L68.6,93.81a.732.732,0,0,1,0,.743L61.277,107A.732.732,0,0,1,60.646,107.362ZM53.139,105.9h7.088l6.892-11.716L60.227,82.465H53.138l3.228,5.487a.732.732,0,0,1-.631,1.1h-8.27v9.52h8.7a.732.732,0,0,1,.631,1.1Z" transform="translate(-46 -77.338)"/>
    </g>
    <path id="Trazado_880039" data-name="Trazado 880039" d="M51,0A51,51,0,1,1,0,51,51,51,0,0,1,51,0Z" transform="translate(375.701 2087.428)" fill="#10314b"/>
    <path id="Trazado_880040" data-name="Trazado 880040" d="M15.561,17H12.834L8.8,9.922V17H6.061V5.625H8.8L12.826,12.7V5.625h2.734Zm4.391,0H17.311V8.547h2.641Zm-2.8-10.633a1.175,1.175,0,0,1,.406-.922,1.727,1.727,0,0,1,2.109,0,1.175,1.175,0,0,1,.406.922,1.175,1.175,0,0,1-.406.922,1.727,1.727,0,0,1-2.109,0A1.175,1.175,0,0,1,17.154,6.367Zm7.789,7.5,1.336-5.32h2.773L26.295,17H23.607L20.85,8.547h2.781Zm8.984,3.289A4.345,4.345,0,0,1,30.779,16a4.006,4.006,0,0,1-1.2-3.02v-.219a5.191,5.191,0,0,1,.48-2.289,3.516,3.516,0,0,1,1.4-1.535,4.233,4.233,0,0,1,2.188-.543A3.659,3.659,0,0,1,36.459,9.5a4.344,4.344,0,0,1,1.031,3.082V13.6H32.256a1.9,1.9,0,0,0,.617,1.117,1.836,1.836,0,0,0,1.234.406,2.366,2.366,0,0,0,1.953-.875l1.2,1.422a3.363,3.363,0,0,1-1.395,1.082A4.713,4.713,0,0,1,33.928,17.156Zm-.3-6.734q-1.156,0-1.375,1.531h2.656v-.2a1.3,1.3,0,0,0-.32-.98A1.275,1.275,0,0,0,33.631,10.422ZM41.326,17H38.686V5h2.641Zm5.711.156A4.345,4.345,0,0,1,43.889,16a4.006,4.006,0,0,1-1.2-3.02v-.219a5.191,5.191,0,0,1,.48-2.289,3.516,3.516,0,0,1,1.4-1.535,4.233,4.233,0,0,1,2.188-.543A3.659,3.659,0,0,1,49.568,9.5,4.344,4.344,0,0,1,50.6,12.578V13.6H45.365a1.9,1.9,0,0,0,.617,1.117,1.836,1.836,0,0,0,1.234.406,2.366,2.366,0,0,0,1.953-.875l1.2,1.422a3.363,3.363,0,0,1-1.395,1.082A4.713,4.713,0,0,1,47.037,17.156Zm-.3-6.734q-1.156,0-1.375,1.531h2.656v-.2a1.3,1.3,0,0,0-.32-.98A1.275,1.275,0,0,0,46.74,10.422Zm9.344,4.2a.608.608,0,0,0-.352-.539,5.348,5.348,0,0,0-1.336-.422,6.092,6.092,0,0,1-1.625-.574,2.722,2.722,0,0,1-.977-.863,2.061,2.061,0,0,1-.336-1.164,2.336,2.336,0,0,1,.961-1.918,3.958,3.958,0,0,1,2.516-.754,4.386,4.386,0,0,1,2.688.758,2.37,2.37,0,0,1,1.016,1.992H56q0-1.016-1.07-1.016a1.061,1.061,0,0,0-.7.23.714.714,0,0,0-.281.574.655.655,0,0,0,.344.57,3.248,3.248,0,0,0,1.1.359,9.485,9.485,0,0,1,1.324.336,2.406,2.406,0,0,1,1.906,2.352A2.214,2.214,0,0,1,57.6,16.43a4.505,4.505,0,0,1-2.66.727A4.6,4.6,0,0,1,53,16.766,3.24,3.24,0,0,1,51.67,15.7a2.406,2.406,0,0,1-.477-1.414h2.461a1.017,1.017,0,0,0,.391.855,1.607,1.607,0,0,0,.961.27,1.264,1.264,0,0,0,.809-.219A.7.7,0,0,0,56.084,14.625Zm7.422-1.914a5.164,5.164,0,0,1,.867-3.164,2.854,2.854,0,0,1,2.422-1.156,2.428,2.428,0,0,1,1.906.891V5h2.641V17H68.975l-.133-.906a2.493,2.493,0,0,1-2.062,1.063A2.849,2.849,0,0,1,64.389,16,5.327,5.327,0,0,1,63.506,12.711Zm2.633.164q0,2.25,1.313,2.25a1.3,1.3,0,0,0,1.25-.734V11.172a1.261,1.261,0,0,0-1.234-.75q-1.219,0-1.32,1.969Zm10.789,4.281A4.345,4.345,0,0,1,73.779,16a4.006,4.006,0,0,1-1.2-3.02v-.219a5.191,5.191,0,0,1,.48-2.289,3.516,3.516,0,0,1,1.4-1.535,4.233,4.233,0,0,1,2.188-.543A3.659,3.659,0,0,1,79.459,9.5a4.344,4.344,0,0,1,1.031,3.082V13.6H75.256a1.9,1.9,0,0,0,.617,1.117,1.836,1.836,0,0,0,1.234.406,2.366,2.366,0,0,0,1.953-.875l1.2,1.422a3.363,3.363,0,0,1-1.395,1.082A4.713,4.713,0,0,1,76.928,17.156Zm-.3-6.734q-1.156,0-1.375,1.531h2.656v-.2a1.3,1.3,0,0,0-.32-.98A1.275,1.275,0,0,0,76.631,10.422Zm-63.7,22.125.086.992a2.906,2.906,0,0,1,2.414-1.148,2.14,2.14,0,0,1,2.164,1.273,2.813,2.813,0,0,1,2.484-1.273q2.57,0,2.641,3.109V41H20.076V35.664a1.611,1.611,0,0,0-.219-.945.931.931,0,0,0-.8-.3,1.247,1.247,0,0,0-1.164.7l.008.109V41H15.264V35.68a1.694,1.694,0,0,0-.211-.961.929.929,0,0,0-.8-.3,1.263,1.263,0,0,0-1.156.7V41H10.459V32.547Zm15.383,8.609A4.345,4.345,0,0,1,25.162,40a4.006,4.006,0,0,1-1.2-3.02v-.219a5.191,5.191,0,0,1,.48-2.289,3.516,3.516,0,0,1,1.4-1.535,4.233,4.233,0,0,1,2.188-.543A3.659,3.659,0,0,1,30.842,33.5a4.344,4.344,0,0,1,1.031,3.082V37.6H26.639a1.9,1.9,0,0,0,.617,1.117,1.836,1.836,0,0,0,1.234.406,2.366,2.366,0,0,0,1.953-.875l1.2,1.422a3.363,3.363,0,0,1-1.395,1.082A4.713,4.713,0,0,1,28.311,41.156Zm-.3-6.734q-1.156,0-1.375,1.531h2.656v-.2a1.3,1.3,0,0,0-.32-.98A1.275,1.275,0,0,0,28.014,34.422ZM32.6,36.711a5.164,5.164,0,0,1,.867-3.164,2.854,2.854,0,0,1,2.422-1.156,2.428,2.428,0,0,1,1.906.891V29h2.641V41H38.068l-.133-.906a2.493,2.493,0,0,1-2.062,1.063A2.849,2.849,0,0,1,33.482,40,5.327,5.327,0,0,1,32.6,36.711Zm2.633.164q0,2.25,1.313,2.25a1.3,1.3,0,0,0,1.25-.734V35.172a1.261,1.261,0,0,0-1.234-.75q-1.219,0-1.32,1.969ZM44.709,41H42.068V32.547h2.641Zm-2.8-10.633a1.175,1.175,0,0,1,.406-.922,1.727,1.727,0,0,1,2.109,0,1.249,1.249,0,0,1,0,1.844,1.727,1.727,0,0,1-2.109,0A1.175,1.175,0,0,1,41.912,30.367ZM49.9,39.125a1.171,1.171,0,0,0,.859-.3,1.1,1.1,0,0,0,.3-.84h2.469a2.923,2.923,0,0,1-1,2.281,3.705,3.705,0,0,1-2.566.891A3.751,3.751,0,0,1,47.061,40,4.556,4.556,0,0,1,46,36.8v-.109a5.149,5.149,0,0,1,.473-2.262,3.441,3.441,0,0,1,1.363-1.508,4.065,4.065,0,0,1,2.109-.527,3.658,3.658,0,0,1,2.617.914,3.242,3.242,0,0,1,.969,2.477H51.061a1.445,1.445,0,0,0-.32-1.008,1.106,1.106,0,0,0-.859-.352q-1.023,0-1.2,1.3a9.206,9.206,0,0,0-.055,1.141,3.616,3.616,0,0,0,.3,1.766A1.055,1.055,0,0,0,49.9,39.125ZM57.42,41H54.779V32.547H57.42Zm-2.8-10.633a1.175,1.175,0,0,1,.406-.922,1.727,1.727,0,0,1,2.109,0,1.249,1.249,0,0,1,0,1.844,1.727,1.727,0,0,1-2.109,0A1.175,1.175,0,0,1,54.623,30.367ZM58.709,36.7a4.989,4.989,0,0,1,.492-2.254,3.52,3.52,0,0,1,1.414-1.52,4.259,4.259,0,0,1,2.164-.531,3.887,3.887,0,0,1,2.992,1.176,4.512,4.512,0,0,1,1.094,3.2v.094A4.378,4.378,0,0,1,65.768,40a3.9,3.9,0,0,1-2.973,1.16,3.942,3.942,0,0,1-2.9-1.082,4.232,4.232,0,0,1-1.18-2.934Zm2.633.164a3.145,3.145,0,0,0,.367,1.719,1.223,1.223,0,0,0,1.086.547q1.406,0,1.438-2.164V36.7q0-2.273-1.453-2.273-1.32,0-1.43,1.961ZM63.139,29H65.92l-2.172,2.453H61.6Zm7.3,3.547.086.992a2.867,2.867,0,0,1,2.414-1.148,2.412,2.412,0,0,1,1.973.789,3.757,3.757,0,0,1,.676,2.375V41H72.951V35.664a1.426,1.426,0,0,0-.258-.941,1.193,1.193,0,0,0-.937-.3,1.256,1.256,0,0,0-1.148.609V41H67.975V32.547Z" transform="translate(383.701 2115.928)" fill="#fff"/>
    <g id="Trazado_880041" data-name="Trazado 880041" transform="translate(381.701 2223.428)" fill="#b0dcae">
      <path d="M 45 89 C 39.05960083007812 89 33.29741287231445 87.83678436279297 27.87352561950684 85.54267120361328 C 22.6341495513916 83.32659912109375 17.92851257324219 80.15390014648438 13.88729953765869 76.11270141601562 C 9.846099853515625 72.07148742675781 6.673399925231934 67.36585235595703 4.457324981689453 62.1264762878418 C 2.163212537765503 56.70258712768555 1 50.94039916992188 1 45 C 1 39.05960083007812 2.163212537765503 33.29741287231445 4.457324981689453 27.87352561950684 C 6.673399925231934 22.6341495513916 9.846099853515625 17.92851257324219 13.88729953765869 13.88729953765869 C 17.92851257324219 9.846099853515625 22.6341495513916 6.673399925231934 27.87352561950684 4.457324981689453 C 33.29741287231445 2.163212537765503 39.05960083007812 1 45 1 C 50.94039916992188 1 56.70258712768555 2.163212537765503 62.1264762878418 4.457324981689453 C 67.36585235595703 6.673399925231934 72.07148742675781 9.846099853515625 76.11270141601562 13.88729953765869 C 80.15390014648438 17.92851257324219 83.32659912109375 22.6341495513916 85.54267120361328 27.87352561950684 C 87.83678436279297 33.29741287231445 89 39.05960083007812 89 45 C 89 50.94039916992188 87.83678436279297 56.70258712768555 85.54267120361328 62.1264762878418 C 83.32659912109375 67.36585235595703 80.15390014648438 72.07148742675781 76.11270141601562 76.11270141601562 C 72.07148742675781 80.15390014648438 67.36585235595703 83.32659912109375 62.1264762878418 85.54267120361328 C 56.70258712768555 87.83678436279297 50.94039916992188 89 45 89 Z" stroke="none"/>
      <path d="M 45 2 C 39.19416046142578 2 33.56304168701172 3.136642456054688 28.26308059692383 5.378334045410156 C 23.14290618896484 7.543983459472656 18.54409027099609 10.64472198486328 14.59441375732422 14.59441375732422 C 10.64472198486328 18.54409027099609 7.543983459472656 23.14290618896484 5.378334045410156 28.26308059692383 C 3.136642456054688 33.56304168701172 2 39.19416046142578 2 45 C 2 50.80583953857422 3.136642456054688 56.43695831298828 5.378334045410156 61.73691940307617 C 7.543983459472656 66.85709381103516 10.64472198486328 71.45590209960938 14.59441375732422 75.40558624267578 C 18.54409027099609 79.35527801513672 23.14290618896484 82.45601654052734 28.26308059692383 84.62166595458984 C 33.56304168701172 86.86335754394531 39.19416046142578 88 45 88 C 50.80583953857422 88 56.43695831298828 86.86335754394531 61.73691940307617 84.62166595458984 C 66.85709381103516 82.45601654052734 71.45590209960938 79.35527801513672 75.40558624267578 75.40558624267578 C 79.35527801513672 71.45590209960938 82.45601654052734 66.85709381103516 84.62166595458984 61.73691940307617 C 86.86335754394531 56.43695831298828 88 50.80583953857422 88 45 C 88 39.19416046142578 86.86335754394531 33.56304168701172 84.62166595458984 28.26308059692383 C 82.45601654052734 23.14290618896484 79.35527801513672 18.54409027099609 75.40558624267578 14.59441375732422 C 71.45590209960938 10.64472198486328 66.85709381103516 7.543983459472656 61.73691940307617 5.378334045410156 C 56.43695831298828 3.136642456054688 50.80583953857422 2 45 2 M 45 0 C 69.85281372070312 0 90 20.14718627929688 90 45 C 90 69.85281372070312 69.85281372070312 90 45 90 C 20.14718627929688 90 0 69.85281372070312 0 45 C 0 20.14718627929688 20.14718627929688 0 45 0 Z" stroke="none" fill="#1d541a"/>
    </g>
    <path id="Trazado_880042" data-name="Trazado 880042" d="M23.836,17V5.625h3.211a5.169,5.169,0,0,1,2.625.656,4.438,4.438,0,0,1,1.762,1.867,6.078,6.078,0,0,1,.629,2.781v.727a6.1,6.1,0,0,1-.621,2.82,4.369,4.369,0,0,1-1.773,1.859A5.5,5.5,0,0,1,26.984,17Zm1.5-10.141v8.914h1.578a3.435,3.435,0,0,0,2.7-1.078,4.452,4.452,0,0,0,.965-3.07v-.664a4.522,4.522,0,0,0-.91-3.012,3.24,3.24,0,0,0-2.582-1.09Zm12.273,10.3a3.693,3.693,0,0,1-2.8-1.129,4.19,4.19,0,0,1-1.078-3.02v-.266a5.073,5.073,0,0,1,.48-2.246,3.748,3.748,0,0,1,1.344-1.547,3.378,3.378,0,0,1,1.871-.559,3.166,3.166,0,0,1,2.563,1.086,4.7,4.7,0,0,1,.914,3.109v.6H35.18a3,3,0,0,0,.73,2.02,2.3,2.3,0,0,0,1.777.77,2.517,2.517,0,0,0,1.3-.312,3.259,3.259,0,0,0,.93-.828l.883.688A3.55,3.55,0,0,1,37.609,17.156Zm-.18-7.578a1.928,1.928,0,0,0-1.469.637A3.1,3.1,0,0,0,35.227,12h4.234v-.109a2.753,2.753,0,0,0-.594-1.707A1.815,1.815,0,0,0,37.43,9.578ZM4.008,41H2.563V32.547H4.008ZM2.445,30.3a.863.863,0,0,1,.215-.594.807.807,0,0,1,.637-.242.819.819,0,0,1,.641.242.854.854,0,0,1,.219.594.826.826,0,0,1-.219.586.834.834,0,0,1-.641.234.821.821,0,0,1-.637-.234A.834.834,0,0,1,2.445,30.3Zm5.242,2.242.047,1.063a3.08,3.08,0,0,1,2.531-1.219q2.68,0,2.7,3.023V41H11.523V35.406a1.946,1.946,0,0,0-.418-1.352,1.675,1.675,0,0,0-1.277-.437,2.086,2.086,0,0,0-1.234.375,2.546,2.546,0,0,0-.828.984V41H6.32V32.547ZM17.109,30.5v2.047h1.578v1.117H17.109v5.242a1.171,1.171,0,0,0,.211.762.888.888,0,0,0,.719.254,3.5,3.5,0,0,0,.688-.094V41a4.19,4.19,0,0,1-1.109.156,1.8,1.8,0,0,1-1.461-.586,2.517,2.517,0,0,1-.492-1.664V33.664H14.125V32.547h1.539V30.5Zm6.773,10.656a3.693,3.693,0,0,1-2.8-1.129,4.19,4.19,0,0,1-1.078-3.02v-.266a5.073,5.073,0,0,1,.48-2.246,3.748,3.748,0,0,1,1.344-1.547,3.378,3.378,0,0,1,1.871-.559,3.166,3.166,0,0,1,2.563,1.086,4.7,4.7,0,0,1,.914,3.109v.6H21.453a3,3,0,0,0,.73,2.02,2.3,2.3,0,0,0,1.777.77,2.517,2.517,0,0,0,1.3-.312,3.259,3.259,0,0,0,.93-.828l.883.688A3.55,3.55,0,0,1,23.883,41.156Zm-.18-7.578a1.928,1.928,0,0,0-1.469.637A3.1,3.1,0,0,0,21.5,36h4.234v-.109a2.753,2.753,0,0,0-.594-1.707A1.815,1.815,0,0,0,23.7,33.578Zm9.234.266a4.331,4.331,0,0,0-.711-.055A1.9,1.9,0,0,0,30.3,35v6H28.852V32.547h1.406l.023.977A2.251,2.251,0,0,1,32.3,32.391a1.477,1.477,0,0,1,.641.109Zm4.258,5.2,2.094-6.492h1.477L37.734,41h-1.1L33.57,32.547h1.477ZM47.258,41a3.036,3.036,0,0,1-.2-.891,3.225,3.225,0,0,1-2.406,1.047,2.984,2.984,0,0,1-2.051-.707,2.287,2.287,0,0,1-.8-1.793,2.39,2.39,0,0,1,1-2.051,4.733,4.733,0,0,1,2.824-.73h1.406v-.664A1.623,1.623,0,0,0,46.578,34a1.821,1.821,0,0,0-1.336-.449,2.107,2.107,0,0,0-1.3.391,1.151,1.151,0,0,0-.523.945H41.969a2,2,0,0,1,.449-1.223,3.066,3.066,0,0,1,1.219-.934,4.1,4.1,0,0,1,1.691-.344,3.342,3.342,0,0,1,2.289.73,2.635,2.635,0,0,1,.859,2.012v3.891a4.757,4.757,0,0,0,.3,1.852V41Zm-2.4-1.1a2.54,2.54,0,0,0,1.289-.352,2.127,2.127,0,0,0,.883-.914V36.9H45.9q-2.656,0-2.656,1.555a1.316,1.316,0,0,0,.453,1.063A1.742,1.742,0,0,0,44.859,39.9ZM52.313,41H50.867V29h1.445Zm1.93-4.3a4.993,4.993,0,0,1,.488-2.234A3.643,3.643,0,0,1,56.09,32.93a3.7,3.7,0,0,1,1.988-.539,3.565,3.565,0,0,1,2.793,1.2,4.6,4.6,0,0,1,1.066,3.18v.1a5.036,5.036,0,0,1-.473,2.215,3.589,3.589,0,0,1-1.352,1.527,3.743,3.743,0,0,1-2.02.547,3.556,3.556,0,0,1-2.785-1.2A4.575,4.575,0,0,1,54.242,36.8Zm1.453.172a3.616,3.616,0,0,0,.652,2.258,2.211,2.211,0,0,0,3.5-.012,3.955,3.955,0,0,0,.648-2.418,3.61,3.61,0,0,0-.66-2.254,2.1,2.1,0,0,0-1.754-.863,2.075,2.075,0,0,0-1.727.852A3.925,3.925,0,0,0,55.7,36.867Z" transform="translate(394.701 2245.928)" fill="#12263f"/>
    <g id="Trazado_879503" data-name="Trazado 879503" transform="translate(381.701 1963.428)" fill="#b0dcae">
      <path d="M 45 89 C 39.05960083007812 89 33.29741287231445 87.83678436279297 27.87352561950684 85.54267120361328 C 22.6341495513916 83.32659912109375 17.92851257324219 80.15390014648438 13.88729953765869 76.11270141601562 C 9.846099853515625 72.07148742675781 6.673399925231934 67.36585235595703 4.457324981689453 62.1264762878418 C 2.163212537765503 56.70258712768555 1 50.94039916992188 1 45 C 1 39.05960083007812 2.163212537765503 33.29741287231445 4.457324981689453 27.87352561950684 C 6.673399925231934 22.6341495513916 9.846099853515625 17.92851257324219 13.88729953765869 13.88729953765869 C 17.92851257324219 9.846099853515625 22.6341495513916 6.673399925231934 27.87352561950684 4.457324981689453 C 33.29741287231445 2.163212537765503 39.05960083007812 1 45 1 C 50.94039916992188 1 56.70258712768555 2.163212537765503 62.1264762878418 4.457324981689453 C 67.36585235595703 6.673399925231934 72.07148742675781 9.846099853515625 76.11270141601562 13.88729953765869 C 80.15390014648438 17.92851257324219 83.32659912109375 22.6341495513916 85.54267120361328 27.87352561950684 C 87.83678436279297 33.29741287231445 89 39.05960083007812 89 45 C 89 50.94039916992188 87.83678436279297 56.70258712768555 85.54267120361328 62.1264762878418 C 83.32659912109375 67.36585235595703 80.15390014648438 72.07148742675781 76.11270141601562 76.11270141601562 C 72.07148742675781 80.15390014648438 67.36585235595703 83.32659912109375 62.1264762878418 85.54267120361328 C 56.70258712768555 87.83678436279297 50.94039916992188 89 45 89 Z" stroke="none"/>
      <path d="M 45 2 C 39.19416046142578 2 33.56304168701172 3.136642456054688 28.26308059692383 5.378334045410156 C 23.14290618896484 7.543983459472656 18.54409027099609 10.64472198486328 14.59441375732422 14.59441375732422 C 10.64472198486328 18.54409027099609 7.543983459472656 23.14290618896484 5.378334045410156 28.26308059692383 C 3.136642456054688 33.56304168701172 2 39.19416046142578 2 45 C 2 50.80583953857422 3.136642456054688 56.43695831298828 5.378334045410156 61.73691940307617 C 7.543983459472656 66.85709381103516 10.64472198486328 71.45590209960938 14.59441375732422 75.40558624267578 C 18.54409027099609 79.35527801513672 23.14290618896484 82.45601654052734 28.26308059692383 84.62166595458984 C 33.56304168701172 86.86335754394531 39.19416046142578 88 45 88 C 50.80583953857422 88 56.43695831298828 86.86335754394531 61.73691940307617 84.62166595458984 C 66.85709381103516 82.45601654052734 71.45590209960938 79.35527801513672 75.40558624267578 75.40558624267578 C 79.35527801513672 71.45590209960938 82.45601654052734 66.85709381103516 84.62166595458984 61.73691940307617 C 86.86335754394531 56.43695831298828 88 50.80583953857422 88 45 C 88 39.19416046142578 86.86335754394531 33.56304168701172 84.62166595458984 28.26308059692383 C 82.45601654052734 23.14290618896484 79.35527801513672 18.54409027099609 75.40558624267578 14.59441375732422 C 71.45590209960938 10.64472198486328 66.85709381103516 7.543983459472656 61.73691940307617 5.378334045410156 C 56.43695831298828 3.136642456054688 50.80583953857422 2 45 2 M 45 0 C 69.85281372070312 0 90 20.14718627929688 90 45 C 90 69.85281372070312 69.85281372070312 90 45 90 C 20.14718627929688 90 0 69.85281372070312 0 45 C 0 20.14718627929688 20.14718627929688 0 45 0 Z" stroke="none" fill="#1d541a"/>
    </g>
    <path id="Trazado_880043" data-name="Trazado 880043" d="M12.137,17H10.629L4.9,8.234V17H3.395V5.625H4.9l5.742,8.8v-8.8h1.492Zm2.055-4.3a4.993,4.993,0,0,1,.488-2.234A3.643,3.643,0,0,1,16.039,8.93a3.7,3.7,0,0,1,1.988-.539,3.565,3.565,0,0,1,2.793,1.2,4.6,4.6,0,0,1,1.066,3.18v.1a5.036,5.036,0,0,1-.473,2.215,3.589,3.589,0,0,1-1.352,1.527,3.743,3.743,0,0,1-2.02.547,3.556,3.556,0,0,1-2.785-1.2A4.575,4.575,0,0,1,14.191,12.8Zm1.453.172a3.616,3.616,0,0,0,.652,2.258,2.211,2.211,0,0,0,3.5-.012,3.955,3.955,0,0,0,.648-2.418,3.61,3.61,0,0,0-.66-2.254,2.1,2.1,0,0,0-1.754-.863,2.075,2.075,0,0,0-1.727.852A3.925,3.925,0,0,0,15.645,12.867Zm9.414-4.32.039.938a3.122,3.122,0,0,1,2.508-1.094A2.417,2.417,0,0,1,30.02,9.75a3.2,3.2,0,0,1,1.1-.984,3.242,3.242,0,0,1,1.6-.375q2.781,0,2.828,2.945V17H34.1V11.422a1.941,1.941,0,0,0-.414-1.355,1.823,1.823,0,0,0-1.391-.449,1.916,1.916,0,0,0-1.336.48,1.949,1.949,0,0,0-.617,1.293V17H28.887V11.461a1.613,1.613,0,0,0-1.8-1.844,1.934,1.934,0,0,0-1.945,1.211V17H23.691V8.547ZM39.293,17H37.848V8.547h1.445ZM37.73,6.3a.863.863,0,0,1,.215-.594.807.807,0,0,1,.637-.242.819.819,0,0,1,.641.242.854.854,0,0,1,.219.594.826.826,0,0,1-.219.586.834.834,0,0,1-.641.234.821.821,0,0,1-.637-.234A.834.834,0,0,1,37.73,6.3Zm5.242,2.242.047,1.063a3.08,3.08,0,0,1,2.531-1.219q2.68,0,2.7,3.023V17H46.809V11.406a1.946,1.946,0,0,0-.418-1.352,1.675,1.675,0,0,0-1.277-.437,2.086,2.086,0,0,0-1.234.375,2.546,2.546,0,0,0-.828.984V17H41.605V8.547ZM55.652,17a3.036,3.036,0,0,1-.2-.891,3.225,3.225,0,0,1-2.406,1.047,2.984,2.984,0,0,1-2.051-.707,2.287,2.287,0,0,1-.8-1.793,2.39,2.39,0,0,1,1-2.051,4.733,4.733,0,0,1,2.824-.73h1.406v-.664A1.623,1.623,0,0,0,54.973,10a1.821,1.821,0,0,0-1.336-.449,2.107,2.107,0,0,0-1.3.391,1.151,1.151,0,0,0-.523.945H50.363a2,2,0,0,1,.449-1.223,3.066,3.066,0,0,1,1.219-.934,4.1,4.1,0,0,1,1.691-.344,3.342,3.342,0,0,1,2.289.73,2.635,2.635,0,0,1,.859,2.012v3.891a4.757,4.757,0,0,0,.3,1.852V17Zm-2.4-1.1a2.54,2.54,0,0,0,1.289-.352,2.127,2.127,0,0,0,.883-.914V12.9H54.293q-2.656,0-2.656,1.555a1.316,1.316,0,0,0,.453,1.063A1.742,1.742,0,0,0,53.254,15.9ZM60.707,17H59.262V5h1.445Z" transform="translate(394.701 1997.928)" fill="#12263f"/>
    <g id="Trazado_880044" data-name="Trazado 880044" transform="translate(511.701 2084.428)" fill="#e2dacc">
      <path d="M 45 89 C 39.05960083007812 89 33.29741287231445 87.83678436279297 27.87352561950684 85.54267120361328 C 22.6341495513916 83.32659912109375 17.92851257324219 80.15390014648438 13.88729953765869 76.11270141601562 C 9.846099853515625 72.07148742675781 6.673399925231934 67.36585235595703 4.457324981689453 62.1264762878418 C 2.163212537765503 56.70258712768555 1 50.94039916992188 1 45 C 1 39.05960083007812 2.163212537765503 33.29741287231445 4.457324981689453 27.87352561950684 C 6.673399925231934 22.6341495513916 9.846099853515625 17.92851257324219 13.88729953765869 13.88729953765869 C 17.92851257324219 9.846099853515625 22.6341495513916 6.673399925231934 27.87352561950684 4.457324981689453 C 33.29741287231445 2.163212537765503 39.05960083007812 1 45 1 C 50.94039916992188 1 56.70258712768555 2.163212537765503 62.1264762878418 4.457324981689453 C 67.36585235595703 6.673399925231934 72.07148742675781 9.846099853515625 76.11270141601562 13.88729953765869 C 80.15390014648438 17.92851257324219 83.32659912109375 22.6341495513916 85.54267120361328 27.87352561950684 C 87.83678436279297 33.29741287231445 89 39.05960083007812 89 45 C 89 50.94039916992188 87.83678436279297 56.70258712768555 85.54267120361328 62.1264762878418 C 83.32659912109375 67.36585235595703 80.15390014648438 72.07148742675781 76.11270141601562 76.11270141601562 C 72.07148742675781 80.15390014648438 67.36585235595703 83.32659912109375 62.1264762878418 85.54267120361328 C 56.70258712768555 87.83678436279297 50.94039916992188 89 45 89 Z" stroke="none"/>
      <path d="M 45 2 C 39.19416046142578 2 33.56304168701172 3.136642456054688 28.26308059692383 5.378334045410156 C 23.14290618896484 7.543983459472656 18.54409027099609 10.64472198486328 14.59441375732422 14.59441375732422 C 10.64472198486328 18.54409027099609 7.543983459472656 23.14290618896484 5.378334045410156 28.26308059692383 C 3.136642456054688 33.56304168701172 2 39.19416046142578 2 45 C 2 50.80583953857422 3.136642456054688 56.43695831298828 5.378334045410156 61.73691940307617 C 7.543983459472656 66.85709381103516 10.64472198486328 71.45590209960938 14.59441375732422 75.40558624267578 C 18.54409027099609 79.35527801513672 23.14290618896484 82.45601654052734 28.26308059692383 84.62166595458984 C 33.56304168701172 86.86335754394531 39.19416046142578 88 45 88 C 50.80583953857422 88 56.43695831298828 86.86335754394531 61.73691940307617 84.62166595458984 C 66.85709381103516 82.45601654052734 71.45590209960938 79.35527801513672 75.40558624267578 75.40558624267578 C 79.35527801513672 71.45590209960938 82.45601654052734 66.85709381103516 84.62166595458984 61.73691940307617 C 86.86335754394531 56.43695831298828 88 50.80583953857422 88 45 C 88 39.19416046142578 86.86335754394531 33.56304168701172 84.62166595458984 28.26308059692383 C 82.45601654052734 23.14290618896484 79.35527801513672 18.54409027099609 75.40558624267578 14.59441375732422 C 71.45590209960938 10.64472198486328 66.85709381103516 7.543983459472656 61.73691940307617 5.378334045410156 C 56.43695831298828 3.136642456054688 50.80583953857422 2 45 2 M 45 0 C 69.85281372070312 0 90 20.14718627929688 90 45 C 90 69.85281372070312 69.85281372070312 90 45 90 C 20.14718627929688 90 0 69.85281372070312 0 45 C 0 20.14718627929688 20.14718627929688 0 45 0 Z" stroke="none" fill="#706c65"/>
    </g>
    <path id="Trazado_880045" data-name="Trazado 880045" d="M16.7,11.68a7.037,7.037,0,0,1-.562,2.918,4.261,4.261,0,0,1-1.594,1.9,4.385,4.385,0,0,1-2.406.656,4.244,4.244,0,0,1-4-2.543,6.752,6.752,0,0,1-.59-2.832v-.82a6.953,6.953,0,0,1,.57-2.9,4.218,4.218,0,0,1,4-2.594,4.41,4.41,0,0,1,2.41.66,4.253,4.253,0,0,1,1.605,1.914,7.071,7.071,0,0,1,.563,2.918Zm-1.492-.734A5.1,5.1,0,0,0,14.4,7.84a2.68,2.68,0,0,0-2.273-1.082A2.651,2.651,0,0,0,9.887,7.84a5,5,0,0,0-.84,3v.836a5.107,5.107,0,0,0,.824,3.082,2.662,2.662,0,0,0,2.27,1.121,2.652,2.652,0,0,0,2.25-1.059,5.079,5.079,0,0,0,.82-3.035Zm7.6-1.1a4.331,4.331,0,0,0-.711-.055A1.9,1.9,0,0,0,20.172,11v6H18.727V8.547h1.406l.023.977a2.251,2.251,0,0,1,2.016-1.133,1.477,1.477,0,0,1,.641.109Zm.977,2.859a4.952,4.952,0,0,1,.922-3.129,3.137,3.137,0,0,1,4.766-.168V5h1.445V17H29.594l-.07-.906a2.943,2.943,0,0,1-2.414,1.063,2.887,2.887,0,0,1-2.395-1.2,5.008,5.008,0,0,1-.926-3.141Zm1.445.164a3.749,3.749,0,0,0,.594,2.25,1.92,1.92,0,0,0,1.641.813A2.108,2.108,0,0,0,29.477,14.7V10.813a2.125,2.125,0,0,0-1.992-1.2,1.929,1.929,0,0,0-1.656.82A4.128,4.128,0,0,0,25.234,12.867ZM34.734,17H33.289V8.547h1.445ZM33.172,6.3a.863.863,0,0,1,.215-.594.807.807,0,0,1,.637-.242.819.819,0,0,1,.641.242.854.854,0,0,1,.219.594.826.826,0,0,1-.219.586.834.834,0,0,1-.641.234.821.821,0,0,1-.637-.234A.834.834,0,0,1,33.172,6.3Zm5.242,2.242.047,1.063a3.08,3.08,0,0,1,2.531-1.219q2.68,0,2.7,3.023V17H42.25V11.406a1.946,1.946,0,0,0-.418-1.352,1.675,1.675,0,0,0-1.277-.437,2.086,2.086,0,0,0-1.234.375,2.546,2.546,0,0,0-.828.984V17H37.047V8.547ZM51.094,17a3.036,3.036,0,0,1-.2-.891,3.225,3.225,0,0,1-2.406,1.047,2.984,2.984,0,0,1-2.051-.707,2.287,2.287,0,0,1-.8-1.793,2.39,2.39,0,0,1,1-2.051,4.733,4.733,0,0,1,2.824-.73h1.406v-.664A1.623,1.623,0,0,0,50.414,10a1.821,1.821,0,0,0-1.336-.449,2.107,2.107,0,0,0-1.3.391,1.151,1.151,0,0,0-.523.945H45.8a2,2,0,0,1,.449-1.223,3.066,3.066,0,0,1,1.219-.934,4.1,4.1,0,0,1,1.691-.344,3.342,3.342,0,0,1,2.289.73,2.635,2.635,0,0,1,.859,2.012v3.891a4.757,4.757,0,0,0,.3,1.852V17Zm-2.4-1.1a2.54,2.54,0,0,0,1.289-.352,2.127,2.127,0,0,0,.883-.914V12.9H49.734q-2.656,0-2.656,1.555a1.316,1.316,0,0,0,.453,1.063A1.742,1.742,0,0,0,48.7,15.9ZM56.148,17H54.7V5h1.445Z" transform="translate(524.701 2118.928)" fill="#071824"/>
    <g id="Trazado_880046" data-name="Trazado 880046" transform="translate(251.701 2084.428)" fill="#e2dacc">
      <path d="M 45 89 C 39.05960083007812 89 33.29741287231445 87.83678436279297 27.87352561950684 85.54267120361328 C 22.6341495513916 83.32659912109375 17.92851257324219 80.15390014648438 13.88729953765869 76.11270141601562 C 9.846099853515625 72.07148742675781 6.673399925231934 67.36585235595703 4.457324981689453 62.1264762878418 C 2.163212537765503 56.70258712768555 1 50.94039916992188 1 45 C 1 39.05960083007812 2.163212537765503 33.29741287231445 4.457324981689453 27.87352561950684 C 6.673399925231934 22.6341495513916 9.846099853515625 17.92851257324219 13.88729953765869 13.88729953765869 C 17.92851257324219 9.846099853515625 22.6341495513916 6.673399925231934 27.87352561950684 4.457324981689453 C 33.29741287231445 2.163212537765503 39.05960083007812 1 45 1 C 50.94039916992188 1 56.70258712768555 2.163212537765503 62.1264762878418 4.457324981689453 C 67.36585235595703 6.673399925231934 72.07148742675781 9.846099853515625 76.11270141601562 13.88729953765869 C 80.15390014648438 17.92851257324219 83.32659912109375 22.6341495513916 85.54267120361328 27.87352561950684 C 87.83678436279297 33.29741287231445 89 39.05960083007812 89 45 C 89 50.94039916992188 87.83678436279297 56.70258712768555 85.54267120361328 62.1264762878418 C 83.32659912109375 67.36585235595703 80.15390014648438 72.07148742675781 76.11270141601562 76.11270141601562 C 72.07148742675781 80.15390014648438 67.36585235595703 83.32659912109375 62.1264762878418 85.54267120361328 C 56.70258712768555 87.83678436279297 50.94039916992188 89 45 89 Z" stroke="none"/>
      <path d="M 45 2 C 39.19416046142578 2 33.56304168701172 3.136642456054688 28.26308059692383 5.378334045410156 C 23.14290618896484 7.543983459472656 18.54409027099609 10.64472198486328 14.59441375732422 14.59441375732422 C 10.64472198486328 18.54409027099609 7.543983459472656 23.14290618896484 5.378334045410156 28.26308059692383 C 3.136642456054688 33.56304168701172 2 39.19416046142578 2 45 C 2 50.80583953857422 3.136642456054688 56.43695831298828 5.378334045410156 61.73691940307617 C 7.543983459472656 66.85709381103516 10.64472198486328 71.45590209960938 14.59441375732422 75.40558624267578 C 18.54409027099609 79.35527801513672 23.14290618896484 82.45601654052734 28.26308059692383 84.62166595458984 C 33.56304168701172 86.86335754394531 39.19416046142578 88 45 88 C 50.80583953857422 88 56.43695831298828 86.86335754394531 61.73691940307617 84.62166595458984 C 66.85709381103516 82.45601654052734 71.45590209960938 79.35527801513672 75.40558624267578 75.40558624267578 C 79.35527801513672 71.45590209960938 82.45601654052734 66.85709381103516 84.62166595458984 61.73691940307617 C 86.86335754394531 56.43695831298828 88 50.80583953857422 88 45 C 88 39.19416046142578 86.86335754394531 33.56304168701172 84.62166595458984 28.26308059692383 C 82.45601654052734 23.14290618896484 79.35527801513672 18.54409027099609 75.40558624267578 14.59441375732422 C 71.45590209960938 10.64472198486328 66.85709381103516 7.543983459472656 61.73691940307617 5.378334045410156 C 56.43695831298828 3.136642456054688 50.80583953857422 2 45 2 M 45 0 C 69.85281372070312 0 90 20.14718627929688 90 45 C 90 69.85281372070312 69.85281372070312 90 45 90 C 20.14718627929688 90 0 69.85281372070312 0 45 C 0 20.14718627929688 20.14718627929688 0 45 0 Z" stroke="none" fill="#706c65"/>
    </g>
    <path id="Trazado_880047" data-name="Trazado 880047" d="M23.836,17V5.625h3.211a5.169,5.169,0,0,1,2.625.656,4.438,4.438,0,0,1,1.762,1.867,6.078,6.078,0,0,1,.629,2.781v.727a6.1,6.1,0,0,1-.621,2.82,4.369,4.369,0,0,1-1.773,1.859A5.5,5.5,0,0,1,26.984,17Zm1.5-10.141v8.914h1.578a3.435,3.435,0,0,0,2.7-1.078,4.452,4.452,0,0,0,.965-3.07v-.664a4.522,4.522,0,0,0-.91-3.012,3.24,3.24,0,0,0-2.582-1.09Zm12.273,10.3a3.693,3.693,0,0,1-2.8-1.129,4.19,4.19,0,0,1-1.078-3.02v-.266a5.073,5.073,0,0,1,.48-2.246,3.748,3.748,0,0,1,1.344-1.547,3.378,3.378,0,0,1,1.871-.559,3.166,3.166,0,0,1,2.563,1.086,4.7,4.7,0,0,1,.914,3.109v.6H35.18a3,3,0,0,0,.73,2.02,2.3,2.3,0,0,0,1.777.77,2.517,2.517,0,0,0,1.3-.312,3.259,3.259,0,0,0,.93-.828l.883.688A3.55,3.55,0,0,1,37.609,17.156Zm-.18-7.578a1.928,1.928,0,0,0-1.469.637A3.1,3.1,0,0,0,35.227,12h4.234v-.109a2.753,2.753,0,0,0-.594-1.707A1.815,1.815,0,0,0,37.43,9.578ZM17.336,33.844a4.331,4.331,0,0,0-.711-.055A1.9,1.9,0,0,0,14.7,35v6H13.25V32.547h1.406l.023.977A2.251,2.251,0,0,1,16.7,32.391a1.477,1.477,0,0,1,.641.109ZM23.57,41a3.036,3.036,0,0,1-.2-.891,3.225,3.225,0,0,1-2.406,1.047,2.984,2.984,0,0,1-2.051-.707,2.287,2.287,0,0,1-.8-1.793,2.39,2.39,0,0,1,1-2.051,4.733,4.733,0,0,1,2.824-.73h1.406v-.664A1.623,1.623,0,0,0,22.891,34a1.821,1.821,0,0,0-1.336-.449,2.107,2.107,0,0,0-1.3.391,1.151,1.151,0,0,0-.523.945H18.281a2,2,0,0,1,.449-1.223,3.066,3.066,0,0,1,1.219-.934,4.1,4.1,0,0,1,1.691-.344,3.342,3.342,0,0,1,2.289.73,2.635,2.635,0,0,1,.859,2.012v3.891a4.757,4.757,0,0,0,.3,1.852V41Zm-2.4-1.1a2.54,2.54,0,0,0,1.289-.352,2.127,2.127,0,0,0,.883-.914V36.9H22.211q-2.656,0-2.656,1.555a1.316,1.316,0,0,0,.453,1.063A1.742,1.742,0,0,0,21.172,39.9Zm7.242-.078h4.945V41H26.648V39.938l4.664-6.2H26.719v-1.2h6.406V33.57ZM34.6,36.7a4.993,4.993,0,0,1,.488-2.234,3.643,3.643,0,0,1,1.359-1.531,3.7,3.7,0,0,1,1.988-.539,3.565,3.565,0,0,1,2.793,1.2,4.6,4.6,0,0,1,1.066,3.18v.1a5.036,5.036,0,0,1-.473,2.215,3.589,3.589,0,0,1-1.352,1.527,3.743,3.743,0,0,1-2.02.547,3.556,3.556,0,0,1-2.785-1.2A4.575,4.575,0,0,1,34.6,36.8Zm1.453.172a3.616,3.616,0,0,0,.652,2.258,2.211,2.211,0,0,0,3.5-.012,3.955,3.955,0,0,0,.648-2.418,3.61,3.61,0,0,0-.66-2.254,2.1,2.1,0,0,0-1.754-.863,2.075,2.075,0,0,0-1.727.852A3.925,3.925,0,0,0,36.055,36.867ZM39.094,29h1.75L38.75,31.3H37.586Zm6.383,3.547.047,1.063a3.08,3.08,0,0,1,2.531-1.219q2.68,0,2.7,3.023V41H49.313V35.406a1.946,1.946,0,0,0-.418-1.352,1.675,1.675,0,0,0-1.277-.437,2.086,2.086,0,0,0-1.234.375,2.546,2.546,0,0,0-.828.984V41H44.109V32.547Z" transform="translate(264.701 2106.928)" fill="#071824"/>
    <path id="Trazado_879145" data-name="Trazado 879145" d="M0,0H133.442V25H0Z" transform="translate(553.208 2302.047)" fill="#cfd5db"/>
    <path id="Trazado_880038" data-name="Trazado 880038" d="M6.645-4.4H2.468V0H1.155V-9.953H7.321v1.08H2.468v3.4H6.645ZM13.111-.731a2.686,2.686,0,0,1-2.167.868,2.3,2.3,0,0,1-1.8-.687,2.974,2.974,0,0,1-.625-2.034V-7.4H9.782v4.778q0,1.682,1.367,1.682a1.893,1.893,0,0,0,1.928-1.08V-7.4h1.265V0h-1.2Zm6.221.868a3.232,3.232,0,0,1-2.447-.988,3.666,3.666,0,0,1-.943-2.642v-.232a4.438,4.438,0,0,1,.42-1.965,3.28,3.28,0,0,1,1.176-1.354,2.956,2.956,0,0,1,1.637-.489,2.77,2.77,0,0,1,2.242.95,4.114,4.114,0,0,1,.8,2.721v.526H17.206a2.629,2.629,0,0,0,.639,1.767A2.009,2.009,0,0,0,19.4-.9a2.2,2.2,0,0,0,1.135-.273,2.851,2.851,0,0,0,.813-.725l.772.6A3.106,3.106,0,0,1,19.332.137Zm-.157-6.631a1.687,1.687,0,0,0-1.285.557,2.708,2.708,0,0,0-.643,1.562h3.705v-.1a2.409,2.409,0,0,0-.52-1.494A1.588,1.588,0,0,0,19.175-6.494Zm5.7-.9.041.93a2.7,2.7,0,0,1,2.215-1.066q2.345,0,2.365,2.646V0H28.232V-4.895a1.7,1.7,0,0,0-.366-1.183,1.466,1.466,0,0,0-1.118-.383,1.825,1.825,0,0,0-1.08.328,2.228,2.228,0,0,0-.725.861V0H23.68V-7.4ZM33.12-9.187V-7.4H34.5v.978H33.12v4.587a1.024,1.024,0,0,0,.185.667.777.777,0,0,0,.629.222,3.062,3.062,0,0,0,.6-.082V0a3.666,3.666,0,0,1-.971.137,1.575,1.575,0,0,1-1.278-.513,2.2,2.2,0,0,1-.431-1.456V-6.419H30.509V-7.4h1.347V-9.187ZM39.047.137A3.232,3.232,0,0,1,36.6-.851a3.666,3.666,0,0,1-.943-2.642v-.232a4.438,4.438,0,0,1,.42-1.965,3.28,3.28,0,0,1,1.176-1.354,2.956,2.956,0,0,1,1.637-.489,2.77,2.77,0,0,1,2.242.95,4.114,4.114,0,0,1,.8,2.721v.526H36.921a2.629,2.629,0,0,0,.639,1.767A2.009,2.009,0,0,0,39.115-.9a2.2,2.2,0,0,0,1.135-.273,2.851,2.851,0,0,0,.813-.725l.772.6A3.106,3.106,0,0,1,39.047.137ZM38.89-6.494a1.687,1.687,0,0,0-1.285.557,2.708,2.708,0,0,0-.643,1.562h3.705v-.1a2.409,2.409,0,0,0-.52-1.494A1.588,1.588,0,0,0,38.89-6.494ZM43.354-.663a.792.792,0,0,1,.195-.547.742.742,0,0,1,.584-.219.765.765,0,0,1,.591.219.776.776,0,0,1,.2.547.734.734,0,0,1-.2.526.778.778,0,0,1-.591.212.755.755,0,0,1-.584-.212A.748.748,0,0,1,43.354-.663ZM43.36-6.7a.792.792,0,0,1,.195-.547.742.742,0,0,1,.584-.219.765.765,0,0,1,.591.219.776.776,0,0,1,.2.547.734.734,0,0,1-.2.526.778.778,0,0,1-.591.212.755.755,0,0,1-.584-.212A.748.748,0,0,1,43.36-6.7ZM58.105-4.655A6.157,6.157,0,0,1,57.613-2.1,3.728,3.728,0,0,1,56.219-.437a3.837,3.837,0,0,1-2.105.574,3.8,3.8,0,0,1-2.085-.578,3.817,3.817,0,0,1-1.412-1.647A5.908,5.908,0,0,1,50.1-4.566v-.718a6.084,6.084,0,0,1,.5-2.536,3.8,3.8,0,0,1,1.412-1.685A3.788,3.788,0,0,1,54.1-10.09a3.858,3.858,0,0,1,2.109.578,3.721,3.721,0,0,1,1.4,1.675,6.187,6.187,0,0,1,.492,2.553ZM56.8-5.3a4.463,4.463,0,0,0-.711-2.717A2.345,2.345,0,0,0,54.1-8.962a2.32,2.32,0,0,0-1.958.947,4.371,4.371,0,0,0-.735,2.628v.731a4.469,4.469,0,0,0,.721,2.7,2.329,2.329,0,0,0,1.986.981A2.32,2.32,0,0,0,56.082-1.9,4.444,4.444,0,0,0,56.8-4.56ZM61.482,0H60.17V-9.953h1.313Zm9.276-8.873h-3.2V0H66.254V-8.873H63.062v-1.08h7.7ZM70.506,1.982l-.718-.492a3.3,3.3,0,0,0,.67-1.846V-1.5H71.7v.991A3.114,3.114,0,0,1,71.357.875,3.233,3.233,0,0,1,70.506,1.982ZM83.152,0H76.631V-.909l3.445-3.828a8.185,8.185,0,0,0,1.056-1.412,2.356,2.356,0,0,0,.291-1.125,1.786,1.786,0,0,0-.472-1.278,1.649,1.649,0,0,0-1.258-.5,1.953,1.953,0,0,0-1.466.537A2.05,2.05,0,0,0,77.7-7.021H76.439a2.936,2.936,0,0,1,.885-2.222,3.282,3.282,0,0,1,2.369-.848,3.153,3.153,0,0,1,2.194.728,2.483,2.483,0,0,1,.807,1.938q0,1.47-1.873,3.5L78.155-1.032h5Zm7.581-4.245a5.784,5.784,0,0,1-.759,3.3A2.7,2.7,0,0,1,87.6.137,2.718,2.718,0,0,1,85.244-.919a5.49,5.49,0,0,1-.793-3.155V-5.763a5.655,5.655,0,0,1,.759-3.261,2.719,2.719,0,0,1,2.379-1.066,2.744,2.744,0,0,1,2.365,1.029,5.458,5.458,0,0,1,.779,3.175ZM89.469-5.975a4.634,4.634,0,0,0-.451-2.341,1.553,1.553,0,0,0-1.429-.735,1.532,1.532,0,0,0-1.415.731,4.525,4.525,0,0,0-.458,2.249v2.023a4.708,4.708,0,0,0,.468,2.382A1.55,1.55,0,0,0,87.6-.9a1.529,1.529,0,0,0,1.391-.725A4.538,4.538,0,0,0,89.469-3.9ZM98.875,0H92.354V-.909L95.8-4.737a8.185,8.185,0,0,0,1.056-1.412,2.356,2.356,0,0,0,.291-1.125,1.786,1.786,0,0,0-.472-1.278,1.649,1.649,0,0,0-1.258-.5,1.953,1.953,0,0,0-1.466.537,2.05,2.05,0,0,0-.523,1.494H92.162a2.936,2.936,0,0,1,.885-2.222,3.282,3.282,0,0,1,2.369-.848,3.153,3.153,0,0,1,2.194.728,2.483,2.483,0,0,1,.807,1.938q0,1.47-1.873,3.5L93.878-1.032h5Zm6.679-3.343h1.381v1.032h-1.381V0h-1.271V-2.311H99.75v-.745l4.457-6.9h1.347Zm-4.368,0h3.1V-8.224l-.15.273Zm7.048,2.68a.792.792,0,0,1,.195-.547.742.742,0,0,1,.584-.219.765.765,0,0,1,.591.219.776.776,0,0,1,.2.547.734.734,0,0,1-.2.526.778.778,0,0,1-.591.212.755.755,0,0,1-.584-.212A.748.748,0,0,1,108.233-.663Z" transform="translate(562.208 2319.047)" fill="#12263f"/>
  </g>
</svg>
