<svg xmlns="http://www.w3.org/2000/svg" xmlns:xlink="http://www.w3.org/1999/xlink" width="639" height="409" viewBox="0 0 639 409">
  <defs>
    <clipPath id="clip-path">
      <rect id="Rect치ngulo_405287" data-name="Rect치ngulo 405287" width="639" height="409" transform="translate(-2288.652 -9241.431)" fill="#fff" stroke="#707070" stroke-width="1" opacity="0.5"/>
    </clipPath>
    <clipPath id="clip-path-2">
      <rect id="Rect치ngulo_405286" data-name="Rect치ngulo 405286" width="783" height="523" transform="translate(0.221 0.287)" fill="none"/>
    </clipPath>
  </defs>
  <g id="Enmascarar_grupo_1098728" data-name="Enmascarar grupo 1098728" transform="translate(2288.652 9241.431)" clip-path="url(#clip-path)">
    <g id="Grupo_1101698" data-name="Grupo 1101698" transform="translate(-2367.872 -9298.718)">
      <g id="Grupo_1101697" data-name="Grupo 1101697" transform="translate(0 0)" clip-path="url(#clip-path-2)">
        <path id="Trazado_879504" data-name="Trazado 879504" d="M1095.507,534.6c-99.71,0-191.245-.576-290.956-.576H630.47a8.076,8.076,0,0,1-8.254-7.886q0-67.629,0-135.258c0-22.543-.8-45.1,0-67.629,1.474-41.565-2.427-53.459,8.254-53.459q182.648.009,365.3,0l103.842,1.04c5.435,0,6.316,1.78,6.091,7.211-1.021,24.634-1.936,202.025-1.936,248.67a8.077,8.077,0,0,1-8.255,7.886" transform="translate(-459.64 -199.013)" fill="#ebded8"/>
        <path id="Trazado_879505" data-name="Trazado 879505" d="M880.336,512.212c-2.947.54-6.7.05-8.864.113-5.829.17-40.823-.273-52.49-.281a6.847,6.847,0,0,1-4.016-.836c-1.759-1.246-1.927-3.746-1.928-5.9q-.011-46.121-.023-92.241c0-2.631.194-5.669,2.313-7.227,1.43-1.051,3.338-1.1,5.113-1.1l56.43-.115c2.169,0,4.522.052,6.224,1.4,2.24,1.77,2.482,5.019,2.529,7.874.438,26.533.087,53.073-.264,79.608q-.071,5.381-.142,10.762c-.027,2.005-.083,4.12-1.129,5.832a5.257,5.257,0,0,1-3.753,2.116" transform="translate(-600.818 -298.594)" fill="#fff"/>
        <path id="Trazado_879506" data-name="Trazado 879506" d="M872.934,451.888h41.317a1.184,1.184,0,0,0,0-2.366H872.934a1.184,1.184,0,0,0,0,2.366" transform="translate(-644.227 -331.753)" fill="#ebded8"/>
        <path id="Trazado_879507" data-name="Trazado 879507" d="M848.174,503.593h52.74a1.184,1.184,0,0,0,0-2.366h-52.74a1.184,1.184,0,0,0,0,2.366" transform="translate(-625.941 -369.94)" fill="#ebded8"/>
        <path id="Trazado_879508" data-name="Trazado 879508" d="M848.174,536.364h52.74a1.184,1.184,0,0,0,0-2.366h-52.74a1.184,1.184,0,0,0,0,2.366" transform="translate(-625.941 -394.143)" fill="#ebded8"/>
        <path id="Trazado_879509" data-name="Trazado 879509" d="M848.174,569.135h52.74a1.183,1.183,0,0,0,0-2.365h-52.74a1.183,1.183,0,0,0,0,2.365" transform="translate(-625.941 -418.347)" fill="#ebded8"/>
        <path id="Trazado_879510" data-name="Trazado 879510" d="M848.174,601.906h52.74a1.184,1.184,0,0,0,0-2.366h-52.74a1.184,1.184,0,0,0,0,2.366" transform="translate(-625.941 -442.549)" fill="#ebded8"/>
        <path id="Trazado_879511" data-name="Trazado 879511" d="M848.174,634.677h52.74a1.184,1.184,0,0,0,0-2.366h-52.74a1.184,1.184,0,0,0,0,2.366" transform="translate(-625.941 -466.752)" fill="#ebded8"/>
        <path id="Trazado_879512" data-name="Trazado 879512" d="M848.174,667.448h52.74a1.184,1.184,0,0,0,0-2.366h-52.74a1.184,1.184,0,0,0,0,2.366" transform="translate(-625.941 -490.955)" fill="#ebded8"/>
        <path id="Trazado_879513" data-name="Trazado 879513" d="M976.345,720.841h8v-2.366h-.772a1.184,1.184,0,0,0,0,2.366h8a1.184,1.184,0,0,0,0-2.366h-8v2.366h.772a1.184,1.184,0,0,0,0-2.366h-8a1.184,1.184,0,0,0,0,2.366" transform="translate(-720.601 -530.388)" fill="#ebded8"/>
        <path id="Trazado_879514" data-name="Trazado 879514" d="M1388.027,977.3c-.195.006-.389.007-.58.007l-112.1.013a6.391,6.391,0,0,1-3.149-.533c-1.369-.792-1.493-2.374-1.487-3.738q.079-16.808.158-33.615.039-8.4.079-16.808c.019-3.934-2.584-12.318,4.4-12.318l111.113,0a6.32,6.32,0,0,1,3.2.556c1.313.787,1.43,2.316,1.426,3.641q-.085,29.883-.169,59.766a2.818,2.818,0,0,1-.978,2.578,3.719,3.719,0,0,1-1.9.452" transform="translate(-938.684 -672.063)" fill="#fff"/>
        <path id="Trazado_879515" data-name="Trazado 879515" d="M1342.636,991.624a7.975,7.975,0,0,1-1.076.046l-7.3-.038a2.357,2.357,0,0,1-1.448-.323,2.089,2.089,0,0,1-.551-1.735q.01-20.962.019-41.925c0-.987.108-2.161,1.012-2.65a3.13,3.13,0,0,1,1.5-.246l7.563.016a2.341,2.341,0,0,1,1.381.29,2.081,2.081,0,0,1,.587,1.777c0,6.882.062,37.272.019,43.658a1.167,1.167,0,0,1-1.226,1.123,4.053,4.053,0,0,0-.477.008" transform="translate(-984.303 -697.505)" fill="#ebded8"/>
        <path id="Trazado_879516" data-name="Trazado 879516" d="M1400.944,1031.994c-.353.033-.719.033-1.077.032l-7.3-.026a3.221,3.221,0,0,1-1.447-.225,1.2,1.2,0,0,1-.551-1.207q.009-14.579.018-29.159a1.714,1.714,0,0,1,1.012-1.843,4.376,4.376,0,0,1,1.5-.171l7.563.011a3.222,3.222,0,0,1,1.381.2,1.212,1.212,0,0,1,.587,1.235c0,4.786.062,25.923.019,30.364,0,.441-.557.791-1.226.781-.212,0-.391,0-.477.005" transform="translate(-1027.366 -737.862)" fill="#d1bdb6"/>
        <path id="Trazado_879517" data-name="Trazado 879517" d="M1519.24,999.377a8.391,8.391,0,0,1-1.076.043l-7.3-.036a2.477,2.477,0,0,1-1.447-.3,1.894,1.894,0,0,1-.551-1.634q.009-19.737.018-39.474c0-.929.108-2.034,1.012-2.495a3.3,3.3,0,0,1,1.5-.232l7.563.015a2.464,2.464,0,0,1,1.381.274,1.89,1.89,0,0,1,.588,1.672c0,6.479.062,35.092.019,41.1a1.141,1.141,0,0,1-1.226,1.057,4.255,4.255,0,0,0-.478.007" transform="translate(-1114.735 -705.256)" fill="#d1bdb6"/>
        <path id="Trazado_879518" data-name="Trazado 879518" d="M1578.39,1104.326c-.354.007-.719.007-1.077.007l-7.3-.006a14.236,14.236,0,0,1-1.447-.048c-.51-.059-.552-.166-.551-.26q.009-3.143.018-6.286c0-.148.108-.324,1.012-.4.447-.036.988-.037,1.5-.037l7.563,0c.48,0,1,0,1.381.043.54.059.587.17.587.267,0,1.032.062,5.589.019,6.546,0,.095-.557.17-1.226.168-.211,0-.391,0-.477,0" transform="translate(-1158.42 -810.168)" fill="#776fe0"/>
        <path id="Trazado_879519" data-name="Trazado 879519" d="M1637.537,1029.488c-.353.034-.719.034-1.077.032l-7.3-.027a3.132,3.132,0,0,1-1.447-.231,1.248,1.248,0,0,1-.551-1.239q.009-14.976.018-29.951a1.772,1.772,0,0,1,1.012-1.893,4.267,4.267,0,0,1,1.5-.176l7.563.011a3.141,3.141,0,0,1,1.381.208,1.257,1.257,0,0,1,.588,1.269c0,4.916.062,26.628.019,31.19,0,.454-.557.812-1.226.8-.211,0-.391,0-.477.005" transform="translate(-1202.103 -735.357)" fill="#ebded8"/>
        <path id="Trazado_879520" data-name="Trazado 879520" d="M1459.251,1082.755c-.353.015-.719.015-1.077.014l-7.3-.011a6.9,6.9,0,0,1-1.447-.1c-.51-.124-.551-.347-.551-.542q.009-6.554.018-13.107c0-.308.108-.676,1.012-.828a9.511,9.511,0,0,1,1.5-.077l7.563.005a6.882,6.882,0,0,1,1.38.091c.54.122.588.354.588.555,0,2.151.062,11.652.019,13.649,0,.2-.557.355-1.226.351-.211,0-.391,0-.477,0" transform="translate(-1070.429 -788.606)" fill="#ebded8"/>
        <path id="Trazado_879521" data-name="Trazado 879521" d="M1289.668,528.237a5.473,5.473,0,0,0-1.473-.137l-69.4,0h-34.7c-11.385,0-23.341-1.2-34.669,0-1.236.132-2.543-.494-3.344,1.055-1.141,2.213-.472,34.046-.47,41.336q0,21.869.01,43.737a3.83,3.83,0,0,0,.441,2.2,2.842,2.842,0,0,0,2.492.865h140.428a2.653,2.653,0,0,0,1.87-.486,3.646,3.646,0,0,0,.727-2.687q.109-40.448.22-80.9c0-1.784-.17-3.926-1.564-4.752a2.313,2.313,0,0,0-.562-.237" transform="translate(-846.307 -389.395)" fill="#fff"/>
        <path id="Trazado_879522" data-name="Trazado 879522" d="M1300.183,659.3a2.884,2.884,0,0,1-2.116-.916l-18.39-19.633a.42.42,0,0,0-.637.043l-12.3,18.047a2.338,2.338,0,0,1-1.929,1.018,2.424,2.424,0,0,1-1.935-1l-20.836-30.035a1.076,1.076,0,0,0-.925-.445,1.035,1.035,0,0,0-.867.528l-17.3,31.239a1.183,1.183,0,0,1-2.07-1.146l17.3-31.239a3.435,3.435,0,0,1,5.8-.286l20.837,30.036,12.27-18.046a2.784,2.784,0,0,1,4.318-.328l18.39,19.633a.549.549,0,0,0,.447.165.522.522,0,0,0,.4-.235c7.677-12.646,18.644-30.888,22.466-37.645l-5.814,2.331a1.183,1.183,0,1,1-.88-2.2l8.725-3.5a1.213,1.213,0,0,1,1.361.335c.756.892.786.926-11.725,21.814-6.039,10.084-12.127,20.111-12.127,20.111a2.884,2.884,0,0,1-2.19,1.338c-.091.008-.182.013-.272.013" transform="translate(-901.933 -454.414)" fill="#9c4e32"/>
        <path id="Trazado_879523" data-name="Trazado 879523" d="M1619.362,626.759a1.182,1.182,0,0,1-1.175-1.057l-.944-8.786a1.183,1.183,0,0,1,2.352-.252l.944,8.786a1.186,1.186,0,0,1-1.177,1.309" transform="translate(-1194.775 -454.417)" fill="#9c4e32"/>
        <path id="Trazado_879524" data-name="Trazado 879524" d="M1315.062,636.371H1197.5a2.029,2.029,0,0,1-2.027-2.027v-58.53a.591.591,0,0,1,1.183,0v58.53a.845.845,0,0,0,.844.845h117.564a.591.591,0,0,1,0,1.183" transform="translate(-883.28 -424.589)" fill="#212332"/>
        <path id="Trazado_879525" data-name="Trazado 879525" d="M1242.854,802.087a.591.591,0,0,1-.591-.591v-5.57a.591.591,0,1,1,1.183,0v5.57a.591.591,0,0,1-.591.591" transform="translate(-917.839 -587.153)" fill="#212332"/>
        <path id="Trazado_879526" data-name="Trazado 879526" d="M1190.982,769.756h-5.57a.591.591,0,0,1,0-1.183h5.57a.591.591,0,0,1,0,1.183" transform="translate(-875.415 -567.388)" fill="#212332"/>
        <path id="Trazado_879527" data-name="Trazado 879527" d="M1190.982,720.237h-5.57a.591.591,0,0,1,0-1.183h5.57a.591.591,0,0,1,0,1.183" transform="translate(-875.415 -530.816)" fill="#212332"/>
        <path id="Trazado_879528" data-name="Trazado 879528" d="M1190.982,670.717h-5.57a.591.591,0,0,1,0-1.183h5.57a.591.591,0,0,1,0,1.183" transform="translate(-875.415 -494.243)" fill="#212332"/>
        <path id="Trazado_879529" data-name="Trazado 879529" d="M1190.982,621.193h-5.57a.591.591,0,0,1,0-1.183h5.57a.591.591,0,0,1,0,1.183" transform="translate(-875.415 -457.667)" fill="#212332"/>
        <path id="Trazado_879530" data-name="Trazado 879530" d="M1338.979,802.087a.591.591,0,0,1-.591-.591v-5.57a.591.591,0,1,1,1.183,0v5.57a.591.591,0,0,1-.591.591" transform="translate(-988.832 -587.153)" fill="#212332"/>
        <path id="Trazado_879531" data-name="Trazado 879531" d="M1435.112,802.087a.591.591,0,0,1-.591-.591v-5.57a.591.591,0,1,1,1.183,0v5.57a.591.591,0,0,1-.592.591" transform="translate(-1059.831 -587.153)" fill="#212332"/>
        <path id="Trazado_879532" data-name="Trazado 879532" d="M1531.239,802.087a.591.591,0,0,1-.592-.591v-5.57a.591.591,0,1,1,1.183,0v5.57a.591.591,0,0,1-.591.591" transform="translate(-1130.826 -587.153)" fill="#212332"/>
        <path id="Trazado_879533" data-name="Trazado 879533" d="M1627.367,802.087a.591.591,0,0,1-.591-.591v-5.57a.591.591,0,1,1,1.183,0v5.57a.591.591,0,0,1-.592.591" transform="translate(-1201.821 -587.153)" fill="#212332"/>
        <path id="Trazado_879534" data-name="Trazado 879534" d="M1106.255,944.817a8.839,8.839,0,0,1-1.057.053l-35.539-.011a2.091,2.091,0,0,1-2.5-2.607q-.147-11.826-.3-23.651a7.761,7.761,0,0,1,.529-3.6c1.843-3.684,31.316-1.657,38.277-1.654a2.322,2.322,0,0,1,2.78,2.915V942.1a3.242,3.242,0,0,1-.334,1.758,2.415,2.415,0,0,1-1.864.955" transform="translate(-788.296 -673.9)" fill="#fff"/>
        <path id="Trazado_879535" data-name="Trazado 879535" d="M1118.94,959.62a.887.887,0,0,1-.652-1.489l13.048-14.141a.888.888,0,0,1,1.3,1.2l-13.049,14.141a.885.885,0,0,1-.652.285" transform="translate(-826.103 -696.732)" fill="#212332"/>
        <path id="Trazado_879536" data-name="Trazado 879536" d="M1154.7,983.684a4.206,4.206,0,0,1-4.114-3.759,4.479,4.479,0,0,1,.763-3.333,4.1,4.1,0,0,1,2.794-1.592,4.363,4.363,0,0,1,1.241,8.634,4.883,4.883,0,0,1-.684.05m.13-6.96a3.043,3.043,0,0,0-.435.032,2.339,2.339,0,0,0-1.62.893,2.7,2.7,0,0,0-.435,2.008,2.464,2.464,0,1,0,2.49-2.933" transform="translate(-850.091 -719.808)" fill="#212332"/>
        <path id="Trazado_879537" data-name="Trazado 879537" d="M1112.974,948.63a4.207,4.207,0,0,1-4.126-3.759,4.482,4.482,0,0,1,.771-3.328,4.124,4.124,0,0,1,2.808-1.6,4.039,4.039,0,0,1,3.875,1.489,4.825,4.825,0,0,1,.675,4.634,4.06,4.06,0,0,1-3.31,2.509,4.844,4.844,0,0,1-.694.051m.138-6.96a3.046,3.046,0,0,0-.433.032,2.366,2.366,0,0,0-1.637.9,2.7,2.7,0,0,0-.439,2.005,2.419,2.419,0,0,0,2.812,2.216,2.263,2.263,0,0,0,1.916-1.413,3.036,3.036,0,0,0-.422-2.877,2.2,2.2,0,0,0-1.8-.863" transform="translate(-819.265 -693.918)" fill="#212332"/>
        <path id="Trazado_879538" data-name="Trazado 879538" d="M1837.329,1036.55a11.354,11.354,0,0,1-11.248,11.249c-9.027,0-14.495-11.234-8.74-18.333a11.369,11.369,0,0,1,8.74-4.166,11.491,11.491,0,0,1,11.247,11.115q0,.068,0,.135" transform="translate(-1340.817 -756.994)" fill="#ff9538"/>
        <path id="Trazado_879539" data-name="Trazado 879539" d="M1833.732,607.259l60.816-41.266a3.254,3.254,0,0,1,4.594.982,77.971,77.971,0,0,1,11.605,40.923c0,42.765-35.191,77.956-77.956,77.956s-77.956-35.191-77.956-77.956c0-39.506,77.874-1.135,77.874-1.135a.657.657,0,0,0,1.024.5" transform="translate(-1296.398 -417.359)" fill="#fff"/>
        <path id="Trazado_879540" data-name="Trazado 879540" d="M1833.732,508.421l-6.326-73.8a3.259,3.259,0,0,0-3.631-3,78.3,78.3,0,0,0-68.94,77.433,77.049,77.049,0,0,0,1.348,14.259c11.343-3.1,63.621-11.754,77.549-14.9" transform="translate(-1296.398 -318.52)" fill="#d1bdb6"/>
        <path id="Trazado_879541" data-name="Trazado 879541" d="M2071.919,462.475l-3.512-67.821c.007-.922,3.075-1.779,4-1.751a73.75,73.75,0,0,1,53.567,25.472c.6.7,2.443,3.253,1.733,3.84l-54.786,42.155c-1.082.893-1.009-.492-1-1.894" transform="translate(-1527.988 -289.937)" fill="#ff9538"/>
        <path id="Trazado_879542" data-name="Trazado 879542" d="M1232.109,414.513a9.981,9.981,0,0,1-9.888,9.889c-7.935,0-12.741-9.875-7.683-16.116a9.993,9.993,0,0,1,7.683-3.662,10.1,10.1,0,0,1,9.887,9.77c0,.039,0,.079,0,.119" transform="translate(-895.828 -298.594)" fill="#ff9538"/>
        <path id="Trazado_879543" data-name="Trazado 879543" d="M964.936,880.271a9.981,9.981,0,0,1-9.888,9.889c-7.935,0-12.742-9.875-7.683-16.116a9.993,9.993,0,0,1,7.683-3.662,10.1,10.1,0,0,1,9.887,9.77c0,.04,0,.079,0,.119" transform="translate(-698.508 -642.579)" fill="#ff9538"/>
        <path id="Trazado_879544" data-name="Trazado 879544" d="M1446.336,420.7c-.321.03-.646.034-.962.034l-114.81,0a3.252,3.252,0,0,1-2.753-.906,4.112,4.112,0,0,1-.574-2.3c-.26-5.542-3.1-19.729,4.505-19.729l113.866.121a3.66,3.66,0,0,1,2.3.522c1.047.8,1.15,2.449,1.149,3.863q0,7.082-.007,14.163c0,1.262-.064,2.687-.916,3.522a2.841,2.841,0,0,1-1.8.717" transform="translate(-980.057 -293.546)" fill="#9c8058"/>
        <path id="Trazado_879545" data-name="Trazado 879545" d="M961.177,875.514a8.229,8.229,0,0,0-7.443,7.97c-.267,3.989,2.221,8.365,6.679,7.885,1.5-.161,1.514-2.529,0-2.366-6.43.692-5.182-10.5.764-11.123,1.5-.158,1.515-2.525,0-2.366" transform="translate(-704.731 -646.364)" fill="#212332"/>
        <path id="Trazado_879546" data-name="Trazado 879546" d="M1229.592,410.928a7.467,7.467,0,0,0-8.646,4.958c-1.326,3.7.459,7.486,3.511,9.672,1.24.888,2.422-1.163,1.194-2.043a6.115,6.115,0,0,1-2.632-6.326,5.115,5.115,0,0,1,5.944-3.98c1.485.321,2.119-1.959.629-2.281" transform="translate(-901.767 -303.122)" fill="#212332"/>
        <path id="Trazado_879547" data-name="Trazado 879547" d="M1836.189,1033.452c-5.028-.646-8.173,3.492-9.312,7.891a1.184,1.184,0,0,0,2.281.629c.9-3.459,3.035-6.667,7.031-6.154,1.505.193,1.491-2.174,0-2.366" transform="translate(-1349.574 -762.966)" fill="#212332"/>
        <path id="Trazado_879548" data-name="Trazado 879548" d="M1597.857,422.63a10.363,10.363,0,0,1,4.254.053c1.113.244,1.589-1.466.472-1.711a12.6,12.6,0,0,0-5.2-.053c-1.12.22-.646,1.93.471,1.711" transform="translate(-1179.642 -310.447)" fill="#fff"/>
        <path id="Trazado_879549" data-name="Trazado 879549" d="M1491.091,427.6q.212,3.713.424,7.426c.065,1.135,1.84,1.143,1.774,0q-.212-3.713-.424-7.426c-.065-1.135-1.84-1.143-1.774,0" transform="translate(-1101.609 -314.929)" fill="#fff"/>
        <path id="Trazado_879550" data-name="Trazado 879550" d="M1481.077,440.844a23.461,23.461,0,0,1,7.185.2c1.117.208,1.595-1.5.472-1.711a25,25,0,0,0-7.657-.267c-1.119.136-1.133,1.912,0,1.774" transform="translate(-1093.591 -323.902)" fill="#fff"/>
        <path id="Trazado_879551" data-name="Trazado 879551" d="M1535.86,424.383c.415-.657,1.956-.956,2.376-.241.328.556-.78,1.511-1.155,1.849a.892.892,0,0,0,.391,1.483c1.175.176,2.8,1.156,1.5,2.463-.881.89-2.343.767-3.487.681s-1.133,1.688,0,1.774c2.186.165,4.938-.225,5.647-2.7.626-2.182-1.239-3.637-3.192-3.929l.391,1.483c1.092-.985,2.916-3.479,1.19-4.65a3.833,3.833,0,0,0-5.2.892c-.612.968.923,1.859,1.532.9" transform="translate(-1133.439 -311.397)" fill="#fff"/>
        <path id="Trazado_879552" data-name="Trazado 879552" d="M1570.455,458.348a.7.7,0,0,1-.179.465c-.643.947.894,1.836,1.532.9a2.484,2.484,0,0,0,.357-1.832.892.892,0,0,0-1.091-.62.911.911,0,0,0-.62,1.091" transform="translate(-1159.98 -337.445)" fill="#fff"/>
        <path id="Trazado_879553" data-name="Trazado 879553" d="M1595.923,423.453a25.16,25.16,0,0,0-.018,2.654.91.91,0,0,0,.887.887c.952.06,3.356.415,3.788,1.456q-.155.866-.309,1.731a5.367,5.367,0,0,1-1.1.359,7.454,7.454,0,0,1-1.692.2.888.888,0,0,0,0,1.774c2-.022,5.46-.723,5.332-3.387s-3.893-3.771-6.019-3.906l.888.887a25.029,25.029,0,0,1,.017-2.654c.068-1.14-1.707-1.136-1.774,0" transform="translate(-1179.002 -311.869)" fill="#fff"/>
        <path id="Trazado_879554" data-name="Trazado 879554" d="M1639.931,426.476c-.9-.226-3.067-1.274-1.646-2.358a1.464,1.464,0,0,1,2.263,1.564,8.292,8.292,0,0,1-3.247,4.589c-.892.687-.009,2.229.9,1.532a10.9,10.9,0,0,0,3.94-5.2c.525-1.7.059-3.854-1.854-4.385-1.47-.409-4,.279-4.4,1.956-.481,2.033,1.91,3.6,3.574,4.011a.888.888,0,0,0,.472-1.711" transform="translate(-1208.502 -311.504)" fill="#fff"/>
        <path id="Trazado_879555" data-name="Trazado 879555" d="M1676.793,425.063a1.821,1.821,0,0,1-.082-2.8c.4-.375,1.378-.733,1.788-.128.476.7-.087,1.863-.423,2.448a17.684,17.684,0,0,1-3.505,4.227c-.846.77.411,2.022,1.255,1.255,1.915-1.742,7.814-8.306,2.715-9.892-3.787-1.178-5.624,4.384-2.643,6.424.945.647,1.833-.89.9-1.532" transform="translate(-1236.912 -309.956)" fill="#fff"/>
        <path id="Trazado_879556" data-name="Trazado 879556" d="M1717.838,421.8q-3.01,5.349-6.091,10.657a.888.888,0,0,0,1.532.9q3.081-5.308,6.091-10.657a.888.888,0,0,0-1.532-.9" transform="translate(-1264.483 -310.956)" fill="#fff"/>
        <path id="Trazado_879557" data-name="Trazado 879557" d="M1741.487,447.648a1.361,1.361,0,0,0,.495,2.533c1.352.178,2.135-1.271,1.926-2.451a1.492,1.492,0,0,0-2.528-.924,2.086,2.086,0,0,0-.012,2.957c.812.8,2.068-.45,1.255-1.255-.148-.147-.047-.37-.058-.391q-.432-.31-.392-.054a1.042,1.042,0,0,1,0,.179c-.153.235.064,1.008.213.938,1.033-.484.134-2.014-.9-1.532" transform="translate(-1286.004 -329.425)" fill="#fff"/>
        <path id="Trazado_879558" data-name="Trazado 879558" d="M1710.683,424.589a1.425,1.425,0,0,0-.6,2.394,1.769,1.769,0,0,0,2.674-.515,1.66,1.66,0,0,0-.671-2.572,1.815,1.815,0,0,0-2.192,1.61c-.2,1.117,1.511,1.6,1.711.472a4.2,4.2,0,0,0,.123-.412c.018.128-.325-.243-.4-.19-.162.112-.394.989-.172.924a.888.888,0,0,0-.472-1.711" transform="translate(-1263.025 -312.778)" fill="#fff"/>
        <path id="Trazado_879559" data-name="Trazado 879559" d="M1099.829,296.2q-139.388-.208-278.771-1.27-41.944-.3-83.888-.617-20.677-.154-41.353-.306l-21.267-.154c-6.92-.05-14.4-.948-21.267-.151-3.153.366-3.567.686-3.966,3.342a95.383,95.383,0,0,0-.546,9.646c-.612,13.2-1.014,26.416-1.361,39.628-1.008,38.408-1.912,77.013.057,115.4.078,1.515,2.444,1.524,2.366,0-1.713-33.385-1.123-66.924-.415-100.33q.464-21.917,1.267-43.827c.182-4.817.377-9.633.625-14.447.073-1.4-.434-5.882.469-7.08.868-1.151,12.529.107,14.5.121l21.267.153q20.677.15,41.353.3,40.171.3,80.343.594,80.934.585,161.869,1,64.358.3,128.717.352a1.184,1.184,0,0,0,0-2.366" transform="translate(-477.69 -216.43)" fill="#212332"/>
        <path id="Trazado_879560" data-name="Trazado 879560" d="M2232.477,584.706c-1.095-1.387-.466-3.235-2.169-4.389-5.119-3.472-11.545-4.763-17.6-5.423-6.139-.669-12.52-.079-17.931,3.11-7.24,4.268-11.167,12.44-5.952,19.9a.58.58,0,0,0,.732.192c3.666,6.371,9.911,10.254,15.816,14.379,5.824,4.068,11.531,11.362,19.292,10.89a.48.48,0,0,0,.789.034c7.927-9.8,15.965-27.364,7.026-38.688" transform="translate(-1615.156 -424.165)" fill="#212332"/>
        <path id="Trazado_879561" data-name="Trazado 879561" d="M1985.927,942.939a1.116,1.116,0,0,0-.338-.724c.586-8.36-6.782-23.507-7.084-23.652-1.281-.614-6.313,1.445-6.391,1.537-10.324,12.119-15.8,26.29-23.273,40.241-8.134,15.193-10.093,20.631-17,36.423a.92.92,0,0,0-1.055.8c-2.312,13.23-1.745,26.878.526,40.087,1.651,9.606,6.008,22.255,17.033,22.3,16.269.069,34.216-30.351,40.015-41.792.657.372-.578-50.674-2.43-75.226" transform="translate(-1425.253 -678.079)" fill="#ffbfad"/>
        <path id="Trazado_879562" data-name="Trazado 879562" d="M1965.662,1183.711c-.393-1.971-.774-3.944-1.34-5.881-1.094-3.743-2.26-7.47-3.594-11.135a67.323,67.323,0,0,0-9.261-17.854c-1.916,4.244-3.762,8.6-6.259,14.35,6.363,7.263,13.838,13.483,20.453,20.52" transform="translate(-1437 -848.235)" fill="#212332"/>
        <path id="Trazado_879563" data-name="Trazado 879563" d="M2052.227,1414.542c.188.027.383.012.572.028,24.143,2.09,40.6,2.09,71.952,2.09,13.1,0,46.248,0,61.4-2.088,1.383-.19,3.031-.348,2.862-2.13l-.646-6.832c-.039-.408-3.662-35.734-6.406-52.951-2.749-17.241-12.336-32.131-16.187-49.039a1.133,1.133,0,0,0-.2-.436c-.123-2.039-.113-9.463.14-11.5.668-5.386-73.222.084-88.17-2.123a1.163,1.163,0,0,0-2.114-.065c-.783.408-.987,1.611-.147,1.969a116.827,116.827,0,0,1-.946,11.907,7.453,7.453,0,0,1-.6,2.087c-11.673,25.945-15.5,54.428-19.018,82.411-.574,4.563-1.142,9.126-1.738,13.685-.231,1.768-2.667,12.075-1.208,12.846a1.367,1.367,0,0,0,.457.139" transform="translate(-1515.358 -951.641)" fill="#776fe0"/>
        <path id="Trazado_879564" data-name="Trazado 879564" d="M2255.282,1304.673a1.127,1.127,0,0,0-.2-.435c-.123-2.039-.113-9.464.14-11.5.586-4.719-56.049-1.105-80.147-1.621-1.518,2.245-2.483,4.282-1.383,4.73.673.274.377,1.379-.3,1.1a1.948,1.948,0,0,1-.645-.426.669.669,0,0,1-.243.13c1.377,4.577,44.163,43.388,49.457,45.461a11.135,11.135,0,0,1,1.326,3.151c.039.025-.88-2.458-.841-2.433,6.455,1.95,33.354,6.5,40.285,6.356,2.591-.053,5.18-.171,7.767-.309-3.559-15.241-11.73-28.9-15.216-44.207" transform="translate(-1604.868 -952.694)" fill="#212332"/>
        <path id="Trazado_879565" data-name="Trazado 879565" d="M2178.1,853.345a141.956,141.956,0,0,0-21.116-8.5c-10.761-3.323-22-5.817-33.312-5.821-11.624,0-22.437,4-33.083,8.311-9.527,3.861-18.848,9.251-24.972,17.73a38.121,38.121,0,0,0-5.629,11.53,1,1,0,0,0,.239,1.019,150.543,150.543,0,0,0,10.249,21.4c-.008.29-.027.578-.028.869-.02,6.208,1.543,12.128,3.392,18a312.413,312.413,0,0,0,1.23,43.112c.511,4.873,2.138,6.615,6.6,8.833a55.335,55.335,0,0,0,17.808,5.027c12.172,1.539,25.024,1.169,37.21-.089,12.317-1.271,24.278-4.313,34.824-10.978,2.879-1.82,3.8-7.917,4.433-10.984,1.4-6.768,2.73-13.568,3.857-20.377,7.2-15.388,12-31.715,16.079-48.2.539-.04.023,4.765.053,4.074.606-13.574-8.71-30.416-17.837-34.952" transform="translate(-1521.735 -619.419)" fill="#ffbfad"/>
        <path id="Trazado_879566" data-name="Trazado 879566" d="M2579.859,1015.978c-.031.692.485-4.113-.054-4.074-.011.045-.023.089-.034.134a30.643,30.643,0,0,1,.088,3.94" transform="translate(-1905.656 -747.1)" fill="#212332"/>
        <path id="Trazado_879567" data-name="Trazado 879567" d="M2459.358,1143.514c.364-.778.7-1.569,1.047-2.352-1.9-1.7-3.83-3.377-5.809-4.992-3.679-3-7.511-5.813-11.435-8.485-1.413-.963-3.157-1.831-4.7-2.846.176.446.337.9.492,1.332a75.552,75.552,0,0,1,2.069,7.772,180.518,180.518,0,0,0,5.288,17.8,186.541,186.541,0,0,0,7.718,18.421,55.73,55.73,0,0,0,1.479-6.271c1.4-6.768,2.729-13.568,3.857-20.377" transform="translate(-1801.287 -830.509)" fill="#212332"/>
        <path id="Trazado_879568" data-name="Trazado 879568" d="M2359.13,561.53c-3.065-3.233-9.331-2.985-13.021-.859-4.742,2.731-6.3,8.337-7.189,13.163a1.716,1.716,0,0,0-.026.417,1.2,1.2,0,0,0-.11.57,5.494,5.494,0,0,0,.811,2.7,1.921,1.921,0,0,0,.191.248,1.5,1.5,0,0,0,1.688,1.428c5.839-.239,11.785-1.5,15.814-5.751,2.43-2.561,4.506-6.494,3.1-9.963a6.224,6.224,0,0,0-1.256-1.956" transform="translate(-1727.673 -412.67)" fill="#212332"/>
        <path id="Trazado_879569" data-name="Trazado 879569" d="M2246.428,740.7c4.417,2.365,9.267,1.3,13.7-1.141,3.813-2.1,7.867-5.035,10.382-8.72-.08-.7-.159-1.4-.247-2.113a230.466,230.466,0,0,1-1.652-26.876,1.026,1.026,0,0,0-.471-.889,1.136,1.136,0,0,0-1.531,0l-22.573,19.98a1,1,0,0,0-.038,1.51q1.062,8.1,2.124,16.207c.087.664.2,1.35.311,2.045" transform="translate(-1657.425 -517.233)" fill="#9a5048"/>
        <path id="Trazado_879570" data-name="Trazado 879570" d="M2256.007,764.688c5.4-3.98,7.684-10.121,8-16.586-7.283,1.542-13.892,4.7-20.238,8.418a1.051,1.051,0,0,0,.282.965q.779,5.936,1.556,11.872c.16-.051.321-.1.482-.15a33.775,33.775,0,0,0,9.917-4.519" transform="translate(-1657.483 -552.27)" fill="#5c1e18"/>
        <path id="Trazado_879571" data-name="Trazado 879571" d="M2228.894,602.465c-5.271-6.869-14.85-10.01-23.326-8.732-10.554,1.59-14.92,10.565-16.125,20.253a166.274,166.274,0,0,0-1.09,20.288c0,3.147.234,6.755,2.1,9.416a9.606,9.606,0,0,0,5.312,3.62c4.552,1.308,9.587.411,14.1-.607,1.194-.269,2.4-.5,3.567-.866,8.8-2.737,13.806-20.565,14.3-23.471,5-5.487,6.027-13.553,1.156-19.9" transform="translate(-1616.575 -438.054)" fill="#9a5048"/>
        <path id="Trazado_879572" data-name="Trazado 879572" d="M2201.887,676.265c-1.361-.489-1.9,1.055-1.966,2.1-.062.931-.205,3.9,1.094,4.19,1.16.255,2.549-1.781,2.069-2.512a4.563,4.563,0,0,1-.174-2.763c.079-.536-.6-.858-1.023-1.011" transform="translate(-1625.089 -499.145)" fill="#290503"/>
        <path id="Trazado_879573" data-name="Trazado 879573" d="M2251.922,677.508c-2.954-.249-2.717,3.736-1.984,5.168,1.15,2.247,3.405.692,3.966-1.138.464-1.516-.113-3.873-1.982-4.03" transform="translate(-1661.708 -500.124)" fill="#290503"/>
        <path id="Trazado_879574" data-name="Trazado 879574" d="M2207.265,660.857a7.215,7.215,0,0,1,1.277,4.755c-.14,1.639-1.093,2.86-1.586,4.375a5.481,5.481,0,0,0,1.181,5.414c.95,1.19,2.614-.494,1.673-1.673-1.841-2.307,1.013-5.764,1.14-8.37a9.522,9.522,0,0,0-1.642-5.695c-.826-1.273-2.875-.088-2.042,1.194" transform="translate(-1630.104 -486.55)" fill="#5c1e18"/>
        <path id="Trazado_879575" data-name="Trazado 879575" d="M2223.462,711.588a1.38,1.38,0,0,1,.95.063,1.193,1.193,0,0,0,1.455-.826,1.208,1.208,0,0,0-.826-1.455,3.576,3.576,0,0,0-2.208-.063,1.184,1.184,0,0,0,.629,2.281" transform="translate(-1641.423 -523.511)" fill="#5c1e18"/>
        <path id="Trazado_879576" data-name="Trazado 879576" d="M2199.649,654.294c-.624-1.547-2.482-3.261-4.08-2.8-1.561.446-3.219,3.695-1.357,4.755a.883.883,0,0,0,.7-.051,3.946,3.946,0,0,1,2.052-.111c.73.157,1.621.652,2.342.224s.62-1.331.344-2.014" transform="translate(-1620.292 -480.862)" fill="#212332"/>
        <path id="Trazado_879577" data-name="Trazado 879577" d="M2250.878,655.974c-.529-2.642-3.633-3.5-5.969-3.363a7.661,7.661,0,0,0-3.835,1.2c-.805.544-2.813,2.5-1.354,3.354a3.681,3.681,0,0,0,1.831.277c1.753-.019,3.375-.79,5.142-.225,1.092.349,2.321,1.385,3.5.747a1.737,1.737,0,0,0,.687-1.995" transform="translate(-1654.129 -481.735)" fill="#212332"/>
        <path id="Trazado_879578" data-name="Trazado 879578" d="M2237.044,602.439c-.239-4.582-2.735-7.9-6.3-10.607-7.64-5.8-17.446-6.739-26.731-6.1a.663.663,0,0,1-.313-.058,5.583,5.583,0,0,0-4.767.433c-5.107,2.8-8.17,9.525-9.311,14.948a.6.6,0,0,0,.88.631.53.53,0,0,0,.939-.006,15.962,15.962,0,0,1,8.909-8.056.732.732,0,0,1,.941.517,17.407,17.407,0,0,0,6.321,9.128c4.061,3.074,9.04,4.289,14.07,4.577a2.434,2.434,0,0,1,2.275,2.152c.177,1.484.376,2.965.611,4.443.38,2.39,2.161,6.513,4.041,7.227,4.206,1.6,3.879-.418,5.856-3.094a.452.452,0,0,0,.506-.4c.019-.115.042-.233.062-.349.088-.113.173-.22.252-.315a.6.6,0,0,0-.051-.826c.85-4.654,2.054-9.556,1.81-14.244" transform="translate(-1617.5 -432.047)" fill="#212332"/>
        <path id="Trazado_879579" data-name="Trazado 879579" d="M2304.307,676.624a.571.571,0,0,1-.158-.022l-13.708-3.79a.591.591,0,0,1,.314-1.139l13.708,3.79a.591.591,0,0,1-.157,1.161" transform="translate(-1691.651 -495.806)" fill="#ebded8"/>
        <path id="Trazado_879580" data-name="Trazado 879580" d="M2326.4,677.122c-2.864,1.221-3.736,4.712-4.295,7.4a1.138,1.138,0,0,0,.1.756c.783,1.629-.276,4.9,3.023,4.44,1.612-.223,2.574-1.993,3.376-3.2a11.113,11.113,0,0,0,1.977-4.678c.318-2.5-.937-6.1-4.181-4.714" transform="translate(-1715.338 -499.621)" fill="#9a5048"/>
        <path id="Trazado_879581" data-name="Trazado 879581" d="M2329.939,690.253a13.81,13.81,0,0,0-1.863,3.995,1.184,1.184,0,0,0,2.281.629,11.724,11.724,0,0,1,1.625-3.429c.861-1.26-1.188-2.445-2.043-1.194" transform="translate(-1719.729 -509.152)" fill="#5c1e18"/>
        <path id="Trazado_879582" data-name="Trazado 879582" d="M2217.841,729.46c-1.223-.008-7.817-.568-7.97-.386a.584.584,0,0,0-.277.516c-.024,1.12-.017,2.427.571,3.079.657.728,1.952.738,2.946.8a5.429,5.429,0,0,0,5.187-3.076.634.634,0,0,0-.457-.935" transform="translate(-1632.256 -538.189)" fill="#5c1e18"/>
        <path id="Trazado_879583" data-name="Trazado 879583" d="M2214.338,730.894a12.416,12.416,0,0,0,6.525-.153c.067-.113.142-.217.2-.336a.634.634,0,0,0-.457-.935c-.992-.006-5.52-.376-7.274-.419.028.963-.059,1.406,1,1.843" transform="translate(-1635.025 -538.2)" fill="#fff"/>
        <path id="Trazado_879584" data-name="Trazado 879584" d="M2240.577,667.184a6.956,6.956,0,0,1-5.13-2.235,8.487,8.487,0,0,1-2.2-6.068c.08-3.788,1.681-6.991,4.28-8.57a7.641,7.641,0,0,1,8.343.18c4.158,2.993,4.2,9.089,1.634,12.9a8.557,8.557,0,0,1-6.317,3.765c-.2.017-.409.025-.61.025m1.053-16.842a6.731,6.731,0,0,0-3.488.981c-3.338,2.026-3.685,6.316-3.711,7.584a7.318,7.318,0,0,0,1.877,5.232,5.8,5.8,0,0,0,4.782,1.842,7.463,7.463,0,0,0,5.433-3.247c2.259-3.354,2.258-8.689-1.344-11.282a6.057,6.057,0,0,0-3.549-1.109" transform="translate(-1649.729 -479.197)" fill="#ebded8"/>
        <path id="Trazado_879585" data-name="Trazado 879585" d="M2315.222,1186.491c.561-1.716-1.627-4.13-2.352-5.714-5.6-12.238-9.915-22.005-15.559-34.224q-8.02-17.367-16.068-34.721a33.215,33.215,0,0,0-2.483-4.5c-1.386-1.872-37,12.422-55.009,19.078a4.346,4.346,0,0,0-.8.86,2.848,2.848,0,0,0-.461,2.809c5.875,15.592,12.966,30.854,19.829,46.071,2.765,6.132,5.523,12.268,8.385,18.36q2.194,4.671,4.484,9.3c.871,1.754,2.228,7.082,4.879,6.216,13.055-4.27,54.395-21.2,55.156-23.536" transform="translate(-1641.649 -817.455)" fill="#fff"/>
        <path id="Trazado_879586" data-name="Trazado 879586" d="M2183.282,664.392c-.791,0-2.119-.35-3.2-2.362a12.567,12.567,0,0,1-1.229-5.937c.017-1.4.243-6.134,2.427-8.473a3.51,3.51,0,0,1,2.716-1.251,3.433,3.433,0,0,1,2.546,1.442c2.4,3.048,2.355,8.952.933,12.671-.882,2.307-2.426,3.8-4.03,3.9-.052,0-.109.006-.168.006m.6-16.842a2.411,2.411,0,0,0-1.728.878c-1.505,1.612-2.075,5.024-2.108,7.68a11.558,11.558,0,0,0,1.087,5.363c.444.829,1.207,1.8,2.248,1.735,1.118-.071,2.3-1.306,3-3.147,1.31-3.432,1.319-8.878-.759-11.516a2.3,2.3,0,0,0-1.666-.993h-.074" transform="translate(-1609.561 -477.131)" fill="#ebded8"/>
        <path id="Trazado_879587" data-name="Trazado 879587" d="M2290.149,1115.018c-13.456,4.915-26.609,10.594-39.937,15.836-2.789,1.1-9.424,2.037-10.359,5.669-.538,2.089,1.109,4.629,1.9,6.418,10.272,23.184,20.835,46.35,32.3,68.965.689,1.358,2.731.162,2.043-1.194-10.275-20.266-19.537-41.032-29-61.684-1.319-2.878-3.674-6.386-4.274-9.5-.08-.417-.621-1-.579-1.43.155-1.618,3.421-2.832,4.663-3.431,2.849-1.373,5.967-2.33,8.9-3.509,11.636-4.674,23.188-9.555,34.968-13.858,1.419-.518.806-2.8-.629-2.281" transform="translate(-1654.531 -823.198)" fill="#212332"/>
        <path id="Trazado_879588" data-name="Trazado 879588" d="M2219.472,676.188a7.9,7.9,0,0,0-4.974-.457l-.344-1.132a9.1,9.1,0,0,1,5.847.531Z" transform="translate(-1635.629 -497.792)" fill="#ebded8"/>
        <path id="Trazado_879589" data-name="Trazado 879589" d="M2270.314,817.635a73.6,73.6,0,0,0-4.016-10.588.463.463,0,0,0-.365-.284.473.473,0,0,0-.739.031,35.154,35.154,0,0,1-9.536,8.287c-3.4,1.987-7.941,4.235-11.95,2.9a3.553,3.553,0,0,1-2.361-2.871,2.5,2.5,0,0,0-.448-1.4c-.266-.288-.723-.5-.948-.019a37.3,37.3,0,0,0-3.2,10.823,33.843,33.843,0,0,0-.505,6.508,10.035,10.035,0,0,0,.677,3.217c.162.392,1.479,2.965,1.77,1.709,1.348-5.835,5.536-15.427,6.017-15.431,1.4,4.707,3.476,10.989,6.639,15.4-.282.634,1.1.682,1.621.61,9.541-1.329,14.4-10.005,17.33-18.4a.551.551,0,0,0,.032-.239.563.563,0,0,0-.018-.251" transform="translate(-1651.924 -595.473)" fill="#212332"/>
        <path id="Trazado_879590" data-name="Trazado 879590" d="M2337.144,715.3c-3.277-4.95-7.255,5.01-2.032,5.1,2.34.042,3.229-3.295,2.032-5.1" transform="translate(-1723.096 -527.027)" fill="#ebded8"/>
        <path id="Trazado_879591" data-name="Trazado 879591" d="M2105.905,1003.179c-7.623,19.783-1.76,40.355,4.257,59.7.451,1.449,2.735.83,2.282-.629-5.9-18.953-11.73-39.051-4.258-58.442.548-1.422-1.739-2.037-2.281-.629" transform="translate(-1553.006 -740.069)" fill="#212332"/>
        <path id="Trazado_879592" data-name="Trazado 879592" d="M2108.888,1149.7a254.588,254.588,0,0,0,.074,29.535c.308,6.485.348,13.415,5.19,18.334,1.07,1.086,2.742-.587,1.673-1.673-5.337-5.421-4.371-14.439-4.779-21.479a196.6,196.6,0,0,1,.207-24.716c.1-1.52-2.263-1.513-2.365,0" transform="translate(-1557.589 -848.027)" fill="#212332"/>
        <path id="Trazado_879593" data-name="Trazado 879593" d="M2140.55,1359.771c4.483,4.981,12.994,6.208,19.2,7.6a124.566,124.566,0,0,0,24.8,3.023c15.57.316,33.9-.864,47.574-8.98a1.184,1.184,0,0,0-1.193-2.043c-12.808,7.6-29.627,8.719-44.232,8.681a120.657,120.657,0,0,1-23.166-2.3c-6.467-1.284-16.691-2.531-21.307-7.659-1.021-1.134-2.69.543-1.673,1.673" transform="translate(-1581.035 -1002.503)" fill="#212332"/>
        <path id="Trazado_879594" data-name="Trazado 879594" d="M2345.862,594.716a11.106,11.106,0,0,1,3.654,7.241c.138,1.5,2.506,1.518,2.365,0a13.585,13.585,0,0,0-4.346-8.914c-1.12-1.029-2.8.64-1.673,1.673" transform="translate(-1732.628 -437.512)" fill="#424a75"/>
        <path id="Trazado_879595" data-name="Trazado 879595" d="M2362.029,594.77c2.6-2.283,6.213-6.473,9.992-3.985,1.275.84,2.461-1.208,1.194-2.042-4.861-3.2-9.392,1.316-12.859,4.355-1.147,1.005.532,2.673,1.673,1.673" transform="translate(-1743.323 -433.763)" fill="#424a75"/>
        <path id="Trazado_879596" data-name="Trazado 879596" d="M2419.932,1344.053a1.006,1.006,0,0,0,.006-.67c-2.933-8.766-6.892-26.267-9.629-35.009-1.6-5.111-4.73-9.879-10.644-8.413a1.014,1.014,0,0,0-.713.563,1.224,1.224,0,0,0-.232.251l-.046.068c-.063.062-.41.025-.465.107-2.045,3.041-.659,7.49.027,10.9,1.12,5.568,5.271,12.658,7.6,17.825,1.286,2.852,8.416,19.55,14.193,15.535.431-.3.068-.777-.1-1.155" transform="translate(-1770.771 -959.646)" fill="#212332"/>
        <path id="Trazado_879597" data-name="Trazado 879597" d="M2473.878,891.651c-.71-.35-12.676,57.68-11.922,58.661l14.87,19.37c4.591,5.981,8.994,12.354,14.058,17.939,3.421,3.772,7.806,7.021,12.864,7.6,6.146.709,14.714.225,19.143-3.8,4.791-4.358,8.1-9.916,7.989-16.564-.147-8.569-9.527-16.113-12.979-23.608-3.817-8.288-7.242-18.516-12.491-25.973-3.756-5.338-7.174-10.934-11.209-16.071-5.491-6.993-12.278-13.595-20.321-17.558" transform="translate(-1818.619 -658.287)" fill="#ffbfad"/>
        <path id="Trazado_879598" data-name="Trazado 879598" d="M2318.626,1313.044a141.3,141.3,0,0,0-9.1-23.8,2.558,2.558,0,0,0-.631-.946c-1.277-1.059-1.358.49-1.933.769a76.033,76.033,0,0,1-12.772,4.827,4.622,4.622,0,0,1-4.281-.964,20.785,20.785,0,0,0-10.515-5.308c-3.038-.531-6.237-.594-9.313-.845-2.212-.18-5.667-1.068-7.785-.421-2.222.679-3.25,2.518-1.818,4.444.95,1.279,2.846,1.88,4.387,2.357,1.633.506,3.6.6,5.184,1.219,3.211,1.264-2.119,3.307-3.375,3.366a9.989,9.989,0,0,1-8.167-3.689c-1.863-2.27-4.446-1.558-5.87,1.743a5.142,5.142,0,0,0-.39,3.166c-2.759,1.639-2.183,5.568-.19,8.019a11.126,11.126,0,0,0,1.814,1.756c-.413,3.975,2.188,6.41,5.969,7.9,1.546,9.265,11.664,9.7,20.36,9.267a80.168,80.168,0,0,0,37.26-11.269,1.072,1.072,0,0,0,.438-.475.911.911,0,0,0,.728-1.119" transform="translate(-1662.374 -949.624)" fill="#9a5048"/>
        <path id="Trazado_879599" data-name="Trazado 879599" d="M1830.849,1161.232c-2.912-7.149-16.187,8.809-18.457,11.369-6.245,7.04-18.72,20.426-12.579,29.953.218.338-.265-1.159.028-1.05,6.566,4.733,17.722-4.052,21.563-9.037a50.348,50.348,0,0,0,7.547-14.745c1.443-4.321,3.729-11.994,1.9-16.49" transform="translate(-1328.396 -856.037)" fill="#212332"/>
        <path id="Trazado_879600" data-name="Trazado 879600" d="M1766.453,1066.615a4.585,4.585,0,0,1-1.2-2.776c-.158-2.164-.413-5.86-.387-6.844.244-9.423-4.918-13.3-11.922-18.25-2.859-2.021-15.659-13.184-17.289-5.372-.537,2.584.951,4.859,2.612,6.686a39.96,39.96,0,0,0,3.326,2.6,1.213,1.213,0,0,1-1.279,2.046c-.971-.472-1.921-1.008-2.95-1.45a69.559,69.559,0,0,0-6.822-2.247,1.783,1.783,0,0,0-.362-.074,1.347,1.347,0,0,0-1.962-.339c-9.013,6.23-.517,21.322,3.887,28.21a26.228,26.228,0,0,0,12.7,12.344,12.6,12.6,0,0,1,4.165,2.8q2.37,2.457,4.762,4.89c2.617,2.647,5.245,6.077,8.672,7.732.023.04.038.08.065.121,1.868,2.789,5.113-.373,6.917-1.677,3.446-2.492,8.9-9.051,12.082-11.869.092-.082-11.4-12.6-15.016-16.535" transform="translate(-1273.802 -760.933)" fill="#9a5048"/>
        <path id="Trazado_879601" data-name="Trazado 879601" d="M1521.3,777.979c-38.095-46.362-79.56-85.316-116.492-131.3-1.381-1.72-3.468-.581-2.1,1.124q55.4,68.976,112.769,136.332c1.432,1.681,7.215-4.46,5.822-6.156" transform="translate(-1036.009 -476.733)" fill="#212332"/>
        <path id="Trazado_879602" data-name="Trazado 879602" d="M1711,1056.907a3.123,3.123,0,0,0,.424-3.4,5.255,5.255,0,0,0-1.827-2.374,2.463,2.463,0,0,0,.973-1.137c.956-2.3-.875-3.564-3.035-4.284a4.961,4.961,0,0,0,1.891-1.6c1.585-2.309.782-4.207-.8-5.71,2.928-2.982-4.407-7.123-6.038-8.2-3.726-2.466-9.972-6.645-14.711-4.761-4.757,1.891-2.2,7.656-.3,10.92a7.876,7.876,0,0,0,1.662,10.128,1.6,1.6,0,0,0,.619.342c-.041.072-.092.131-.13.207-1.92,3.784,2.49,8.107,5.423,9.774.04.023.08.027.12.046.693,5.277,11.34,14.017,14.867,16.533,1.694,1.209,1.52-3.993-.16-5.191-1.969-1.4-3.941-2.83-5.794-4.393a1.454,1.454,0,0,0-.42-1.438c-2.34-2.351,6.22-4.28,7.24-5.46" transform="translate(-1244.939 -756.747)" fill="#9a5048"/>
        <path id="Trazado_879603" data-name="Trazado 879603" d="M2485.558,1072.02c-.6-10.572-6.541-19.915-11.86-29.431-4.283-7.664-8.958-15.107-13.893-22.368-.639-.94-13.113,30.885-17.871,43.868-11.137,7.534-43.767,29.818-41.662,31.227,8.389,5.615,20.71,35.926,20.034,44.036,0,.047,6.523-2.444,6.949-2.643a147.909,147.909,0,0,0,16.67-9.235c14.664-9.324,29.127-21.354,37.212-37.045a43.155,43.155,0,0,0,3.527-9.163,30.394,30.394,0,0,0,.892-9.246" transform="translate(-1773.016 -753.228)" fill="#ffbfad"/>
        <path id="Trazado_879604" data-name="Trazado 879604" d="M1867.158,1201.662c-.021-.1-23.061-35.8-34.115-41.963-.66-.368-1.2-.375-1.6.053a1.024,1.024,0,0,0-.561,1.256c2.984,10.441-7.687,33.818-27.5,38.7a1.11,1.11,0,0,0-.53.276,1.147,1.147,0,0,0-.735,1.652c11.244,20.971,46.043,55.619,68.445,28.285.45-.548-3.329-22.521-3.4-28.255" transform="translate(-1331.21 -856.054)" fill="#ffbfad"/>
        <path id="Trazado_879605" data-name="Trazado 879605" d="M2538.139,1166.139a88.463,88.463,0,0,1,24.787-13.381c1.429-.5.814-2.784-.629-2.281a90.482,90.482,0,0,0-25.352,13.62c-1.193.912-.016,2.968,1.194,2.043" transform="translate(-1873.66 -849.39)" fill="#212332"/>
        <path id="Trazado_879606" data-name="Trazado 879606" d="M2461.859,1055.089a82.093,82.093,0,0,0,14.222,34.933c.873,1.232,2.925.052,2.043-1.194a80.691,80.691,0,0,1-13.983-34.369c-.237-1.5-2.517-.863-2.282.629" transform="translate(-1818.559 -777.898)" fill="#212332"/>
        <path id="Trazado_879607" data-name="Trazado 879607" d="M2259.419,1337.316c1.859,2.447,3.738,4.415,6.792,5.229a19.156,19.156,0,0,0,10.335-.452,1.184,1.184,0,0,0-.629-2.281c-5.579,1.659-10.8,1.118-14.456-3.69-.909-1.2-2.965-.019-2.043,1.194" transform="translate(-1668.888 -986.183)" fill="#5c1e18"/>
        <path id="Trazado_879608" data-name="Trazado 879608" d="M2267.656,1374.046c4.668,3.567,10.431,3.451,15.865,1.925a1.184,1.184,0,0,0-.629-2.281c-4.889,1.373-9.842,1.522-14.041-1.687-1.21-.924-2.389,1.13-1.195,2.043" transform="translate(-1674.776 -1012.88)" fill="#5c1e18"/>
        <path id="Trazado_879609" data-name="Trazado 879609" d="M2290.311,1403.894a14.059,14.059,0,0,0,13.549-.047c1.338-.728.145-2.771-1.194-2.043a11.57,11.57,0,0,1-11.16.047c-1.343-.717-2.54,1.325-1.194,2.043" transform="translate(-1691.439 -1034.947)" fill="#5c1e18"/>
        <path id="Trazado_879610" data-name="Trazado 879610" d="M2224.783,1557.421c5.606,7.946,7.88,17.152,9.675,26.569,1.839,9.647,3.418,19.344,5.018,29.032.248,1.5,2.528.863,2.281-.629-1.708-10.343-3.359-20.709-5.4-30.994-1.778-8.974-4.205-17.619-9.535-25.173-.871-1.234-2.923-.054-2.042,1.194" transform="translate(-1643.321 -1148.725)" fill="#212332"/>
        <path id="Trazado_879611" data-name="Trazado 879611" d="M1698.8,1066.047c4.969-1.88,11.946.317,16.392,2.793,1.332.741,2.526-1.3,1.194-2.043-4.974-2.77-12.63-5.144-18.216-3.031-1.41.533-.8,2.821.629,2.281" transform="translate(-1253.956 -784.804)" fill="#5c1e18"/>
        <path id="Trazado_879612" data-name="Trazado 879612" d="M1707.132,1100.924c3.161-2.689,10.341-2.132,13.892-.712,1.413.565,2.027-1.722.629-2.281-4.549-1.819-12.264-2.022-16.193,1.32-1.162.988.519,2.654,1.673,1.673" transform="translate(-1259.643 -809.677)" fill="#5c1e18"/>
        <path id="Trazado_879613" data-name="Trazado 879613" d="M1727.979,1129.177a14.878,14.878,0,0,1,6.693-3.552,11.971,11.971,0,0,1,3.185-.341q2.329-.217,1.757,2.674a8.138,8.138,0,0,1-1.5.988c-2.835,1.616-5.619,2.75-5.98,6.363-.151,1.513,2.215,1.5,2.366,0,.361-3.606,5.615-3.823,7.444-6.4a3.484,3.484,0,0,0-.648-4.854c-4.208-3.455-11.663.487-14.987,3.453-1.138,1.016.54,2.684,1.673,1.673" transform="translate(-1275.049 -828.932)" fill="#5c1e18"/>
        <path id="Trazado_879614" data-name="Trazado 879614" d="M1776.662,1157.948c6.332-3.02,11.945,2.173,12.982,8.246.255,1.5,2.536.863,2.281-.629-1.324-7.752-8.849-13.289-16.457-9.66-1.373.655-.175,2.7,1.194,2.043" transform="translate(-1311.189 -852.612)" fill="#5c1e18"/>
        <path id="Trazado_879615" data-name="Trazado 879615" d="M1772.425,1118.745a2.874,2.874,0,0,0,3.051-.74,2.92,2.92,0,0,0,.327-3.378c-.738-1.332-2.781-.14-2.043,1.194.319.576-.255.811-.706.642a1.193,1.193,0,0,0-1.455.826,1.208,1.208,0,0,0,.826,1.455" transform="translate(-1308.748 -822.537)" fill="#5c1e18"/>
        <path id="Trazado_879616" data-name="Trazado 879616" d="M538.023,707.341a46.323,46.323,0,0,0-5.633-8.052,20.029,20.029,0,0,1-4.948-13.652c-.086-6.293.063-12.6.2-18.9a4.566,4.566,0,0,1,1.859-3.569c2.945-2.183,5.665-4.741,7.014-8.172,3.886-9.879-5.238-16.236-13.568-18.918-8.909-2.869-19.021-4.08-28.308-1.746a27.472,27.472,0,0,0-18.312,16.181c-4.622,11.168-.327,23.048-1.018,34.6-.417,6.985-2.651,13.271-8.569,17.4-3.991,2.783-8.682,4.6-12,8.29-6.206,6.9-3.255,15.743,2.259,21.864a5.045,5.045,0,0,1,1.05,2.254,1.629,1.629,0,0,0,.453.772c9.822,9.758,26.028,8.7,38.845,9.634,13.117.958,24.572-.88,34.433-10.228a1.748,1.748,0,0,0,.3-.376,21.98,21.98,0,0,0,5.946-27.377" transform="translate(-333.647 -467.335)" fill="#212332"/>
        <path id="Trazado_879617" data-name="Trazado 879617" d="M1022.062,1198.3a53.172,53.172,0,0,0-11.609-6.337,59.465,59.465,0,0,0-13.772-3.793c-3.509-.522-7.313-.772-9.406,2.616a.518.518,0,0,0,.082.677c-1.045,2.767,1.577,5.409,3.551,7.2,2.955,2.681,7.629,4.979,11.387,6.371,4.223,1.563,9.576,1.688,14.035,1.646,2.391-.022,8.464,1.162,9.479-1.725.834-2.374-2.093-5.423-3.747-6.656" transform="translate(-729.402 -877.058)" fill="#212332"/>
        <path id="Trazado_879618" data-name="Trazado 879618" d="M827.131,1099.631c-4.249-17.307-9.086-34.466-14.372-51.484-2.839-9.14-5.507-18.466-9.035-27.37-2.563-6.47-8.425-15.477-16.661-20-.118-.065-8.409,18.26-9.368,24.573-1.9,12.479-7.4,26.271-8.3,38.859-.054.757,11.391,38.8,14.806,46.345a67.875,67.875,0,0,0,12.69,19.309c4.562,4.676,15.081,7.3,21.383,5.9,6.389-1.418,11.191-5.257,12.456-11.858,1.514-7.9-1.741-16.683-3.6-24.27" transform="translate(-568.606 -738.881)" fill="#c46b4b"/>
        <path id="Trazado_879619" data-name="Trazado 879619" d="M1019.291,991.138c-.614-2.843-1.7-6.506-3.565-8.431-1.918-1.976-4.379-1.624-6.63-.675a6.774,6.774,0,0,0-5.024-3.624c3.556-3.878,9.063-5.457,12.737-9.205,1.806-1.842,2.859-4.659,1.073-6.892-1.935-2.418-5.246-1.4-7.739-.59a48.971,48.971,0,0,0-23.831,17.457c-7.415,10.1-6.649,22-5.267,34.621.008.074-4.726,17.179-8.852,26.068a1.589,1.589,0,0,0-.15.88,1.958,1.958,0,0,0,1.28,2.95,49.988,49.988,0,0,1,19.674,8.043,1.793,1.793,0,0,0,2.66-.894l10.037-24.59a2.765,2.765,0,0,1,1.943-1.614,7.821,7.821,0,0,0,4.8-3.42,28.836,28.836,0,0,0,3.767-9.168c3.347-1.078,5.917-3.209,6.253-7.308a22.229,22.229,0,0,0-3.166-13.605" transform="translate(-718.055 -709.356)" fill="#ff9d82"/>
        <path id="Trazado_879620" data-name="Trazado 879620" d="M551.38,1410.075a2.446,2.446,0,0,0-1.252-1.567,3.016,3.016,0,0,0-2.744-2.36q-37.955-3.281-76-5.353a2.542,2.542,0,0,0-2.353,1.074,3.046,3.046,0,0,0-3.619,1.935c-4.961,13.85-10.187,27.774-13.556,42.107-1.916,8.153-2.877,16.384-1.676,24.418a7.452,7.452,0,0,1,.023,2.192c-.8,5.39-2.611,25.7-1.772,25.867l.408.083c.094.019.185.026.277.038.47.465,95.557.387,114.1-1.287,1.781.674,4.181-.188,4.1-2.617-.986-28.835-10.833-58.982-15.932-84.529" transform="translate(-331.395 -1034.312)" fill="#425a5c"/>
        <path id="Trazado_879621" data-name="Trazado 879621" d="M517.174,1459.317c13.812-5.226,33.932-15.951,43.184-28.018-1.769-7.323-3.461-14.439-4.815-21.225a2.442,2.442,0,0,0-1.252-1.566,3.018,3.018,0,0,0-2.744-2.361q-37.955-3.28-76-5.352a2.542,2.542,0,0,0-2.353,1.074,3.046,3.046,0,0,0-3.619,1.935c-4.961,13.85-10.187,27.774-13.556,42.107a104.833,104.833,0,0,0-2.168,18.933c7.131,5.51,46.8.726,63.323-5.527" transform="translate(-335.557 -1034.312)" fill="#212332"/>
        <path id="Trazado_879622" data-name="Trazado 879622" d="M927.687,1211.013a1.211,1.211,0,0,0-.973-.273c-11.875,1.724-27.859-3.1-35.336-12.422-.685-.854-1.735-.218-1.916.644-10.011,15.317-33.568,58.089-34.154,63.476-.543,4.991,1.987,9.566,4.612,13.636,5.642,8.747,20.494,8.959,29.269,4.6,21.036-10.455,34.36-54.938,39.216-68.292a1,1,0,0,0-.719-1.367" transform="translate(-631.999 -884.478)" fill="#c46b4b"/>
        <path id="Trazado_879623" data-name="Trazado 879623" d="M545.161,975.292c.558-7.343,1.144-15.064-1.071-22.213-2.139-6.906-6.929-12.082-12.434-16.567-11.653-9.5-25.941-14.786-40.146-19.147-3.216-.987-21.915-7.606-27.534-6.62-5.37.943-17.9,8.356-24.394,13.772-10.2,8.507-17.251,19.365-20.043,32.363-.086.4,1.2,12.752,2.3,18.8Q424,987.453,426.25,999.2q4.6,24.037,9.6,48a1.191,1.191,0,0,0,.442,1.452c22,15.056,49.992,16.2,75.63,11.768,4.774-.827,18.5-4.457,20.8-8.915,1.1-2.135,1.3-30.251,2.136-44.335,4.827-6.207,6.84-13.62,6.931-21.336,1.875-5.539,3.341-10.159,3.37-10.542" transform="translate(-310.214 -672.316)" fill="#c46b4b"/>
        <path id="Trazado_879624" data-name="Trazado 879624" d="M613.141,1297.351c-1.79-8.363-3.811-16.681-6.258-24.877-2.05-6.864-4.115-13.9-6.825-20.532-1.45-3.549-3.224-7.52-6.081-10.165-2.909-2.693-6.579-3.1-10.266-2.3a.533.533,0,0,1-.019.156c-2.384,7.154-11.207,36.858-13.245,44.543-1.428,5.383-3.359,10.891-4.677,16.458,15.357,5.1,32.17,5.651,48.416,3.69a63.7,63.7,0,0,0-1.044-6.969" transform="translate(-418.214 -914.905)" fill="#212332"/>
        <path id="Trazado_879625" data-name="Trazado 879625" d="M849.781,1114.163a43.957,43.957,0,0,1-3.666,40.87c-.826,1.285,1.221,2.472,2.043,1.194a46.146,46.146,0,0,0,3.9-42.693c-.571-1.388-2.861-.78-2.281.629" transform="translate(-625.122 -821.581)" fill="#212332"/>
        <path id="Trazado_879626" data-name="Trazado 879626" d="M600.3,779.265c-.324-.92-6.611-4.417-8.951-6.069-4.353-3.072-5.539-5.893-5.336-10.917.266-6.552.847-13.076,1.656-19.582a1.712,1.712,0,0,0,.259-.8c.66-9.062-2.448-21.341-8.232-28.531-3.679-4.573-11.309-8.513-15.209-2.145a1.474,1.474,0,0,0,.068,1.748c-.414,10.471-1.094,20.926-2.11,31.356-.59,6.055-.775,11.728-5.115,16.423-2.833,3.064-6.289,5.439-9.039,8.6-.675.776,11.108,14.615,16.135,20.521,5.254,6.173,10.614,11.336,18.349,14.28,5.717,2.176,12.136,3.461,16.245-2.044,4.736-6.345,3.734-15.869,1.28-22.846" transform="translate(-405.281 -522.577)" fill="#ff9d82"/>
        <path id="Trazado_879627" data-name="Trazado 879627" d="M638.054,849.656a46.683,46.683,0,0,0,4.622,2.163c.162-3.844.443-7.679.8-11.507a64.249,64.249,0,0,1-6.649-5.9c-2.224-2.283-6.233-7.027-9.568-3.64-2.433,2.471-2.675,6.81-1.918,10.289a.559.559,0,0,1,.19.078c2.038,1.368,3.739,3.158,5.787,4.533a77.492,77.492,0,0,0,6.734,3.983" transform="translate(-461.931 -612.453)" fill="#b55441"/>
        <path id="Trazado_879628" data-name="Trazado 879628" d="M693.422,964.449a27.468,27.468,0,0,1,7.848-3.537,1.184,1.184,0,0,0-.629-2.281,29.621,29.621,0,0,0-8.413,3.776c-1.27.829-.086,2.878,1.194,2.043" transform="translate(-511.208 -707.72)" fill="#b55441"/>
        <path id="Trazado_879629" data-name="Trazado 879629" d="M617.9,965.841c2.837,2.794,6.944,2.462,10.241,4.346a1.184,1.184,0,0,0,1.194-2.043c-3.034-1.734-7.212-1.466-9.762-3.976-1.086-1.069-2.76.6-1.673,1.673" transform="translate(-456.454 -711.591)" fill="#b55441"/>
        <path id="Trazado_879630" data-name="Trazado 879630" d="M627.634,683.951c-.055-3.933-.337-7.868-.656-11.706-.488-5.886-1.676-11.845-4.8-16.941A26.438,26.438,0,0,0,597,642.614a1.85,1.85,0,0,0-.405.087,1.623,1.623,0,0,0-.85.02c-8.549,2.436-15.432,8.388-15.955,17.707-.465,8.284,3.178,13.681,9.038,18.007a190.384,190.384,0,0,0,4.716,18.851,32.136,32.136,0,0,0,5.113,4.086c2.526,1.349,5.082,2.665,7.729,3.76,5.816,2.389,13.24,3.494,17.664-2.047,3.98-4.985,3.67-13.1,3.587-19.134" transform="translate(-428.537 -474.27)" fill="#ff9d82"/>
        <path id="Trazado_879631" data-name="Trazado 879631" d="M572.245,929.642a1.185,1.185,0,0,0-1.853,1.43c3.149,6.979,6.045,15.314,5.6,23.078-.1,1.732-.723,6.423-2.564,7.533-2.309,1.391-4.113-.037-5.817-1.178a43,43,0,0,1-8.407-7.763c-8.65-9.98-15.52-20.164-26.787-27.556a1.033,1.033,0,0,0-1.5.321.975.975,0,0,0-.8.2c-4.025,2.966-8.763,7.026-7.8,12.555,1.137,6.55,4.653,14.04,8.048,19.723,6.5,10.88,19.259,21.068,32.088,22.812,12.1,1.645,24.431-7.537,27.578-19.138,4.08-15.04-7.536-23.5-17.79-32.017" transform="translate(-386.032 -682.91)" fill="#c46b4b"/>
        <path id="Trazado_879632" data-name="Trazado 879632" d="M623.8,1166.612a3.06,3.06,0,0,0-1.7,3.951c5.1,13.039,26.439,67.451,31.5,78.568a2.285,2.285,0,0,0,2.994,1.148c8.965-3.878,46.52-20.119,55.75-24.025a2.142,2.142,0,0,0,1.08-2.927c-6.761-13.821-12.015-28.647-18-42.788-2.809-6.639-5.541-13.311-8.346-19.952q-2.057-4.87-4.181-9.71c-1.041-2.36-2.182-7.4-5.842-5.911Z" transform="translate(-459.656 -845.175)" fill="#ebded8"/>
        <path id="Trazado_879633" data-name="Trazado 879633" d="M692.861,1154.683c-10.788,4.552-21.53,9.216-32.275,13.871-4.73,2.048-9.476,4.065-14.187,6.155-2.755,1.222-4.51,2.346-3.756,5.6,1.526,6.6,5.315,13.282,7.87,19.528q6.022,14.725,12.119,29.42c3.044,7.341,6.018,14.723,9.231,21.993.614,1.389,2.653.187,2.043-1.194-8.4-19-16.044-38.368-23.869-57.607-1.445-3.553-3.416-7.251-4.414-10.966-.577-2.144-1.341-2.556,1.2-4.4,1.974-1.432,5.04-2.189,7.275-3.16,13.115-5.691,26.222-11.405,39.394-16.964,1.381-.583.774-2.873-.629-2.281" transform="translate(-474.86 -852.479)" fill="#212332"/>
        <path id="Trazado_879634" data-name="Trazado 879634" d="M674.267,735.771a6.441,6.441,0,0,0-3.724-1.607,10.328,10.328,0,0,0-4.244.227c-1.454.4-4.92,2.386-3.87,4.422a1.732,1.732,0,0,0,1.782.749,15.768,15.768,0,0,0,3.535-.967,13.074,13.074,0,0,1,3.88-.507,4.352,4.352,0,0,0,2.119-.255,1.359,1.359,0,0,0,.655-1.885q-.063-.09-.135-.175" transform="translate(-489.459 -541.886)" fill="#212332"/>
        <path id="Trazado_879635" data-name="Trazado 879635" d="M744.894,758.314c-.921-1.148-2.614-.608-2.995,1.031a.6.6,0,0,0-.025.1,5.636,5.636,0,0,0,.2,3.779c.723,1.438,2.054,1.921,2.943.542a5.3,5.3,0,0,0,.05-5.2,2.11,2.11,0,0,0-.172-.25" transform="translate(-548.106 -559.361)" fill="#290503"/>
        <path id="Trazado_879636" data-name="Trazado 879636" d="M542.453,653.357a21.605,21.605,0,0,0-11.762-16.292,1.636,1.636,0,0,0-1.253-.116,1.2,1.2,0,0,1-.795-.053c-10.633-4.134-26.352-4.011-33,6.268a1.743,1.743,0,0,0-.481.491c-5.123,7.773-8.082,15.87-7.484,25.272a70.939,70.939,0,0,0,.889,7.2,1.369,1.369,0,0,1,.018.193c.154,7.348.025,14.5-2.593,21.587-.03.041-.062.074-.09.118a77.369,77.369,0,0,1-11.446,13.734c-2.74,2.755-6.82,5.815-9.036,9.29a3.37,3.37,0,0,0,2.136,5.128c4.491.822,11.444-2.856,14.017-4.989a1.469,1.469,0,0,1,2.422.8,11.8,11.8,0,0,0,.338,1.319c1.17,3.668,4.09,5.336,6.644,7.927a11.9,11.9,0,0,1,1.444,15.72,1.509,1.509,0,0,0-.285.931,1.611,1.611,0,0,0-.331,1.414,3.492,3.492,0,0,0,2.72,2.839,19.686,19.686,0,0,0,2.965-.015c1.951.185,3.4,1.245,5.1,2.02a9.458,9.458,0,0,0,8.695-.116,1.5,1.5,0,0,0,.914-.066c7.7-2.887,11.74-11.435,7.412-18.94-3.045-5.28-9.312-7.513-9.868-14.26-.571-6.924,5.4-11.226,8.615-16.643,5.445-9.174,3.549-18.3-1.691-26.929a49.843,49.843,0,0,1-4.342-8.139,1.338,1.338,0,0,1,.636-1.626,67.739,67.739,0,0,0,11.472-7.814,35.854,35.854,0,0,0,5.483-5.714c.909-1.219,1.639-4.246,3.327-4.632,2.367-.541,5.09,3.79,6.165,5.387a1.678,1.678,0,0,0,3.051-1.286" transform="translate(-343.704 -468.259)" fill="#212332"/>
        <path id="Trazado_879637" data-name="Trazado 879637" d="M584.889,756.521l-.434-.8a1.745,1.745,0,0,0-2.04.715,4.29,4.29,0,0,0-.43,3.805,4.346,4.346,0,0,0,1.041,1.738,2.663,2.663,0,0,0,1.583.8,18.654,18.654,0,0,0-.087-3.125c.024-.65.633-2.633.367-3.127" transform="translate(-430.006 -557.815)" fill="#ff9d82"/>
        <path id="Trazado_879638" data-name="Trazado 879638" d="M934.117,1255.722q-2.671,5.744-5.731,11.286c-.737,1.334,1.306,2.529,2.043,1.194q3.062-5.545,5.731-11.286c.638-1.372-1.4-2.575-2.043-1.194" transform="translate(-685.909 -926.721)" fill="#212332"/>
        <path id="Trazado_879639" data-name="Trazado 879639" d="M391.209,1019.426c-.779-6.023-1.5-13.01-4.756-18.3-1.534-2.491-5.656-4.78-9.289-6.258-3.551-1.444-3.946-4.012-6.548-1.2-14.141,15.309-21.989,41.06-25.745,60.989q-3.765,19.971-5.935,40.187c-1.316,12.347-3.594,26,.265,38.113,2.949,9.257,9.713,16.834,19.446,18.943,8.856,1.919,18.884-1.2,23.686-9.218,5.852-9.776,4.821-23.714,5.643-34.643q1.577-20.978,3.153-41.956c1.144-15.517,2.085-31.168.081-46.658" transform="translate(-249.301 -732.7)" fill="#c46b4b"/>
        <path id="Trazado_879640" data-name="Trazado 879640" d="M799.192,1291.191a23.127,23.127,0,0,0-.62-12.051,17.842,17.842,0,0,0-.749-4.929c-1.075-3.558-7.476-9.461-9.34-4.933a3.393,3.393,0,0,0-3.192-.848c-3.542.97-2.408,7.522-3.481,10-.2.016-.406.041-.615.077-5.261.9-13.3,3.317-17.373,6.883-2.881,2.524-3.8,6.5-4.4,10.349a6.615,6.615,0,0,1-3.572,4.883q-4.943,2.485-10.076,4.574c-1.157.179-2.254,2.022.932,3.452,7.432,3.335,9.848,11.953,5.974,19.118-1.028,1.9-.654,2.894.015,3.243-1.285.6-.222,2.63,1.21,2.134,12.374-4.289,23.231-11.474,33.928-18.88,8.369-5.793,14.461-12.812,11.358-23.078" transform="translate(-550.298 -935.972)" fill="#ff9d82"/>
        <path id="Trazado_879641" data-name="Trazado 879641" d="M468.055,1390.958c-.27-15.924-14.929-44.708-15.329-44.669a1.279,1.279,0,0,0-1.4-.9c-18.859,2.662-70.81,8.822-80.047,10.126-9.748,1.376-31.978.418-32.137,1.693-1.693,13.585-3.368,31.03,2.892,43.281,6.44,12.6,22.267,13.794,34.874,14.364,33.234,1.505,60.637-9.132,90.467-22.373a.931.931,0,0,0,.595-1.072,1.167,1.167,0,0,0,.083-.446" transform="translate(-249.692 -993.383)" fill="#c46b4b"/>
        <path id="Trazado_879642" data-name="Trazado 879642" d="M727.084,742.471c-3.592,2.789,1.822,13.428-2.191,14.692-1.447.456-.829,2.74.629,2.281a4.316,4.316,0,0,0,3.084-4.019,29,29,0,0,0-.262-4.8c-.122-1.556-1.031-5.356.413-6.477,1.2-.933-.484-2.6-1.673-1.673" transform="translate(-535.126 -547.912)" fill="#b55441"/>
        <path id="Trazado_879643" data-name="Trazado 879643" d="M711.153,797.678l1.111-.651a1.184,1.184,0,0,0-1.194-2.043l-1.111.651a1.184,1.184,0,0,0,1.194,2.043" transform="translate(-524.284 -586.768)" fill="#b55441"/>
        <path id="Trazado_879644" data-name="Trazado 879644" d="M718.517,820.651a2.171,2.171,0,0,0-2.365-1.117,8.354,8.354,0,0,0-3.382,1.669.553.553,0,0,0-.227.613.5.5,0,0,0,.384.559,8.569,8.569,0,0,0,4.253.177c.846-.216,1.656-.954,1.337-1.9" transform="translate(-526.6 -605.01)" fill="#fff"/>
        <path id="Trazado_879645" data-name="Trazado 879645" d="M687.565,758.317a2.071,2.071,0,0,0-3.492,1,.527.527,0,0,0-.029.1,4.9,4.9,0,0,0,.273,3.784c.86,1.447,2.422,1.944,3.447.573a4.64,4.64,0,0,0,0-5.2,2.192,2.192,0,0,0-.2-.252" transform="translate(-505.38 -559.353)" fill="#290503"/>
        <path id="Trazado_879646" data-name="Trazado 879646" d="M739.528,734.253a3.124,3.124,0,0,0-3.1.566c-.644.458-1.552,1.045-1.674,1.976-.17,1.3,1.05,1.414,1.887,1.265a3.678,3.678,0,0,1,2.19-.1c.37.178.648.552,1.015.736a.752.752,0,0,0,1.114-.446,3.327,3.327,0,0,0-1.431-3.995" transform="translate(-543.005 -541.887)" fill="#212332"/>
        <path id="Trazado_879647" data-name="Trazado 879647" d="M600.668,668.885c-6.845,4.616-11.235,11.783-9.736,20.219.266,1.5,2.546.862,2.281-.629-1.3-7.34,2.757-13.573,8.649-17.547,1.256-.847.073-2.9-1.194-2.043" transform="translate(-436.581 -493.613)" fill="#424a75"/>
        <path id="Trazado_879648" data-name="Trazado 879648" d="M726.281,666.516a4.771,4.771,0,0,1,.06,2.007,1.214,1.214,0,0,0,.826,1.455,1.194,1.194,0,0,0,1.455-.826,7.652,7.652,0,0,0-.06-3.265c-.352-1.481-2.633-.854-2.281.629" transform="translate(-536.733 -490.925)" fill="#424a75"/>
        <path id="Trazado_879649" data-name="Trazado 879649" d="M547.793,788.369c5.133,11.145-4.245,18.979-10.3,26.932a17.89,17.89,0,0,0-2.8,17.165c.477,1.438,2.763.822,2.282-.629-4.078-12.287,6.707-17.658,11.8-27.046,3.059-5.644,3.771-11.726,1.058-17.616-.636-1.381-2.676-.181-2.043,1.194" transform="translate(-394.496 -580.675)" fill="#424a75"/>
        <path id="Trazado_879650" data-name="Trazado 879650" d="M595.917,921.794c-1.29,5.622-2.652,11.935.2,17.342,1.524,2.894,4.12,4.437,6.366,6.677,4.392,4.381,5.475,10.079.848,14.877-1.057,1.1.613,2.771,1.673,1.673,3.592-3.724,5.033-9.295,2.561-14.092-1.718-3.335-5.185-4.837-7.457-7.647-4.46-5.517-3.382-11.771-1.906-18.2.34-1.482-1.94-2.115-2.281-.629" transform="translate(-439.384 -679.924)" fill="#424a75"/>
        <path id="Trazado_879651" data-name="Trazado 879651" d="M648.984,691.819a19.334,19.334,0,0,0-7.885,14.147c-.128,1.517,2.239,1.508,2.366,0a16.744,16.744,0,0,1,6.713-12.1c1.208-.9.029-2.953-1.194-2.043" transform="translate(-473.846 -510.534)" fill="#424a75"/>
        <path id="Trazado_879652" data-name="Trazado 879652" d="M508.9,1078.039c6.919,11.254,8.369,24.207,8.187,37.177-.187,13.284-1.14,26.584-1.772,39.853-.073,1.522,2.293,1.518,2.366,0,.7-14.775,2.023-29.677,1.775-44.473-.2-11.846-2.235-23.538-8.514-33.751-.8-1.3-2.843-.108-2.043,1.194" transform="translate(-376.078 -794.649)" fill="#212332"/>
        <path id="Trazado_879653" data-name="Trazado 879653" d="M485.9,1354.751a272.488,272.488,0,0,0-60.234,12.609c-1.438.476-.822,2.762.629,2.282a269.655,269.655,0,0,1,59.6-12.525c1.5-.141,1.517-2.508,0-2.366" transform="translate(-314.137 -1000.306)" fill="#212332"/>
        <path id="Trazado_879654" data-name="Trazado 879654" d="M1020.044,1027.68a24.171,24.171,0,0,1,5.133-6.1,21.752,21.752,0,0,1,3.558-2.433c1.362-.742,4.153-2.168,5.679-1.019q.2,1.783.4,3.566l-.841,1.155c-.372.448-.792.86-1.2,1.27-.835.828-1.742,1.585-2.555,2.435a10.889,10.889,0,0,0-3.12,5.417c-.815,4.542,3.622,6.916,5.3,10.59a12.764,12.764,0,0,1-4.506,15.814c-1.24.865-.059,2.917,1.194,2.042a15.243,15.243,0,0,0,6.609-15.235,17.012,17.012,0,0,0-4.337-8.2c-1.78-2.064-2.6-3.96-1.191-6.523a19.73,19.73,0,0,1,3.956-4.361c1.78-1.717,4.063-4.127,3.727-6.834-.29-2.34-2.611-3.808-4.821-3.863-6.178-.155-12.125,6.267-15.033,11.086a1.184,1.184,0,0,0,2.043,1.194" transform="translate(-752.079 -749.681)" fill="#b55441"/>
        <path id="Trazado_879655" data-name="Trazado 879655" d="M1084.358,1046.736a32.781,32.781,0,0,1,.8,10.194c-.441,4.62-3.612,5.813-7.806,5.522-1.519-.105-1.512,2.261,0,2.365,3.6.25,7.688-.482,9.4-4.08,1.985-4.174.854-10.316-.106-14.631-.331-1.485-2.613-.857-2.282.629" transform="translate(-795.201 -771.735)" fill="#b55441"/>
        <path id="Trazado_879656" data-name="Trazado 879656" d="M1086.854,1091.275c2.2,4.112,5.653,7.718,10.622,5.375,5.613-2.645,6.273-9.906,7.088-15.287.226-1.489-2.054-2.131-2.281-.629-.579,3.823-.912,8.66-3.415,11.8-1.493,1.874-4.085,3.284-6.457,2.031-1.7-.9-2.648-2.867-3.514-4.486-.719-1.343-2.761-.149-2.042,1.194" transform="translate(-802.95 -797.303)" fill="#b55441"/>
        <path id="Trazado_879657" data-name="Trazado 879657" d="M1119.569,1140.017a4.452,4.452,0,0,0,4.508,2.967,1.215,1.215,0,0,0,1.183-1.183,1.192,1.192,0,0,0-1.183-1.183,2.1,2.1,0,0,1-2.227-1.231,1.216,1.216,0,0,0-1.455-.826,1.193,1.193,0,0,0-.826,1.455" transform="translate(-827.181 -840.612)" fill="#b55441"/>
        <path id="Trazado_879658" data-name="Trazado 879658" d="M848.318,1312.548c1.125,3.278-3.063,5.384-5.205,6.985l-6.5,4.856c-1.205.9-.027,2.956,1.194,2.043,3.268-2.443,6.615-4.808,9.811-7.344,2.266-1.8,4-4.19,2.979-7.169-.491-1.432-2.778-.816-2.281.629" transform="translate(-617.875 -968.076)" fill="#b55441"/>
        <path id="Trazado_879659" data-name="Trazado 879659" d="M895.638,1278.314c2.843,6.622,2.456,15.9-5.334,18.851-1.41.535-.8,2.823.629,2.281,9.345-3.544,10.242-14.187,6.748-22.326-.6-1.4-2.637-.192-2.043,1.194" transform="translate(-657.31 -942.518)" fill="#b55441"/>
        <path id="Trazado_879660" data-name="Trazado 879660" d="M915.214,1314.108c-.069,6.275-2.579,12.6-8.786,15.049-1.4.552-.79,2.841.629,2.281,7.217-2.846,10.442-9.894,10.523-17.33a1.184,1.184,0,0,0-2.366,0" transform="translate(-669.222 -969.45)" fill="#b55441"/>
        <path id="Trazado_879661" data-name="Trazado 879661" d="M922.849,1364.263a10.968,10.968,0,0,1-6.522,8.436c-1.385.577-.777,2.868.629,2.281a13.31,13.31,0,0,0,8.175-10.089c.249-1.489-2.03-2.13-2.281-.629" transform="translate(-676.541 -1006.703)" fill="#b55441"/>
        <path id="Trazado_879662" data-name="Trazado 879662" d="M860.436,598.55c.955-3.3,3.479-6.833,7.33-6.628,5.954.316,5.378,7.043,3.106,10.713-2.467,3.985-4.64,6.6-4.489,11.515.047,1.519,2.413,1.525,2.366,0-.191-6.172,4.878-9.226,6.081-14.833.616-2.871.063-6.043-2.275-8-5.852-4.907-12.691.708-14.4,6.609a1.184,1.184,0,0,0,2.281.629" transform="translate(-634.117 -435.087)" fill="#212332"/>
        <path id="Trazado_879663" data-name="Trazado 879663" d="M890.883,714.208h.4a1.774,1.774,0,0,0,0-3.549h-.4a1.774,1.774,0,1,0,0,3.549" transform="translate(-657.016 -524.616)" fill="#212332"/>
        <path id="Trazado_879664" data-name="Trazado 879664" d="M814.02,673.206l-8.394,5.436c-1.273.825-.089,2.874,1.194,2.043l8.394-5.436c1.273-.825.089-2.873-1.194-2.043" transform="translate(-594.957 -496.811)" fill="#212332"/>
        <path id="Trazado_879665" data-name="Trazado 879665" d="M697.326,1638.506q-3.394,17.135-8.379,33.87a1.184,1.184,0,0,0,2.281.629q4.987-16.742,8.379-33.871c.294-1.487-1.985-2.124-2.281-.629" transform="translate(-509.147 -1209.248)" fill="#212332"/>
      </g>
    </g>
  </g>
</svg>
