<svg xmlns="http://www.w3.org/2000/svg" xmlns:xlink="http://www.w3.org/1999/xlink" width="295.734" height="323.244" viewBox="0 0 295.734 323.244">
  <defs>
    <clipPath id="clip-path">
      <rect id="Rectángulo_405280" data-name="Rectángulo 405280" width="295.734" height="323.244" rx="11" transform="translate(0.25 -0.41)" fill="#e2dacc"/>
    </clipPath>
    <clipPath id="clip-path-2">
      <rect id="Rectángulo_405267" data-name="Rectángulo 405267" width="61.259" height="121.514" transform="translate(0 0)" fill="#3ba935" stroke="#fff" stroke-width="1"/>
    </clipPath>
    <clipPath id="clip-path-3">
      <rect id="Rectángulo_405279" data-name="Rectángulo 405279" width="274.438" height="323.117" fill="none"/>
    </clipPath>
    <clipPath id="clip-path-5">
      <path id="Trazado_879379" data-name="Trazado 879379" d="M115.916,151.739c-2.655,4.248-6.373,8.5-22.309,8.5s-29.213,3.187-36.649,10.623-38.243,37.181-46.211,48.866-3.719,24.433,5.843,29.213,19.121.532,26.026-5.842S71.3,216.54,71.3,216.54s0,12.216,5.843,29.744,10.623,15.4,6.373,28.151-12.748,16.467-15.4,32.933a156.829,156.829,0,0,0-2.125,28.682H214.71s1.595-21.777-7.966-43.554-11.722-23.36-11.722-29.734,6.411-13.822,7.473-28.162.53-21.246.53-21.246,22.84,36.119,38.775,38.243,25.5-12.748,19.653-32.932-31.338-36.649-41.43-49.929-32.932-13.278-44.617-13.278-17.529-4.25-19.653-12.217-2.124-23.9-2.124-23.9-13.81,8.5-37.181-1.062c0,0,2.125,29.214-.531,33.463" transform="translate(-6.57 -118.276)" fill="none"/>
    </clipPath>
    <clipPath id="clip-path-6">
      <rect id="Rectángulo_405269" data-name="Rectángulo 405269" width="254.685" height="216.58" fill="none"/>
    </clipPath>
    <clipPath id="clip-path-8">
      <path id="Trazado_879387" data-name="Trazado 879387" d="M128.469,151.739c-1.85,2.96-4.223,5.919-10.878,7.443-.242,9.075,1.594,31.981,25.751,36.643,26.5,5.113,36.721-20.289,40.284-40.6-8.828-.968-13.476-5.077-15.32-11.989-2.124-7.966-2.124-23.9-2.124-23.9s-13.81,8.5-37.181-1.062c0,0,2.125,29.214-.531,33.463" transform="translate(-117.572 -118.276)" fill="none"/>
    </clipPath>
    <clipPath id="clip-path-9">
      <rect id="Rectángulo_405271" data-name="Rectángulo 405271" width="38.727" height="26.22" fill="none"/>
    </clipPath>
    <clipPath id="clip-path-11">
      <path id="Trazado_879395" data-name="Trazado 879395" d="M134.145,59.35c-13.449,13-19.725,21.52-19.725,21.52s.9,23.76,18.38,35.418,30.487,4.931,37.66-4.933,11.657-19.726,11.657-34.073,1.792-20.622-3.139-29.589-21.968-13.45-21.968-13.45A268.429,268.429,0,0,1,134.145,59.35" transform="translate(-114.42 -34.243)" fill="none"/>
    </clipPath>
    <clipPath id="clip-path-12">
      <rect id="Rectángulo_405273" data-name="Rectángulo 405273" width="42.694" height="60.226" fill="none"/>
    </clipPath>
    <clipPath id="clip-path-14">
      <path id="Trazado_879433" data-name="Trazado 879433" d="M.5,254.439c0,11.155,6.374,21.246,23.9,37.181s33.994,27.62,40.9,31.338,13.81-1.062,13.81-1.062,11.42,11.42,12.748,8.764-3.983-6.639-5.046-8.232a22.349,22.349,0,0,0-3.187-3.453s5.577.8,7.7,2.656,5.577,5.046,7.17,4.78,1.594-1.594-.8-4.78a28.275,28.275,0,0,0-6.905-6.374c-1.593-1.063-6.9-3.984-6.9-3.984s7.7-.53,10.358,1.062,9.826,6.373,10.356,4.25.532-3.454-2.124-5.843-7.968-5.312-11.154-5.843a33.474,33.474,0,0,1-6.374-1.859s6.108-2.124,8.233-2.124,10.623,4.248,13.014,3.718,1.061-2.656-.8-3.984-10.091-4.515-13.544-4.78-22.839,6.373-25.229,6.373-8.5-8.5-14.873-19.917S42.992,253.112,29.448,247L10.061,232.662S.5,243.285.5,254.439" transform="translate(-0.5 -232.662)" fill="none"/>
    </clipPath>
    <clipPath id="clip-path-15">
      <rect id="Rectángulo_405275" data-name="Rectángulo 405275" width="87.885" height="75.486" fill="none"/>
    </clipPath>
    <clipPath id="clip-path-17">
      <path id="Trazado_879485" data-name="Trazado 879485" d="M271.916,77.455c-2.311,7.1-4.843,19.166-4.843,19.166s-2.534-7.346-6.08-11.146-7.07.448-10.87,5.261,2.7,5.933,3.8,4.053c2.3-3.924,5.619-7.457,5.942.825.166,4.244.368,12.913-1.912,14.434s-11.146-1.266-11.146-1.266,1.013-2.787,2.027-6.333,1.773-6.08,0-8.106-3.8,1.773-3.8,1.773-6.84,7.346-6.08,12.16,10.893,15.2,13.68,19S254,142.948,254,151.5s-2.216,24.7-4.433,40.534-4.117,26.915-1.9,31.983l16.277,17.211a15.163,15.163,0,0,0,13.412,2.475c7.842-2.27,13.414-9.7,16.3-24.143s-6.6-34.668-11.969-48.494-8.456-38.966-8.456-38.966a51.792,51.792,0,0,0,4.788-10.071,60.146,60.146,0,0,1,7.1-15.187c3.961-6.438,8.914-9.574,12.215-12.215s4.458-2.807,3.136-3.963-5.612-.495-9.574,2.806a115.936,115.936,0,0,0-8.584,8.255,67.785,67.785,0,0,1,4.623-10.235A151.3,151.3,0,0,0,294.7,75.8c1.156-2.971-1.156-5.282-3.962-3.466s-5.283,5.778-6.934,10.07-7.428,14.363-9.078,14.692-1.487-3.3-.662-6.438,4.128-12.711,5.613-16.177,1.65-5.944.165-6.439a1.182,1.182,0,0,0-.372-.055c-1.716,0-5.413,2.892-7.552,9.464" transform="translate(-238.895 -67.991)" fill="none"/>
    </clipPath>
    <clipPath id="clip-path-18">
      <rect id="Rectángulo_405277" data-name="Rectángulo 405277" width="49.445" height="171.409" fill="none"/>
    </clipPath>
  </defs>
  <g id="Enmascarar_grupo_1098727" data-name="Enmascarar grupo 1098727" transform="translate(-0.25 0.41)" clip-path="url(#clip-path)">
    <g id="Grupo_1101687" data-name="Grupo 1101687" transform="translate(-38.307 0.079)">
      <path id="Rectángulo_405266" data-name="Rectángulo 405266" d="M0,0H295.339a21,21,0,0,1,21,21v94.489a0,0,0,0,1,0,0H8a8,8,0,0,1-8-8V0A0,0,0,0,1,0,0Z" transform="translate(0 207.629)" fill="#3ba935" opacity="0.29"/>
      <g id="Grupo_1101686" data-name="Grupo 1101686" transform="translate(49.874 0)">
        <path id="Trazado_877153" data-name="Trazado 877153" d="M83.624,22.925a60.7,60.7,0,1,0,60.7,60.7,60.767,60.767,0,0,0-60.7-60.7M83.624,0A83.624,83.624,0,1,1,0,83.624,83.624,83.624,0,0,1,83.624,0Z" transform="translate(0 69.597)" fill="#3ba935" opacity="0.84"/>
        <g id="Enmascarar_grupo_1098726" data-name="Enmascarar grupo 1098726" transform="translate(223.282 175.492)" clip-path="url(#clip-path-2)">
          <path id="Trazado_877154" data-name="Trazado 877154" d="M48.867,11.463a37.4,37.4,0,1,0,37.4,37.4,37.446,37.446,0,0,0-37.4-37.4M48.867,0A48.867,48.867,0,1,1,0,48.867,48.867,48.867,0,0,1,48.867,0Z" transform="translate(4.12 17.719)" fill="#3ba935"/>
        </g>
        <g id="Grupo_1101685" data-name="Grupo 1101685" transform="translate(7.255)">
          <path id="Trazado_879148" data-name="Trazado 879148" d="M104.483,322.836,91.656,370.45l127.836.373-11.159-47.988Z" transform="translate(-5.467 -48.394)" fill="#162229"/>
          <g id="Grupo_1101684" data-name="Grupo 1101684" transform="translate(0)">
            <g id="Grupo_1101683" data-name="Grupo 1101683" clip-path="url(#clip-path-3)">
              <g id="Grupo_1101647" data-name="Grupo 1101647">
                <g id="Grupo_1101646" data-name="Grupo 1101646" clip-path="url(#clip-path-3)">
                  <path id="Trazado_879149" data-name="Trazado 879149" d="M158.9,11.474s0-13.279-22.84-10.623-32.4,22.84-39.305,27.089S77.1,35.906,76.568,42.281s5.311,9.03-.531,13.81-14.873,9.03-12.748,15.4,7.967,12.748,5.311,17-10.091,8.5-3.187,13.279,10.092,5.842,10.092,12.216-2.655,10.623,3.718,12.748,10.092-2.125,13.81,5.843,7.436,10.091,13.81,8.5,15.4-4.249,18.591-2.125,13.279,7.967,17.528,4.78,7.967-7.967,14.34-5.312,11.686,6.374,14.341,1.594,0-5.843,10.092-7.967,13.81-1.594,13.81-10.092-.531-10.623,4.249-14.341,9.03-2.124,7.436-11.154-4.78-11.155-3.187-20.184S201.389,64.058,198.2,61.4s-6.9-7.437-5.843-12.216,9.03-5.312,1.063-13.81-11.685-5.843-13.279-12.217-6.9-20.183-21.246-11.685" transform="translate(-7.074 -0.056)" fill="#263238"/>
                  <path id="Trazado_879150" data-name="Trazado 879150" d="M158.9,11.474s0-13.279-22.84-10.623-32.4,22.84-39.305,27.089S77.1,35.906,76.568,42.281s5.311,9.03-.531,13.81-14.873,9.03-12.748,15.4,7.967,12.748,5.311,17-10.091,8.5-3.187,13.279,10.092,5.842,10.092,12.216-2.655,10.623,3.718,12.748,10.092-2.125,13.81,5.843,7.436,10.091,13.81,8.5,15.4-4.249,18.591-2.125,13.279,7.967,17.528,4.78,7.967-7.967,14.34-5.312,11.686,6.374,14.341,1.594,0-5.843,10.092-7.967,13.81-1.594,13.81-10.092-.531-10.623,4.249-14.341,9.03-2.124,7.436-11.154-4.78-11.155-3.187-20.184S201.389,64.058,198.2,61.4s-6.9-7.437-5.843-12.216,9.03-5.312,1.063-13.81-11.685-5.843-13.279-12.217S173.238,2.975,158.9,11.474Z" transform="translate(-7.074 -0.056)" fill="none" stroke="#263238" stroke-linecap="round" stroke-linejoin="round" stroke-width="1"/>
                  <path id="Trazado_879151" data-name="Trazado 879151" d="M140.474,30.905c-3.267,5.181-5.8,11.029-11.064,15.964-7.607,7.133-27.1,13.313-28.053,19.97s2.378,10.461-4.279,16.167S79.96,90.138,79.96,95.844s2.853,7.608,1.427,11.887" transform="translate(-9.042 -3.495)" fill="none" stroke="#616161" stroke-miterlimit="10" stroke-width="1"/>
                  <path id="Trazado_879152" data-name="Trazado 879152" d="M162.791,23.358s-2.377-6.181-9.034,0q-.772.717-1.463,1.482" transform="translate(-17.223 -2.331)" fill="none" stroke="#616161" stroke-miterlimit="10" stroke-width="1"/>
                  <path id="Trazado_879153" data-name="Trazado 879153" d="M100.054,54.348C94.2,55.767,89.588,56.787,89.1,60.932c-.952,8.083.475,13.313-5.231,15.69S70.556,82.8,72.934,87.558s2.853,6.181,2.377,8.083" transform="translate(-8.197 -6.146)" fill="none" stroke="#616161" stroke-miterlimit="10" stroke-width="1"/>
                  <path id="Trazado_879154" data-name="Trazado 879154" d="M157.342,14.607s-13.313-8.559-20.446-.951-3.8,17.117-14.74,27.578a27.772,27.772,0,0,1-9.635,5.849" transform="translate(-12.725 -1.188)" fill="none" stroke="#616161" stroke-miterlimit="10" stroke-width="1"/>
                  <path id="Trazado_879155" data-name="Trazado 879155" d="M215.2,91.152a8.634,8.634,0,0,0,3.2,2.946" transform="translate(-24.337 -10.308)" fill="none" stroke="#616161" stroke-miterlimit="10" stroke-width="1"/>
                  <path id="Trazado_879156" data-name="Trazado 879156" d="M173.779,28.4s11.887-3.8,14.74,2.853,4.279,18.544,9.51,20.445,7.607,4.755,7.607,15.216a33.579,33.579,0,0,0,1.487,9.942" transform="translate(-19.652 -3.089)" fill="none" stroke="#616161" stroke-miterlimit="10" stroke-width="1"/>
                  <path id="Trazado_879157" data-name="Trazado 879157" d="M86.93,120.2c3.8-6.181,9.034-3.8,9.509-10.46s-3.329-8.559.475-12.838,9.985-6.182,9.985-6.182" transform="translate(-9.831 -10.259)" fill="none" stroke="#616161" stroke-miterlimit="10" stroke-width="1"/>
                  <path id="Trazado_879158" data-name="Trazado 879158" d="M92.25,138.324a22.332,22.332,0,0,1-4.528-5.076" transform="translate(-9.92 -15.069)" fill="none" stroke="#616161" stroke-miterlimit="10" stroke-width="1"/>
                  <path id="Trazado_879159" data-name="Trazado 879159" d="M214.711,336.049s1.594-21.777-7.967-43.554-11.722-23.359-11.722-29.734,6.411-13.821,7.473-28.162.531-21.246.531-21.246,22.84,36.118,38.774,38.243,25.5-12.748,19.653-32.931-31.339-36.65-41.43-49.929-32.932-13.279-44.617-13.279-17.528-4.249-19.653-12.216-2.124-23.9-2.124-23.9-13.81,8.5-37.181-1.062c0,0,2.125,29.214-.531,33.463s-6.373,8.5-22.308,8.5-29.213,3.187-36.649,10.623-38.244,37.181-46.211,48.866S7.029,244.16,16.59,248.94s19.121.53,26.026-5.843S71.3,216.54,71.3,216.54s0,12.216,5.843,29.744,10.623,15.4,6.374,28.151-12.748,16.466-15.4,32.931a156.783,156.783,0,0,0-2.124,28.683" transform="translate(-0.743 -13.376)" fill="#f0c518"/>
                </g>
              </g>
              <g id="Grupo_1101652" data-name="Grupo 1101652" transform="translate(5.827 104.9)">
                <g id="Grupo_1101651" data-name="Grupo 1101651" clip-path="url(#clip-path-5)">
                  <g id="Grupo_1101650" data-name="Grupo 1101650" transform="translate(0.919 0.847)" opacity="0.2">
                    <g id="Grupo_1101649" data-name="Grupo 1101649">
                      <g id="Grupo_1101648" data-name="Grupo 1101648" clip-path="url(#clip-path-6)">
                        <path id="Trazado_879160" data-name="Trazado 879160" d="M201.846,178.9c-.365,0-1.7.909,0,3.471,1.7-2.561.366-3.471,0-3.471" transform="translate(-29.477 -125.979)"/>
                        <path id="Trazado_879161" data-name="Trazado 879161" d="M249.846,178.9c-.365,0-1.7.909,0,3.471,1.7-2.561.366-3.471,0-3.471" transform="translate(-34.906 -125.979)"/>
                        <path id="Trazado_879162" data-name="Trazado 879162" d="M249.846,202.9c-.365,0-1.7.909,0,3.47,1.7-2.561.366-3.47,0-3.47" transform="translate(-34.906 -128.693)"/>
                        <path id="Trazado_879163" data-name="Trazado 879163" d="M201.846,202.9c-.365,0-1.7.909,0,3.47,1.7-2.561.366-3.47,0-3.47" transform="translate(-29.477 -128.693)"/>
                        <path id="Trazado_879164" data-name="Trazado 879164" d="M225.846,190.9c-.365,0-1.7.909,0,3.471,1.7-2.561.366-3.471,0-3.471" transform="translate(-32.191 -127.336)"/>
                        <path id="Trazado_879165" data-name="Trazado 879165" d="M225.846,166.9c-.365,0-1.7.909,0,3.47,1.7-2.561.366-3.47,0-3.47" transform="translate(-32.191 -124.622)"/>
                        <path id="Trazado_879166" data-name="Trazado 879166" d="M202.99,183.149c3.067.175,3.182-1.431,3-1.749s-1.641-1.007-3,1.749" transform="translate(-29.702 -126.226)"/>
                        <path id="Trazado_879167" data-name="Trazado 879167" d="M253.625,182.567q-.6-.609-1.177-1.209a4.188,4.188,0,0,0-1.457,1.822,3.486,3.486,0,0,0,2.634-.613" transform="translate(-35.13 -126.257)"/>
                        <path id="Trazado_879168" data-name="Trazado 879168" d="M226.99,195.149c3.067.175,3.182-1.431,3-1.749s-1.641-1.007-3,1.749" transform="translate(-32.416 -127.583)"/>
                        <path id="Trazado_879169" data-name="Trazado 879169" d="M226.99,171.149c3.067.175,3.182-1.431,3-1.749s-1.641-1.007-3,1.749" transform="translate(-32.416 -124.869)"/>
                        <path id="Trazado_879170" data-name="Trazado 879170" d="M245.53,181.4c-.184.317-.068,1.924,3,1.749-1.358-2.756-2.814-2.066-3-1.749" transform="translate(-34.506 -126.226)"/>
                        <path id="Trazado_879171" data-name="Trazado 879171" d="M245.53,205.4a1.089,1.089,0,0,0,.459,1.221,3.711,3.711,0,0,0,2.54.528c-.1-.194-.192-.366-.287-.528-1.269-2.129-2.54-1.515-2.711-1.221" transform="translate(-34.506 -128.94)"/>
                        <path id="Trazado_879172" data-name="Trazado 879172" d="M221.53,193.4c-.184.317-.068,1.924,3,1.749-1.358-2.756-2.814-2.066-3-1.749" transform="translate(-31.792 -127.583)"/>
                        <path id="Trazado_879173" data-name="Trazado 879173" d="M221.53,169.4c-.184.317-.068,1.924,3,1.749-1.358-2.756-2.814-2.066-3-1.749" transform="translate(-31.792 -124.869)"/>
                        <path id="Trazado_879174" data-name="Trazado 879174" d="M201.846,250.9c-.365,0-1.7.909,0,3.47,1.7-2.561.366-3.47,0-3.47" transform="translate(-29.477 -134.122)"/>
                        <path id="Trazado_879175" data-name="Trazado 879175" d="M249.846,250.9c-.264,0-1.027.479-.792,1.71q.561.6,1.13,1.195c1.151-2.128,0-2.9-.338-2.9" transform="translate(-34.906 -134.122)"/>
                        <path id="Trazado_879176" data-name="Trazado 879176" d="M201.846,274.9c-.365,0-1.7.909,0,3.47,1.7-2.561.366-3.47,0-3.47" transform="translate(-29.477 -136.836)"/>
                        <path id="Trazado_879177" data-name="Trazado 879177" d="M273.846,262.9c-.365,0-1.7.909,0,3.471,1.7-2.561.365-3.471,0-3.471" transform="translate(-37.62 -135.479)"/>
                        <path id="Trazado_879178" data-name="Trazado 879178" d="M201.846,226.9c-.365,0-1.7.909,0,3.471,1.7-2.561.366-3.471,0-3.471" transform="translate(-29.477 -131.408)"/>
                        <path id="Trazado_879179" data-name="Trazado 879179" d="M249.846,226.9c-.365,0-1.7.909,0,3.471,1.7-2.561.366-3.471,0-3.471" transform="translate(-34.906 -131.408)"/>
                        <path id="Trazado_879180" data-name="Trazado 879180" d="M225.846,238.9c-.365,0-1.7.909,0,3.471,1.7-2.561.366-3.471,0-3.471" transform="translate(-32.191 -132.765)"/>
                        <path id="Trazado_879181" data-name="Trazado 879181" d="M273.846,238.9c-.365,0-1.7.909,0,3.471,1.7-2.561.365-3.471,0-3.471" transform="translate(-37.62 -132.765)"/>
                        <path id="Trazado_879182" data-name="Trazado 879182" d="M225.846,214.9c-.365,0-1.7.909,0,3.47,1.7-2.561.366-3.47,0-3.47" transform="translate(-32.191 -130.05)"/>
                        <path id="Trazado_879183" data-name="Trazado 879183" d="M273.846,214.9c-.365,0-1.7.909,0,3.47,1.7-2.561.365-3.47,0-3.47" transform="translate(-37.62 -130.05)"/>
                        <path id="Trazado_879184" data-name="Trazado 879184" d="M202.99,255.149c3.067.175,3.182-1.431,3-1.749s-1.641-1.006-3,1.749" transform="translate(-29.702 -134.368)"/>
                        <path id="Trazado_879185" data-name="Trazado 879185" d="M251.182,254.832l.325.329c2.581-.018,2.677-1.462,2.5-1.76s-1.52-.941-2.827,1.431" transform="translate(-35.152 -134.369)"/>
                        <path id="Trazado_879186" data-name="Trazado 879186" d="M205.316,277.088a1.59,1.59,0,0,0-1.066.371,3.079,3.079,0,0,0-.495.478,5.272,5.272,0,0,0-.478.685c-.011.018-.021.032-.032.051-.085.145-.17.3-.255.477a3.711,3.711,0,0,0,2.539-.528,1.6,1.6,0,0,0,.178-.162,1.315,1.315,0,0,0,.221-.32.649.649,0,0,0-.613-1.051" transform="translate(-29.702 -137.082)"/>
                        <path id="Trazado_879187" data-name="Trazado 879187" d="M274.991,267.149c3.065.175,3.18-1.431,3-1.749s-1.641-1.006-3,1.749" transform="translate(-37.844 -135.725)"/>
                        <path id="Trazado_879188" data-name="Trazado 879188" d="M202.99,231.149c3.067.175,3.182-1.432,3-1.749s-1.641-1.006-3,1.749" transform="translate(-29.702 -131.654)"/>
                        <path id="Trazado_879189" data-name="Trazado 879189" d="M253.987,229.4c-.184-.317-1.64-1.007-3,1.749,3.066.175,3.182-1.432,3-1.749" transform="translate(-35.13 -131.654)"/>
                        <path id="Trazado_879190" data-name="Trazado 879190" d="M226.99,243.247a7.254,7.254,0,0,0,.773,0c.025-.443.046-.869.066-1.293a5.7,5.7,0,0,0-.84,1.292" transform="translate(-32.416 -133.11)"/>
                        <path id="Trazado_879191" data-name="Trazado 879191" d="M274.991,243.149c3.065.175,3.18-1.431,3-1.749s-1.641-1.006-3,1.749" transform="translate(-37.844 -133.011)"/>
                        <path id="Trazado_879192" data-name="Trazado 879192" d="M226.99,219.149c3.067.175,3.182-1.431,3-1.749s-1.641-1.006-3,1.749" transform="translate(-32.416 -130.297)"/>
                        <path id="Trazado_879193" data-name="Trazado 879193" d="M274.991,219.149c3.065.175,3.18-1.431,3-1.749s-1.641-1.006-3,1.749" transform="translate(-37.844 -130.297)"/>
                        <path id="Trazado_879194" data-name="Trazado 879194" d="M223.115,267.082c.162-.43.323-.872.484-1.321-1.027-1.063-1.926-.6-2.069-.36s-.1,1.373,1.585,1.682" transform="translate(-31.792 -135.726)"/>
                        <path id="Trazado_879195" data-name="Trazado 879195" d="M293.53,253.4a1.135,1.135,0,0,0,.6,1.316q.271-.772.494-1.584a1.03,1.03,0,0,0-1.089.268" transform="translate(-39.935 -134.369)"/>
                        <path id="Trazado_879196" data-name="Trazado 879196" d="M269.53,265.4c-.185.317-.069,1.924,3,1.749-1.358-2.756-2.815-2.066-3-1.749" transform="translate(-37.22 -135.725)"/>
                        <path id="Trazado_879197" data-name="Trazado 879197" d="M245.53,229.4c-.184.317-.068,1.924,3,1.749-1.358-2.756-2.814-2.066-3-1.749" transform="translate(-34.506 -131.654)"/>
                        <path id="Trazado_879198" data-name="Trazado 879198" d="M221.53,241.4c-.184.317-.068,1.924,3,1.749-1.358-2.756-2.814-2.066-3-1.749" transform="translate(-31.792 -133.011)"/>
                        <path id="Trazado_879199" data-name="Trazado 879199" d="M269.53,241.4c-.185.317-.069,1.924,3,1.749-1.358-2.756-2.815-2.066-3-1.749" transform="translate(-37.22 -133.011)"/>
                        <path id="Trazado_879200" data-name="Trazado 879200" d="M221.53,217.4c-.184.317-.068,1.924,3,1.749-1.358-2.756-2.814-2.066-3-1.749" transform="translate(-31.792 -130.297)"/>
                        <path id="Trazado_879201" data-name="Trazado 879201" d="M269.53,217.4c-.185.317-.069,1.924,3,1.749-1.358-2.756-2.815-2.066-3-1.749" transform="translate(-37.22 -130.297)"/>
                        <path id="Trazado_879202" data-name="Trazado 879202" d="M253.53,206.621h0a1.089,1.089,0,0,0,.458-1.221c-.171-.294-1.441-.907-2.71,1.221-.1.161-.192.333-.287.528a3.71,3.71,0,0,0,2.539-.528" transform="translate(-35.13 -128.94)"/>
                        <path id="Trazado_879203" data-name="Trazado 879203" d="M205.53,206.621h0a1.089,1.089,0,0,0,.458-1.221c-.171-.294-1.442-.907-2.71,1.221-.1.161-.192.333-.287.528a3.711,3.711,0,0,0,2.54-.528" transform="translate(-29.702 -128.94)"/>
                        <path id="Trazado_879204" data-name="Trazado 879204" d="M201.846,322.9c-.365,0-1.7.909,0,3.47,1.7-2.561.366-3.47,0-3.47" transform="translate(-29.477 -142.264)"/>
                        <path id="Trazado_879205" data-name="Trazado 879205" d="M201.846,346.9c-.365,0-1.7.909,0,3.47,1.7-2.561.366-3.47,0-3.47" transform="translate(-29.477 -144.978)"/>
                        <path id="Trazado_879206" data-name="Trazado 879206" d="M225.846,334.9c-.365,0-1.7.909,0,3.47,1.7-2.561.366-3.47,0-3.47" transform="translate(-32.191 -143.621)"/>
                        <path id="Trazado_879207" data-name="Trazado 879207" d="M201.846,298.9c-.365,0-1.7.909,0,3.47,1.7-2.561.366-3.47,0-3.47" transform="translate(-29.477 -139.55)"/>
                        <path id="Trazado_879208" data-name="Trazado 879208" d="M225.846,310.9c-.365,0-1.7.909,0,3.47,1.7-2.561.366-3.47,0-3.47" transform="translate(-32.191 -140.907)"/>
                        <path id="Trazado_879209" data-name="Trazado 879209" d="M202.99,327.149c3.067.175,3.182-1.431,3-1.749s-1.641-1.006-3,1.749" transform="translate(-29.702 -142.511)"/>
                        <path id="Trazado_879210" data-name="Trazado 879210" d="M205.316,349.088a1.324,1.324,0,0,0-.186,0,1.568,1.568,0,0,0-.644.212,2,2,0,0,0-.236.157,4.019,4.019,0,0,0-.973,1.163c-.1.161-.192.333-.287.528a3.711,3.711,0,0,0,2.539-.528,1.089,1.089,0,0,0,.458-1.221.879.879,0,0,0-.671-.312" transform="translate(-29.702 -145.225)"/>
                        <path id="Trazado_879211" data-name="Trazado 879211" d="M226.99,339.149c3.067.175,3.182-1.431,3-1.749s-1.641-1.006-3,1.749" transform="translate(-32.416 -143.868)"/>
                        <path id="Trazado_879212" data-name="Trazado 879212" d="M202.99,303.149c3.067.175,3.182-1.431,3-1.749s-1.641-1.006-3,1.749" transform="translate(-29.702 -139.797)"/>
                        <path id="Trazado_879213" data-name="Trazado 879213" d="M226.99,315.149c3.067.175,3.182-1.432,3-1.749s-1.641-1.006-3,1.749" transform="translate(-32.416 -141.154)"/>
                        <path id="Trazado_879214" data-name="Trazado 879214" d="M221.53,337.4c-.184.317-.068,1.924,3,1.749-1.358-2.756-2.814-2.066-3-1.749" transform="translate(-31.792 -143.868)"/>
                        <path id="Trazado_879215" data-name="Trazado 879215" d="M221.53,313.4c-.184.317-.068,1.924,3,1.749-1.358-2.756-2.814-2.066-3-1.749" transform="translate(-31.792 -141.154)"/>
                        <path id="Trazado_879216" data-name="Trazado 879216" d="M225.846,358.9c-.365,0-1.7.909,0,3.47,1.7-2.561.366-3.47,0-3.47" transform="translate(-32.191 -146.335)"/>
                        <path id="Trazado_879217" data-name="Trazado 879217" d="M226.99,363.149c3.067.175,3.182-1.432,3-1.749s-1.641-1.006-3,1.749" transform="translate(-32.416 -146.582)"/>
                        <path id="Trazado_879218" data-name="Trazado 879218" d="M221.53,361.4c-.184.317-.068,1.924,3,1.749-1.358-2.756-2.814-2.066-3-1.749" transform="translate(-31.792 -146.582)"/>
                        <path id="Trazado_879219" data-name="Trazado 879219" d="M153.846,130.9c-.365,0-1.7.909,0,3.47,1.7-2.561.366-3.47,0-3.47" transform="translate(-24.049 -120.551)"/>
                        <path id="Trazado_879220" data-name="Trazado 879220" d="M130.523,119.231c.033.482.076,1.152.127,1.981a1.854,1.854,0,0,0-.127-1.981" transform="translate(-21.507 -119.231)"/>
                        <path id="Trazado_879221" data-name="Trazado 879221" d="M157.316,133.088a1.6,1.6,0,0,0-1.066.371,3.086,3.086,0,0,0-.495.479,5.11,5.11,0,0,0-.477.684l-.033.051q-.128.219-.255.477a3.71,3.71,0,0,0,2.539-.528,1.521,1.521,0,0,0,.178-.162,1.322,1.322,0,0,0,.221-.32.649.649,0,0,0-.613-1.051" transform="translate(-24.274 -120.798)"/>
                        <path id="Trazado_879222" data-name="Trazado 879222" d="M130.99,123.149c3.067.175,3.182-1.431,3-1.749s-1.641-1.007-3,1.749" transform="translate(-21.56 -119.441)"/>
                        <path id="Trazado_879223" data-name="Trazado 879223" d="M106.666,179.89a1.443,1.443,0,0,0-.118-.395l0-.008a1.391,1.391,0,0,0-.092-.161l0-.005a1.135,1.135,0,0,0-.208-.231l-.007-.006a.926.926,0,0,0-.213-.135h0a.371.371,0,0,0-.349,0c-.408.179-1.079.922-.327,2.542a6.738,6.738,0,0,0,.5.885,6.735,6.735,0,0,0,.5-.885,3.151,3.151,0,0,0,.341-1.339,1.841,1.841,0,0,0-.019-.251l0-.009" transform="translate(-18.621 -125.979)"/>
                        <path id="Trazado_879224" data-name="Trazado 879224" d="M153.846,178.9c-.365,0-1.7.909,0,3.471,1.7-2.561.366-3.471,0-3.471" transform="translate(-24.049 -125.979)"/>
                        <path id="Trazado_879225" data-name="Trazado 879225" d="M153.846,202.9c-.365,0-1.7.909,0,3.47,1.7-2.561.366-3.47,0-3.47" transform="translate(-24.049 -128.693)"/>
                        <path id="Trazado_879226" data-name="Trazado 879226" d="M106.666,203.89a1.442,1.442,0,0,0-.118-.395l0-.008a1.4,1.4,0,0,0-.092-.161l0-.005a1.136,1.136,0,0,0-.208-.231l-.007-.006a.922.922,0,0,0-.213-.135h0a.371.371,0,0,0-.349,0c-.408.179-1.079.922-.327,2.542a6.746,6.746,0,0,0,.5.885,6.743,6.743,0,0,0,.5-.885,3.151,3.151,0,0,0,.341-1.339,1.84,1.84,0,0,0-.019-.251l0-.009" transform="translate(-18.621 -128.693)"/>
                        <path id="Trazado_879227" data-name="Trazado 879227" d="M129.846,190.9c-.365,0-1.7.909,0,3.471,1.7-2.561.366-3.471,0-3.471" transform="translate(-21.335 -127.336)"/>
                        <path id="Trazado_879228" data-name="Trazado 879228" d="M177.846,190.9c-.365,0-1.7.909,0,3.471,1.7-2.561.365-3.471,0-3.471" transform="translate(-26.763 -127.336)"/>
                        <path id="Trazado_879229" data-name="Trazado 879229" d="M153.846,154.9c-.365,0-1.7.909,0,3.47,1.7-2.561.366-3.47,0-3.47" transform="translate(-24.049 -123.265)"/>
                        <path id="Trazado_879230" data-name="Trazado 879230" d="M129.846,166.9c-.365,0-1.7.909,0,3.47,1.7-2.561.366-3.47,0-3.47" transform="translate(-21.335 -124.622)"/>
                        <path id="Trazado_879231" data-name="Trazado 879231" d="M177.846,166.9c-.365,0-1.7.909,0,3.47,1.7-2.561.365-3.47,0-3.47" transform="translate(-26.763 -124.622)"/>
                        <path id="Trazado_879232" data-name="Trazado 879232" d="M106.991,183.149c3.066.175,3.181-1.431,3-1.749s-1.64-1.007-3,1.749" transform="translate(-18.846 -126.226)"/>
                        <path id="Trazado_879233" data-name="Trazado 879233" d="M154.99,183.149c3.066.175,3.182-1.431,3-1.749s-1.64-1.007-3,1.749" transform="translate(-24.274 -126.226)"/>
                        <path id="Trazado_879234" data-name="Trazado 879234" d="M130.99,195.149c3.067.175,3.182-1.431,3-1.749s-1.641-1.007-3,1.749" transform="translate(-21.56 -127.583)"/>
                        <path id="Trazado_879235" data-name="Trazado 879235" d="M178.99,195.149c3.066.175,3.18-1.431,3-1.749s-1.641-1.007-3,1.749" transform="translate(-26.988 -127.583)"/>
                        <path id="Trazado_879236" data-name="Trazado 879236" d="M154.99,159.149c3.066.175,3.182-1.431,3-1.749s-1.64-1.007-3,1.749" transform="translate(-24.274 -123.512)"/>
                        <path id="Trazado_879237" data-name="Trazado 879237" d="M130.99,171.149c3.067.175,3.182-1.431,3-1.749s-1.641-1.007-3,1.749" transform="translate(-21.56 -124.869)"/>
                        <path id="Trazado_879238" data-name="Trazado 879238" d="M178.99,171.149c3.066.175,3.18-1.431,3-1.749s-1.641-1.007-3,1.749" transform="translate(-26.988 -124.869)"/>
                        <path id="Trazado_879239" data-name="Trazado 879239" d="M134.016,145.4c-.174-.3-1.47-.923-2.752,1.289-.006.158-.013.31-.02.466,2.839.082,2.953-1.446,2.772-1.754" transform="translate(-21.588 -122.155)"/>
                        <path id="Trazado_879240" data-name="Trazado 879240" d="M149.53,181.4c-.185.317-.068,1.924,3,1.749-1.358-2.756-2.814-2.066-3-1.749" transform="translate(-23.65 -126.226)"/>
                        <path id="Trazado_879241" data-name="Trazado 879241" d="M149.53,205.4a1.089,1.089,0,0,0,.459,1.221,3.711,3.711,0,0,0,2.54.528c-.1-.194-.192-.366-.287-.528-1.269-2.129-2.54-1.515-2.711-1.221" transform="translate(-23.65 -128.94)"/>
                        <path id="Trazado_879242" data-name="Trazado 879242" d="M125.53,193.4c-.184.317-.068,1.924,3,1.749-1.358-2.756-2.814-2.066-3-1.749" transform="translate(-20.936 -127.583)"/>
                        <path id="Trazado_879243" data-name="Trazado 879243" d="M197.53,181.4c-.185.317-.069,1.924,3,1.749-1.356-2.756-2.813-2.066-3-1.749" transform="translate(-29.078 -126.226)"/>
                        <path id="Trazado_879244" data-name="Trazado 879244" d="M200.24,206.621c-1.267-2.129-2.539-1.515-2.71-1.221a1.089,1.089,0,0,0,.458,1.221,3.707,3.707,0,0,0,2.539.528c-.1-.194-.192-.367-.287-.528" transform="translate(-29.078 -128.94)"/>
                        <path id="Trazado_879245" data-name="Trazado 879245" d="M173.53,193.4c-.185.317-.069,1.924,3,1.749-1.358-2.756-2.815-2.066-3-1.749" transform="translate(-26.364 -127.583)"/>
                        <path id="Trazado_879246" data-name="Trazado 879246" d="M149.53,157.4c-.185.317-.068,1.924,3,1.749-1.358-2.756-2.814-2.066-3-1.749" transform="translate(-23.65 -123.512)"/>
                        <path id="Trazado_879247" data-name="Trazado 879247" d="M125.53,169.4c-.184.317-.068,1.924,3,1.749-1.358-2.756-2.814-2.066-3-1.749" transform="translate(-20.936 -124.869)"/>
                        <path id="Trazado_879248" data-name="Trazado 879248" d="M173.53,169.4c-.185.317-.069,1.924,3,1.749-1.358-2.756-2.815-2.066-3-1.749" transform="translate(-26.364 -124.869)"/>
                        <path id="Trazado_879249" data-name="Trazado 879249" d="M174.856,147.021c-.076-.248-.16-.491-.229-.749-.1-.377-.194-.774-.285-1.183a.939.939,0,0,0-.812.311c-.143.243-.1,1.25,1.326,1.62" transform="translate(-26.364 -122.155)"/>
                        <path id="Trazado_879250" data-name="Trazado 879250" d="M152.241,134.621a5.108,5.108,0,0,0-.478-.684,3.086,3.086,0,0,0-.495-.479,1.6,1.6,0,0,0-1.066-.371.649.649,0,0,0-.613,1.051,1.3,1.3,0,0,0,.221.32,1.522,1.522,0,0,0,.178.162,3.712,3.712,0,0,0,2.54.528q-.128-.258-.255-.477c-.011-.019-.021-.033-.032-.051" transform="translate(-23.65 -120.798)"/>
                        <path id="Trazado_879251" data-name="Trazado 879251" d="M106.666,251.89a1.443,1.443,0,0,0-.118-.395l0-.008a1.4,1.4,0,0,0-.092-.161l0-.005a1.137,1.137,0,0,0-.208-.231l-.007-.006a.925.925,0,0,0-.213-.135h0a.365.365,0,0,0-.349,0c-.408.179-1.079.922-.327,2.542a6.733,6.733,0,0,0,.5.885,6.731,6.731,0,0,0,.5-.885,3.151,3.151,0,0,0,.341-1.339,1.841,1.841,0,0,0-.019-.251l0-.009" transform="translate(-18.621 -134.122)"/>
                        <path id="Trazado_879252" data-name="Trazado 879252" d="M153.846,250.9c-.365,0-1.7.909,0,3.47,1.7-2.561.366-3.47,0-3.47" transform="translate(-24.049 -134.122)"/>
                        <path id="Trazado_879253" data-name="Trazado 879253" d="M153.846,274.9c-.365,0-1.7.909,0,3.47,1.7-2.561.366-3.47,0-3.47" transform="translate(-24.049 -136.836)"/>
                        <path id="Trazado_879254" data-name="Trazado 879254" d="M106.666,275.89a1.443,1.443,0,0,0-.118-.395l0-.008a1.385,1.385,0,0,0-.092-.161l0-.005a1.135,1.135,0,0,0-.208-.231l-.007-.006a.927.927,0,0,0-.213-.135h0a.365.365,0,0,0-.349,0c-.408.179-1.079.922-.327,2.542a6.735,6.735,0,0,0,.5.885,6.732,6.732,0,0,0,.5-.885,3.151,3.151,0,0,0,.341-1.338,1.844,1.844,0,0,0-.019-.252l0-.009" transform="translate(-18.621 -136.836)"/>
                        <path id="Trazado_879255" data-name="Trazado 879255" d="M129.846,262.9c-.365,0-1.7.909,0,3.471,1.7-2.561.366-3.471,0-3.471" transform="translate(-21.335 -135.479)"/>
                        <path id="Trazado_879256" data-name="Trazado 879256" d="M177.846,262.9c-.365,0-1.7.909,0,3.471,1.7-2.561.365-3.471,0-3.471" transform="translate(-26.763 -135.479)"/>
                        <path id="Trazado_879257" data-name="Trazado 879257" d="M106.666,227.89a1.443,1.443,0,0,0-.118-.395l0-.008a1.394,1.394,0,0,0-.092-.161l0-.005a1.134,1.134,0,0,0-.208-.232l-.007-.006a.921.921,0,0,0-.213-.135h0a.371.371,0,0,0-.349,0c-.408.179-1.079.922-.327,2.542a6.743,6.743,0,0,0,.5.885,6.741,6.741,0,0,0,.5-.885,3.151,3.151,0,0,0,.341-1.339,1.842,1.842,0,0,0-.019-.251l0-.009" transform="translate(-18.621 -131.408)"/>
                        <path id="Trazado_879258" data-name="Trazado 879258" d="M153.846,226.9c-.365,0-1.7.909,0,3.471,1.7-2.561.366-3.471,0-3.471" transform="translate(-24.049 -131.408)"/>
                        <path id="Trazado_879259" data-name="Trazado 879259" d="M129.846,238.9c-.365,0-1.7.909,0,3.471,1.7-2.561.366-3.471,0-3.471" transform="translate(-21.335 -132.765)"/>
                        <path id="Trazado_879260" data-name="Trazado 879260" d="M177.846,238.9c-.365,0-1.7.909,0,3.471,1.7-2.561.365-3.471,0-3.471" transform="translate(-26.763 -132.765)"/>
                        <path id="Trazado_879261" data-name="Trazado 879261" d="M129.846,214.9c-.365,0-1.7.909,0,3.47,1.7-2.561.366-3.47,0-3.47" transform="translate(-21.335 -130.05)"/>
                        <path id="Trazado_879262" data-name="Trazado 879262" d="M177.846,214.9c-.365,0-1.7.909,0,3.47,1.7-2.561.365-3.47,0-3.47" transform="translate(-26.763 -130.05)"/>
                        <path id="Trazado_879263" data-name="Trazado 879263" d="M106.991,255.149c3.066.175,3.181-1.431,3-1.749s-1.64-1.006-3,1.749" transform="translate(-18.846 -134.368)"/>
                        <path id="Trazado_879264" data-name="Trazado 879264" d="M154.99,255.149c3.066.175,3.182-1.431,3-1.749s-1.64-1.006-3,1.749" transform="translate(-24.274 -134.368)"/>
                        <path id="Trazado_879265" data-name="Trazado 879265" d="M157.316,277.088a1.591,1.591,0,0,0-1.066.371,3.117,3.117,0,0,0-.495.478,5.184,5.184,0,0,0-.477.685l-.033.051c-.085.145-.17.3-.255.477a3.71,3.71,0,0,0,2.539-.528,1.6,1.6,0,0,0,.178-.162,1.34,1.34,0,0,0,.221-.32.649.649,0,0,0-.613-1.051" transform="translate(-24.274 -137.082)"/>
                        <path id="Trazado_879266" data-name="Trazado 879266" d="M109.316,277.088a1.59,1.59,0,0,0-1.066.371,3.079,3.079,0,0,0-.495.478,5.267,5.267,0,0,0-.478.685c-.011.018-.021.032-.032.051-.085.145-.17.3-.255.477a3.712,3.712,0,0,0,2.54-.528,1.6,1.6,0,0,0,.178-.162,1.315,1.315,0,0,0,.221-.32.649.649,0,0,0-.613-1.051" transform="translate(-18.845 -137.082)"/>
                        <path id="Trazado_879267" data-name="Trazado 879267" d="M130.99,267.149c3.067.175,3.182-1.431,3-1.749s-1.641-1.006-3,1.749" transform="translate(-21.56 -135.725)"/>
                        <path id="Trazado_879268" data-name="Trazado 879268" d="M178.99,267.149c3.066.175,3.18-1.431,3-1.749s-1.641-1.006-3,1.749" transform="translate(-26.988 -135.725)"/>
                        <path id="Trazado_879269" data-name="Trazado 879269" d="M106.991,231.149c3.066.175,3.181-1.432,3-1.749s-1.64-1.006-3,1.749" transform="translate(-18.846 -131.654)"/>
                        <path id="Trazado_879270" data-name="Trazado 879270" d="M154.99,231.149c3.066.175,3.182-1.432,3-1.749s-1.64-1.006-3,1.749" transform="translate(-24.274 -131.654)"/>
                        <path id="Trazado_879271" data-name="Trazado 879271" d="M130.99,243.149c3.067.175,3.182-1.431,3-1.749s-1.641-1.006-3,1.749" transform="translate(-21.56 -133.011)"/>
                        <path id="Trazado_879272" data-name="Trazado 879272" d="M178.99,243.149c3.066.175,3.18-1.431,3-1.749s-1.641-1.006-3,1.749" transform="translate(-26.988 -133.011)"/>
                        <path id="Trazado_879273" data-name="Trazado 879273" d="M130.99,219.149c3.067.175,3.182-1.431,3-1.749s-1.641-1.006-3,1.749" transform="translate(-21.56 -130.297)"/>
                        <path id="Trazado_879274" data-name="Trazado 879274" d="M178.99,219.149c3.066.175,3.18-1.431,3-1.749s-1.641-1.006-3,1.749" transform="translate(-26.988 -130.297)"/>
                        <path id="Trazado_879275" data-name="Trazado 879275" d="M149.53,253.4c-.185.317-.068,1.924,3,1.749-1.358-2.756-2.814-2.066-3-1.749" transform="translate(-23.65 -134.368)"/>
                        <path id="Trazado_879276" data-name="Trazado 879276" d="M125.53,265.4c-.184.317-.068,1.924,3,1.749-1.358-2.756-2.814-2.066-3-1.749" transform="translate(-20.936 -135.725)"/>
                        <path id="Trazado_879277" data-name="Trazado 879277" d="M197.53,253.4c-.185.317-.069,1.924,3,1.749-1.356-2.756-2.813-2.066-3-1.749" transform="translate(-29.078 -134.368)"/>
                        <path id="Trazado_879278" data-name="Trazado 879278" d="M173.53,265.4c-.185.317-.069,1.924,3,1.749-1.358-2.756-2.815-2.066-3-1.749" transform="translate(-26.364 -135.725)"/>
                        <path id="Trazado_879279" data-name="Trazado 879279" d="M111.62,277.981s23.06,5.913,52.032-16.556,40.206-13.6,39.024,2.365-26.017,30.747-36.66,32.521c-17.5,2.917-33.111,7.686-54.4-18.33" transform="translate(-19.369 -133.781)"/>
                        <path id="Trazado_879280" data-name="Trazado 879280" d="M149.53,229.4c-.185.317-.068,1.924,3,1.749-1.358-2.756-2.814-2.066-3-1.749" transform="translate(-23.65 -131.654)"/>
                        <path id="Trazado_879281" data-name="Trazado 879281" d="M125.53,241.4c-.184.317-.068,1.924,3,1.749-1.358-2.756-2.814-2.066-3-1.749" transform="translate(-20.936 -133.011)"/>
                        <path id="Trazado_879282" data-name="Trazado 879282" d="M197.53,229.4c-.185.317-.069,1.924,3,1.749-1.356-2.756-2.813-2.066-3-1.749" transform="translate(-29.078 -131.654)"/>
                        <path id="Trazado_879283" data-name="Trazado 879283" d="M173.53,241.4c-.185.317-.069,1.924,3,1.749-1.358-2.756-2.815-2.066-3-1.749" transform="translate(-26.364 -133.011)"/>
                        <path id="Trazado_879284" data-name="Trazado 879284" d="M125.53,217.4c-.184.317-.068,1.924,3,1.749-1.358-2.756-2.814-2.066-3-1.749" transform="translate(-20.936 -130.297)"/>
                        <path id="Trazado_879285" data-name="Trazado 879285" d="M173.53,217.4c-.185.317-.069,1.924,3,1.749-1.358-2.756-2.815-2.066-3-1.749" transform="translate(-26.364 -130.297)"/>
                        <path id="Trazado_879286" data-name="Trazado 879286" d="M157.53,206.621h0a1.089,1.089,0,0,0,.458-1.221c-.171-.294-1.441-.907-2.71,1.221-.1.161-.193.333-.287.528a3.71,3.71,0,0,0,2.539-.528" transform="translate(-24.274 -128.94)"/>
                        <path id="Trazado_879287" data-name="Trazado 879287" d="M109.53,206.621h0a1.089,1.089,0,0,0,.458-1.221c-.171-.294-1.442-.907-2.71,1.221-.1.161-.192.333-.287.528a3.711,3.711,0,0,0,2.54-.528" transform="translate(-18.845 -128.94)"/>
                        <path id="Trazado_879288" data-name="Trazado 879288" d="M106.666,323.89a1.443,1.443,0,0,0-.118-.395l0-.008a1.4,1.4,0,0,0-.092-.161l0-.005a1.134,1.134,0,0,0-.208-.232l-.007-.006a.954.954,0,0,0-.213-.135h0a.371.371,0,0,0-.349,0c-.408.179-1.079.923-.327,2.542a6.729,6.729,0,0,0,.5.885,6.727,6.727,0,0,0,.5-.885,3.151,3.151,0,0,0,.341-1.338,1.854,1.854,0,0,0-.019-.252l0-.009" transform="translate(-18.621 -142.264)"/>
                        <path id="Trazado_879289" data-name="Trazado 879289" d="M153.846,322.9c-.365,0-1.7.909,0,3.47,1.7-2.561.366-3.47,0-3.47" transform="translate(-24.049 -142.264)"/>
                        <path id="Trazado_879290" data-name="Trazado 879290" d="M153.846,346.9c-.365,0-1.7.909,0,3.47,1.7-2.561.366-3.47,0-3.47" transform="translate(-24.049 -144.978)"/>
                        <path id="Trazado_879291" data-name="Trazado 879291" d="M106.666,347.89a1.442,1.442,0,0,0-.118-.395l0-.008a1.387,1.387,0,0,0-.092-.161l0-.005a1.135,1.135,0,0,0-.208-.231l-.007-.006a.951.951,0,0,0-.213-.135h0a.371.371,0,0,0-.349,0c-.408.179-1.079.922-.327,2.542a6.734,6.734,0,0,0,.5.885,6.732,6.732,0,0,0,.5-.885,3.151,3.151,0,0,0,.341-1.338,1.855,1.855,0,0,0-.019-.252l0-.009" transform="translate(-18.621 -144.978)"/>
                        <path id="Trazado_879292" data-name="Trazado 879292" d="M129.846,334.9c-.365,0-1.7.909,0,3.47,1.7-2.561.366-3.47,0-3.47" transform="translate(-21.335 -143.621)"/>
                        <path id="Trazado_879293" data-name="Trazado 879293" d="M177.846,334.9c-.365,0-1.7.909,0,3.47,1.7-2.561.365-3.47,0-3.47" transform="translate(-26.763 -143.621)"/>
                        <path id="Trazado_879294" data-name="Trazado 879294" d="M106.666,299.89a1.443,1.443,0,0,0-.118-.395l0-.008a1.392,1.392,0,0,0-.092-.161l0-.005a1.134,1.134,0,0,0-.208-.231l-.007-.006a.922.922,0,0,0-.213-.135h0a.365.365,0,0,0-.349,0c-.408.179-1.079.922-.327,2.542a6.735,6.735,0,0,0,.5.885,6.732,6.732,0,0,0,.5-.885,3.151,3.151,0,0,0,.341-1.338,1.845,1.845,0,0,0-.019-.252l0-.009" transform="translate(-18.621 -139.55)"/>
                        <path id="Trazado_879295" data-name="Trazado 879295" d="M153.846,298.9c-.365,0-1.7.909,0,3.47,1.7-2.561.366-3.47,0-3.47" transform="translate(-24.049 -139.55)"/>
                        <path id="Trazado_879296" data-name="Trazado 879296" d="M129.846,310.9c-.365,0-1.7.909,0,3.47,1.7-2.561.366-3.47,0-3.47" transform="translate(-21.335 -140.907)"/>
                        <path id="Trazado_879297" data-name="Trazado 879297" d="M177.846,310.9c-.365,0-1.7.909,0,3.47,1.7-2.561.365-3.47,0-3.47" transform="translate(-26.763 -140.907)"/>
                        <path id="Trazado_879298" data-name="Trazado 879298" d="M129.846,286.9c-.365,0-1.7.909,0,3.47,1.7-2.561.366-3.47,0-3.47" transform="translate(-21.335 -138.193)"/>
                        <path id="Trazado_879299" data-name="Trazado 879299" d="M177.846,286.9c-.365,0-1.7.909,0,3.47,1.7-2.561.365-3.47,0-3.47" transform="translate(-26.763 -138.193)"/>
                        <path id="Trazado_879300" data-name="Trazado 879300" d="M106.991,327.149c3.066.175,3.181-1.431,3-1.749s-1.64-1.006-3,1.749" transform="translate(-18.846 -142.511)"/>
                        <path id="Trazado_879301" data-name="Trazado 879301" d="M154.99,327.149c3.066.175,3.182-1.431,3-1.749s-1.64-1.006-3,1.749" transform="translate(-24.274 -142.511)"/>
                        <path id="Trazado_879302" data-name="Trazado 879302" d="M157.316,349.088a1.31,1.31,0,0,0-.185,0,1.564,1.564,0,0,0-.644.212,1.934,1.934,0,0,0-.237.157,4,4,0,0,0-.972,1.163c-.1.161-.193.333-.287.528a3.711,3.711,0,0,0,2.539-.528,1.089,1.089,0,0,0,.458-1.221.879.879,0,0,0-.671-.312" transform="translate(-24.274 -145.225)"/>
                        <path id="Trazado_879303" data-name="Trazado 879303" d="M109.316,349.088a1.325,1.325,0,0,0-.186,0,1.569,1.569,0,0,0-.644.212,2,2,0,0,0-.236.157,4.018,4.018,0,0,0-.973,1.163c-.1.161-.192.333-.287.528a3.712,3.712,0,0,0,2.54-.528,1.089,1.089,0,0,0,.458-1.221.879.879,0,0,0-.671-.312" transform="translate(-18.845 -145.225)"/>
                        <path id="Trazado_879304" data-name="Trazado 879304" d="M130.99,339.149c3.067.175,3.182-1.431,3-1.749s-1.641-1.006-3,1.749" transform="translate(-21.56 -143.868)"/>
                        <path id="Trazado_879305" data-name="Trazado 879305" d="M178.99,339.149c3.066.175,3.18-1.431,3-1.749s-1.641-1.006-3,1.749" transform="translate(-26.988 -143.868)"/>
                        <path id="Trazado_879306" data-name="Trazado 879306" d="M106.991,303.149c3.066.175,3.181-1.431,3-1.749s-1.64-1.006-3,1.749" transform="translate(-18.846 -139.797)"/>
                        <path id="Trazado_879307" data-name="Trazado 879307" d="M154.99,303.149c3.066.175,3.182-1.431,3-1.749s-1.64-1.006-3,1.749" transform="translate(-24.274 -139.797)"/>
                        <path id="Trazado_879308" data-name="Trazado 879308" d="M130.99,315.149c3.067.175,3.182-1.432,3-1.749s-1.641-1.006-3,1.749" transform="translate(-21.56 -141.154)"/>
                        <path id="Trazado_879309" data-name="Trazado 879309" d="M178.99,315.149c3.066.175,3.18-1.432,3-1.749s-1.641-1.006-3,1.749" transform="translate(-26.988 -141.154)"/>
                        <path id="Trazado_879310" data-name="Trazado 879310" d="M130.99,291.149c3.067.175,3.182-1.431,3-1.749s-1.641-1.006-3,1.749" transform="translate(-21.56 -138.44)"/>
                        <path id="Trazado_879311" data-name="Trazado 879311" d="M178.99,291.149c3.066.175,3.18-1.431,3-1.749s-1.641-1.006-3,1.749" transform="translate(-26.988 -138.44)"/>
                        <path id="Trazado_879312" data-name="Trazado 879312" d="M149.53,325.4c-.185.317-.068,1.924,3,1.749-1.358-2.756-2.814-2.066-3-1.749" transform="translate(-23.65 -142.511)"/>
                        <path id="Trazado_879313" data-name="Trazado 879313" d="M151.268,349.458a2.084,2.084,0,0,0-.237-.157,1.564,1.564,0,0,0-.644-.212,1.325,1.325,0,0,0-.186,0,.879.879,0,0,0-.671.312,1.089,1.089,0,0,0,.459,1.221,3.711,3.711,0,0,0,2.54.528c-.1-.194-.192-.367-.287-.528a4.018,4.018,0,0,0-.973-1.163" transform="translate(-23.65 -145.225)"/>
                        <path id="Trazado_879314" data-name="Trazado 879314" d="M125.53,337.4c-.184.317-.068,1.924,3,1.749-1.358-2.756-2.814-2.066-3-1.749" transform="translate(-20.936 -143.868)"/>
                        <path id="Trazado_879315" data-name="Trazado 879315" d="M197.53,325.4c-.185.317-.069,1.924,3,1.749-1.356-2.756-2.813-2.066-3-1.749" transform="translate(-29.078 -142.511)"/>
                        <path id="Trazado_879316" data-name="Trazado 879316" d="M200.24,350.621a4,4,0,0,0-.972-1.163,2.144,2.144,0,0,0-.237-.157,1.55,1.55,0,0,0-.644-.211,1.192,1.192,0,0,0-.185,0,.878.878,0,0,0-.671.312,1.089,1.089,0,0,0,.458,1.221,3.709,3.709,0,0,0,2.539.528c-.1-.194-.192-.366-.287-.528" transform="translate(-29.078 -145.225)"/>
                        <path id="Trazado_879317" data-name="Trazado 879317" d="M173.53,337.4c-.185.317-.069,1.924,3,1.749-1.358-2.756-2.815-2.066-3-1.749" transform="translate(-26.364 -143.868)"/>
                        <path id="Trazado_879318" data-name="Trazado 879318" d="M149.53,301.4c-.185.317-.068,1.924,3,1.749-1.358-2.756-2.814-2.066-3-1.749" transform="translate(-23.65 -139.796)"/>
                        <path id="Trazado_879319" data-name="Trazado 879319" d="M125.53,313.4c-.184.317-.068,1.924,3,1.749-1.358-2.756-2.814-2.066-3-1.749" transform="translate(-20.936 -141.154)"/>
                        <path id="Trazado_879320" data-name="Trazado 879320" d="M197.53,301.4c-.185.317-.069,1.924,3,1.749-1.356-2.756-2.813-2.066-3-1.749" transform="translate(-29.078 -139.796)"/>
                        <path id="Trazado_879321" data-name="Trazado 879321" d="M173.53,313.4c-.185.317-.069,1.924,3,1.749-1.358-2.756-2.815-2.066-3-1.749" transform="translate(-26.364 -141.154)"/>
                        <path id="Trazado_879322" data-name="Trazado 879322" d="M125.53,289.4c-.184.317-.068,1.924,3,1.749-1.358-2.756-2.814-2.066-3-1.749" transform="translate(-20.936 -138.439)"/>
                        <path id="Trazado_879323" data-name="Trazado 879323" d="M173.53,289.4c-.185.317-.069,1.924,3,1.749-1.358-2.756-2.815-2.066-3-1.749" transform="translate(-26.364 -138.439)"/>
                        <path id="Trazado_879324" data-name="Trazado 879324" d="M152.241,278.621a5.169,5.169,0,0,0-.478-.684,3.156,3.156,0,0,0-.495-.479,1.6,1.6,0,0,0-1.066-.371.649.649,0,0,0-.613,1.051,1.3,1.3,0,0,0,.221.32,1.52,1.52,0,0,0,.178.162,3.712,3.712,0,0,0,2.54.528q-.128-.258-.255-.477c-.011-.019-.021-.033-.032-.051" transform="translate(-23.65 -137.082)"/>
                        <path id="Trazado_879325" data-name="Trazado 879325" d="M200.239,278.621a5.166,5.166,0,0,0-.477-.684,3.155,3.155,0,0,0-.495-.479,1.6,1.6,0,0,0-1.066-.371.649.649,0,0,0-.613,1.051,1.3,1.3,0,0,0,.221.32,1.518,1.518,0,0,0,.178.162,3.709,3.709,0,0,0,2.539.528q-.128-.258-.255-.477c-.011-.019-.021-.033-.032-.051" transform="translate(-29.078 -137.082)"/>
                        <path id="Trazado_879326" data-name="Trazado 879326" d="M129.846,358.9c-.365,0-1.7.909,0,3.47,1.7-2.561.366-3.47,0-3.47" transform="translate(-21.335 -146.335)"/>
                        <path id="Trazado_879327" data-name="Trazado 879327" d="M177.846,358.9c-.365,0-1.7.909,0,3.47,1.7-2.561.365-3.47,0-3.47" transform="translate(-26.763 -146.335)"/>
                        <path id="Trazado_879328" data-name="Trazado 879328" d="M130.99,363.149c3.067.175,3.182-1.432,3-1.749s-1.641-1.006-3,1.749" transform="translate(-21.56 -146.582)"/>
                        <path id="Trazado_879329" data-name="Trazado 879329" d="M178.99,363.149c3.066.175,3.18-1.432,3-1.749s-1.641-1.006-3,1.749" transform="translate(-26.988 -146.582)"/>
                        <path id="Trazado_879330" data-name="Trazado 879330" d="M125.53,361.4c-.184.317-.068,1.924,3,1.749-1.358-2.756-2.814-2.066-3-1.749" transform="translate(-20.936 -146.582)"/>
                        <path id="Trazado_879331" data-name="Trazado 879331" d="M173.53,361.4c-.185.317-.069,1.924,3,1.749-1.358-2.756-2.815-2.066-3-1.749" transform="translate(-26.364 -146.582)"/>
                        <path id="Trazado_879332" data-name="Trazado 879332" d="M57.846,202.9c-.365,0-1.7.909,0,3.47,1.7-2.561.366-3.47,0-3.47" transform="translate(-13.193 -128.693)"/>
                        <path id="Trazado_879333" data-name="Trazado 879333" d="M81.846,190.9c-.365,0-1.7.909,0,3.471,1.7-2.561.365-3.471,0-3.471" transform="translate(-15.907 -127.336)"/>
                        <path id="Trazado_879334" data-name="Trazado 879334" d="M82.63,167.829c-.551.13-1.09.268-1.624.411a4.09,4.09,0,0,0,.84,2.239,3.389,3.389,0,0,0,.784-2.65" transform="translate(-15.907 -124.727)"/>
                        <path id="Trazado_879335" data-name="Trazado 879335" d="M58.991,183.149c3.065.175,3.181-1.431,3-1.749s-1.639-1.007-3,1.749" transform="translate(-13.417 -126.226)"/>
                        <path id="Trazado_879336" data-name="Trazado 879336" d="M82.991,195.149c3.065.175,3.18-1.431,3-1.749s-1.64-1.007-3,1.749" transform="translate(-16.131 -127.583)"/>
                        <path id="Trazado_879337" data-name="Trazado 879337" d="M82.991,171.149c3.065.175,3.18-1.431,3-1.749s-1.64-1.007-3,1.749" transform="translate(-16.131 -124.869)"/>
                        <path id="Trazado_879338" data-name="Trazado 879338" d="M53.53,205.4a1.089,1.089,0,0,0,.459,1.221,3.71,3.71,0,0,0,2.54.528c-.1-.194-.192-.366-.287-.528-1.269-2.129-2.54-1.515-2.711-1.221" transform="translate(-12.794 -128.94)"/>
                        <path id="Trazado_879339" data-name="Trazado 879339" d="M101.53,181.4c-.185.317-.069,1.924,3,1.749-1.356-2.756-2.813-2.066-3-1.749" transform="translate(-18.222 -126.226)"/>
                        <path id="Trazado_879340" data-name="Trazado 879340" d="M104.24,206.621c-1.268-2.129-2.539-1.515-2.71-1.221a1.089,1.089,0,0,0,.458,1.221h0a3.711,3.711,0,0,0,2.54.528C104.431,206.955,104.335,206.782,104.24,206.621Z" transform="translate(-18.222 -128.94)"/>
                        <path id="Trazado_879341" data-name="Trazado 879341" d="M77.53,193.4c-.185.317-.069,1.924,3,1.749-1.358-2.756-2.815-2.066-3-1.749" transform="translate(-15.508 -127.583)"/>
                        <path id="Trazado_879342" data-name="Trazado 879342" d="M78.175,169.091c-.154.05-.312.1-.465.146a.55.55,0,0,0-.18.162c-.185.317-.069,1.924,3,1.749-.862-1.75-1.763-2.108-2.354-2.058" transform="translate(-15.508 -124.869)"/>
                        <path id="Trazado_879343" data-name="Trazado 879343" d="M9.846,250.9c-.365,0-1.7.909,0,3.47,1.7-2.561.366-3.47,0-3.47" transform="translate(-7.764 -134.122)"/>
                        <path id="Trazado_879344" data-name="Trazado 879344" d="M33.846,262.9c-.365,0-1.7.909,0,3.471,1.7-2.561.366-3.471,0-3.471" transform="translate(-10.479 -135.479)"/>
                        <path id="Trazado_879345" data-name="Trazado 879345" d="M57.846,226.9c-.365,0-1.7.909,0,3.471,1.7-2.561.366-3.471,0-3.471" transform="translate(-13.193 -131.408)"/>
                        <path id="Trazado_879346" data-name="Trazado 879346" d="M33.846,238.9c-.365,0-1.7.909,0,3.471,1.7-2.561.366-3.471,0-3.471" transform="translate(-10.479 -132.765)"/>
                        <path id="Trazado_879347" data-name="Trazado 879347" d="M81.846,238.9c-.365,0-1.7.909,0,3.471,1.7-2.561.365-3.471,0-3.471" transform="translate(-15.907 -132.765)"/>
                        <path id="Trazado_879348" data-name="Trazado 879348" d="M33.846,214.9c-.365,0-1.7.909,0,3.47,1.7-2.561.366-3.47,0-3.47" transform="translate(-10.479 -130.05)"/>
                        <path id="Trazado_879349" data-name="Trazado 879349" d="M81.846,214.9c-.365,0-1.7.909,0,3.47,1.7-2.561.365-3.47,0-3.47" transform="translate(-15.907 -130.05)"/>
                        <path id="Trazado_879350" data-name="Trazado 879350" d="M10.991,255.149c3.066.175,3.181-1.431,3-1.749s-1.641-1.006-3,1.749" transform="translate(-7.989 -134.368)"/>
                        <path id="Trazado_879351" data-name="Trazado 879351" d="M35.587,266.246q1.179-.435,2.319-.99c-.375-.253-1.325-.42-2.319.99" transform="translate(-10.771 -135.725)"/>
                        <path id="Trazado_879352" data-name="Trazado 879352" d="M14.122,229.406a.744.744,0,0,0-.415-.264c-.553.7-1.073,1.372-1.528,2,2.035-.207,2.1-1.455,1.943-1.731" transform="translate(-8.124 -131.661)"/>
                        <path id="Trazado_879353" data-name="Trazado 879353" d="M58.991,231.149c3.065.175,3.181-1.432,3-1.749s-1.639-1.006-3,1.749" transform="translate(-13.417 -131.654)"/>
                        <path id="Trazado_879354" data-name="Trazado 879354" d="M34.991,243.149c3.066.175,3.181-1.431,3-1.749s-1.64-1.006-3,1.749" transform="translate(-10.703 -133.011)"/>
                        <path id="Trazado_879355" data-name="Trazado 879355" d="M82.991,243.149c3.065.175,3.18-1.431,3-1.749s-1.64-1.006-3,1.749" transform="translate(-16.131 -133.011)"/>
                        <path id="Trazado_879356" data-name="Trazado 879356" d="M34.991,219.149c3.066.175,3.181-1.431,3-1.749s-1.64-1.006-3,1.749" transform="translate(-10.703 -130.297)"/>
                        <path id="Trazado_879357" data-name="Trazado 879357" d="M82.991,219.149c3.065.175,3.18-1.431,3-1.749s-1.64-1.006-3,1.749" transform="translate(-16.131 -130.297)"/>
                        <path id="Trazado_879358" data-name="Trazado 879358" d="M29.53,265.4c-.168.288-.079,1.64,2.246,1.751.224-.048.449-.1.672-.153-1.335-2.569-2.737-1.909-2.918-1.6" transform="translate(-10.08 -135.726)"/>
                        <path id="Trazado_879359" data-name="Trazado 879359" d="M101.53,253.4c-.185.317-.069,1.924,3,1.749-1.356-2.756-2.813-2.066-3-1.749" transform="translate(-18.222 -134.368)"/>
                        <path id="Trazado_879360" data-name="Trazado 879360" d="M53.53,229.4c-.184.317-.068,1.924,3,1.749-1.358-2.756-2.814-2.066-3-1.749" transform="translate(-12.794 -131.654)"/>
                        <path id="Trazado_879361" data-name="Trazado 879361" d="M29.53,241.4c-.184.317-.068,1.924,3,1.749-1.358-2.756-2.814-2.066-3-1.749" transform="translate(-10.079 -133.011)"/>
                        <path id="Trazado_879362" data-name="Trazado 879362" d="M101.53,229.4c-.185.317-.069,1.924,3,1.749-1.356-2.756-2.813-2.066-3-1.749" transform="translate(-18.222 -131.654)"/>
                        <path id="Trazado_879363" data-name="Trazado 879363" d="M29.53,217.4c-.184.317-.068,1.924,3,1.749-1.358-2.756-2.814-2.066-3-1.749" transform="translate(-10.079 -130.297)"/>
                        <path id="Trazado_879364" data-name="Trazado 879364" d="M77.53,217.4c-.185.317-.069,1.924,3,1.749-1.358-2.756-2.815-2.066-3-1.749" transform="translate(-15.508 -130.297)"/>
                        <path id="Trazado_879365" data-name="Trazado 879365" d="M61.53,206.621h0a1.089,1.089,0,0,0,.458-1.221c-.171-.294-1.441-.907-2.71,1.221-.1.161-.192.333-.287.528a3.71,3.71,0,0,0,2.539-.528" transform="translate(-13.417 -128.94)"/>
                        <path id="Trazado_879366" data-name="Trazado 879366" d="M81.846,334.9c-.365,0-1.7.909,0,3.47,1.7-2.561.365-3.47,0-3.47" transform="translate(-15.907 -143.621)"/>
                        <path id="Trazado_879367" data-name="Trazado 879367" d="M82.629,313.3c-.251.408-.5.825-.744,1.247.021.034.038.065.06.1a5.736,5.736,0,0,0,.684-1.345" transform="translate(-16.006 -141.178)"/>
                        <path id="Trazado_879368" data-name="Trazado 879368" d="M82.991,339.149c3.065.175,3.18-1.431,3-1.749s-1.64-1.006-3,1.749" transform="translate(-16.131 -143.868)"/>
                        <path id="Trazado_879369" data-name="Trazado 879369" d="M82.991,315.149c3.065.175,3.18-1.432,3-1.749s-1.64-1.006-3,1.749" transform="translate(-16.131 -141.154)"/>
                        <path id="Trazado_879370" data-name="Trazado 879370" d="M101.53,325.4c-.185.317-.069,1.924,3,1.749-1.356-2.756-2.813-2.066-3-1.749" transform="translate(-18.222 -142.511)"/>
                        <path id="Trazado_879371" data-name="Trazado 879371" d="M104.24,350.621a4,4,0,0,0-.972-1.163,2.144,2.144,0,0,0-.237-.157,1.55,1.55,0,0,0-.644-.211,1.193,1.193,0,0,0-.185,0,.878.878,0,0,0-.671.312,1.089,1.089,0,0,0,.458,1.221h0a3.711,3.711,0,0,0,2.54.528C104.431,350.955,104.335,350.783,104.24,350.621Z" transform="translate(-18.222 -145.225)"/>
                        <path id="Trazado_879372" data-name="Trazado 879372" d="M77.53,337.4c-.185.317-.069,1.924,3,1.749-1.358-2.756-2.815-2.066-3-1.749" transform="translate(-15.508 -143.868)"/>
                        <path id="Trazado_879373" data-name="Trazado 879373" d="M101.53,301.4c-.185.317-.069,1.924,3,1.749-1.356-2.756-2.813-2.066-3-1.749" transform="translate(-18.222 -139.796)"/>
                        <path id="Trazado_879374" data-name="Trazado 879374" d="M104.239,278.621a5.171,5.171,0,0,0-.477-.684,3.155,3.155,0,0,0-.495-.479,1.6,1.6,0,0,0-1.066-.371.649.649,0,0,0-.613,1.051,1.3,1.3,0,0,0,.221.32,1.45,1.45,0,0,0,.178.162h0a3.712,3.712,0,0,0,2.54.528q-.128-.258-.255-.477c-.011-.019-.021-.033-.032-.051" transform="translate(-18.222 -137.082)"/>
                        <path id="Trazado_879375" data-name="Trazado 879375" d="M81.846,358.9c-.365,0-1.7.909,0,3.47,1.7-2.561.365-3.47,0-3.47" transform="translate(-15.907 -146.335)"/>
                        <path id="Trazado_879376" data-name="Trazado 879376" d="M82.991,363.149c3.065.175,3.18-1.432,3-1.749s-1.64-1.006-3,1.749" transform="translate(-16.131 -146.582)"/>
                        <path id="Trazado_879377" data-name="Trazado 879377" d="M77.53,361.4c-.185.317-.069,1.924,3,1.749-1.358-2.756-2.815-2.066-3-1.749" transform="translate(-15.508 -146.582)"/>
                        <path id="Trazado_879378" data-name="Trazado 879378" d="M7.606,253.6c.178.551.378,1.092.6,1.619.174,0,.359,0,.557-.012A4.834,4.834,0,0,0,7.606,253.6" transform="translate(-7.606 -134.427)"/>
                      </g>
                    </g>
                  </g>
                </g>
              </g>
              <g id="Grupo_1101654" data-name="Grupo 1101654">
                <g id="Grupo_1101653" data-name="Grupo 1101653" clip-path="url(#clip-path-3)">
                  <path id="Trazado_879380" data-name="Trazado 879380" d="M214.711,336.049s1.594-21.777-7.967-43.554-11.722-23.359-11.722-29.734,6.411-13.821,7.473-28.162.531-21.246.531-21.246,22.84,36.118,38.774,38.243,25.5-12.748,19.653-32.931-31.339-36.65-41.43-49.929-32.932-13.279-44.617-13.279-17.528-4.249-19.653-12.216-2.124-23.9-2.124-23.9-13.81,8.5-37.181-1.062c0,0,2.125,29.214-.531,33.463s-6.373,8.5-22.308,8.5-29.213,3.187-36.649,10.623-38.244,37.181-46.211,48.866S7.029,244.16,16.59,248.94s19.121.53,26.026-5.843S71.3,216.54,71.3,216.54s0,12.216,5.843,29.744,10.623,15.4,6.374,28.151-12.748,16.466-15.4,32.931a156.783,156.783,0,0,0-2.124,28.683" transform="translate(-0.743 -13.376)" fill="none" stroke="#263238" stroke-linecap="round" stroke-linejoin="round" stroke-width="1"/>
                  <path id="Trazado_879381" data-name="Trazado 879381" d="M79.552,226.916a66.742,66.742,0,0,1,3.5-16.887" transform="translate(-8.996 -23.752)" fill="#fff"/>
                  <path id="Trazado_879382" data-name="Trazado 879382" d="M79.552,226.916a66.742,66.742,0,0,1,3.5-16.887" transform="translate(-8.996 -23.752)" fill="none" stroke="#263238" stroke-linecap="round" stroke-linejoin="round" stroke-width="1"/>
                  <path id="Trazado_879383" data-name="Trazado 879383" d="M227.456,223.85a65.611,65.611,0,0,0-4.849-12.754" transform="translate(-25.174 -23.872)" fill="none" stroke="#263238" stroke-linecap="round" stroke-linejoin="round" stroke-width="1"/>
                  <line id="Línea_718" data-name="Línea 718" y1="10.729" x2="33.447" transform="translate(124.227 248.123)" fill="none" stroke="#263238" stroke-linecap="round" stroke-linejoin="round" stroke-width="1"/>
                  <path id="Trazado_879384" data-name="Trazado 879384" d="M157.145,281.051a108.309,108.309,0,0,1,24.3-6.626" transform="translate(-17.771 -31.034)" fill="none" stroke="#263238" stroke-linecap="round" stroke-linejoin="round" stroke-width="1"/>
                  <path id="Trazado_879385" data-name="Trazado 879385" d="M143.341,195.825c26.5,5.114,36.721-20.288,40.284-40.595-8.828-.969-13.477-5.077-15.321-11.989-2.124-7.967-2.124-23.9-2.124-23.9s-13.81,8.5-37.181-1.062c0,0,2.125,29.214-.531,33.463-1.85,2.96-4.222,5.919-10.877,7.443-.244,9.075,1.593,31.981,25.75,36.643" transform="translate(-13.296 -13.376)" fill="#f0956d"/>
                </g>
              </g>
              <g id="Grupo_1101659" data-name="Grupo 1101659" transform="translate(104.276 104.9)">
                <g id="Grupo_1101658" data-name="Grupo 1101658" clip-path="url(#clip-path-8)">
                  <g id="Grupo_1101657" data-name="Grupo 1101657" transform="translate(11.428 0)" opacity="0.2">
                    <g id="Grupo_1101656" data-name="Grupo 1101656">
                      <g id="Grupo_1101655" data-name="Grupo 1101655" clip-path="url(#clip-path-9)">
                        <path id="Trazado_879386" data-name="Trazado 879386" d="M169.184,140.615c-1.546-8.39-1.547-21.276-1.547-21.276s-13.81,8.5-37.18-1.062c0,0,.887,12.213.8,22,20.13,6.979,31.746,4.017,37.931.343" transform="translate(-130.457 -118.276)"/>
                      </g>
                    </g>
                  </g>
                </g>
              </g>
              <g id="Grupo_1101661" data-name="Grupo 1101661">
                <g id="Grupo_1101660" data-name="Grupo 1101660" clip-path="url(#clip-path-3)">
                  <path id="Trazado_879388" data-name="Trazado 879388" d="M143.341,195.825c26.5,5.114,36.721-20.288,40.284-40.595-8.828-.969-13.477-5.077-15.321-11.989-2.124-7.967-2.124-23.9-2.124-23.9s-13.81,8.5-37.181-1.062c0,0,2.125,29.214-.531,33.463-1.85,2.96-4.222,5.919-10.877,7.443C117.348,168.257,119.185,191.163,143.341,195.825Z" transform="translate(-13.296 -13.376)" fill="none" stroke="#263238" stroke-linecap="round" stroke-linejoin="round" stroke-width="1"/>
                  <path id="Trazado_879389" data-name="Trazado 879389" d="M197.543,99.728a6.581,6.581,0,1,1-6.581-6.581,6.581,6.581,0,0,1,6.581,6.581" transform="translate(-20.851 -10.534)" fill="#f0c518"/>
                  <circle id="Elipse_11623" data-name="Elipse 11623" cx="6.581" cy="6.581" r="6.581" transform="matrix(0.526, -0.851, 0.851, 0.526, 161.053, 91.333)" fill="none" stroke="#263238" stroke-linecap="round" stroke-linejoin="round" stroke-width="1"/>
                  <path id="Trazado_879390" data-name="Trazado 879390" d="M118.282,99.728a6.581,6.581,0,1,1-6.581-6.581,6.581,6.581,0,0,1,6.581,6.581" transform="translate(-11.888 -10.534)" fill="#f0c518"/>
                  <circle id="Elipse_11624" data-name="Elipse 11624" cx="6.581" cy="6.581" r="6.581" transform="matrix(0.447, -0.894, 0.894, 0.447, 90.984, 92.137)" fill="none" stroke="#263238" stroke-linecap="round" stroke-linejoin="round" stroke-width="1"/>
                  <path id="Trazado_879391" data-name="Trazado 879391" d="M190.894,74.334s3.29-10.171,7.18-6.581-1.2,17.35-3.889,20.64-5.384,3.29-5.086-1.2,1.8-12.863,1.8-12.863" transform="translate(-21.382 -7.575)" fill="#f0956d"/>
                  <path id="Trazado_879392" data-name="Trazado 879392" d="M190.894,74.334s3.29-10.171,7.18-6.581-1.2,17.35-3.889,20.64-5.384,3.29-5.086-1.2S190.894,74.334,190.894,74.334Z" transform="translate(-21.382 -7.575)" fill="none" stroke="#263238" stroke-linecap="round" stroke-linejoin="round" stroke-width="1"/>
                  <path id="Trazado_879393" data-name="Trazado 879393" d="M114.419,80.869s.9,23.761,18.381,35.418,30.486,4.931,37.659-4.932,11.657-19.726,11.657-34.073,1.793-20.623-3.138-29.589-21.968-13.45-21.968-13.45a268.571,268.571,0,0,1-22.865,25.106c-13.45,13-19.727,21.52-19.727,21.52" transform="translate(-12.939 -3.872)" fill="#f0956d"/>
                </g>
              </g>
              <g id="Grupo_1101666" data-name="Grupo 1101666" transform="translate(101.48 30.371)">
                <g id="Grupo_1101665" data-name="Grupo 1101665" clip-path="url(#clip-path-11)">
                  <g id="Grupo_1101664" data-name="Grupo 1101664" transform="translate(-0.001 0)" opacity="0.2">
                    <g id="Grupo_1101663" data-name="Grupo 1101663">
                      <g id="Grupo_1101662" data-name="Grupo 1101662" clip-path="url(#clip-path-12)">
                        <path id="Trazado_879394" data-name="Trazado 879394" d="M157.01,34.243a268.413,268.413,0,0,1-22.865,25.106c-13.45,13-19.727,21.52-19.727,21.52a54.715,54.715,0,0,0,2.724,13.6c23.63-18.081,36.538-50.563,39.97-60.2l-.1-.027" transform="translate(-114.419 -34.243)"/>
                      </g>
                    </g>
                  </g>
                </g>
              </g>
              <g id="Grupo_1101668" data-name="Grupo 1101668">
                <g id="Grupo_1101667" data-name="Grupo 1101667" clip-path="url(#clip-path-3)">
                  <path id="Trazado_879396" data-name="Trazado 879396" d="M114.419,80.869s.9,23.761,18.381,35.418,30.486,4.931,37.659-4.932,11.657-19.726,11.657-34.073,1.793-20.623-3.138-29.589-21.968-13.45-21.968-13.45a268.571,268.571,0,0,1-22.865,25.106C120.7,72.351,114.419,80.869,114.419,80.869Z" transform="translate(-12.939 -3.872)" fill="none" stroke="#263238" stroke-linecap="round" stroke-linejoin="round" stroke-width="1"/>
                  <line id="Línea_719" data-name="Línea 719" x2="10.067" y2="0.944" transform="translate(118.021 74.201)" fill="none" stroke="#263238" stroke-linecap="round" stroke-linejoin="round" stroke-width="1"/>
                  <path id="Trazado_879397" data-name="Trazado 879397" d="M167.477,83.237s6.607-1.259,9.753,0" transform="translate(-18.94 -9.35)" fill="none" stroke="#263238" stroke-linecap="round" stroke-linejoin="round" stroke-width="1"/>
                  <path id="Trazado_879398" data-name="Trazado 879398" d="M142.285,77.922c0,2.4-1.071,4.338-2.393,4.338s-2.393-1.942-2.393-4.338,1.071-4.338,2.393-4.338,2.393,1.942,2.393,4.338" transform="translate(-15.549 -8.321)" fill="#263238"/>
                  <path id="Trazado_879399" data-name="Trazado 879399" d="M148.966,95.394a8.739,8.739,0,0,0,10.47-.9" transform="translate(-16.846 -10.686)" fill="none" stroke="#263238" stroke-linecap="round" stroke-linejoin="round" stroke-width="1"/>
                  <path id="Trazado_879400" data-name="Trazado 879400" d="M152,105.87s9.274,3.889,14.658-8.675" transform="translate(-17.19 -10.992)" fill="none" stroke="#263238" stroke-linecap="round" stroke-linejoin="round" stroke-width="1"/>
                  <path id="Trazado_879401" data-name="Trazado 879401" d="M165.493,78.354s5.683-3.889,11.368-1.5" transform="translate(-18.715 -8.604)" fill="none" stroke="#263238" stroke-linecap="round" stroke-linejoin="round" stroke-width="2"/>
                  <path id="Trazado_879402" data-name="Trazado 879402" d="M163.469,67.108s6.282-6.282,14.957-1.2" transform="translate(-18.486 -7.229)" fill="none" stroke="#263238" stroke-linecap="round" stroke-linejoin="round" stroke-width="2"/>
                  <path id="Trazado_879403" data-name="Trazado 879403" d="M146.652,62.812s-5.385-5.384-12.864-.3" transform="translate(-15.13 -6.822)" fill="none" stroke="#263238" stroke-linecap="round" stroke-linejoin="round" stroke-width="2"/>
                  <path id="Trazado_879404" data-name="Trazado 879404" d="M10.061,232.662S.5,243.285.5,254.439s6.374,21.246,23.9,37.181S58.4,319.24,65.3,322.958s13.81-1.062,13.81-1.062,11.42,11.42,12.748,8.764-3.983-6.639-5.046-8.232a22.349,22.349,0,0,0-3.187-3.453s5.577.8,7.7,2.655,5.577,5.047,7.171,4.78,1.593-1.593-.8-4.78a28.3,28.3,0,0,0-6.9-6.373c-1.594-1.063-6.905-3.984-6.905-3.984s7.7-.531,10.358,1.062,9.826,6.373,10.357,4.249.53-3.453-2.125-5.843-7.967-5.312-11.154-5.842a33.474,33.474,0,0,1-6.374-1.859s6.108-2.125,8.233-2.125,10.623,4.249,13.013,3.718,1.063-2.655-.8-3.983-10.092-4.515-13.545-4.78-22.839,6.373-25.229,6.373-8.5-8.5-14.873-19.918S42.992,253.112,29.448,247" transform="translate(-0.057 -26.311)" fill="#f0c518"/>
                </g>
              </g>
              <g id="Grupo_1101673" data-name="Grupo 1101673" transform="translate(0.443 206.351)">
                <g id="Grupo_1101672" data-name="Grupo 1101672" clip-path="url(#clip-path-14)">
                  <g id="Grupo_1101671" data-name="Grupo 1101671" transform="translate(4.412 16.179)" opacity="0.2">
                    <g id="Grupo_1101670" data-name="Grupo 1101670">
                      <g id="Grupo_1101669" data-name="Grupo 1101669" clip-path="url(#clip-path-15)">
                        <path id="Trazado_879405" data-name="Trazado 879405" d="M9.953,254.375c1.7-2.561.366-3.47,0-3.47.365,0,1.7.909,0,3.47" transform="translate(-5.981 -250.904)"/>
                        <path id="Trazado_879406" data-name="Trazado 879406" d="M9.953,274.9c.365,0,1.7.909,0,3.47,1.7-2.561.366-3.47,0-3.47" transform="translate(-5.981 -253.618)"/>
                        <path id="Trazado_879407" data-name="Trazado 879407" d="M33.846,262.9c-.365,0-1.7.909,0,3.471,1.7-2.561.366-3.471,0-3.471" transform="translate(-8.588 -252.261)"/>
                        <path id="Trazado_879408" data-name="Trazado 879408" d="M13.988,253.4c-.184-.317-1.641-1.007-3,1.749,3.067.175,3.182-1.432,3-1.749" transform="translate(-6.099 -251.151)"/>
                        <path id="Trazado_879409" data-name="Trazado 879409" d="M13.745,278.459a1.3,1.3,0,0,0,.221-.32.881.881,0,0,0,.059-.739.881.881,0,0,0-.671-.312,1.6,1.6,0,0,0-1.067.371,3.115,3.115,0,0,0-.494.479,5.171,5.171,0,0,0-.478.684h2.253a1.518,1.518,0,0,0,.178-.162" transform="translate(-6.135 -253.865)"/>
                        <path id="Trazado_879410" data-name="Trazado 879410" d="M37.988,265.4c-.184-.317-1.641-1.007-3,1.749,3.067.175,3.182-1.432,3-1.749" transform="translate(-8.813 -252.508)"/>
                        <path id="Trazado_879411" data-name="Trazado 879411" d="M32.529,267.149c-1.358-2.755-2.814-2.065-3-1.749s-.068,1.924,3,1.749" transform="translate(-8.189 -252.508)"/>
                        <path id="Trazado_879412" data-name="Trazado 879412" d="M9.953,250.9v3.47c1.7-2.561.365-3.47,0-3.47" transform="translate(-5.981 -250.904)"/>
                        <path id="Trazado_879413" data-name="Trazado 879413" d="M9.953,274.9v3.47c1.7-2.561.365-3.47,0-3.47" transform="translate(-5.981 -253.618)"/>
                        <path id="Trazado_879414" data-name="Trazado 879414" d="M57.863,322.9a.957.957,0,0,0-.7.6q.761.562,1.5,1.1c.224-1.218-.533-1.692-.8-1.692" transform="translate(-11.32 -259.046)"/>
                        <path id="Trazado_879415" data-name="Trazado 879415" d="M81.848,334.9a1.084,1.084,0,0,0-.82.985,14.193,14.193,0,0,0,1.594-.21,1.022,1.022,0,0,0-.773-.775" transform="translate(-14.019 -260.403)"/>
                        <path id="Trazado_879416" data-name="Trazado 879416" d="M57.846,298.9c-.365,0-1.7.909,0,3.47,1.7-2.561.366-3.47,0-3.47" transform="translate(-11.302 -256.332)"/>
                        <path id="Trazado_879417" data-name="Trazado 879417" d="M81.846,314.374c1.7-2.561.365-3.47,0-3.47s-1.7.909,0,3.47" transform="translate(-14.016 -257.689)"/>
                        <path id="Trazado_879418" data-name="Trazado 879418" d="M33.846,290.374c1.7-2.561.366-3.47,0-3.47s-1.7.909,0,3.47" transform="translate(-8.588 -254.975)"/>
                        <path id="Trazado_879419" data-name="Trazado 879419" d="M62.117,325.4c-.137-.237-.989-.683-1.979.266q.729.521,1.431,1.017a1.121,1.121,0,0,0,.547-1.283" transform="translate(-11.657 -259.293)"/>
                        <path id="Trazado_879420" data-name="Trazado 879420" d="M58.991,303.149c3.065.175,3.181-1.431,3-1.749s-1.639-1.006-3,1.749" transform="translate(-11.527 -256.579)"/>
                        <path id="Trazado_879421" data-name="Trazado 879421" d="M82.991,315.149c3.065.175,3.18-1.432,3-1.749s-1.64-1.006-3,1.749" transform="translate(-14.241 -257.936)"/>
                        <path id="Trazado_879422" data-name="Trazado 879422" d="M34.991,291.149c3.066.175,3.181-1.431,3-1.749s-1.64-1.006-3,1.749" transform="translate(-8.813 -255.222)"/>
                        <path id="Trazado_879423" data-name="Trazado 879423" d="M104.217,327.186c-.768-.6-1.463-1.089-2-1.447-.166-.111-.379-.245-.615-.39a.393.393,0,0,0-.07.082c-.179.306-.069,1.8,2.686,1.756" transform="translate(-16.331 -259.323)"/>
                        <path id="Trazado_879424" data-name="Trazado 879424" d="M56.529,303.149c-1.358-2.755-2.814-2.065-3-1.749s-.068,1.924,3,1.749" transform="translate(-10.903 -256.579)"/>
                        <path id="Trazado_879425" data-name="Trazado 879425" d="M77.53,313.4c-.185.317-.069,1.924,3,1.749-1.358-2.756-2.815-2.066-3-1.749" transform="translate(-13.617 -257.936)"/>
                        <path id="Trazado_879426" data-name="Trazado 879426" d="M29.53,289.4c-.184.317-.068,1.924,3,1.749-1.358-2.756-2.814-2.066-3-1.749" transform="translate(-8.189 -255.222)"/>
                        <path id="Trazado_879427" data-name="Trazado 879427" d="M13.53,278.817H11.277c-.011.018-.021.032-.032.051q-.128.219-.255.477a3.712,3.712,0,0,0,2.54-.528" transform="translate(-6.099 -254.061)"/>
                        <path id="Trazado_879428" data-name="Trazado 879428" d="M9.846,250.9c-.365,0-1.7.909,0,3.47Z" transform="translate(-5.874 -250.904)"/>
                        <path id="Trazado_879429" data-name="Trazado 879429" d="M9.846,278.374V274.9c-.365,0-1.7.909,0,3.47" transform="translate(-5.874 -253.618)"/>
                        <path id="Trazado_879430" data-name="Trazado 879430" d="M8.527,255.149c-1.356-2.755-2.813-2.065-3-1.749s-.069,1.924,3,1.749" transform="translate(-5.475 -251.151)"/>
                        <path id="Trazado_879431" data-name="Trazado 879431" d="M7.983,277.98a3.12,3.12,0,0,0-.495-.478c-.021-.017-.043-.028-.064-.043q.406.6.843,1.205H8.46a5.168,5.168,0,0,0-.477-.684" transform="translate(-5.695 -253.907)"/>
                        <path id="Trazado_879432" data-name="Trazado 879432" d="M8.6,278.868c-.011-.019-.021-.033-.032-.051H8.376c.126.176.258.353.388.53.032,0,.059,0,.091,0q-.128-.258-.255-.477" transform="translate(-5.803 -254.061)"/>
                      </g>
                    </g>
                  </g>
                </g>
              </g>
              <g id="Grupo_1101675" data-name="Grupo 1101675">
                <g id="Grupo_1101674" data-name="Grupo 1101674" clip-path="url(#clip-path-3)">
                  <path id="Trazado_879434" data-name="Trazado 879434" d="M10.061,232.662S.5,243.285.5,254.439s6.374,21.246,23.9,37.181S58.4,319.24,65.3,322.958s13.81-1.062,13.81-1.062,11.42,11.42,12.748,8.764-3.983-6.639-5.046-8.232a22.349,22.349,0,0,0-3.187-3.453s5.577.8,7.7,2.655,5.577,5.047,7.171,4.78,1.593-1.593-.8-4.78a28.3,28.3,0,0,0-6.9-6.373c-1.594-1.063-6.905-3.984-6.905-3.984s7.7-.531,10.358,1.062,9.826,6.373,10.357,4.249.53-3.453-2.125-5.843-7.967-5.312-11.154-5.842a33.474,33.474,0,0,1-6.374-1.859s6.108-2.125,8.233-2.125,10.623,4.249,13.013,3.718,1.063-2.655-.8-3.983-10.092-4.515-13.545-4.78-22.839,6.373-25.229,6.373-8.5-8.5-14.873-19.918S42.992,253.112,29.448,247" transform="translate(-0.057 -26.311)" fill="none" stroke="#263238" stroke-linecap="round" stroke-linejoin="round" stroke-width="1"/>
                  <path id="Trazado_879435" data-name="Trazado 879435" d="M106.675,304.15c-1.859-1.328-10.092-4.514-13.544-4.78s-22.84,6.374-25.23,6.374-8.5-8.5-14.873-19.918c-3.541-6.343-5.854-14.652-9.53-21.833-19.516-2.624-27.881,8.751-31.749,16.955A144.942,144.942,0,0,0,25.675,295.12c17.528,15.935,33.994,27.62,40.9,31.338S80.383,325.4,80.383,325.4s11.42,11.42,12.748,8.764-3.984-6.639-5.047-8.233a22.345,22.345,0,0,0-3.187-3.453s5.577.8,7.7,2.656,5.577,5.046,7.171,4.78,1.593-1.594-.8-4.78a28.287,28.287,0,0,0-6.9-6.374c-1.594-1.063-6.906-3.983-6.906-3.983s7.7-.531,10.358,1.062,9.826,6.374,10.357,4.249.531-3.452-2.125-5.842S95.787,308.93,92.6,308.4a33.476,33.476,0,0,1-6.374-1.859s6.108-2.125,8.233-2.125,10.623,4.249,13.013,3.719,1.063-2.656-.8-3.984" transform="translate(-1.329 -29.811)" fill="#f0956d"/>
                  <path id="Trazado_879436" data-name="Trazado 879436" d="M106.675,304.15c-1.859-1.328-10.092-4.514-13.544-4.78s-22.84,6.374-25.23,6.374-8.5-8.5-14.873-19.918c-3.541-6.343-5.854-14.652-9.53-21.833-19.516-2.624-27.881,8.751-31.749,16.955A144.942,144.942,0,0,0,25.675,295.12c17.528,15.935,33.994,27.62,40.9,31.338S80.383,325.4,80.383,325.4s11.42,11.42,12.748,8.764-3.984-6.639-5.047-8.233a22.345,22.345,0,0,0-3.187-3.453s5.577.8,7.7,2.656,5.577,5.046,7.171,4.78,1.593-1.594-.8-4.78a28.287,28.287,0,0,0-6.9-6.374c-1.594-1.063-6.906-3.983-6.906-3.983s7.7-.531,10.358,1.062,9.826,6.374,10.357,4.249.531-3.452-2.125-5.842S95.787,308.93,92.6,308.4a33.476,33.476,0,0,1-6.374-1.859s6.108-2.125,8.233-2.125,10.623,4.249,13.013,3.719S108.534,305.477,106.675,304.15Z" transform="translate(-1.329 -29.811)" fill="none" stroke="#263238" stroke-linecap="round" stroke-linejoin="round" stroke-width="1"/>
                  <path id="Trazado_879437" data-name="Trazado 879437" d="M247.67,224.014c-2.216-5.067-.317-16.15,1.9-31.983S254,160.048,254,151.5s1.416-20.424-1.37-24.224-12.92-14.186-13.68-19,6.08-12.159,6.08-12.159,2.027-3.8,3.8-1.774,1.014,4.56,0,8.105-2.027,6.333-2.027,6.333,8.866,2.787,11.147,1.267,2.079-10.189,1.912-14.432c-.324-8.284-3.643-4.749-5.943-.826-1.1,1.88-7.6.76-3.8-4.053s7.324-9.061,10.871-5.262,6.08,11.147,6.08,11.147,2.532-12.066,4.844-19.165,6.438-9.905,7.924-9.41,1.321,2.972-.165,6.439-4.788,13.041-5.612,16.177-.991,6.769.66,6.439,7.429-10.4,9.079-14.693,4.128-8.254,6.934-10.07,5.117.5,3.962,3.468a151.39,151.39,0,0,1-7.759,15.681,67.854,67.854,0,0,0-4.623,10.237,115.664,115.664,0,0,1,8.584-8.255c3.962-3.3,8.254-3.962,9.575-2.806s.165,1.322-3.137,3.963-8.254,5.777-12.216,12.215a60.17,60.17,0,0,0-7.1,15.187,51.8,51.8,0,0,1-4.788,10.07s3.091,25.14,8.456,38.967,14.858,34.049,11.969,48.493-8.46,21.874-16.3,24.144a15.166,15.166,0,0,1-13.413-2.476" transform="translate(-27.016 -7.689)" fill="#f0c518"/>
                </g>
              </g>
              <g id="Grupo_1101680" data-name="Grupo 1101680" transform="translate(211.878 60.302)">
                <g id="Grupo_1101679" data-name="Grupo 1101679" clip-path="url(#clip-path-17)">
                  <g id="Grupo_1101678" data-name="Grupo 1101678" transform="translate(5.837 4.906)" opacity="0.2">
                    <g id="Grupo_1101677" data-name="Grupo 1101677">
                      <g id="Grupo_1101676" data-name="Grupo 1101676" clip-path="url(#clip-path-18)">
                        <path id="Trazado_879438" data-name="Trazado 879438" d="M297.953,82.9a.967.967,0,0,1,.71.611h0a.966.966,0,0,0-.71-.61" transform="translate(-251.411 -74.584)"/>
                        <path id="Trazado_879439" data-name="Trazado 879439" d="M297.953,82.9v2.075q.363-.741.71-1.463a.967.967,0,0,0-.71-.611" transform="translate(-251.411 -74.584)"/>
                        <path id="Trazado_879440" data-name="Trazado 879440" d="M297.953,230.375c1.7-2.561.366-3.471,0-3.471.365,0,1.7.909,0,3.471" transform="translate(-251.411 -90.869)"/>
                        <path id="Trazado_879441" data-name="Trazado 879441" d="M300.973,230.93c-.017-.592-.043-1.186-.087-1.788-.55.148-1.234.67-1.9,2.013a4.829,4.829,0,0,0,1.983-.225" transform="translate(-251.528 -91.122)"/>
                        <path id="Trazado_879442" data-name="Trazado 879442" d="M297.953,226.9v3.471c1.7-2.561.365-3.471,0-3.471" transform="translate(-251.411 -90.869)"/>
                        <path id="Trazado_879443" data-name="Trazado 879443" d="M249.846,106.9c-.307,0-1.286.645-.593,2.364.225-.721.463-1.51.7-2.343a.392.392,0,0,0-.108-.021" transform="translate(-245.876 -77.298)"/>
                        <path id="Trazado_879444" data-name="Trazado 879444" d="M273.846,122.374c1.7-2.561.365-3.47,0-3.47s-1.7.909,0,3.47" transform="translate(-248.589 -78.655)"/>
                        <path id="Trazado_879445" data-name="Trazado 879445" d="M297.472,85.737c.125-.253.251-.506.374-.758V82.9c-.333,0-1.46.759-.374,2.833" transform="translate(-251.304 -74.584)"/>
                        <path id="Trazado_879446" data-name="Trazado 879446" d="M273.846,94.9c-.365,0-1.7.909,0,3.471,1.7-2.561.365-3.471,0-3.471" transform="translate(-248.589 -75.941)"/>
                        <path id="Trazado_879447" data-name="Trazado 879447" d="M254.164,134.139a.649.649,0,0,0-.613-1.051,1.375,1.375,0,0,0-.484.066c.365.443.688.847.959,1.2a1.32,1.32,0,0,0,.138-.217" transform="translate(-246.334 -80.259)"/>
                        <path id="Trazado_879448" data-name="Trazado 879448" d="M277.987,121.4c-.184-.316-1.641-1.007-3,1.749,3.066.175,3.18-1.432,3-1.749" transform="translate(-248.814 -78.902)"/>
                        <path id="Trazado_879449" data-name="Trazado 879449" d="M277.557,98.6a9.881,9.881,0,0,1,.024-1.461c-.564-.173-1.6,0-2.591,2.011a3.644,3.644,0,0,0,2.567-.55" transform="translate(-248.814 -76.188)"/>
                        <path id="Trazado_879450" data-name="Trazado 879450" d="M278.315,73.523c-.235.4-.464.833-.687,1.284a1.214,1.214,0,0,0,.687-1.284" transform="translate(-249.112 -73.523)"/>
                        <path id="Trazado_879451" data-name="Trazado 879451" d="M245.53,109.4c-.18.31-.066,1.846,2.8,1.753.025-.075.051-.156.076-.234-1.321-2.474-2.7-1.826-2.875-1.519" transform="translate(-245.476 -77.545)"/>
                        <path id="Trazado_879452" data-name="Trazado 879452" d="M269.53,121.4c-.185.317-.069,1.924,3,1.749-1.358-2.756-2.815-2.065-3-1.749" transform="translate(-248.19 -78.902)"/>
                        <path id="Trazado_879453" data-name="Trazado 879453" d="M293.53,85.4c-.184.316-.068,1.909,2.96,1.75l.019-.036c-1.352-2.711-2.8-2.028-2.978-1.714" transform="translate(-250.904 -74.831)"/>
                        <path id="Trazado_879454" data-name="Trazado 879454" d="M272.688,99.181a4.229,4.229,0,0,0-1.439-1.808c-.147.665-.27,1.223-.362,1.65a5.234,5.234,0,0,0,1.8.159" transform="translate(-248.35 -76.22)"/>
                        <path id="Trazado_879455" data-name="Trazado 879455" d="M270.069,98.715c-.145-.369-.321-.805-.527-1.292l-.013.015a1.118,1.118,0,0,0,.539,1.277" transform="translate(-248.19 -76.226)"/>
                        <path id="Trazado_879456" data-name="Trazado 879456" d="M273.846,194.375c1.7-2.561.365-3.471,0-3.471s-1.7.909,0,3.471" transform="translate(-248.589 -86.797)"/>
                        <path id="Trazado_879457" data-name="Trazado 879457" d="M273.846,166.9c-.365,0-1.7.909,0,3.47,1.7-2.561.365-3.47,0-3.47" transform="translate(-248.589 -84.083)"/>
                        <path id="Trazado_879458" data-name="Trazado 879458" d="M273.846,142.9c-.365,0-1.7.909,0,3.47,1.7-2.561.365-3.47,0-3.47" transform="translate(-248.589 -81.369)"/>
                        <path id="Trazado_879459" data-name="Trazado 879459" d="M254.4,181.552c-.023.19-.045.38-.067.571a.976.976,0,0,0,.067-.571" transform="translate(-246.478 -85.74)"/>
                        <path id="Trazado_879460" data-name="Trazado 879460" d="M254.024,205.4c-.17-.294-1.441-.907-2.71,1.221h2.252a1.089,1.089,0,0,0,.458-1.221" transform="translate(-246.136 -88.401)"/>
                        <path id="Trazado_879461" data-name="Trazado 879461" d="M274.991,195.149c3.065.175,3.18-1.431,3-1.749s-1.641-1.007-3,1.749" transform="translate(-248.814 -87.044)"/>
                        <path id="Trazado_879462" data-name="Trazado 879462" d="M277.987,169.4c-.184-.317-1.641-1.007-3,1.749,3.066.175,3.18-1.432,3-1.749" transform="translate(-248.814 -84.33)"/>
                        <path id="Trazado_879463" data-name="Trazado 879463" d="M274.991,147.149c2.254.129,2.91-.705,3.028-1.282-.027-.182-.052-.352-.077-.525-.308-.326-1.674-.789-2.951,1.807" transform="translate(-248.814 -81.616)"/>
                        <path id="Trazado_879464" data-name="Trazado 879464" d="M295.218,205.426c-.86-.617-1.564-.239-1.688-.026a1.089,1.089,0,0,0,.458,1.221h1.648q-.206-.6-.418-1.2" transform="translate(-250.904 -88.401)"/>
                        <path id="Trazado_879465" data-name="Trazado 879465" d="M269.53,193.4c-.185.317-.069,1.924,3,1.749-1.358-2.756-2.815-2.066-3-1.749" transform="translate(-248.19 -87.044)"/>
                        <path id="Trazado_879466" data-name="Trazado 879466" d="M269.53,169.4c-.185.317-.069,1.924,3,1.749-1.358-2.756-2.815-2.066-3-1.749" transform="translate(-248.19 -84.33)"/>
                        <path id="Trazado_879467" data-name="Trazado 879467" d="M269.53,145.4c-.185.317-.069,1.924,3,1.749-1.358-2.756-2.815-2.066-3-1.749" transform="translate(-248.19 -81.616)"/>
                        <path id="Trazado_879468" data-name="Trazado 879468" d="M273.846,262.9c-.345,0-1.549.815-.247,3.068.143.033.294.057.442.087,1.382-2.318.156-3.155-.194-3.155" transform="translate(-248.589 -94.94)"/>
                        <path id="Trazado_879469" data-name="Trazado 879469" d="M249.846,230.375c1.7-2.561.366-3.471,0-3.471s-1.7.909,0,3.471" transform="translate(-245.875 -90.869)"/>
                        <path id="Trazado_879470" data-name="Trazado 879470" d="M297.846,226.9c-.365,0-1.7.909,0,3.471Z" transform="translate(-251.303 -90.869)"/>
                        <path id="Trazado_879471" data-name="Trazado 879471" d="M273.846,242.375c1.7-2.561.365-3.471,0-3.471s-1.7.909,0,3.471" transform="translate(-248.589 -92.226)"/>
                        <path id="Trazado_879472" data-name="Trazado 879472" d="M273.846,214.9c-.365,0-1.7.909,0,3.47,1.7-2.561.365-3.47,0-3.47" transform="translate(-248.589 -89.511)"/>
                        <path id="Trazado_879473" data-name="Trazado 879473" d="M278.035,265.4c-.167-.287-1.384-.874-2.621,1.082a14.834,14.834,0,0,0,2.2.108,1.078,1.078,0,0,0,.421-1.19" transform="translate(-248.862 -95.187)"/>
                        <path id="Trazado_879474" data-name="Trazado 879474" d="M250.99,231.149c3.066.175,3.182-1.432,3-1.749s-1.64-1.006-3,1.749" transform="translate(-246.1 -91.115)"/>
                        <path id="Trazado_879475" data-name="Trazado 879475" d="M274.991,243.149c3.065.175,3.18-1.431,3-1.749s-1.641-1.006-3,1.749" transform="translate(-248.814 -92.472)"/>
                        <path id="Trazado_879476" data-name="Trazado 879476" d="M277.987,217.4c-.184-.317-1.641-1.007-3,1.749,3.066.175,3.18-1.432,3-1.749" transform="translate(-248.814 -89.758)"/>
                        <path id="Trazado_879477" data-name="Trazado 879477" d="M293.53,253.4c-.143.244-.1,1.246,1.314,1.619.241-.424.48-.853.71-1.306-1.008-1-1.884-.553-2.023-.312" transform="translate(-250.904 -93.83)"/>
                        <path id="Trazado_879478" data-name="Trazado 879478" d="M270.1,265.112a15.681,15.681,0,0,0,1.555.634,1.7,1.7,0,0,0-1.555-.634" transform="translate(-248.261 -95.187)"/>
                        <path id="Trazado_879479" data-name="Trazado 879479" d="M248.8,231.254a5.854,5.854,0,0,0-.791-1.239c-.039.421-.071.828-.1,1.234a7.061,7.061,0,0,0,.894.005" transform="translate(-245.751 -91.22)"/>
                        <path id="Trazado_879480" data-name="Trazado 879480" d="M296.527,231.149c-1.356-2.755-2.813-2.065-3-1.749s-.069,1.924,3,1.749" transform="translate(-250.904 -91.115)"/>
                        <path id="Trazado_879481" data-name="Trazado 879481" d="M269.53,241.4c-.185.317-.069,1.924,3,1.749-1.358-2.756-2.815-2.066-3-1.749" transform="translate(-248.19 -92.472)"/>
                        <path id="Trazado_879482" data-name="Trazado 879482" d="M269.53,217.4c-.185.317-.069,1.924,3,1.749-1.358-2.756-2.815-2.066-3-1.749" transform="translate(-248.19 -89.758)"/>
                        <path id="Trazado_879483" data-name="Trazado 879483" d="M251.278,206.817c-.095.16-.191.332-.286.523v0a3.71,3.71,0,0,0,2.537-.528Z" transform="translate(-246.1 -88.597)"/>
                        <path id="Trazado_879484" data-name="Trazado 879484" d="M295.7,206.817h-1.649a3.12,3.12,0,0,0,1.833.531c-.061-.177-.123-.354-.184-.531" transform="translate(-250.97 -88.597)"/>
                      </g>
                    </g>
                  </g>
                </g>
              </g>
              <g id="Grupo_1101682" data-name="Grupo 1101682">
                <g id="Grupo_1101681" data-name="Grupo 1101681" clip-path="url(#clip-path-3)">
                  <path id="Trazado_879486" data-name="Trazado 879486" d="M247.67,224.014c-2.216-5.067-.317-16.15,1.9-31.983S254,160.048,254,151.5s1.416-20.424-1.37-24.224-12.92-14.186-13.68-19,6.08-12.159,6.08-12.159,2.027-3.8,3.8-1.774,1.014,4.56,0,8.105-2.027,6.333-2.027,6.333,8.866,2.787,11.147,1.267,2.079-10.189,1.912-14.432c-.324-8.284-3.643-4.749-5.943-.826-1.1,1.88-7.6.76-3.8-4.053s7.324-9.061,10.871-5.262,6.08,11.147,6.08,11.147,2.532-12.066,4.844-19.165,6.438-9.905,7.924-9.41,1.321,2.972-.165,6.439-4.788,13.041-5.612,16.177-.991,6.769.66,6.439,7.429-10.4,9.079-14.693,4.128-8.254,6.934-10.07,5.117.5,3.962,3.468a151.39,151.39,0,0,1-7.759,15.681,67.854,67.854,0,0,0-4.623,10.237,115.664,115.664,0,0,1,8.584-8.255c3.962-3.3,8.254-3.962,9.575-2.806s.165,1.322-3.137,3.963-8.254,5.777-12.216,12.215a60.17,60.17,0,0,0-7.1,15.187,51.8,51.8,0,0,1-4.788,10.07s3.091,25.14,8.456,38.967,14.858,34.049,11.969,48.493-8.46,21.874-16.3,24.144a15.166,15.166,0,0,1-13.413-2.476" transform="translate(-27.016 -7.689)" fill="none" stroke="#263238" stroke-linecap="round" stroke-linejoin="round" stroke-width="1"/>
                  <path id="Trazado_879487" data-name="Trazado 879487" d="M285.123,106.84c3.962-6.438,8.914-9.575,12.216-12.216s4.457-2.806,3.136-3.962-5.612-.495-9.574,2.806a115.744,115.744,0,0,0-8.584,8.255,67.677,67.677,0,0,1,4.623-10.235A151.6,151.6,0,0,0,294.7,75.8c1.156-2.971-1.156-5.282-3.963-3.467s-5.283,5.778-6.933,10.07S276.373,96.77,274.723,97.1s-1.485-3.3-.661-6.438,4.127-12.711,5.613-16.178,1.65-5.943.165-6.438-5.613,2.311-7.925,9.409-4.843,19.166-4.843,19.166-2.533-7.346-6.08-11.147-7.07.448-10.871,5.261,2.7,5.933,3.8,4.053c2.3-3.923,5.619-7.457,5.943.826.166,4.243.367,12.913-1.912,14.434s-11.147-1.267-11.147-1.267,1.014-2.787,2.027-6.333,1.774-6.08,0-8.107-3.8,1.774-3.8,1.774-6.84,7.346-6.081,12.16,10.894,15.2,13.681,19S254,142.948,254,151.5s-2.216,24.7-4.433,40.533c-.029.207-.057.4-.086.608,3.5,3.679,10.666,8.959,22.716,8.552a24.042,24.042,0,0,0,17.69-8.823c-2.574-7.655-5.8-15.12-8.2-21.3-5.365-13.825-8.456-38.967-8.456-38.967a51.767,51.767,0,0,0,4.787-10.07,60.2,60.2,0,0,1,7.1-15.187" transform="translate(-27.016 -7.689)" fill="#f0956d"/>
                  <path id="Trazado_879488" data-name="Trazado 879488" d="M285.123,106.84c3.962-6.438,8.914-9.575,12.216-12.216s4.457-2.806,3.136-3.962-5.612-.495-9.574,2.806a115.744,115.744,0,0,0-8.584,8.255,67.677,67.677,0,0,1,4.623-10.235A151.6,151.6,0,0,0,294.7,75.8c1.156-2.971-1.156-5.282-3.963-3.467s-5.283,5.778-6.933,10.07S276.373,96.77,274.723,97.1s-1.485-3.3-.661-6.438,4.127-12.711,5.613-16.178,1.65-5.943.165-6.438-5.613,2.311-7.925,9.409-4.843,19.166-4.843,19.166-2.533-7.346-6.08-11.147-7.07.448-10.871,5.261,2.7,5.933,3.8,4.053c2.3-3.923,5.619-7.457,5.943.826.166,4.243.367,12.913-1.912,14.434s-11.147-1.267-11.147-1.267,1.014-2.787,2.027-6.333,1.774-6.08,0-8.107-3.8,1.774-3.8,1.774-6.84,7.346-6.081,12.16,10.894,15.2,13.681,19S254,142.948,254,151.5s-2.216,24.7-4.433,40.533c-.029.207-.057.4-.086.608,3.5,3.679,10.666,8.959,22.716,8.552a24.042,24.042,0,0,0,17.69-8.823c-2.574-7.655-5.8-15.12-8.2-21.3-5.365-13.825-8.456-38.967-8.456-38.967a51.767,51.767,0,0,0,4.787-10.07A60.2,60.2,0,0,1,285.123,106.84Z" transform="translate(-27.016 -7.689)" fill="none" stroke="#263238" stroke-linecap="round" stroke-linejoin="round" stroke-width="1"/>
                  <path id="Trazado_879489" data-name="Trazado 879489" d="M263.592,137.2s-1.486-6.273.661-10.235a11.14,11.14,0,0,1,5.282-5.117" transform="translate(-29.752 -13.779)" fill="none" stroke="#263238" stroke-linecap="round" stroke-linejoin="round" stroke-width="1"/>
                </g>
              </g>
            </g>
          </g>
        </g>
      </g>
    </g>
  </g>
</svg>
