<svg xmlns="http://www.w3.org/2000/svg" xmlns:xlink="http://www.w3.org/1999/xlink" width="190" height="197" viewBox="0 0 190 197">
  <defs>
    <clipPath id="clip-path">
      <rect id="Rectángulo_402140" data-name="Rectángulo 402140" width="156.868" height="193.373" fill="none"/>
    </clipPath>
  </defs>
  <g id="Grupo_1101700" data-name="Grupo 1101700" transform="translate(-237.051 -4787)">
    <rect id="Rectángulo_401951" data-name="Rectángulo 401951" width="190" height="158" rx="8" transform="translate(237.051 4826)" fill="#9d978d"/>
    <g id="Grupo_1101144" data-name="Grupo 1101144" transform="translate(253.617 4787)">
      <rect id="Rectángulo_402129" data-name="Rectángulo 402129" width="14.788" height="29.815" transform="translate(71.432 157.913)" fill="#1f444d"/>
      <g id="Grupo_1101143" data-name="Grupo 1101143">
        <g id="Grupo_1101142" data-name="Grupo 1101142" clip-path="url(#clip-path)">
          <path id="Trazado_878509" data-name="Trazado 878509" d="M164.462,215.029a3.846,3.846,0,0,1-3.8,3.886H18.326a3.846,3.846,0,0,1-3.8-3.886V116.58a3.846,3.846,0,0,1,3.8-3.886H160.658a3.846,3.846,0,0,1,3.8,3.886Z" transform="translate(-7.594 -58.934)" fill="#1f444d"/>
          <path id="Trazado_878510" data-name="Trazado 878510" d="M150.655,215.029a3.854,3.854,0,0,1-3.822,3.886H3.822A3.854,3.854,0,0,1,0,215.029V116.58a3.854,3.854,0,0,1,3.822-3.886H146.833a3.854,3.854,0,0,1,3.822,3.886Z" transform="translate(0 -58.934)" fill="#2e5b66"/>
          <rect id="Rectángulo_402130" data-name="Rectángulo 402130" width="142.056" height="97.477" transform="translate(4.3 58.132)" fill="#fff"/>
          <path id="Trazado_878511" data-name="Trazado 878511" d="M45.345,215.827l14.441-8.11,14.442-15.754,14.439,6.254,14.441-22.958,14.441,11.767,14.441,12.284,14.441-39.157" transform="translate(-23.713 -83.753)" fill="none" stroke="#1f444d" stroke-miterlimit="10" stroke-width="1"/>
          <path id="Trazado_878512" data-name="Trazado 878512" d="M161.082,396.12a10.975,10.975,0,0,0-10.673-8.428H85.373A10.975,10.975,0,0,0,74.7,396.12Z" transform="translate(-39.065 -202.746)" fill="#2e5b66"/>
          <path id="Trazado_878513" data-name="Trazado 878513" d="M24.168,148.773v78.235a.241.241,0,0,0,.239.239H145.894a.239.239,0,0,0,0-.477H24.407l.239.239V148.773a.239.239,0,0,0-.477,0" transform="translate(-12.639 -77.681)"/>
          <rect id="Rectángulo_402131" data-name="Rectángulo 402131" width="3.542" height="62.333" transform="translate(120.946 83.177)" fill="#20bfad"/>
          <rect id="Rectángulo_402132" data-name="Rectángulo 402132" width="3.542" height="23.216" transform="translate(106.505 122.294)" fill="#20bfad"/>
          <rect id="Rectángulo_402133" data-name="Rectángulo 402133" width="3.542" height="35.511" transform="translate(92.064 109.999)" fill="#20bfad"/>
          <rect id="Rectángulo_402134" data-name="Rectángulo 402134" width="3.542" height="47.147" transform="translate(77.623 98.363)" fill="#20bfad"/>
          <rect id="Rectángulo_402135" data-name="Rectángulo 402135" width="3.542" height="24.5" transform="translate(63.182 121.01)" fill="#20bfad"/>
          <rect id="Rectángulo_402136" data-name="Rectángulo 402136" width="3.542" height="30.531" transform="translate(48.742 114.98)" fill="#20bfad"/>
          <rect id="Rectángulo_402137" data-name="Rectángulo 402137" width="3.542" height="14.67" transform="translate(34.301 130.84)" fill="#20bfad"/>
          <rect id="Rectángulo_402138" data-name="Rectángulo 402138" width="3.542" height="6.679" transform="translate(19.86 138.832)" fill="#20bfad"/>
          <path id="Trazado_878514" data-name="Trazado 878514" d="M45.184,275.03a1.67,1.67,0,1,1-1.67-1.67,1.67,1.67,0,0,1,1.67,1.67" transform="translate(-21.883 -142.956)" fill="#f77e56"/>
          <path id="Trazado_878515" data-name="Trazado 878515" d="M75.455,258.029a1.67,1.67,0,1,1-1.67-1.67,1.67,1.67,0,0,1,1.67,1.67" transform="translate(-37.714 -134.065)" fill="#f77e56"/>
          <path id="Trazado_878516" data-name="Trazado 878516" d="M105.73,225a1.67,1.67,0,1,1-1.67-1.67,1.67,1.67,0,0,1,1.67,1.67" transform="translate(-53.546 -116.794)" fill="#f77e56"/>
          <path id="Trazado_878517" data-name="Trazado 878517" d="M136,238.113a1.67,1.67,0,1,1-1.67-1.67,1.67,1.67,0,0,1,1.67,1.67" transform="translate(-69.375 -123.65)" fill="#f77e56"/>
          <path id="Trazado_878518" data-name="Trazado 878518" d="M166.27,189.988a1.67,1.67,0,1,1-1.67-1.67,1.67,1.67,0,0,1,1.67,1.67" transform="translate(-85.206 -98.482)" fill="#f77e56"/>
          <path id="Trazado_878519" data-name="Trazado 878519" d="M196.541,214.654a1.67,1.67,0,1,1-1.67-1.67,1.67,1.67,0,0,1,1.67,1.67" transform="translate(-101.036 -111.382)" fill="#f77e56"/>
          <path id="Trazado_878520" data-name="Trazado 878520" d="M226.813,240.4a1.67,1.67,0,1,1-1.67-1.67,1.67,1.67,0,0,1,1.67,1.67" transform="translate(-116.867 -124.848)" fill="#f77e56"/>
          <path id="Trazado_878521" data-name="Trazado 878521" d="M257.084,158.322a1.67,1.67,0,1,1-1.67-1.67,1.67,1.67,0,0,1,1.67,1.67" transform="translate(-132.698 -81.922)" fill="#f77e56"/>
          <rect id="Rectángulo_402139" data-name="Rectángulo 402139" width="142.056" height="5.193" transform="translate(4.3 58.132)" fill="#b1e0dc"/>
          <path id="Trazado_878522" data-name="Trazado 878522" d="M16.594,126.308a.905.905,0,1,1-.9-.905.905.905,0,0,1,.9.905" transform="translate(-7.731 -65.58)" fill="#fff"/>
          <path id="Trazado_878523" data-name="Trazado 878523" d="M25.539,126.308a.905.905,0,1,1-.905-.905.905.905,0,0,1,.905.905" transform="translate(-12.409 -65.58)" fill="#20bfad"/>
          <path id="Trazado_878524" data-name="Trazado 878524" d="M34.483,126.308a.905.905,0,1,1-.9-.905.905.905,0,0,1,.9.905" transform="translate(-17.087 -65.58)" fill="#2e5b66"/>
          <path id="Trazado_878525" data-name="Trazado 878525" d="M134.293,161.551c.6,1.55,1.312,4.234,1.312,4.234l4.592-.894-.716-4.114Z" transform="translate(-70.23 -84.079)" fill="#20bfad"/>
          <path id="Trazado_878526" data-name="Trazado 878526" d="M161.151,163.151c-.06.179-.358,6.917-.358,6.917l4.353-1.729,1.729-5.188Z" transform="translate(-84.088 -85.321)" fill="#20bfad"/>
          <path id="Trazado_878527" data-name="Trazado 878527" d="M115.473,122.43c2.385-.079,8.746-1.749,8.746-1.749-.874-3.657-6.679-22.5-6.917-23.3,3.419-.795,10.813-.318,10.813-.318-1.034,3.737-.319,23.136-.875,25.362,3.419.08,10.1-.239,10.1-.239,1.431-4.373,3.26-20.433,5.486-23.057s8.269-2.226,8.269-2.226a96.6,96.6,0,0,0,.716-13.278s-16.617-.954-21.626-1.113-19.241,1.908-23.852,5.327-1.908,10.336,1.749,17.73,7.394,16.855,7.394,16.855" transform="translate(-54.331 -43.149)" fill="#f77e56"/>
          <path id="Trazado_878528" data-name="Trazado 878528" d="M128.918,96.808a28.807,28.807,0,0,1,3.876,6.738c.6,1.789,2.147,6.857,2.8,6.44.3,2.743.894,2.266,1.073,2.147.716.537,1.372.318,1.312-1.451a13.961,13.961,0,0,0,.636-4.373c-.159-1.988-3.618-10.932-6-14.033-1.431.716-3.7,4.532-3.7,4.532" transform="translate(-67.419 -48.256)" fill="#f7cfb2"/>
          <path id="Trazado_878529" data-name="Trazado 878529" d="M202.908,100.307c0,2.266-.239,5.207-.239,5.645s4.85.955,6.837,1.352,3.18-.478.08-1.233c4.929-.278,5.963-.239,5.963-.477s-1.749-.994-4.612-.994-2.385-.914-2.385-4.413-5.645.119-5.645.119" transform="translate(-105.987 -51.597)" fill="#f7cfb2"/>
          <path id="Trazado_878530" data-name="Trazado 878530" d="M118.892,56.069a62.785,62.785,0,0,1,5.566-3.5c-1.113-2.942-3.657-6.122-3.578-7s5.8-9.3,6.917-10.256c2.226,6.043,4.373,11.21,7.156,11.926,4.85.159,16.7,2.783,19.718,1.034,0,4.77.08,9.223.08,9.223l6.758-.8s.556-16.616.159-23.454-2.147-20.911-20.433-17.73c-9.938,2.147-19.4,4.85-24.488,15.584s-6.759,14.788-4.691,16.855,6.837,8.11,6.837,8.11" transform="translate(-58.147 -7.875)" fill="#20bfad"/>
          <path id="Trazado_878531" data-name="Trazado 878531" d="M160.752,44.125c-.01.645-.232,1.813.527,2.125.358.147.747-.3.963-.511a14.74,14.74,0,0,0,1.243-1.445c.187-.239-.147-.58-.337-.338a8.551,8.551,0,0,1-1.641,1.8c-.344.241-.28-1.423-.277-1.627a.239.239,0,0,0-.477,0" transform="translate(-84.047 -22.944)"/>
          <path id="Trazado_878532" data-name="Trazado 878532" d="M170.919,31.113c.665.424,1.167,1.029,1.849,1.431a.24.24,0,0,0,.289-.037,12.579,12.579,0,0,0,2.228-3.087,17.17,17.17,0,0,0,1.77-3.925c.374-1.434.926-4.6-1.182-4.955-.3-.05-.43.41-.127.46,1.567.26,1.152,2.516,1,3.606a10.471,10.471,0,0,1-1.334,3.571,22.883,22.883,0,0,1-1.912,3.159c-.474.611-.617.8-1.264.233a9.147,9.147,0,0,0-1.076-.868c-.26-.166-.5.247-.24.412" transform="translate(-89.325 -10.739)"/>
          <path id="Trazado_878533" data-name="Trazado 878533" d="M138.3,9.646a10.01,10.01,0,0,0,3.976,8.348c2.464,1.67,3.5,3.5,6.917,3.5s7.792-3.657,7.792-8.269c2.385-.477,3.18-5.168.716-4.85-1.988-5.406-6.519-10.336-14.47-7.235C138.461,4,138.143,6.7,138.3,9.646" transform="translate(-72.31 -0.092)" fill="#f7c9a8"/>
          <path id="Trazado_878534" data-name="Trazado 878534" d="M137.916,11.461c1.789,2.385,7.931,2.385,10.137-.06s3.637-2.743,4.234-1.729,1.232,2.8,2.544,3.34c.239.119.954-.954.954-.954-.775-1.61.577-3.738,1.551-3.777C155.8,3.352,153-1.121,144.892.251c-8.05,1.431-7.692,8.646-6.977,11.21" transform="translate(-71.944 0)"/>
          <path id="Trazado_878535" data-name="Trazado 878535" d="M146.863,35.236a6.84,6.84,0,0,1,1.374-.414c.29-.1.165-.559-.127-.46a7.3,7.3,0,0,0-1.488.462.239.239,0,0,0,.24.412" transform="translate(-76.617 -17.963)"/>
          <path id="Trazado_878536" data-name="Trazado 878536" d="M159.353,32.115a4.924,4.924,0,0,1,1.947-.445.239.239,0,0,0,0-.477,5.512,5.512,0,0,0-2.188.51c-.281.126-.037.537.24.412" transform="translate(-83.144 -16.313)"/>
          <path id="Trazado_878537" data-name="Trazado 878537" d="M155.667,35.678c.351.895.525,1.849.939,2.721a.24.24,0,0,0,.374.048,5.144,5.144,0,0,0,.912-1.479c.135-.275-.276-.517-.412-.241a4.81,4.81,0,0,1-.837,1.383l.374.048c-.4-.832-.555-1.751-.89-2.607-.112-.283-.572-.16-.46.127" transform="translate(-81.398 -18.508)"/>
          <path id="Trazado_878538" data-name="Trazado 878538" d="M151.994,37.91a1.853,1.853,0,0,1-.2-.23q-.042.163-.085.326c.054-.024.276.131.278.152l.239-.239a.518.518,0,0,1-.431-.28l-.037.289c-.025.024-.05,0,.028.019a.232.232,0,0,1,.1.065c.149-.073.184-.136.107-.189a.515.515,0,0,1-.062-.071.367.367,0,0,1-.065-.112l-.239.239a.178.178,0,0,1,.12.037.294.294,0,0,1,.06.05c.083.079-.118-.057.089-.126-.057.019-.173-.1-.2-.137-.068-.09-.144.119-.06.14a.435.435,0,0,1,.176.13.217.217,0,0,1,.048.066c.017.062.045.028.085-.1a.224.224,0,0,1-.149-.135c-.128-.279-.54-.037-.411.241a.647.647,0,0,0,.6.365.385.385,0,0,0,.334-.514.878.878,0,0,0-.511-.493c-.186-.071-.545-.035-.585.218a.682.682,0,0,0,.849.67c.594-.2-.022-.911-.437-.883a.24.24,0,0,0-.239.239c.038.369.644,1.041.935.492.248-.467-.58-.861-.905-.541a.237.237,0,0,0-.037.289.991.991,0,0,0,.842.516c.117-.009.255-.1.239-.239a.749.749,0,0,0-1-.564.237.237,0,0,0-.085.326,2.564,2.564,0,0,0,.276.326.239.239,0,0,0,.337-.337" transform="translate(-79.076 -19.541)"/>
          <path id="Trazado_878539" data-name="Trazado 878539" d="M162.827,34.993a1.812,1.812,0,0,1-.2-.23q-.042.163-.085.326c.054-.024.275.131.278.152l.239-.239a.515.515,0,0,1-.431-.28l-.037.289c-.025.024-.05,0,.028.019a.232.232,0,0,1,.1.065c.148-.073.184-.136.107-.189a.456.456,0,0,1-.062-.071.349.349,0,0,1-.065-.112l-.238.239a.177.177,0,0,1,.12.037.258.258,0,0,1,.06.05c.084.079-.117-.057.089-.126-.056.019-.173-.1-.2-.137-.068-.09-.144.119-.06.14a.44.44,0,0,1,.176.13.234.234,0,0,1,.048.066c.017.062.045.028.085-.1a.224.224,0,0,1-.149-.135c-.128-.279-.54-.037-.412.241a.648.648,0,0,0,.6.365.385.385,0,0,0,.334-.514.881.881,0,0,0-.511-.493c-.187-.071-.545-.035-.585.218a.682.682,0,0,0,.85.67c.594-.2-.023-.911-.437-.883a.24.24,0,0,0-.239.239c.038.369.644,1.041.935.492.248-.467-.58-.861-.905-.541a.238.238,0,0,0-.037.289.99.99,0,0,0,.842.516c.117-.008.255-.1.239-.239a.75.75,0,0,0-1-.563.237.237,0,0,0-.086.326,2.605,2.605,0,0,0,.276.326.239.239,0,0,0,.338-.337" transform="translate(-84.741 -18.016)"/>
          <path id="Trazado_878540" data-name="Trazado 878540" d="M166.166,48.9a11.37,11.37,0,0,0,1.251,3.609c.77,1.651,1.5,3.318,2.291,4.961,1.226,2.561,2.343,5.736,4.686,7.5.246.185.483-.229.24-.412-2.242-1.686-3.33-4.878-4.514-7.326q-.9-1.864-1.751-3.754a15.668,15.668,0,0,1-1.727-4.575c-.033-.3-.511-.306-.477,0" transform="translate(-86.897 -25.454)"/>
          <path id="Trazado_878541" data-name="Trazado 878541" d="M144.318,53.518a7.664,7.664,0,0,1,.649,1.78c.193.6.372,1.2.579,1.8.1.289.561.165.46-.126-.237-.681-.442-1.371-.663-2.057a6.79,6.79,0,0,0-.614-1.638c-.166-.258-.579-.019-.412.241" transform="translate(-75.452 -27.804)"/>
          <path id="Trazado_878542" data-name="Trazado 878542" d="M198.043,46.4a53.312,53.312,0,0,0,1.423,11.225c.9,3.88.11,7.837.852,11.736.058.3.517.174.46-.127-.713-3.749.055-7.563-.752-11.3A58.57,58.57,0,0,1,198.52,46.4a.239.239,0,0,0-.477,0" transform="translate(-103.568 -24.144)"/>
          <path id="Trazado_878543" data-name="Trazado 878543" d="M154.141,104.978c.43-2.669,1.012-4.967,3.459-6.478,2.324-1.436,5.182-1.6,7.82-1.874.3-.031.306-.509,0-.477-2.907.3-5.817.553-8.364,2.126-2.383,1.472-2.958,3.988-3.376,6.576-.048.3.411.43.46.127" transform="translate(-80.367 -50.281)"/>
          <path id="Trazado_878544" data-name="Trazado 878544" d="M138.851,118.154a10.418,10.418,0,0,1,1.756,5.127c.031.3.508.306.477,0a10.916,10.916,0,0,0-1.822-5.368c-.185-.24-.6,0-.412.241" transform="translate(-72.588 -61.612)"/>
          <path id="Trazado_878545" data-name="Trazado 878545" d="M142.679,119.582a34.356,34.356,0,0,1,1.065,6.655.24.24,0,0,0,.468.063l.04-.119c.1-.293-.364-.417-.46-.127l-.04.119.469.063a35.038,35.038,0,0,0-1.082-6.782c-.065-.3-.525-.173-.46.127" transform="translate(-74.612 -62.38)"/>
          <path id="Trazado_878546" data-name="Trazado 878546" d="M145.263,118.915a32.992,32.992,0,0,1,.826,3.634,9.7,9.7,0,0,1,.207,3.117.239.239,0,0,0,.46.127,10.564,10.564,0,0,0-.191-3.244,25.872,25.872,0,0,0-.843-3.761c-.067-.3-.527-.173-.46.127" transform="translate(-75.963 -62.031)"/>
          <path id="Trazado_878547" data-name="Trazado 878547" d="M147.262,115.75c.2.811.507,1.557.655,2.385a15.92,15.92,0,0,1,.171,2.8.239.239,0,0,0,.477,0,15.6,15.6,0,0,0-.127-2.568c-.161-.955-.49-1.812-.716-2.743-.073-.3-.532-.172-.46.127" transform="translate(-77.008 -60.377)"/>
          <path id="Trazado_878548" data-name="Trazado 878548" d="M125.835,95.523c.556-1.471,3.7-3.7,6.877-4.413.875,1.312,1.511,2.067,1.829,2.147a43.307,43.307,0,0,0-7.434,4.174,11.4,11.4,0,0,1-1.272-1.908" transform="translate(-65.806 -47.647)" fill="#0fa896"/>
          <path id="Trazado_878549" data-name="Trazado 878549" d="M201.537,100.486c1.61,0,6.619-.239,8.408-.835a5.676,5.676,0,0,1-.06,2.5,24.042,24.042,0,0,1-8.468.894c0-.6.119-2.564.119-2.564" transform="translate(-105.333 -52.113)" fill="#0fa896"/>
          <path id="Trazado_878550" data-name="Trazado 878550" d="M153.855,169.77c-1.312.119-1.352.477-1.392,2.385s-1.59,4.055-3.9,6.4-.239,2.544,2.186.795a65.845,65.845,0,0,0,5.764-5.009s-.04.954.2.914a10.2,10.2,0,0,0,2.5-2.027,9.792,9.792,0,0,0,.2-3.459c-.159-.716-2.067.318-4.055,1.67-.676-1.351-.914-1.67-1.511-1.67" transform="translate(-77.17 -88.66)" fill="#1f444d"/>
          <path id="Trazado_878551" data-name="Trazado 878551" d="M128.184,166.1c-1.3-.186-1.425.154-1.9,2s-2.479,3.582-5.263,5.334-.816,2.421,1.946,1.276a65.887,65.887,0,0,0,6.761-3.551s-.258.919-.016.936a10.2,10.2,0,0,0,2.9-1.4c.342-.409.287-2.77.3-3.5s-1.392.017-3.638.875c-.347-1.47-.506-1.835-1.086-1.972" transform="translate(-62.584 -86.838)" fill="#1f444d"/>
          <path id="Trazado_878552" data-name="Trazado 878552" d="M178.54,53.136a13.522,13.522,0,0,0,3.2-.273c1.005-.206,1.869-.822,2.886-.987.3-.049.174-.509-.127-.46a15.392,15.392,0,0,0-2.5.894,9.768,9.768,0,0,1-3.455.349c-.308-.01-.307.467,0,.477" transform="translate(-93.248 -26.886)"/>
          <path id="Trazado_878553" data-name="Trazado 878553" d="M178.308,54.455a10.422,10.422,0,0,0,.818,2.453,9.625,9.625,0,0,0,1.055,2.077c.18.245.594.008.412-.241a10.214,10.214,0,0,1-1.109-2.209,9.32,9.32,0,0,1-.716-2.206c-.043-.3-.5-.174-.46.127" transform="translate(-93.246 -28.321)"/>
          <path id="Trazado_878554" data-name="Trazado 878554" d="M182.045,63.963a6.8,6.8,0,0,0,2.332.973,2.621,2.621,0,0,0,1.785.041.238.238,0,0,0-.24-.412c-.453.264-1.258-.055-1.732-.159a5.711,5.711,0,0,1-1.9-.855c-.259-.168-.5.244-.24.412" transform="translate(-95.144 -33.214)"/>
          <path id="Trazado_878555" data-name="Trazado 878555" d="M191.054,51.832a10.651,10.651,0,0,0,.842,2.358,9.136,9.136,0,0,1,.89,2.157l.351-.27-.062-.043c-.253-.176-.491.239-.24.412l.062.043c.191.132.381-.085.351-.27a8.285,8.285,0,0,0-.665-1.692,15.638,15.638,0,0,1-1.066-2.823c-.067-.3-.527-.173-.46.127" transform="translate(-99.91 -26.95)"/>
          <path id="Trazado_878556" data-name="Trazado 878556" d="M192.34,60.657a11.62,11.62,0,0,1-1.372,1.66c-.135.133-.278.26-.421.387-.091.08-.385.409-.505.4-.307-.023-.3.454,0,.477.373.028.842-.536,1.084-.758a11.446,11.446,0,0,0,1.626-1.924c.177-.253-.237-.491-.412-.241" transform="translate(-99.264 -31.666)"/>
          <path id="Trazado_878557" data-name="Trazado 878557" d="M180.429,55.667a5.653,5.653,0,0,0,2.458,1.308,1.658,1.658,0,0,0,1.4-.612c.334-.306,1.743-1.726.972-2.181a.238.238,0,0,0-.24.412c.141.083-1.071,1.434-1.2,1.553-.985.9-2.3-.258-3.15-.891-.247-.185-.484.23-.24.412" transform="translate(-94.303 -28.316)"/>
          <path id="Trazado_878558" data-name="Trazado 878558" d="M162.79,82.628a25.537,25.537,0,0,1,4.072.589c1.391.259,2.81.366,4.207.6a29.385,29.385,0,0,1,3.992.892,5.959,5.959,0,0,0,2.76.42c.3-.049.174-.508-.127-.46-1.185.19-2.382-.418-3.512-.7-1.267-.317-2.555-.547-3.844-.748-1.25-.2-2.512-.3-3.757-.535a23.714,23.714,0,0,0-3.791-.53.239.239,0,0,0,0,.477" transform="translate(-85.012 -42.961)"/>
          <path id="Trazado_878559" data-name="Trazado 878559" d="M179.415,84.878c.7.024,1.336.325,2.028.408.843.1,1.71.111,2.559.145.8.031,1.6-.115,2.394-.153a13.847,13.847,0,0,0,1.908-.111c.3-.056.174-.516-.127-.46a26.594,26.594,0,0,1-4.175.246c-.708.012-1.434-.066-2.14-.109-.846-.052-1.606-.415-2.447-.444-.308-.01-.307.467,0,.477" transform="translate(-93.706 -44.138)"/>
          <path id="Trazado_878560" data-name="Trazado 878560" d="M161.592,113.37c-.5,3.719-.705,7.479-.966,11.22-.254,3.633-.714,7.307-.792,10.947a.239.239,0,0,0,.477,0c.074-3.484.516-7,.759-10.481.269-3.853.467-7.73.982-11.559.04-.3-.419-.431-.46-.127" transform="translate(-83.587 -59.197)"/>
          <path id="Trazado_878561" data-name="Trazado 878561" d="M130.347,107.166c.251,1.2.624,2.375.874,3.578.063.3.523.173.46-.127-.251-1.2-.623-2.375-.874-3.578-.063-.3-.523-.173-.46.127" transform="translate(-68.163 -55.887)"/>
          <path id="Trazado_878562" data-name="Trazado 878562" d="M112.209,120.213c1.551,3.335,3.257,6.6,4.792,9.938.787,1.714,1.5,3.457,2.136,5.234.244.686.463,1.373.754,2.041a8.364,8.364,0,0,1,.765,1.9l.293-.293-.043-.007c-.3-.051-.429.408-.126.46l.043.007a.243.243,0,0,0,.293-.293,5.425,5.425,0,0,0-.447-1.195c-.383-.912-.749-1.81-1.072-2.745-.58-1.682-1.276-3.324-2-4.947-1.562-3.491-3.361-6.871-4.974-10.339-.129-.279-.541-.036-.412.241" transform="translate(-58.667 -62.676)"/>
          <path id="Trazado_878563" data-name="Trazado 878563" d="M126.012,95.335c.228-.949,1.717-1.6,2.485-2.1a31.47,31.47,0,0,1,3.547-1.634c.276-.135.034-.547-.24-.412-.69.339-1.47.483-2.147.835a22.806,22.806,0,0,0-2.08,1.255c-.734.487-1.8.995-2.026,1.929-.072.3.388.426.46.127" transform="translate(-65.654 -47.674)"/>
          <path id="Trazado_878564" data-name="Trazado 878564" d="M126,77.739a10.374,10.374,0,0,0-4.712-1.464c-.307-.018-.306.46,0,.477a9.839,9.839,0,0,1,4.471,1.4.238.238,0,0,0,.24-.412" transform="translate(-63.31 -39.889)"/>
        </g>
      </g>
    </g>
  </g>
</svg>
