<svg xmlns="http://www.w3.org/2000/svg" width="73" height="73" viewBox="0 0 73 73">
  <g id="Grupo_1101814" data-name="Grupo 1101814" transform="translate(-300 -4278.318)">
    <g id="Grupo_1101711" data-name="Grupo 1101711" transform="translate(300 4278.318)">
      <circle id="Elipse_11489" data-name="Elipse 11489" cx="36.5" cy="36.5" r="36.5" fill="#3ba935"/>
    </g>
    <g id="propuesta-de-valor" transform="translate(311.41 4289.728)">
      <path id="Trazado_879944" data-name="Trazado 879944" d="M342.134,264.415a2.94,2.94,0,0,0-4.158,0l-5.9,5.9,4.305,4.305,7.98-7.98Z" transform="translate(-299.529 -237.723)" fill="#ffa78f"/>
      <path id="Trazado_879945" data-name="Trazado 879945" d="M66.99,259.755a2.94,2.94,0,0,0-4.159,0l-5.38,5.379H48.484a1.47,1.47,0,0,1-1.47-1.47v-1.574h3.149a2.94,2.94,0,0,0,2.94-2.94V256H41.357a8.768,8.768,0,0,0-7.593,4.384l-4.344,7.524,5.463,4.836,6.493,2.067,2.233-3.589H58.96a2.45,2.45,0,0,0,1.732-.717l.775-.775,7.75-7.75Z" transform="translate(-26.537 -230.91)" fill="#ffcebf"/>
      <path id="Trazado_879946" data-name="Trazado 879946" d="M119.409,286.381a2.94,2.94,0,0,0-4.131-.027l-7.112,7.111a4.925,4.925,0,0,1-3.482,1.442H91.718a2.45,2.45,0,0,0-2.08,1.156l-2.1,3.381,6.26,1.993,2.233-3.589h15.351a2.45,2.45,0,0,0,1.732-.717l.775-.775,7.75-7.75Z" transform="translate(-78.956 -257.536)" fill="#ffb09e"/>
      <path id="Trazado_879947" data-name="Trazado 879947" d="M307.428,204.8l-1.79-1.79-1.79,1.79a.735.735,0,0,1-1.255-.52v-10.4h6.089v10.4A.735.735,0,0,1,307.428,204.8Z" transform="translate(-272.937 -174.873)" fill="#e53950"/>
      <path id="Trazado_879948" data-name="Trazado 879948" d="M177.866,318.129h3.044" transform="translate(-160.434 -286.949)" fill="#ffc344"/>
      <path id="Trazado_879949" data-name="Trazado 879949" d="M12.3,380.408l10.185,9.541,3.449-5.544-11.956-6.9Z" transform="translate(-11.098 -340.503)" fill="#dff6fd"/>
      <path id="Trazado_879950" data-name="Trazado 879950" d="M246.249,18.155c0,1.365-1.405,2.441-1.9,3.627-.51,1.23-.3,2.98-1.224,3.907s-2.677.713-3.907,1.224c-1.187.492-2.263,1.9-3.627,1.9s-2.441-1.405-3.627-1.9c-1.23-.51-2.98-.3-3.907-1.224s-.713-2.677-1.224-3.907c-.492-1.187-1.9-2.263-1.9-3.627s1.405-2.441,1.9-3.627c.51-1.23.3-2.98,1.224-3.907s2.677-.713,3.907-1.224c1.187-.492,2.263-1.9,3.627-1.9s2.441,1.405,3.627,1.9c1.23.51,2.98.3,3.907,1.224s.713,2.677,1.224,3.907C244.844,15.715,246.249,16.791,246.249,18.155Z" transform="translate(-202.892 -6.765)" fill="#ffc344"/>
      <path id="Trazado_879951" data-name="Trazado 879951" d="M324.374,14.528c-.51-1.23-.3-2.98-1.224-3.907s-2.677-.714-3.907-1.224c-1.187-.492-2.262-1.9-3.627-1.9a3.488,3.488,0,0,0-1.96.821A9.292,9.292,0,0,0,315.323,9.4c1.23.51,2.98.3,3.907,1.224s.713,2.677,1.224,3.907c.492,1.187,1.9,2.263,1.9,3.627s-1.405,2.441-1.9,3.627c-.51,1.23-.3,2.98-1.224,3.907s-2.677.713-3.907,1.224a9.294,9.294,0,0,0-1.667,1.077,3.488,3.488,0,0,0,1.96.821c1.365,0,2.441-1.405,3.627-1.9,1.23-.51,2.98-.3,3.907-1.224s.714-2.677,1.224-3.907c.492-1.187,1.9-2.263,1.9-3.627S324.867,15.715,324.374,14.528Z" transform="translate(-282.915 -6.765)" fill="#feb237"/>
      <path id="Trazado_879952" data-name="Trazado 879952" d="M7.5,407.964v8.726H20.039l.747-1.294a.735.735,0,0,0-.269-1L7.971,407.148Z" transform="translate(-6.765 -367.244)" fill="#0055a3"/>
      <path id="Trazado_879953" data-name="Trazado 879953" d="M301.4,56.268a3.208,3.208,0,0,0-2.2-3.047l-1-.333V48.824a1.744,1.744,0,0,1,1.726,1.742v.72a.735.735,0,1,0,1.47,0v-.72a3.216,3.216,0,0,0-3.2-3.212v-.026a.735.735,0,1,0-1.47,0v.026a3.212,3.212,0,0,0-1,6.259l1,.333v4.063a1.744,1.744,0,0,1-1.726-1.742v-.72a.735.735,0,1,0-1.47,0v.72a3.215,3.215,0,0,0,3.2,3.212v.026a.735.735,0,1,0,1.47,0V59.48A3.215,3.215,0,0,0,301.4,56.268Zm-5.2-4.049a1.742,1.742,0,0,1,.535-3.394V52.4Zm2.541,2.4a1.742,1.742,0,0,1-.535,3.394V54.437Z" transform="translate(-264.771 -42.026)"/>
      <path id="Trazado_879954" data-name="Trazado 879954" d="M469.717,108.719h-3.044a.735.735,0,0,0,0,1.47h3.044a.735.735,0,0,0,0-1.47Z" transform="translate(-420.272 -98.064)"/>
      <path id="Trazado_879955" data-name="Trazado 879955" d="M455.3,49.586a.732.732,0,0,0,.367-.1l2.637-1.522a.735.735,0,1,0-.735-1.273l-2.637,1.522a.735.735,0,0,0,.368,1.372Z" transform="translate(-410.014 -42.027)"/>
      <path id="Trazado_879956" data-name="Trazado 879956" d="M458.306,156.933l-2.637-1.522a.735.735,0,0,0-.735,1.273l2.637,1.522a.735.735,0,0,0,.735-1.273Z" transform="translate(-410.015 -140.09)"/>
      <path id="Trazado_879957" data-name="Trazado 879957" d="M156.047,110.189h3.044a.735.735,0,0,0,0-1.47h-3.044a.735.735,0,1,0,0,1.47Z" transform="translate(-140.09 -98.064)"/>
      <path id="Trazado_879958" data-name="Trazado 879958" d="M171.21,47.964l2.637,1.522a.735.735,0,1,0,.735-1.273l-2.637-1.522a.735.735,0,1,0-.735,1.273Z" transform="translate(-154.098 -42.026)"/>
      <path id="Trazado_879959" data-name="Trazado 879959" d="M173.847,155.41l-2.637,1.522a.735.735,0,1,0,.735,1.273l2.637-1.522a.735.735,0,1,0-.735-1.273Z" transform="translate(-154.099 -140.09)"/>
      <path id="Trazado_879960" data-name="Trazado 879960" d="M43.126,26.172a3.68,3.68,0,0,0-5.2,0l-1.447,1.447V20.886c.043-.021.087-.041.129-.059a6.606,6.606,0,0,1,1.423-.329,4.714,4.714,0,0,0,2.722-1.054,4.714,4.714,0,0,0,1.054-2.722,6.617,6.617,0,0,1,.329-1.423,6.24,6.24,0,0,1,.745-1.176,4.734,4.734,0,0,0,1.208-2.733,4.734,4.734,0,0,0-1.208-2.733,6.238,6.238,0,0,1-.745-1.176,6.606,6.606,0,0,1-.329-1.423,4.714,4.714,0,0,0-1.054-2.722,4.714,4.714,0,0,0-2.722-1.054,6.617,6.617,0,0,1-1.423-.329,6.24,6.24,0,0,1-1.176-.745A4.734,4.734,0,0,0,32.7,0a4.734,4.734,0,0,0-2.733,1.208,6.238,6.238,0,0,1-1.176.745,6.606,6.606,0,0,1-1.423.329,4.714,4.714,0,0,0-2.722,1.054,4.714,4.714,0,0,0-1.054,2.722,6.617,6.617,0,0,1-.329,1.423,6.24,6.24,0,0,1-.745,1.176,4.734,4.734,0,0,0-1.208,2.733,4.734,4.734,0,0,0,1.208,2.733,6.238,6.238,0,0,1,.745,1.176,6.606,6.606,0,0,1,.329,1.423,4.714,4.714,0,0,0,1.054,2.722A4.714,4.714,0,0,0,27.369,20.5a6.617,6.617,0,0,1,1.423.329q.064.027.13.059V23.62a.735.735,0,1,0,1.47,0V21.879a4.049,4.049,0,0,0,2.309.9,4.048,4.048,0,0,0,2.309-.9v7.211l-.158.158-1.632-1.632a.735.735,0,0,0-1.039,0L30.392,29.4V27.051a.735.735,0,1,0-1.47,0V29.4a1.47,1.47,0,0,0,2.51,1.039l1.27-1.27,1.112,1.112-3.2,3.2H21.947a.736.736,0,0,1-.735-.735v-.839h2.413A3.679,3.679,0,0,0,27.3,28.239V25.09a.735.735,0,0,0-.735-.735H14.821a9.529,9.529,0,0,0-8.23,4.751L.1,40.352a.735.735,0,0,0-.1.368v8.726a.735.735,0,0,0,.735.735H13.274a.735.735,0,0,0,.637-.368l.747-1.294a1.472,1.472,0,0,0-.538-2.008l-.028-.016,3.389-5.448H32.423a3.165,3.165,0,0,0,2.252-.932l3.152-3.151a.735.735,0,1,0-1.04-1.04l-3.151,3.151a1.7,1.7,0,0,1-1.212.5H16.008a1.217,1.217,0,0,1-.866-.359l-1.709-1.709a.735.735,0,0,0-1.04,1.04L14.1,40.258a2.675,2.675,0,0,0,1.654.778l-1.165,1.873-10.7-6.18,3.977-6.888a8.055,8.055,0,0,1,6.957-4.016h11.01v2.414a2.208,2.208,0,0,1-2.205,2.205H17.432a.735.735,0,1,0,0,1.47h2.309v.839a2.208,2.208,0,0,0,2.205,2.205h8.968a.735.735,0,0,0,.52-.215l5.38-5.379a2.2,2.2,0,0,1,3.119,0l1.707,1.706-2.41,2.41a.735.735,0,1,0,1.04,1.04l2.93-2.93.011-.011,2.141-2.141a.735.735,0,0,0,0-1.04ZM12.817,45.76,11.508,45a.735.735,0,0,0-.735,1.273L12.7,47.389h0l.683.394-.535.926H1.47V40.917l0-.008,6.287,3.63A.735.735,0,0,0,8.5,43.265L2.21,39.635,3.152,38l10.661,6.156ZM32.7,21.311a3.6,3.6,0,0,1-1.863-.924,7.359,7.359,0,0,0-1.483-.918,7.753,7.753,0,0,0-1.754-.423,3.605,3.605,0,0,1-1.915-.642,3.606,3.606,0,0,1-.642-1.915,7.759,7.759,0,0,0-.423-1.754,7.357,7.357,0,0,0-.918-1.483,3.594,3.594,0,0,1-.924-1.863A3.6,3.6,0,0,1,23.7,9.527a7.358,7.358,0,0,0,.918-1.483,7.754,7.754,0,0,0,.423-1.754,3.605,3.605,0,0,1,.642-1.915A3.606,3.606,0,0,1,27.6,3.734a7.759,7.759,0,0,0,1.754-.423,7.357,7.357,0,0,0,1.483-.918A3.6,3.6,0,0,1,32.7,1.47a3.6,3.6,0,0,1,1.863.924,7.358,7.358,0,0,0,1.483.918,7.754,7.754,0,0,0,1.754.423,3.605,3.605,0,0,1,1.915.642,3.606,3.606,0,0,1,.642,1.915,7.759,7.759,0,0,0,.423,1.754A7.357,7.357,0,0,0,41.7,9.527a3.594,3.594,0,0,1,.924,1.863,3.6,3.6,0,0,1-.924,1.863,7.358,7.358,0,0,0-.918,1.483,7.754,7.754,0,0,0-.423,1.754,3.605,3.605,0,0,1-.642,1.915,3.606,3.606,0,0,1-1.915.642,7.759,7.759,0,0,0-1.754.423,7.361,7.361,0,0,0-1.483.918A3.6,3.6,0,0,1,32.7,21.311Zm9.978,8.72-1.707-1.706a3.658,3.658,0,0,0-2.081-1.038l.075-.075a2.208,2.208,0,0,1,3.119,0l1.707,1.707Z"/>
    </g>
  </g>
</svg>
