<svg xmlns="http://www.w3.org/2000/svg" xmlns:xlink="http://www.w3.org/1999/xlink" width="190" height="371" viewBox="0 0 190 371">
  <defs>
    <clipPath id="clip-path">
      <rect id="Rectángulo_402128" data-name="Rectángulo 402128" width="190" height="371" rx="8" transform="translate(1125 4332)" fill="#b0dcae"/>
    </clipPath>
    <clipPath id="clip-path-2">
      <rect id="Rectángulo_402127" data-name="Rectángulo 402127" width="208.351" height="405.229" fill="none"/>
    </clipPath>
  </defs>
  <g id="Grupo_1101713" data-name="Grupo 1101713" transform="translate(-1125 -4332)">
    <rect id="Rectángulo_401949" data-name="Rectángulo 401949" width="163.905" height="371" rx="8" transform="translate(1125 4332)" fill="#b0dcae"/>
    <g id="Enmascarar_grupo_1098722" data-name="Enmascarar grupo 1098722" clip-path="url(#clip-path)">
      <g id="Grupo_1101140" data-name="Grupo 1101140" transform="translate(1125 4332)">
        <g id="Grupo_1101139" data-name="Grupo 1101139" clip-path="url(#clip-path-2)">
          <path id="Trazado_878425" data-name="Trazado 878425" d="M86.273,248.187c.57,5.693,4.552,30.058,5.35,41.1s-3.983,14.231-11.383,19.354c11.043,4.782,25.275-3.642,25.047-3.984-.911-6.946-1.821-22.886-.683-34.27s1.025-25.047,1.025-25.047Z" transform="translate(29.385 89.849)" fill="#a66537"/>
          <path id="Trazado_878426" data-name="Trazado 878426" d="M120.073,245.175c1.48,4.554,12.295,36.09,12.751,47.248s.227,15.713-.683,16.964-4.554,5.123-4.554,5.123l8.311-3.872,11.841-19.81s-4.9-7.629-5.578-15.712-6.035-38.026-6.035-38.026Z" transform="translate(43.973 86.827)" fill="#a66537"/>
          <path id="Trazado_878427" data-name="Trazado 878427" d="M79.359,126.556c-4.1,13.321-9.905,42.353-4.44,84.023S88.24,289.819,88.24,295.284c14.345,1.025,20.493-1.366,20.493-1.366,3.416-15.028,1.366-39.279-2.732-52.941s1.708-37.913,1.708-37.913c6.49,36.546,27.324,81.29,30.057,87.1a109.984,109.984,0,0,1,17.078-7.173c2.049-18.1-16.053-42.353-16.053-64.212s6.831-58.064-10.93-86.413c-1.708-3.757-2.049-11.271-2.049-11.271Z" transform="translate(26.621 44.346)" fill="#1f444d"/>
          <path id="Trazado_878428" data-name="Trazado 878428" d="M103.653,61.4c3.928-.085,8.2,1.537,8.8,10.247-22.713,10.845-30.74-2.22-29.2-4.356s12.808-4.354,20.407-5.891" transform="translate(30.419 22.487)" fill="#f7cabc"/>
          <path id="Trazado_878429" data-name="Trazado 878429" d="M68.133,24.891c-4.1,6.6-2.846,13.319,2.961,15.255a72.02,72.02,0,0,0,.8-17.3Z" transform="translate(24.072 8.365)"/>
          <path id="Trazado_878430" data-name="Trazado 878430" d="M107.477,62.68s19.727-22.955.944-39.708c-7.813-11.437-34.061-8.9-37.947,4.416s2.865,17.206-.316,18.59A41.931,41.931,0,0,0,64.933,48.5l6,3.8s4.555,22.443,19.583,17.776c.929,4.274,2.746,12.766,3.984,18.387-6.917,5.891-11.792,19.193-10.845,19.3s27.441-11.48,28.283-21.713l.437-.26Z" transform="translate(23.78 5.755)" fill="#a66537"/>
          <path id="Trazado_878431" data-name="Trazado 878431" d="M126.633,132.423c.683,4.782,2.391,20.835,1.879,23.4s-6.319,11.442-5.806,11.613,15.028,1.025,15.028,1.025,1.366-25.787,1.025-35.351c-2.391-1.708-12.125-.683-12.125-.683" transform="translate(44.926 48.384)" fill="#a66537"/>
          <path id="Trazado_878432" data-name="Trazado 878432" d="M124.239,127.258c.115,2.049.57,8.88.57,8.88,2.846,1.251,13.889,1.706,14.8-.115a25.348,25.348,0,0,0,0-7.628Z" transform="translate(45.499 46.604)" fill="#f77e56"/>
          <path id="Trazado_878433" data-name="Trazado 878433" d="M123.739,127.442c.171,2.961.372,5.921.57,8.88a.713.713,0,0,0,.5.659c3.835,1.5,8.863,1.413,12.867.848,4.453-.628,3.294-6.03,2.773-9.431a.687.687,0,0,0-.659-.5l-15.37-1.138c-.88-.066-.873,1.3,0,1.366l8.894.659,5.1.378,1.25.092c-.279-.019-.592-1-.449.164.086.7.126,1.406.167,2.109.074,1.277.358,4.334-1.128,4.789a13.173,13.173,0,0,1-3.119.391,36.009,36.009,0,0,1-7.761-.458c-.848-.138-1.76-.788-1.706.005l-.131-1.974c-.15-2.279-.3-4.558-.434-6.838-.051-.876-1.417-.881-1.366,0" transform="translate(45.315 46.421)" fill="#f77e56"/>
          <path id="Trazado_878434" data-name="Trazado 878434" d="M102.134,64.591c-3.416,1.025-10.647,3.985-12.923,5.693s-41.9.57-44.4.456a57.1,57.1,0,0,0-5.237,19.7c7.741,3.187,33.246,12.979,39.62,13.434.227,11.157,2.276,16.505,2.846,24.249s1.139,18.219,3.3,19.357,14.915.34,22.771,2.276,22.25-2.723,28.008-4.782c1.593-.57,2.961-.568,3.187-1.48s1.366-23.227,1.366-23.227,7.969,17.194,8.994,29.262c2.277,3.3,19.582,3.3,22.2,2.276s2.051-22.543.228-29.146S156.954,104.211,150.919,95.1c-4.439-6.7-12.211-19.669-22.97-24.451-3.383-1.5-3.685-5.159-6.062-5.55-9.905,10.588-13.778,9.737-27.326,21.8,1.068-4.727,7.615-15.273,8.753-16.3a20.308,20.308,0,0,0-1.18-6.02" transform="translate(14.492 23.655)" fill="#f7cabc"/>
          <path id="Trazado_878435" data-name="Trazado 878435" d="M75.713,39.584a2.444,2.444,0,0,0-.34-3.319,1.355,1.355,0,0,0-2.18.829,2.787,2.787,0,0,0,.788,2.612,1.351,1.351,0,0,0,2.217-.813,3.335,3.335,0,0,0-.917-2.879,1.417,1.417,0,0,0-2.381.725A2.9,2.9,0,0,0,74.061,39.6c1.025.735,2.063-.317,2.163-1.32s-.724-2.717-1.974-1.958-.366,2.47.73,2.869a.679.679,0,0,0,.84-.477,1.69,1.69,0,0,0-.4-1.555c-.6-.645-1.567.324-.966.966.016.075.031.15.046.227l.842-.478A.7.7,0,0,1,75,37.364c.023.331-.344.04-.269.156a.971.971,0,0,1,.12.385.706.706,0,0,1-.074.546c-.049.053-.077-.008.068.016-.075-.014-.139-.09-.193-.142a1.527,1.527,0,0,1-.4-1.325c.034-.133.007-.053.055-.027a1.192,1.192,0,0,1,.387.555c.1.249.346.956.149,1.185.026-.03-.253-.541-.291-.7a1.435,1.435,0,0,1-.034-.56c.033-.2.093-.139-.064-.13.421-.026.495,1.057.3,1.291-.557.674.4,1.645.966.966" transform="translate(26.673 13.039)"/>
          <path id="Trazado_878436" data-name="Trazado 878436" d="M77.463,28.564c-1.687-.8-3.436-1.772-5.358-1.72a.684.684,0,0,0,0,1.366c1.672-.046,3.2.839,4.67,1.533.791.376,1.485-.8.689-1.179" transform="translate(26.165 9.83)"/>
          <path id="Trazado_878437" data-name="Trazado 878437" d="M70.406,48.11c3.525.62,6.716-.641,9.635-2.573.731-.484.048-1.668-.689-1.18-2.577,1.705-5.443,2.988-8.583,2.436-.862-.152-1.231,1.165-.363,1.317" transform="translate(25.603 16.202)"/>
          <path id="Trazado_878438" data-name="Trazado 878438" d="M78.1,44.706c-1.048,2.679-3.25,4.6-5.2,6.615a.686.686,0,0,0,.828,1.072,1.437,1.437,0,0,0,.417-.415c.518-.715-.668-1.395-1.18-.69l.075-.074.827,1.072C76,50.071,78.268,48,79.416,45.07c.321-.821-1-1.175-1.318-.363" transform="translate(26.626 16.204)"/>
          <path id="Trazado_878439" data-name="Trazado 878439" d="M82.936,57.834a17.921,17.921,0,0,0,10.73-4.64c.633-.613-.333-1.579-.966-.967a16.578,16.578,0,0,1-9.764,4.241c-.878.037-.88,1.4,0,1.366" transform="translate(30.131 19.055)"/>
          <path id="Trazado_878440" data-name="Trazado 878440" d="M80.65,28.818c1.481,5.465,3.87,20.265,8.2,21.631s2.847-4.668,1.594-9.564c3.757,8.084,6.376,11.5,8.2,10.7-1.708,5.465-.911,17.078,3.757,9.792,1.253,7.628,3.3,10.928,6.49,10.7s4.327-4.9,4.327-4.9c2.049,7.969,6.26,9.109,9.107,7.742s2.279-7.741.8-11.613c7.4,7.969,15.255,7.058,9.335-7.287,10.247,8.88,18.557,1.139,2.732-8.766,10.36.227,13.094-2.279,4.668-7.857,7.969.57,7.058-6.944-.228-8.311,6.944-.455,3.529-7.173-2.049-7.286,9.564-.228-1.253-7.628-12.638-6.944,10.133-1.936,10.245-2.165,9.562-3.758s-7.628-6.035-18.557-1.251c2.391-9.79-2.846-16.621-4.667-2.163-6.49-10.7-15.369-13.435-10.7-3.644C90.1.127,80.2,2.177,81.79,6.047c-11.594-2.667-12.6,6.3-2.458,6.72-15.6-.8-22.819,4.778-21.566,8.763s12.524.115,12.524.115c-15.483,5.92-15.027,12.3-14.117,13.662s8.539-2.961,8.539-2.961c-8.767,7.628-4.511,11.519-2.051,10.815C69.036,41.341,73.819,30.3,80.65,28.818" transform="translate(20.436 0)"/>
          <path id="Trazado_878441" data-name="Trazado 878441" d="M75.382,77.847a8.656,8.656,0,0,1,1.273-5.291l-1.072.139a15.114,15.114,0,0,1,2.1,3.648,13.925,13.925,0,0,0,2.769,3.439c.641.6,1.608-.361.966-.966A13.534,13.534,0,0,1,78.5,74.965a11.942,11.942,0,0,0-1.955-3.237.694.694,0,0,0-1.074.138,9.875,9.875,0,0,0-1.459,5.981c.064.873,1.43.878,1.366,0" transform="translate(27.097 26.196)"/>
          <path id="Trazado_878442" data-name="Trazado 878442" d="M75.044,77.837a13.253,13.253,0,0,1,2.85-2.027c.724-.493.041-1.678-.689-1.18a14.571,14.571,0,0,0-3.127,2.242c-.57.665.392,1.637.966.966" transform="translate(27.065 27.287)"/>
          <path id="Trazado_878443" data-name="Trazado 878443" d="M75.795,74.641c.858-2.275,3.336-3.279,5.321-4.373,2.335-1.288,4.291-3.622,6.838-4.457.835-.273.477-1.593-.362-1.317-3.015.988-5.42,3.659-8.218,5.167-2.079,1.122-4.032,2.324-4.9,4.616-.31.827,1.01,1.18,1.318.363" transform="translate(27.258 23.605)"/>
          <path id="Trazado_878444" data-name="Trazado 878444" d="M80.738,85.949a49.778,49.778,0,0,1,7.219-5.7c1.552-1.067,3.239-2.48,5.392-.619,1.078.933,1.773,2.638,2.454,3.875a.686.686,0,0,0,.934.246,90.07,90.07,0,0,0,10.182-7.3c2.213-1.914,6.091-4.649,6.868-7.622a.683.683,0,0,0-1.317-.363c-.388,1.484-2.034,2.671-3.058,3.726-1.389,1.432-2.859,2.776-4.369,4.08a79.441,79.441,0,0,1-9,6.3l.934.245c-1.105-2.007-3.006-6.231-6.02-5.544-4.1.936-8.286,4.8-11.192,7.712a.683.683,0,0,0,.966.966" transform="translate(29.14 24.895)"/>
          <path id="Trazado_878445" data-name="Trazado 878445" d="M100.067,63.42c.521.243.208,1.455.041,1.806a6.714,6.714,0,0,1-1.46,1.732.683.683,0,0,0,.966.966,5.807,5.807,0,0,0,2.042-3.115c.117-.885.018-2.141-.9-2.568-.792-.37-1.488.807-.689,1.179" transform="translate(36.052 22.768)"/>
          <path id="Trazado_878446" data-name="Trazado 878446" d="M80.1,81.641c-.605,5.25-2.783,10.184-3.978,15.313a31.352,31.352,0,0,0-.109,13.48c.993,4.873,2.291,9.646,3.176,14.55a106.381,106.381,0,0,0,3.668,15.244c.28.829,1.6.473,1.317-.363-3.135-9.279-4.207-19.141-6.574-28.626a31.944,31.944,0,0,1,.425-16.283c1.171-4.453,2.91-8.715,3.441-13.315.1-.874-1.266-.865-1.366,0" transform="translate(27.588 29.66)"/>
          <path id="Trazado_878447" data-name="Trazado 878447" d="M90.7,78.432c-4.7,9.506-8.062,19.3-8.163,30-.053,5.723,1.476,11.221,2.854,16.723.7,2.778,1.2,5.612,1.824,8.409.6,2.678,1.533,5.479,1.514,8.231a.683.683,0,0,0,1.366,0c.031-4.347-1.626-8.946-2.586-13.161-1.333-5.841-3.07-11.7-3.526-17.691-.853-11.192,3.015-21.958,7.9-31.821.389-.787-.788-1.48-1.179-.69" transform="translate(30.227 28.596)" fill="#f77e56"/>
          <path id="Trazado_878448" data-name="Trazado 878448" d="M99.673,76.057A115.142,115.142,0,0,0,94,90.924c-1.9,5.625-3.575,11.31-3.761,17.276-.163,5.233.97,10.478,2.014,15.572,1.253,6.107,3.26,12.643,3.227,18.892a.684.684,0,0,0,1.366,0c.025-4.89-1.424-9.625-2.3-14.4-1.082-5.884-2.555-11.666-2.9-17.662-.339-5.846,1.172-11.4,2.9-16.919a112.97,112.97,0,0,1,6.313-16.933c.393-.786-.784-1.478-1.179-.69" transform="translate(33.042 27.726)" fill="#f77e56"/>
          <path id="Trazado_878449" data-name="Trazado 878449" d="M109.295,72.053c-3.082,5.29-4.9,11.135-6.977,16.863a97.669,97.669,0,0,0-4.9,19.331c-.878,6.114-.03,12,1.432,17.949,1.5,6.111,2.511,12.587,4.629,18.508.3.824,1.616.469,1.318-.362-1.854-5.188-2.534-10.717-3.981-16.027-1.9-6.98-2.937-13.735-1.9-20.946a98.268,98.268,0,0,1,4.317-16.918c2-6.013,4.048-12.219,7.246-17.709a.683.683,0,0,0-1.179-.69" transform="translate(35.545 26.266)" fill="#f77e56"/>
          <path id="Trazado_878450" data-name="Trazado 878450" d="M104.905,94.09a49.19,49.19,0,0,0-.452,19.014c.757,4.049,1.176,8.16,1.611,12.254.339,3.209,1.16,6.688,1.094,9.9a.684.684,0,0,0,1.366,0c.059-2.884-.664-5.79-.966-8.66-.31-2.969-.609-5.942-1.019-8.9-.507-3.651-1.3-7.256-1.5-10.942a49.24,49.24,0,0,1,1.18-12.306c.174-.861-1.144-1.227-1.318-.363" transform="translate(37.987 34.277)" fill="#f77e56"/>
          <path id="Trazado_878451" data-name="Trazado 878451" d="M108.7,99.64c1.321,10.508.761,21.1,1.287,31.659.045.876,1.411.88,1.366,0-.526-10.555.034-21.152-1.287-31.659-.108-.862-1.476-.873-1.366,0" transform="translate(39.805 36.252)" fill="#f77e56"/>
          <path id="Trazado_878452" data-name="Trazado 878452" d="M103.419,84.989c5.7,9,14.224,15.6,19.542,24.921a77.826,77.826,0,0,1,6.962,16.554c.765,2.581,1.46,5.168,2.267,7.737.654,2.086,2.238,5.286,2.047,7.483-.078.877,1.29.87,1.366,0,.142-1.637-.657-3.125-1.22-4.622-1.036-2.749-1.738-5.815-2.5-8.656a82.335,82.335,0,0,0-5.981-15.936,64.975,64.975,0,0,0-9.111-13.625C112.611,94.061,108.022,89.7,104.6,84.3c-.469-.742-1.653-.056-1.179.69" transform="translate(37.834 30.755)" fill="#f77e56"/>
          <path id="Trazado_878453" data-name="Trazado 878453" d="M104.925,79.732c3.544,4.772,7.38,9.292,10.788,14.169,3.723,5.328,7.032,10.763,10.473,16.266,3.425,5.479,6.682,10.613,8.751,16.8,1.04,3.105,1.922,6.263,2.965,9.367.328.977,2.844,6.132,2.375,7.1-.385.787.792,1.481,1.179.687.549-1.122.164-2.015-.311-3.116a100.722,100.722,0,0,1-3.413-9.7,73.9,73.9,0,0,0-7.808-17.825c-3.636-5.757-6.932-11.706-10.886-17.254-4.171-5.852-8.652-11.411-12.933-17.176-.519-.7-1.705-.019-1.179.69" transform="translate(38.378 28.84)" fill="#f77e56"/>
          <path id="Trazado_878454" data-name="Trazado 878454" d="M107.888,76.015c8.737,10.446,16.168,21.911,24.334,32.791a45.25,45.25,0,0,1,8.315,17.213,178.1,178.1,0,0,1,4.04,19.7l1.272-.343a1.04,1.04,0,0,0-.93-.511c-.878-.079-.87,1.288,0,1.366l-.249-.168c.346.485,1.366.4,1.273-.344-.8-6.373-2.425-12.629-3.817-18.893a44.384,44.384,0,0,0-8.054-17.821C125.64,97.72,117.9,85.869,108.854,75.049c-.566-.676-1.526.3-.966.966" transform="translate(39.449 27.401)" fill="#f77e56"/>
          <path id="Trazado_878455" data-name="Trazado 878455" d="M78.981,78.553c-5.173,8.969-7.4,19.544-7.331,29.814a109.116,109.116,0,0,0,1.829,16.981c.839,5.082.948,10.733,2.87,15.553.264.657,1.418.649,1.343-.18a1.042,1.042,0,0,0-.51-.932c-.719-.514-1.4.672-.689,1.179l-.168-.247,1.342-.182c-1.648-4.131-1.678-8.689-2.44-13.032a146.641,146.641,0,0,1-2.122-16.546c-.652-10.816,1.605-22.269,7.054-31.717a.683.683,0,0,0-1.179-.69" transform="translate(26.239 28.646)" fill="#f77e56"/>
          <path id="Trazado_878456" data-name="Trazado 878456" d="M43.321,73.93c7.07,1.426,14.655,1.649,21.843,2.189,3.745.281,7.48.551,11.213.974,1.205.137,3.636.738,4.667-.093.686-.553-.287-1.514-.966-.967-.631.51-4.813-.434-5.664-.541-3.5-.44-7.054-.574-10.572-.839-6.618-.5-13.658-.728-20.157-2.04-.861-.174-1.227,1.144-.363,1.317" transform="translate(15.685 26.587)" fill="#f77e56"/>
          <path id="Trazado_878457" data-name="Trazado 878457" d="M41.916,77.482c5.332,2.361,11.308,2.693,16.988,3.745,3.372.626,6.786.851,10.158,1.485a40.045,40.045,0,0,0,8.55.84c.878-.03.881-1.4,0-1.366C72.029,82.375,65.918,81,60.4,80.11c-5.852-.943-12.34-1.392-17.8-3.808-.8-.354-1.493.824-.689,1.179" transform="translate(15.219 27.92)" fill="#f77e56"/>
          <path id="Trazado_878458" data-name="Trazado 878458" d="M40.937,81.189c5.507,2.144,11.237,3.86,16.923,5.465,2.883.816,5.7,1.887,8.542,2.825,2.764.911,5.735,1.28,8.357,2.571.787.388,1.48-.791.689-1.18a33.272,33.272,0,0,0-6.2-1.947c-3.32-.906-6.543-2.161-9.816-3.216-6.047-1.95-12.206-3.528-18.134-5.835-.822-.32-1.175,1-.363,1.317" transform="translate(14.824 29.233)" fill="#f77e56"/>
          <path id="Trazado_878459" data-name="Trazado 878459" d="M72.249,80.268c-.109,3.364-1.456,6.9-2.025,10.236-.579,3.407-1.113,6.875-1.879,10.247-.2.858,1.123,1.223,1.317.363.855-3.769,1.436-7.648,2.085-11.458.529-3.112,1.765-6.24,1.868-9.387.027-.881-1.339-.878-1.366,0" transform="translate(25.022 29.154)"/>
          <path id="Trazado_878460" data-name="Trazado 878460" d="M108.782,74.8c-5.346,6.271-8.033,15.608-5.082,23.526,3.64,9.77,13.345,15.963,17.373,25.638.333.8,1.656.451,1.318-.362-3.257-7.824-9.509-13.521-14.36-20.3-6.119-8.547-5.045-19.605,1.717-27.539.568-.667-.393-1.638-.966-.966" transform="translate(37.531 27.31)"/>
          <path id="Trazado_878461" data-name="Trazado 878461" d="M71.124,101.083c3.743.231,6.925,2.291,10.244,3.835,4.018,1.869,8.118,3.558,12.125,5.465.79.376,1.484-.8.689-1.18-4.291-2.042-8.678-3.861-12.983-5.864-3.309-1.54-6.346-3.392-10.075-3.622-.881-.055-.876,1.312,0,1.366" transform="translate(25.806 36.518)"/>
          <path id="Trazado_878462" data-name="Trazado 878462" d="M75.441,104.687c2.82.909,5.059,2.911,7.693,4.2.787.385,1.48-.792.689-1.179-2.746-1.344-5.074-3.388-8.018-4.339-.842-.271-1.2,1.049-.363,1.318" transform="translate(27.454 37.842)"/>
          <path id="Trazado_878463" data-name="Trazado 878463" d="M80.92,84.966h-.171a.683.683,0,0,0,0,1.366h.171a.684.684,0,0,0,0-1.366" transform="translate(29.33 31.116)" fill="#f77e56"/>
          <path id="Trazado_878464" data-name="Trazado 878464" d="M78.749,92.707a.684.684,0,0,0,0-1.366.684.684,0,0,0,0,1.366" transform="translate(28.597 33.451)" fill="#f77e56"/>
          <path id="Trazado_878465" data-name="Trazado 878465" d="M78.124,100.207a.684.684,0,0,0,0-1.366.684.684,0,0,0,0,1.366" transform="translate(28.369 36.198)" fill="#f77e56"/>
          <path id="Trazado_878466" data-name="Trazado 878466" d="M80.249,111.957a.684.684,0,0,0,0-1.366.684.684,0,0,0,0,1.366" transform="translate(29.147 40.501)" fill="#f77e56"/>
          <path id="Trazado_878467" data-name="Trazado 878467" d="M81.874,119.082a.684.684,0,0,0,0-1.366.684.684,0,0,0,0,1.366" transform="translate(29.742 43.11)" fill="#f77e56"/>
          <path id="Trazado_878468" data-name="Trazado 878468" d="M83.249,124.082a.684.684,0,0,0,0-1.366.684.684,0,0,0,0,1.366" transform="translate(30.245 44.941)" fill="#f77e56"/>
          <path id="Trazado_878469" data-name="Trazado 878469" d="M47.8,98.105C45.071,95.145,21.049,61.9,19.113,59.395s-8.54-5.465-10.361-7.628-2.618-6.261-2.276-6.831,1.48-3.074,1.48-3.074C4.507,37.094-.213,31.678.008,29.3c.146-1.59,7.263,4.366,10.452,8.35,4.44,0,9.45,1.025,11.158,4.782s2.392,8.083,5.01,11.157S57.6,83.418,57.709,83.76,47.8,98.105,47.8,98.105" transform="translate(0 10.634)" fill="#a66537"/>
          <path id="Trazado_878470" data-name="Trazado 878470" d="M47.927,69.207c-.8-.57-1.821-.8-2.5-1.366-2.706,1.708-5.5,6.973-8,10.5-1.025,1.48-3.245,4.212-2.9,6.149.5,2.506,2.75,3.474,3.275,4.525a10.2,10.2,0,0,0,4.44,4.325,17.371,17.371,0,0,1,.342-2.391c.115-.683-.113-1.48,0-2.163.115-1.708.456-3.3.57-5.123a29.426,29.426,0,0,1,2.391-9.792,23.992,23.992,0,0,0,2.163-4.1" transform="translate(12.628 24.845)" fill="#f77e56"/>
          <path id="Trazado_878471" data-name="Trazado 878471" d="M48.425,68.8c-.833-.471-1.689-.862-2.5-1.366a.667.667,0,0,0-.689,0c-2.342,1.686-3.909,4.162-5.47,6.543-1.68,2.563-4.112,5.254-5.249,8.11-.93,2.34-.378,4.058,1.306,5.88,2.045,2.213,3.51,4.644,6.224,6.148a.692.692,0,0,0,1.027-.589c.456-4.256.616-8.553,1.3-12.793a27.112,27.112,0,0,1,1.9-6.331c.635-1.481,1.689-2.722,2.231-4.263.294-.832-1.026-1.187-1.317-.362-.642,1.823-1.924,3.3-2.6,5.11a34.6,34.6,0,0,0-1.721,6.6c-.645,3.983-.742,8.037-1.171,12.039l1.027-.59c-2.212-1.225-2.922-2.907-4.573-4.612a23.262,23.262,0,0,1-2.246-2.377c-1.48-2.018.247-4.186,1.32-5.763,1.441-2.122,2.873-4.243,4.282-6.39a35.325,35.325,0,0,1,2.8-3.752c1.182-1.366,2.092-.816,3.425-.063a.683.683,0,0,0,.689-1.179" transform="translate(12.475 24.661)" fill="#f77e56"/>
          <path id="Trazado_878472" data-name="Trazado 878472" d="M4.688,37.858C5.721,40.316,8.174,42,8.9,44.576a.684.684,0,0,0,1.318-.363c-.746-2.64-3.174-4.242-4.213-6.718-.336-.8-1.659-.448-1.318.363" transform="translate(1.696 13.566)"/>
          <path id="Trazado_878473" data-name="Trazado 878473" d="M7.589,44.165A18.961,18.961,0,0,1,8.5,42.115c.466-.751-.716-1.436-1.179-.69a18.932,18.932,0,0,0-.911,2.049c-.373.792.806,1.486,1.179.69" transform="translate(2.321 15.053)"/>
          <path id="Trazado_878474" data-name="Trazado 878474" d="M7.009,35.773c1.228,1.648,3.037,2.754,4.213,4.44.5.716,1.685.034,1.179-.69-1.185-1.7-2.984-2.794-4.213-4.44-.521-.7-1.706-.018-1.179.69" transform="translate(2.519 12.741)"/>
          <path id="Trazado_878475" data-name="Trazado 878475" d="M10.666,36.441c1.653.777,2.523,2.622,3.618,3.992.551.689,1.511-.286.966-.966-1.182-1.48-2.1-3.364-3.9-4.205-.791-.373-1.486.8-.689,1.179" transform="translate(3.777 12.887)"/>
          <path id="Trazado_878476" data-name="Trazado 878476" d="M13.662,37.456c.335.682.631,1.384.962,2.07a4.268,4.268,0,0,0,1.22,1.818c.743.478,1.428-.7.689-1.179a6.734,6.734,0,0,1-.8-1.484c-.306-.634-.578-1.284-.888-1.915-.388-.791-1.566-.1-1.179.69" transform="translate(4.975 13.336)"/>
          <path id="Trazado_878477" data-name="Trazado 878477" d="M107.8,131.363c3.384,5.233,5.122,11.389,7.028,17.272,1.06,3.271,2.053,6.551,2.827,9.905.6,2.6,1.455,6.19.664,8.844a.684.684,0,0,0,1.318.363c.663-2.23.12-4.585-.146-6.842a63.227,63.227,0,0,0-2.954-11.42c-2.025-6.378-3.894-13.144-7.558-18.81-.475-.738-1.66-.053-1.179.689" transform="translate(39.435 47.739)"/>
          <path id="Trazado_878478" data-name="Trazado 878478" d="M166.069,199.778c.675-4.641,2.489-18.679,2.485-27.285s-.133-12.162-1.034-12.426-24.048-2-36.161-2.053-20.034-1.012-20.407.245-.909,16.358-1.292,22.306-.959,13.209-.971,14.575-.4,2.034,2.508,2.108,17.53,2.231,27.7,2.883,20.022.672,21.981.659,4.995.3,5.189-1.011" transform="translate(39.795 57.722)" fill="#20bfad"/>
          <path id="Trazado_878479" data-name="Trazado 878479" d="M160.121,193.955c.381-3.063.716-18.85,1.168-23.481s.025-7.685-.542-7.979-20.131-.978-29.71-1.288-13.986-.724-14.166-.115-1.92,26.04-1.771,28.2-.167,2.338,1.95,2.693,32.927,2.689,36.067,2.686,6.8.414,7-.717" transform="translate(42.149 58.881)" fill="#fff"/>
          <path id="Trazado_878480" data-name="Trazado 878480" d="M112.954,183.408c2.339.176,6.837,2.015,7.981-4.2s1.194-10.009-.611-11.523-6.485-1.221-6.878-.559-.941,7.839-1.09,9.359-.742,6.82.6,6.923" transform="translate(41.051 61.008)" fill="#4c8491"/>
          <path id="Trazado_878481" data-name="Trazado 878481" d="M114.747,178.927a32.025,32.025,0,0,1-5.917,2.82c-.548.1-1.165-.477-.862-2.6s.627-8.093.78-9.288.25-3.055,2.044-1.616a23.982,23.982,0,0,0,4.562,2.65l-.717,7.74" transform="translate(39.511 61.423)" fill="#4c8491"/>
          <path id="Trazado_878482" data-name="Trazado 878482" d="M125.324,157.767c.455,2.732-.342,12.694.171,18.074,3.245,8.539,6.434-1.31,7.685-5.977.085,3.757.171,6.29,1.2,6.062s3.018-15.2,2.448-18.272c-1.366-4.782-11.5.113-11.5.113" transform="translate(45.893 56.968)" fill="#a66537"/>
          <path id="Trazado_878483" data-name="Trazado 878483" d="M128.222,160.631a44.875,44.875,0,0,1-.943,8c-.316,1.827-.46,4.2-1.583,5.744-.519.713.668,1.394,1.18.689,1.217-1.672,1.376-4.1,1.719-6.069a46.189,46.189,0,0,0,.993-8.367.683.683,0,0,0-1.366,0" transform="translate(45.985 58.584)"/>
          <path id="Trazado_878484" data-name="Trazado 878484" d="M130.012,161.518c-.124,4.381-1.59,8.5-2.253,12.8-.133.862,1.183,1.231,1.317.363.68-4.414,2.175-8.659,2.3-13.161a.683.683,0,0,0-1.366,0" transform="translate(46.785 58.909)"/>
          <path id="Trazado_878485" data-name="Trazado 878485" d="M131.844,161.4c-.712,2.431-.437,5.138-1.366,7.514-.32.822,1,1.174,1.318.363.926-2.376.656-5.091,1.366-7.514a.684.684,0,0,0-1.318-.363" transform="translate(47.765 58.932)"/>
          <path id="Trazado_878486" data-name="Trazado 878486" d="M124.764,155.953a7.406,7.406,0,0,1,0,3.507.684.684,0,0,0,1.318.363,8.91,8.91,0,0,0,0-4.234c-.179-.861-1.5-.5-1.318.363" transform="translate(45.68 56.8)"/>
          <path id="Trazado_878487" data-name="Trazado 878487" d="M85.088,126.588c-1.138,4.4-.887,8.976-.925,13.487-.044,5.334.369,10.747.73,16.068a.694.694,0,0,0,1.027.589c1.6-.7,2.657-2.369,4.056-3.416.9-.674.9-2.006,1.012-3.007.3-2.622-.127-5.425-.108-8.068.023-2.851.536-5.633.672-8.471.044-.881-1.322-.877-1.366,0-.2,4.049-.745,7.972-.659,12.051.034,1.679.821,5.521-.79,6.726-1.191.889-2.139,2.41-3.507,3l1.027.59c-.307-4.544-.515-9.107-.686-13.659-.189-5.058-.441-10.611.833-15.533a.684.684,0,0,0-1.318-.363" transform="translate(30.821 46.181)"/>
          <path id="Trazado_878488" data-name="Trazado 878488" d="M77.819,132.323c7.425,2.053,15.2,1.486,22.8,1.083,4.253-.224,8.492-.579,12.714-1.139,3.585-.478,6.917-1.623,10.442-2.335.862-.175.5-1.492-.363-1.318-3.832.775-7.438,1.936-11.341,2.454-3.8.505-7.629.756-11.452.973-7.462.426-15.154.98-22.442-1.036a.684.684,0,0,0-.363,1.318" transform="translate(28.322 47.095)"/>
          <path id="Trazado_878489" data-name="Trazado 878489" d="M79.816,127.744l.105-.044h-.69c-.193-.406-.3-.441-.312-.108q-.057.234-.119.467a5.784,5.784,0,0,0-.183.973c-.115,1.314-.171,2.609-.171,3.928a.683.683,0,0,0,1.366,0,20.485,20.485,0,0,1,.424-5.006c.209-.835-.048-1.844-1.109-1.389-.809.346-.112,1.522.689,1.179" transform="translate(28.729 46.309)"/>
          <path id="Trazado_878490" data-name="Trazado 878490" d="M97.447,127.768v4.782a.683.683,0,0,0,1.366,0v-4.782a.683.683,0,0,0-1.366,0" transform="translate(35.687 46.549)"/>
          <path id="Trazado_878491" data-name="Trazado 878491" d="M100.468,132.453c1.537,7.368,6.413,19.664,16.031,15.266a.683.683,0,0,0,.139-1.072,1.284,1.284,0,0,0-.825-.372c-.872-.109-.861,1.258,0,1.366l-.141-.029q.068-.537.138-1.072c-8.584,3.924-12.713-8.16-14.024-14.451-.18-.861-1.5-.5-1.318.363" transform="translate(36.787 48.194)"/>
          <path id="Trazado_878492" data-name="Trazado 878492" d="M99.322,132.768c.152,4.575,1.548,9.909,4.524,13.513,3.338,4.04,8.155,4.6,13.077,3.54.862-.184.5-1.5-.363-1.317-5.145,1.109-9.646.159-12.56-4.4a23.06,23.06,0,0,1-3.312-11.333c-.03-.88-1.4-.883-1.366,0" transform="translate(36.374 48.38)"/>
          <path id="Trazado_878493" data-name="Trazado 878493" d="M82.81,158.456a20.1,20.1,0,0,1,5.112.2c2.133.234,4.209-.122,6.308.488a.684.684,0,0,0,.363-1.318,21.721,21.721,0,0,0-5.831-.493c-2.145-.033-4.164-.5-6.316-.19-.869.126-.5,1.443.363,1.318" transform="translate(30.012 57.508)"/>
          <path id="Trazado_878494" data-name="Trazado 878494" d="M83.809,161.117a32.473,32.473,0,0,1,6.82-.659.683.683,0,0,0,0-1.366,34.193,34.193,0,0,0-7.184.706c-.859.189-.5,1.506.363,1.318" transform="translate(30.38 58.263)"/>
          <path id="Trazado_878495" data-name="Trazado 878495" d="M92.572,162.018c.246,4.484,2.417,8.626,3.765,12.852,1.676,5.259,2.685,10.693,4.115,16.02a.684.684,0,0,0,1.317-.363c-1.324-4.927-2.294-9.939-3.748-14.83-1.331-4.484-3.827-8.958-4.084-13.679-.048-.877-1.414-.881-1.366,0" transform="translate(33.901 59.093)"/>
          <path id="Trazado_878496" data-name="Trazado 878496" d="M117.344,188.018c-.018,5.772-.422,11.676.751,17.365,1.32,6.4,4.478,12.642,6.879,18.693,3.969,10,7.424,19.907,9.13,30.557.139.868,1.455.5,1.317-.363-1.639-10.229-4.872-19.762-8.665-29.385-2.287-5.8-4.834-11.564-6.716-17.505-1.962-6.194-1.351-12.954-1.331-19.361a.683.683,0,0,0-1.366,0" transform="translate(42.944 68.614)"/>
          <path id="Trazado_878497" data-name="Trazado 878497" d="M95.783,172.143c-.019,1.965-.634,3.836-.758,5.793-.134,2.131-.138,4.254-.321,6.39-.373,4.332-.582,8.669-.85,13.006-.526,8.492-1.283,16.91-.089,25.379,1.25,8.86,4.029,17.414,4.782,26.358a113.786,113.786,0,0,1,.025,13.1c-.1,3.293-1.239,6.611-.544,9.894.182.862,1.5.5,1.317-.363-.73-3.441.525-7.361.635-10.876a112.24,112.24,0,0,0-.171-12.971c-.657-7.805-2.925-15.4-4.331-23.082-1.59-8.7-.922-17.388-.342-26.152.287-4.327.475-8.656.824-12.979.174-2.157.4-4.3.419-6.468.02-2.395.747-4.649.769-7.024a.683.683,0,0,0-1.366,0" transform="translate(34.106 62.8)"/>
          <path id="Trazado_878498" data-name="Trazado 878498" d="M89.073,287.86c2.049-.113,5.465,2.619,5.578,5.01,7.059-3.757,13.89-6.946,13.89-6.946,1.251,5.123,1.906,8.681-1.823,9.678-5.608,1.5-23.112,3.872-27.324,4.44s-13.777,1.253-6.831-2.049,10.818-4.1,12.752-5.806a28.578,28.578,0,0,0,3.757-4.327" transform="translate(25.675 104.711)" fill="#f77e56"/>
          <path id="Trazado_878499" data-name="Trazado 878499" d="M131.44,287.138c1.56-1.333,5.934-1.232,7.475.6,3.331-7.27,6.827-13.948,6.827-13.948,4.1,3.312,6.783,5.744,4.422,8.8-3.548,4.592-11.014,16.153-14.769,18.143-9.45,5.01-19.074,4.089-12.3.456,6.375-3.416,7.479-5.8,7.98-8.327a28.586,28.586,0,0,0,.361-5.72" transform="translate(44.248 100.266)" fill="#f77e56"/>
          <path id="Trazado_878500" data-name="Trazado 878500" d="M83.009,247.714c3.189.683,19.526-.029,23.055-1.622a27.768,27.768,0,0,1,.428,7.171c-.113.8-15.881,2.732-22.144,2.164-1.366-.227-1.339-7.714-1.339-7.714" transform="translate(30.4 90.124)" fill="#4c8491"/>
          <path id="Trazado_878501" data-name="Trazado 878501" d="M118.461,243.934c3.257-.176,17.5-4.629,20.492-7.091a27.152,27.152,0,0,1,2.287,6.693c.1.8-13.818,6.459-20.012,7.55-1.377.139-2.767-7.152-2.767-7.152" transform="translate(43.383 86.737)" fill="#4c8491"/>
          <path id="Trazado_878502" data-name="Trazado 878502" d="M86.649,128.351c-.327.7-.6,1.593.061,2.186a.976.976,0,0,0,1.519-.3c.616-.982-.025-2.683-1.335-1.9a.684.684,0,0,0,.689,1.18c.336-.2-.439-.042-.471-.332a.628.628,0,0,1-.038.309c-.007.029-.053.075.048,0a.738.738,0,0,0,.553,0,1.8,1.8,0,0,1,.153-.455c.373-.792-.806-1.486-1.179-.689" transform="translate(31.607 46.875)"/>
          <path id="Trazado_878503" data-name="Trazado 878503" d="M80.91,132a81.8,81.8,0,0,0-2.443,9.83,11.95,11.95,0,0,1-2.023,4.9c-.18.206-1.824,2.068-1.59,2.168-.8-.342-1.5.836-.689,1.179,1.327.567,3.03-1.745,3.554-2.749,2.47-4.734,2.69-10.006,4.51-14.963.3-.829-1.016-1.185-1.318-.363" transform="translate(27.029 48.17)"/>
          <path id="Trazado_878504" data-name="Trazado 878504" d="M95.934,282.018a11.109,11.109,0,0,1-1.273,4.779c-.387.787.791,1.48,1.18.689a12.723,12.723,0,0,0,1.459-5.468.683.683,0,0,0-1.366,0" transform="translate(34.638 103.038)"/>
          <path id="Trazado_878505" data-name="Trazado 878505" d="M135.728,272.568a9.379,9.379,0,0,1,.659,3.575.683.683,0,0,0,1.366,0,10.477,10.477,0,0,0-.706-3.939c-.329-.8-1.652-.452-1.318.363" transform="translate(49.687 99.52)"/>
          <path id="Trazado_878506" data-name="Trazado 878506" d="M80.815,292.519c1.094.37,1.865,1.361,2.962,1.775a2.526,2.526,0,0,0,2.737-.675,1.786,1.786,0,0,0-.288-2.258c-.8-.948-2.161-1.186-3.176-1.8a.683.683,0,0,0-.689,1.179c.3.184,3.711,1.594,3,2.133s-1.622-.06-2.2-.47a7.8,7.8,0,0,0-1.984-1.2c-.837-.283-1.193,1.037-.363,1.318" transform="translate(29.424 106.006)"/>
          <path id="Trazado_878507" data-name="Trazado 878507" d="M128.728,287.08c1.46-.7,3.23.023,4.779-.078l-.683-.683a9.928,9.928,0,0,1-.342,2.049l.683-.683a20.869,20.869,0,0,0-4.622,1.049l.664,1.142c-.046.01-.094.02-.141.029.862-.108.873-1.476,0-1.366a1.294,1.294,0,0,0-.825.372.688.688,0,0,0,.665,1.142,19.331,19.331,0,0,1,4.259-1,.707.707,0,0,0,.683-.683,9.17,9.17,0,0,0,.342-2.049.7.7,0,0,0-.683-.683c-1.881.122-3.675-.6-5.468.265-.794.383-.1,1.559.689,1.179" transform="translate(46.762 104.544)"/>
          <path id="Trazado_878508" data-name="Trazado 878508" d="M112.891,169.79c-.406,2.876,0,6.018-.839,8.805a.684.684,0,0,0,1.317.363c.848-2.817.432-5.912.84-8.805.122-.861-1.2-1.234-1.318-.363" transform="translate(41.024 61.999)"/>
        </g>
      </g>
    </g>
  </g>
</svg>
