<svg xmlns="http://www.w3.org/2000/svg" width="81" height="81" viewBox="0 0 81 81">
  <g id="Grupo_1101819" data-name="Grupo 1101819" transform="translate(-180.051 -5019.428)">
    <g id="Grupo_1101714" data-name="Grupo 1101714" transform="translate(0 800.428)">
      <rect id="Rectángulo_401652" data-name="Rectángulo 401652" width="81" height="81" rx="40.5" transform="translate(180.051 4219)" fill="#c49927"/>
    </g>
    <g id="presupuesto" transform="translate(191.384 5032.214)">
      <path id="Trazado_879961" data-name="Trazado 879961" d="M138.708,17.428V50.134c0,.065,0,.131,0,.2a4.223,4.223,0,0,1-4.219,4.026h-23.74a4.222,4.222,0,0,1-4.223-4.222V12.267a4.216,4.216,0,0,1,4.223-4.223H129.6a4.209,4.209,0,0,1,1.834.42c1.141.549,1.462,1.243,3.512,3.339,2.359,2.561,2.922,2.823,3.4,3.932A4.176,4.176,0,0,1,138.708,17.428Z" transform="translate(-94.502 -7.173)" fill="#ffc477"/>
      <path id="Trazado_879962" data-name="Trazado 879962" d="M165.605,17.427V50.134c0,.065,0,.131,0,.2a4.236,4.236,0,0,1-.953.108h-23.74a4.222,4.222,0,0,1-4.223-4.222V8.348c0-.066,0-.132,0-.2a4.242,4.242,0,0,1,.953-.108H156.5a4.229,4.229,0,0,1,3.086,1.341l2.261,2.418,2.588,2.708a4.249,4.249,0,0,1,1.171,2.917Z" transform="translate(-121.399 -7.172)" fill="#ffdaaa"/>
      <path id="Trazado_879963" data-name="Trazado 879963" d="M277.856,180.864v23.742a5.968,5.968,0,0,1-5.968,5.968H256.382a5.968,5.968,0,0,1-5.968-5.968V180.864a5.965,5.965,0,0,1,5.968-5.968h15.507A5.967,5.967,0,0,1,277.856,180.864Z" transform="translate(-222.816 -155.963)" fill="#4cba68"/>
      <path id="Trazado_879964" data-name="Trazado 879964" d="M298.181,180.864v23.742a3.063,3.063,0,0,1-3.5,4.008H279.174a5.968,5.968,0,0,1-5.968-5.968V178.9a5.936,5.936,0,0,1,1.156-3.53,5.943,5.943,0,0,1,2.344-.479h15.507A5.967,5.967,0,0,1,298.181,180.864Z" transform="translate(-243.141 -155.963)" fill="#7ccc92"/>
      <path id="Trazado_879965" data-name="Trazado 879965" d="M360.612,366.861v2.788a.892.892,0,0,1-.891.892h-2.789a.892.892,0,0,1-.892-.892v-2.788a.892.892,0,0,1,.892-.892h2.789A.892.892,0,0,1,360.612,366.861Z" transform="translate(-317.007 -326.351)" fill="#2c733f"/>
      <path id="Trazado_879966" data-name="Trazado 879966" d="M307.537,209v2.988a1.924,1.924,0,0,1-1.924,1.924H290.221a1.925,1.925,0,0,1-1.924-1.924V209a1.925,1.925,0,0,1,1.924-1.924h15.392A1.924,1.924,0,0,1,307.537,209Z" transform="translate(-256.598 -184.661)" fill="#1e81ce"/>
      <path id="Trazado_879967" data-name="Trazado 879967" d="M334.433,209v2.988a1.924,1.924,0,0,1-1.924,1.924H320.382a1.925,1.925,0,0,1-1.924-1.924V209a1.925,1.925,0,0,1,1.924-1.924h12.127A1.924,1.924,0,0,1,334.433,209Z" transform="translate(-283.494 -184.661)" fill="#3d9ae2"/>
      <g id="Grupo_1101815" data-name="Grupo 1101815" transform="translate(31.699 32.326)">
        <path id="Trazado_879968" data-name="Trazado 879968" d="M292.871,366.861v2.788a.892.892,0,0,1-.892.892h-2.79a.893.893,0,0,1-.892-.892v-2.788a.893.893,0,0,1,.892-.892h2.79A.892.892,0,0,1,292.871,366.861Z" transform="translate(-288.297 -358.677)" fill="#2c733f"/>
        <path id="Trazado_879969" data-name="Trazado 879969" d="M360.612,299.5v2.788a.892.892,0,0,1-.891.892h-2.789a.892.892,0,0,1-.892-.892V299.5a.892.892,0,0,1,.892-.892h2.789A.892.892,0,0,1,360.612,299.5Z" transform="translate(-348.706 -298.608)" fill="#2c733f"/>
      </g>
      <path id="Trazado_879970" data-name="Trazado 879970" d="M429.169,299.5v2.788a.892.892,0,0,1-.892.892h-2.788a.892.892,0,0,1-.892-.892V299.5a.892.892,0,0,1,.892-.892h2.788A.892.892,0,0,1,429.169,299.5Z" transform="translate(-378.142 -266.282)" fill="#ee8700"/>
      <g id="Grupo_1101816" data-name="Grupo 1101816" transform="translate(31.699 32.326)">
        <path id="Trazado_879971" data-name="Trazado 879971" d="M292.871,299.5v2.788a.892.892,0,0,1-.892.892h-2.79a.893.893,0,0,1-.892-.892V299.5a.893.893,0,0,1,.892-.892h2.79A.892.892,0,0,1,292.871,299.5Z" transform="translate(-288.297 -298.608)" fill="#2c733f"/>
        <path id="Trazado_879972" data-name="Trazado 879972" d="M360.612,430.922v2.79a.892.892,0,0,1-.891.892h-2.789a.892.892,0,0,1-.892-.892v-2.79a.892.892,0,0,1,.892-.891h2.789A.892.892,0,0,1,360.612,430.922Z" transform="translate(-348.706 -415.804)" fill="#2c733f"/>
        <path id="Trazado_879973" data-name="Trazado 879973" d="M292.871,430.922v2.79a.892.892,0,0,1-.892.892h-2.79a.893.893,0,0,1-.892-.892v-2.79a.893.893,0,0,1,.892-.891h2.79A.892.892,0,0,1,292.871,430.922Z" transform="translate(-288.297 -415.804)" fill="#2c733f"/>
      </g>
      <path id="Trazado_879974" data-name="Trazado 879974" d="M429.169,367.294v8.66a1.522,1.522,0,0,1-1.522,1.523h-1.53a1.522,1.522,0,0,1-1.521-1.523v-8.66a1.326,1.326,0,0,1,1.326-1.326h1.922A1.325,1.325,0,0,1,429.169,367.294Z" transform="translate(-378.142 -326.35)" fill="#ee8700"/>
      <g id="Grupo_1101817" data-name="Grupo 1101817" transform="translate(31.699 32.326)">
        <path id="Trazado_879975" data-name="Trazado 879975" d="M360.612,366.861v.829a.892.892,0,0,1-.891.892h-2.789a.892.892,0,0,1-.892-.892v-.829a.892.892,0,0,1,.892-.892h2.789A.892.892,0,0,1,360.612,366.861Z" transform="translate(-348.706 -358.677)" fill="#317f46"/>
        <path id="Trazado_879976" data-name="Trazado 879976" d="M292.871,366.861v.829a.892.892,0,0,1-.892.892h-2.79a.893.893,0,0,1-.892-.892v-.829a.893.893,0,0,1,.892-.892h2.79A.892.892,0,0,1,292.871,366.861Z" transform="translate(-288.297 -358.677)" fill="#317f46"/>
        <path id="Trazado_879977" data-name="Trazado 879977" d="M360.612,299.5v.829a.892.892,0,0,1-.891.892h-2.789a.892.892,0,0,1-.892-.892V299.5a.892.892,0,0,1,.892-.892h2.789A.892.892,0,0,1,360.612,299.5Z" transform="translate(-348.706 -298.608)" fill="#317f46"/>
      </g>
      <path id="Trazado_879978" data-name="Trazado 879978" d="M429.169,299.5v.829a.892.892,0,0,1-.892.892h-2.788a.892.892,0,0,1-.892-.892V299.5a.892.892,0,0,1,.892-.892h2.788A.892.892,0,0,1,429.169,299.5Z" transform="translate(-378.142 -266.282)" fill="#ff9811"/>
      <g id="Grupo_1101818" data-name="Grupo 1101818" transform="translate(31.699 32.326)">
        <path id="Trazado_879979" data-name="Trazado 879979" d="M292.871,299.5v.829a.892.892,0,0,1-.892.892h-2.79a.893.893,0,0,1-.892-.892V299.5a.893.893,0,0,1,.892-.892h2.79A.892.892,0,0,1,292.871,299.5Z" transform="translate(-288.297 -298.608)" fill="#317f46"/>
        <path id="Trazado_879980" data-name="Trazado 879980" d="M360.612,430.922v.83a.892.892,0,0,1-.891.892h-2.789a.892.892,0,0,1-.892-.892v-.83a.892.892,0,0,1,.892-.891h2.789A.892.892,0,0,1,360.612,430.922Z" transform="translate(-348.706 -415.804)" fill="#317f46"/>
        <path id="Trazado_879981" data-name="Trazado 879981" d="M292.871,430.922v.83a.892.892,0,0,1-.892.892h-2.79a.893.893,0,0,1-.892-.892v-.83a.893.893,0,0,1,.892-.891h2.79A.892.892,0,0,1,292.871,430.922Z" transform="translate(-288.297 -415.804)" fill="#317f46"/>
      </g>
      <path id="Trazado_879982" data-name="Trazado 879982" d="M429.169,367.294v6.7a1.522,1.522,0,0,1-1.522,1.523h-1.53a1.522,1.522,0,0,1-1.521-1.523v-6.7a1.326,1.326,0,0,1,1.326-1.326h1.922A1.325,1.325,0,0,1,429.169,367.294Z" transform="translate(-378.142 -326.35)" fill="#ff9811"/>
      <path id="Trazado_879983" data-name="Trazado 879983" d="M343.576,19.2h-5.292a1.623,1.623,0,0,1-1.623-1.623V11.924a4.218,4.218,0,0,1,1.252.92l2.261,2.419,2.588,2.708A4.181,4.181,0,0,1,343.576,19.2Z" transform="translate(-299.726 -10.633)" fill="#ffb655"/>
      <path id="Trazado_879984" data-name="Trazado 879984" d="M86.26,463.719a2.073,2.073,0,0,1-2.068,2.068H71.524a2.068,2.068,0,0,1,0-4.136H84.192A2.074,2.074,0,0,1,86.26,463.719Z" transform="translate(-61.447 -411.675)" fill="#aa6100"/>
      <path id="Trazado_879985" data-name="Trazado 879985" d="M86.26,425.514a2.074,2.074,0,0,1-2.068,2.068H71.524a2.068,2.068,0,0,1,0-4.136H84.192A2.074,2.074,0,0,1,86.26,425.514Z" transform="translate(-61.447 -377.606)" fill="#cc7400"/>
      <path id="Trazado_879986" data-name="Trazado 879986" d="M86.26,387.31a2.074,2.074,0,0,1-2.068,2.068H71.524a2.068,2.068,0,0,1,0-4.136H84.192A2.074,2.074,0,0,1,86.26,387.31Z" transform="translate(-61.447 -343.538)" fill="#ee8700"/>
      <path id="Trazado_879987" data-name="Trazado 879987" d="M86.26,349.1a2.073,2.073,0,0,1-2.068,2.068H71.524a2.074,2.074,0,0,1-2.068-2.068,2.074,2.074,0,0,1,2.068-2.068H84.192A2.074,2.074,0,0,1,86.26,349.1Z" transform="translate(-61.447 -309.468)" fill="#ff9811"/>
      <path id="Trazado_879988" data-name="Trazado 879988" d="M84.192,312.97H71.524a2.074,2.074,0,0,1-2.068-2.068h0a2.074,2.074,0,0,1,2.068-2.068H84.192A2.074,2.074,0,0,1,86.26,310.9h0A2.074,2.074,0,0,1,84.192,312.97Z" transform="translate(-61.447 -275.401)" fill="#ffa733"/>
      <path id="Trazado_879989" data-name="Trazado 879989" d="M24.737,384.068a6.728,6.728,0,0,0-7.012-6.443H15.089a6.737,6.737,0,0,0,.576,13.462h2.06v0c.188.008.378.009.569,0a6.844,6.844,0,0,0,1.252-.171,6.738,6.738,0,0,0,5.193-6.316v-.008C24.745,384.419,24.745,384.244,24.737,384.068Z" transform="translate(-7.2 -336.74)" fill="#cc7400"/>
      <path id="Trazado_879990" data-name="Trazado 879990" d="M71.945,386.051v.008a6.737,6.737,0,0,1-5.193,6.316,6.74,6.74,0,0,1-5.186-6.271c0-.015,0-.029,0-.045v-.008a6.74,6.74,0,0,1,5.192-6.8,6.739,6.739,0,0,1,5.188,6.272C71.952,385.7,71.952,385.878,71.945,386.051Z" transform="translate(-54.406 -338.199)" fill="#ee8700"/>
      <path id="Trazado_879991" data-name="Trazado 879991" d="M49.073,18.117h-4V10.255a5.106,5.106,0,0,0-1.412-3.519l-2.582-2.7c-2.191-2.257-2.467-2.9-3.772-3.528A5.105,5.105,0,0,0,35.1,0H16.244a5.1,5.1,0,0,0-5.094,5.094V32.562H10.076a2.937,2.937,0,0,0-2.085,5.006,2.928,2.928,0,0,0-.853,2.068,3.015,3.015,0,0,0,.058.581,7.408,7.408,0,0,0,1.059,14.77l14.491-.005a2.937,2.937,0,0,0,2.085-5.006,2.923,2.923,0,0,0,.849-1.922h1.1v.589a6.791,6.791,0,0,0,6.784,6.784H49.073a6.791,6.791,0,0,0,6.784-6.784V24.9A6.791,6.791,0,0,0,49.073,18.117ZM37.806,3.079l4.335,4.583s0,0,0,0h0l0,.005h0a.018.018,0,0,0,.006.006l0,0s0,0,0,0,0,0,0,0,0,0,0,0H37.806V3.079ZM10.076,34.3H22.745a1.2,1.2,0,1,1,0,2.394H10.076a1.2,1.2,0,1,1,0-2.394Zm0,4.136H22.745a1.2,1.2,0,1,1,0,2.394H13.995a7.092,7.092,0,0,0-1.1-.4,7.34,7.34,0,0,0-1.741-.256c-.171,0-.342,0-.513,0H9.013a1.177,1.177,0,0,1-.134-.547A1.2,1.2,0,0,1,10.076,38.439Zm13.866,5.333a1.2,1.2,0,0,1-1.2,1.2H17.872a7.324,7.324,0,0,0-1.478-2.394h6.351A1.2,1.2,0,0,1,23.942,43.772ZM5.84,42.209a7.513,7.513,0,0,0-1.371,1.759H3.455A5.75,5.75,0,0,1,5.84,42.209ZM2.529,45.6H3.8a7.517,7.517,0,0,0-.237,1.305H2.219A5.721,5.721,0,0,1,2.529,45.6Zm.14,4.315a5.712,5.712,0,0,1-.409-1.378H3.59A6.57,6.57,0,0,0,3.9,49.916Zm1.086,1.632c.534,0,.845,0,.917,0a7.353,7.353,0,0,0,1.171,1.417A5.752,5.752,0,0,1,3.755,51.548Zm7.429,1.808a5.776,5.776,0,1,1,3.659-10.025A5.771,5.771,0,0,1,11.184,53.356Zm11.561-.115H15.717a7.459,7.459,0,0,0,1.871-2.394h5.157a1.2,1.2,0,0,1,0,2.394Zm1.187-5.187a1.2,1.2,0,0,1-1.187,1.051H18.189a7.481,7.481,0,0,0,.106-2.394h4.45A1.2,1.2,0,0,1,23.932,48.054Zm2.849-1.741H25.21a2.889,2.889,0,0,0-.38-.472,2.932,2.932,0,0,0,0-4.136,2.932,2.932,0,0,0,0-4.136,2.941,2.941,0,0,0-2.085-5.006H12.892V5.094a3.356,3.356,0,0,1,3.352-3.352h19.82V8.562a.87.87,0,0,0,.871.871h6.3c.182.705.07.472.1,8.684h-9.77A6.791,6.791,0,0,0,26.782,24.9V46.312Zm27.442,2.33a5.157,5.157,0,0,1-5.151,5.151H33.566a5.158,5.158,0,0,1-5.151-5.151V24.9a5.158,5.158,0,0,1,5.151-5.151H49.073A5.157,5.157,0,0,1,54.224,24.9V48.643Z" transform="translate(0)"/>
      <path id="Trazado_879992" data-name="Trazado 879992" d="M286.459,206.374H283.5a1.111,1.111,0,0,1-1.108-1.108v-2.988a1.111,1.111,0,0,1,1.108-1.108h15.392A1.109,1.109,0,0,1,300,202.278v2.988a1.109,1.109,0,0,1-1.108,1.108h-8.91a.816.816,0,1,0,0,1.632h8.91a2.743,2.743,0,0,0,2.74-2.74v-2.988a2.743,2.743,0,0,0-2.74-2.74H283.5a2.74,2.74,0,0,0-2.74,2.74v2.988a2.74,2.74,0,0,0,2.74,2.74h2.961a.816.816,0,1,0,0-1.632Z" transform="translate(-249.874 -177.937)"/>
      <path id="Trazado_879993" data-name="Trazado 879993" d="M282.466,364.635h2.789a1.71,1.71,0,0,0,1.709-1.709v-2.788a1.71,1.71,0,0,0-1.709-1.709h-2.789a1.711,1.711,0,0,0-1.709,1.709v2.788A1.711,1.711,0,0,0,282.466,364.635Zm-.076-4.5a.076.076,0,0,1,.076-.076h2.789a.076.076,0,0,1,.076.076v2.788a.076.076,0,0,1-.076.076h-2.789a.076.076,0,0,1-.076-.076Z" transform="translate(-249.874 -319.628)"/>
      <path id="Trazado_879994" data-name="Trazado 879994" d="M421.553,291.068h-2.788a1.71,1.71,0,0,0-1.709,1.709v2.788a1.71,1.71,0,0,0,1.709,1.709h2.788a1.71,1.71,0,0,0,1.709-1.709v-2.788A1.71,1.71,0,0,0,421.553,291.068Zm.076,4.5a.076.076,0,0,1-.076.076h-2.788a.076.076,0,0,1-.076-.076c.034-2.759-.071-2.865.076-2.865h2.788a.076.076,0,0,1,.076.076Z" transform="translate(-371.418 -259.559)"/>
      <path id="Trazado_879995" data-name="Trazado 879995" d="M282.466,297.274h2.789a1.71,1.71,0,0,0,1.709-1.709v-2.788a1.71,1.71,0,0,0-1.709-1.709h-2.789a1.711,1.711,0,0,0-1.709,1.709v2.788A1.711,1.711,0,0,0,282.466,297.274Zm-.076-4.5a.076.076,0,0,1,.076-.076h2.789a.076.076,0,0,1,.076.076v2.788a.077.077,0,0,1-.076.076h-2.789a.076.076,0,0,1-.076-.076Z" transform="translate(-249.874 -259.559)"/>
      <path id="Trazado_879996" data-name="Trazado 879996" d="M286.51,423.067a1.708,1.708,0,0,0-1.279-.576h-2.789a1.7,1.7,0,0,0-1.278.576,2.335,2.335,0,0,0-.431,1.741v2.18a1.711,1.711,0,0,0,1.709,1.709h2.789a1.71,1.71,0,0,0,1.709-1.709v-2.18A2.354,2.354,0,0,0,286.51,423.067Zm-1.279,4c-2.756-.034-2.866.071-2.866-.076,0-2.953-.033-2.865.076-2.865h2.789c.134,0,.051.186.076.685A11.6,11.6,0,0,1,285.231,427.064Z" transform="translate(-249.85 -376.754)"/>
      <path id="Trazado_879997" data-name="Trazado 879997" d="M421.119,358.428H419.2a2.145,2.145,0,0,0-2.142,2.142v8.66a2.341,2.341,0,0,0,2.338,2.339h1.53a2.341,2.341,0,0,0,2.338-2.339v-8.66A2.144,2.144,0,0,0,421.119,358.428Zm.509,10.8a.706.706,0,0,1-.705.706h-1.53a.707.707,0,0,1-.705-.706v-8.66a.51.51,0,0,1,.509-.509h1.922a.51.51,0,0,1,.509.509v8.66Z" transform="translate(-371.417 -319.627)"/>
      <path id="Trazado_879998" data-name="Trazado 879998" d="M166.165,172.889h0c-1-.366-1.714-.63-1.714-1.552,0-.84.558-1.266,1.659-1.266,1.168,0,1.483.514,1.895.514a.784.784,0,0,0,.7-.8c0-.68-1.109-1.017-2.1-1.106v-.613a.773.773,0,0,0-1.547,0v.711a2.53,2.53,0,0,0-2.1,2.646c0,1.9,1.4,2.425,2.523,2.848,1.1.414,1.97.74,1.97,2,0,1.038-.576,1.564-1.713,1.564-1.664,0-1.679-1.123-2.314-1.123a.816.816,0,0,0-.71.8c0,.643.958,1.489,2.345,1.708v.592a.773.773,0,0,0,1.547,0V179.2a2.794,2.794,0,0,0,2.345-3.018C168.943,173.91,167.4,173.344,166.165,172.889Z" transform="translate(-144.604 -149.178)"/>
      <path id="Trazado_879999" data-name="Trazado 879999" d="M352.975,422.491h-2.79a1.708,1.708,0,0,0-1.279.576,2.344,2.344,0,0,0-.43,1.741v2.18a1.71,1.71,0,0,0,1.709,1.709h2.79a1.71,1.71,0,0,0,1.708-1.709V424.2a1.71,1.71,0,0,0-1.708-1.708Zm0,4.573c-2.756-.034-2.866.071-2.866-.076V424.2a.076.076,0,0,1,.076-.075h2.79a.075.075,0,0,1,.075.075C353.017,426.961,353.12,427.064,352.975,427.064Z" transform="translate(-310.261 -376.754)"/>
      <path id="Trazado_880000" data-name="Trazado 880000" d="M353,291.068h-2.789a1.71,1.71,0,0,0-1.709,1.709v2.788a1.71,1.71,0,0,0,1.709,1.709H353a1.683,1.683,0,0,0,.621-.118,1.711,1.711,0,0,0,1.086-1.591v-2.788A1.711,1.711,0,0,0,353,291.068Zm.075,4.5a.076.076,0,0,1-.075.076h-2.789a.076.076,0,0,1-.076-.076v-2.788c0-.147.1-.043,2.866-.076a.076.076,0,0,1,.075.076v2.788Z" transform="translate(-310.283 -259.559)"/>
      <path id="Trazado_880001" data-name="Trazado 880001" d="M353.619,358.546a1.683,1.683,0,0,0-.621-.118h-2.789a1.71,1.71,0,0,0-1.709,1.709v2.788a1.71,1.71,0,0,0,1.709,1.709H353a1.71,1.71,0,0,0,1.708-1.709v-2.788A1.711,1.711,0,0,0,353.619,358.546Zm-.546,4.38A.076.076,0,0,1,353,363h-2.789a.076.076,0,0,1-.076-.076v-2.788a.076.076,0,0,1,.076-.076H353a.076.076,0,0,1,.075.076Z" transform="translate(-310.283 -319.627)"/>
      <path id="Trazado_880002" data-name="Trazado 880002" d="M320.863,104.674h2.05a.816.816,0,1,0,0-1.632h-2.05a.816.816,0,1,0,0,1.632Z" transform="translate(-284.911 -91.887)"/>
      <path id="Trazado_880003" data-name="Trazado 880003" d="M156.986,104.674h14.475a.816.816,0,1,0,0-1.632H156.986a.816.816,0,0,0,0,1.632Z" transform="translate(-138.774 -91.887)"/>
      <path id="Trazado_880004" data-name="Trazado 880004" d="M159.581,142.1a.816.816,0,0,0,0-1.632h-2.595a.816.816,0,0,0,0,1.632Z" transform="translate(-138.774 -125.265)"/>
      <path id="Trazado_880005" data-name="Trazado 880005" d="M225.863,141.288a.817.817,0,0,0-.816-.816H211.115a.816.816,0,0,0,0,1.632h13.931A.817.817,0,0,0,225.863,141.288Z" transform="translate(-187.044 -125.265)"/>
      <path id="Trazado_880006" data-name="Trazado 880006" d="M79.141,401.136c0-.205.076-.264.146-.3a1.4,1.4,0,0,1,1.183.08.933.933,0,0,0,.442.134c.805,0,1.442-1.5-.481-1.827v-.051a.827.827,0,1,0-1.654,0v.157a1.856,1.856,0,0,0-1.262,1.859c0,1.392,1.011,1.772,1.75,2.05.7.265.948.38.948.86,0,.3-.081.577-.666.577-.853,0-.751-.674-1.39-.674a.853.853,0,0,0-.789.845c0,.565.588,1.1,1.408,1.32v.062a.827.827,0,0,0,1.654,0v-.084a2.045,2.045,0,0,0,1.408-2.095C81.84,401.565,79.141,401.938,79.141,401.136Z" transform="translate(-68.504 -355.22)"/>
    </g>
  </g>
</svg>
