<svg xmlns="http://www.w3.org/2000/svg" width="63" height="63" viewBox="0 0 63 63">
  <g id="Grupo_1101820" data-name="Grupo 1101820" transform="translate(-1021.287 -526.5)">
    <g id="Grupo_1098797" data-name="Grupo 1098797" transform="translate(2.287 -6237.5)">
      <g id="Grupo_1098742" data-name="Grupo 1098742" transform="translate(1019.445 6764.445)">
        <path id="Trazado_879666" data-name="Trazado 879666" d="M31.5,0A31.5,31.5,0,1,1,0,31.5,31.5,31.5,0,0,1,31.5,0Z" transform="translate(-0.445 -0.445)" fill="#3ba935" opacity="0.859"/>
        <rect id="Rectángulo_400907" data-name="Rectángulo 400907" width="63" height="63" rx="31.5" transform="translate(-0.446 -0.445)" fill="none"/>
      </g>
    </g>
    <g id="Page-1" transform="translate(1032 537.213)">
      <g id="_067---Analytics" data-name="067---Analytics" transform="translate(0 0)">
        <path id="Shape" d="M7.236,35.386V49.937A1.386,1.386,0,0,1,5.85,51.323H2.386A1.39,1.39,0,0,1,1,49.937V35.386A1.39,1.39,0,0,1,2.386,34H5.85A1.39,1.39,0,0,1,7.236,35.386Z" transform="translate(-0.307 -10.441)" fill="#02a9f4"/>
        <path id="Shape-2" data-name="Shape" d="M7.079,34H5a1.39,1.39,0,0,1,1.386,1.386V49.937A1.386,1.386,0,0,1,5,51.323H7.079a1.386,1.386,0,0,0,1.386-1.386V35.386A1.39,1.39,0,0,0,7.079,34Z" transform="translate(-1.535 -10.441)" fill="#0377bc"/>
        <path id="Shape-3" data-name="Shape" d="M42.964,42.631,29.979,50.537a4.85,4.85,0,0,1-2.522.707H9.926l-.166-.035a1.405,1.405,0,0,0,.166-.658V36h1.94a6.248,6.248,0,0,1,1.524.187,6.369,6.369,0,0,1,2.425,1.2,6.271,6.271,0,0,0,3.118,1.323,5.6,5.6,0,0,0,.831.062h3.624a3.574,3.574,0,0,1,1.088.173,3.437,3.437,0,0,1,1.885,1.511l.062.1a2.507,2.507,0,0,1-.381,3.063h1.628a2.725,2.725,0,0,0,.88-.146l1.469-.492,5.543-1.843,5.543-1.85.27-.09a1.909,1.909,0,0,1,2.12.665v.007a1.892,1.892,0,0,1-.534,2.758Z" transform="translate(-2.997 -11.056)" fill="#ffe0b2"/>
        <g id="Grupo_1101794" data-name="Grupo 1101794" transform="translate(6.929 24.944)">
          <path id="Shape-4" data-name="Shape" d="M13.811,37.386a6.346,6.346,0,0,0,3.95,1.386h2.079a6.346,6.346,0,0,1-3.95-1.386A6.346,6.346,0,0,0,11.94,36H10v.006A6.346,6.346,0,0,1,13.811,37.386Z" transform="translate(-10 -36)" fill="#dfc49c"/>
          <path id="Shape-5" data-name="Shape" d="M29.4,41.684l.062.1a2.507,2.507,0,0,1-.381,3.063h1.628A2.712,2.712,0,0,0,31.2,44.8a2.5,2.5,0,0,0,.341-3.015l-.062-.1A3.457,3.457,0,0,0,28.509,40H26.43A3.457,3.457,0,0,1,29.4,41.684Z" transform="translate(-15.046 -37.228)" fill="#dfc49c"/>
          <path id="Shape-6" data-name="Shape" d="M50.419,41.25v-.007a1.909,1.909,0,0,0-2.12-.665l-.519.173a1.9,1.9,0,0,1,.561.492v.007a1.892,1.892,0,0,1-.534,2.758L34.822,51.914a4.85,4.85,0,0,1-2.522.707h2.079a4.85,4.85,0,0,0,2.522-.707l12.985-7.906a1.892,1.892,0,0,0,.534-2.758Z" transform="translate(-16.848 -37.377)" fill="#dfc49c"/>
        </g>
        <path id="Shape-7" data-name="Shape" d="M52.543,7.386V30.078L47,31.928V7.386A1.39,1.39,0,0,1,48.386,6h2.772A1.39,1.39,0,0,1,52.543,7.386Z" transform="translate(-14.434 -1.843)" fill="#ffdc00"/>
        <path id="Shape-8" data-name="Shape" d="M51.157,6H49.079a1.39,1.39,0,0,1,1.386,1.386V30.078L47,31.235v.693l5.543-1.85V7.386A1.39,1.39,0,0,0,51.157,6Z" transform="translate(-14.434 -1.843)" fill="#fec108"/>
        <path id="Shape-9" data-name="Shape" d="M44.543,17.386V35L39,36.843V17.386A1.39,1.39,0,0,1,40.386,16h2.772A1.39,1.39,0,0,1,44.543,17.386Z" transform="translate(-11.977 -4.914)" fill="#a4c400"/>
        <path id="Shape-10" data-name="Shape" d="M36.543,27.386V39.913l-1.469.492a2.725,2.725,0,0,1-.88.146H32.566a2.507,2.507,0,0,0,.381-3.063l-.062-.1A3.437,3.437,0,0,0,31,35.874V27.386A1.39,1.39,0,0,1,32.386,26h2.772A1.39,1.39,0,0,1,36.543,27.386Z" transform="translate(-9.52 -7.985)" fill="#60a917"/>
        <path id="Shape-11" data-name="Shape" d="M28.543,22.386V34.338a3.574,3.574,0,0,0-1.088-.173H23.831A5.6,5.6,0,0,1,23,34.1V22.386A1.39,1.39,0,0,1,24.386,21h2.772A1.39,1.39,0,0,1,28.543,22.386Z" transform="translate(-7.063 -6.449)" fill="#009688"/>
        <path id="Shape-12" data-name="Shape" d="M20.543,32.386v4.788a6.271,6.271,0,0,1-3.118-1.323A6.369,6.369,0,0,0,15,34.652V32.386A1.39,1.39,0,0,1,16.386,31h2.772A1.39,1.39,0,0,1,20.543,32.386Z" transform="translate(-4.606 -9.52)" fill="#00bcd4"/>
        <path id="Shape-13" data-name="Shape" d="M27.828,1.861,25.59,10.813a.693.693,0,0,1-1.227.247L21.786,7.624,6.716,18.018a1.734,1.734,0,1,1-1.969-2.855L19.708,4.846,17.643,2.109A.693.693,0,0,1,18.2,1h8.959a.693.693,0,0,1,.672.861Z" transform="translate(-1.227 -0.307)" fill="#f44335"/>
        <path id="Shape-14" data-name="Shape" d="M35.878,1H33.8a.693.693,0,0,1,.672.861L32.4,10.146l.685.914a.693.693,0,0,0,1.227-.247L36.55,1.861A.693.693,0,0,0,35.878,1Z" transform="translate(-9.95 -0.307)" fill="#c81e1e"/>
        <path id="Shape-15" data-name="Shape" d="M2.079,47.716H5.543a2.068,2.068,0,0,0,1.538-.693H24.459a5.543,5.543,0,0,0,2.882-.808l12.986-7.906a2.6,2.6,0,0,0,1.2-1.723,2.55,2.55,0,0,0-.434-1.99c-.012-.02-.026-.039-.04-.06a2.586,2.586,0,0,0-2.893-.9L25.332,37.91a2.082,2.082,0,0,1-.658.107h-.4a3.187,3.187,0,0,0-.258-2.728l-.062-.1a4.18,4.18,0,0,0-3.562-2.02H16.768a5.65,5.65,0,0,1-3.517-1.234,7.009,7.009,0,0,0-2.165-1.172V29.008a.693.693,0,0,1,.693-.693h2.772a.693.693,0,0,1,.693.693v2.079a.693.693,0,0,0,1.386,0V22.079a.693.693,0,0,1,.693-.693h2.772a.693.693,0,0,1,.693.693.693.693,0,0,0,1.386,0A2.079,2.079,0,0,0,20.094,20H17.323a2.079,2.079,0,0,0-2.079,2.079v4.969a2.085,2.085,0,0,0-.693-.118H11.779A2.079,2.079,0,0,0,9.7,29.008V30.45a6.946,6.946,0,0,0-.831-.056H7.494a2.079,2.079,0,0,0-1.951-1.386H2.079A2.079,2.079,0,0,0,0,31.086v2.772a.693.693,0,0,0,1.386,0V31.086a.693.693,0,0,1,.693-.693H5.543a.693.693,0,0,1,.693.693V45.637a.693.693,0,0,1-.693.693H2.079a.693.693,0,0,1-.693-.693V37.323a.693.693,0,1,0-1.386,0v8.315a2.079,2.079,0,0,0,2.079,2.079Zm10.307-14.7a7.041,7.041,0,0,0,4.383,1.538h3.625A2.785,2.785,0,0,1,22.769,35.9l.062.1a1.811,1.811,0,0,1-.1,2.016H18.518a6.906,6.906,0,0,0-3.844,1.164l-.508.338a.693.693,0,0,0,.769,1.153l.507-.338a5.529,5.529,0,0,1,3.075-.931h6.159a3.45,3.45,0,0,0,1.1-.178L38.6,34.948a1.2,1.2,0,0,1,1.308.365c.012.02.026.039.039.059a1.2,1.2,0,0,1-.337,1.753L26.621,45.031a4.164,4.164,0,0,1-2.162.606H7.622V31.779H8.869a5.65,5.65,0,0,1,3.516,1.234Z" transform="translate(0 -6.142)"/>
        <path id="Shape-16" data-name="Shape" d="M47.323,27.173a.693.693,0,0,0,.693-.693V7.079A2.079,2.079,0,0,0,45.937,5H43.165a2.079,2.079,0,0,0-2.079,2.079v4.978a2.055,2.055,0,0,0-.693-.127H37.622a2.079,2.079,0,0,0-2.079,2.079v4.978a2.055,2.055,0,0,0-.693-.127H32.079A2.079,2.079,0,0,0,30,20.937V24.4a.693.693,0,1,0,1.386,0V20.937a.693.693,0,0,1,.693-.693H34.85a.693.693,0,0,1,.693.693v9.7a.693.693,0,1,0,1.386,0V14.008a.693.693,0,0,1,.693-.693h2.772a.693.693,0,0,1,.693.693V27.866a.693.693,0,0,0,1.386,0V7.079a.693.693,0,0,1,.693-.693h2.772a.693.693,0,0,1,.693.693v19.4A.693.693,0,0,0,47.323,27.173Z" transform="translate(-9.213 -1.535)"/>
        <path id="Shape-17" data-name="Shape" d="M3.433,17.664a2.436,2.436,0,0,0,1.994,1.044A2.389,2.389,0,0,0,6.8,18.281L21.327,8.266l2.178,2.9a1.386,1.386,0,0,0,2.452-.5L28.2,1.718A1.386,1.386,0,0,0,26.851,0h-8.96a1.386,1.386,0,0,0-1.109,2.221l1.629,2.158L4.049,14.286a2.438,2.438,0,0,0-.617,3.378Zm1.4-2.237L19.8,5.109a.693.693,0,0,0,.16-.988L17.892,1.386h8.961l-2.239,8.952L22.037,6.9a.693.693,0,0,0-.95-.155L6.012,17.14a1.02,1.02,0,0,1-.585.183,1.039,1.039,0,0,1-.591-1.9Z" transform="translate(-0.923 0)"/>
      </g>
    </g>
  </g>
</svg>
