<svg xmlns="http://www.w3.org/2000/svg" width="81" height="81" viewBox="0 0 81 81">
  <g id="_5" data-name="5" transform="translate(-184.051 -948)">
    <g id="Grupo_1101539" data-name="Grupo 1101539" transform="translate(4 -681)">
      <path id="Trazado_874180" data-name="Trazado 874180" d="M40.5,0A40.5,40.5,0,1,1,0,40.5,40.5,40.5,0,0,1,40.5,0Z" transform="translate(180.051 1629)" fill="#396370"/>
    </g>
    <g id="investigacion-del-consumidor" transform="translate(187.392 951.305)">
      <path id="Trazado_879831" data-name="Trazado 879831" d="M47.49,15.844a14.611,14.611,0,1,0,0,20.665,14.509,14.509,0,0,0,0-20.665ZM33.843,37.517v1.2A12.8,12.8,0,0,1,30.5,37.306V28.841h3.343Zm1.646,1.518V24.881h3.34V39.034a13.158,13.158,0,0,1-3.34,0Zm4.986-14.976V20.952h3.343V37.306a12.8,12.8,0,0,1-3.343,1.408V24.058Zm5.851,11.287q-.415.415-.861.787v-16a.823.823,0,0,0-.823-.823H39.652a.823.823,0,0,0-.823.823v3.106H34.666a.823.823,0,0,0-.823.823v3.137H29.677a.823.823,0,0,0-.823.823v8.114q-.445-.373-.861-.787a12.981,12.981,0,0,1,0-18.337h0A12.965,12.965,0,0,1,46.326,35.345ZM60.5,64.12v1.406a.823.823,0,0,1-1.646,0V64.12a.823.823,0,1,1,1.646,0Zm-10.865,0v1.406a.823.823,0,0,1-1.646,0V64.12a.823.823,0,0,1,1.646,0Zm11.658-5.473a4.893,4.893,0,0,0,1.274-3.276V51.752a2.023,2.023,0,0,0,0-.694V48.432a8.337,8.337,0,0,0-16.674,0v6.939a4.892,4.892,0,0,0,1.288,3.293c-.149.076-.293.154-.432.235a4.323,4.323,0,0,0-2.506,3.778v2.85a.823.823,0,0,0,1.646,0v-2.85c0-1.184.971-2.065,2.319-2.676a5.023,5.023,0,0,0,4.89,3.9h2.416a5.02,5.02,0,0,0,4.874-3.847c1.286.609,2.212,1.474,2.212,2.62v2.85a.823.823,0,0,0,1.646,0v-2.85C64.246,61,63.19,59.605,61.292,58.648ZM57.487,57.5V56.426a6.949,6.949,0,0,0,1.974-2.812h.922a2.2,2.2,0,0,0,.537-.069v1.825a3.258,3.258,0,0,1-1.325,2.605,15.673,15.673,0,0,0-2.108-.481Zm-7.454-6.7a5.972,5.972,0,0,0,4.211-2.263,5.972,5.972,0,0,0,4.211,2.263c-.229,2.25-1.445,5.145-4.211,5.145S50.262,53.043,50.033,50.793Zm-1.649.045a9.983,9.983,0,0,0,.167,1.13H48.1a.565.565,0,1,1,0-1.13Zm12.536.736a.573.573,0,0,1-.537.394h-.435a9.992,9.992,0,0,0,.159-1.13h.276a.574.574,0,0,1,.537.4Zm-6.689-9.831a6.7,6.7,0,0,1,6.689,6.689v.829a2.2,2.2,0,0,0-.537-.069H59.32a4.59,4.59,0,0,1-4.363-2.532.823.823,0,0,0-1.425,0,4.59,4.59,0,0,1-4.363,2.532H48.1a2.2,2.2,0,0,0-.567.076v-.836A6.7,6.7,0,0,1,54.231,41.743ZM47.538,55.371V53.538a2.205,2.205,0,0,0,.567.076h.938a8.157,8.157,0,0,0,.624,1.256,6.092,6.092,0,0,0,1.6,1.764v.818a15.863,15.863,0,0,0-2.389.534A3.256,3.256,0,0,1,47.538,55.371Zm7.976,6.886H53.1a3.374,3.374,0,0,1-3.323-2.812,15.576,15.576,0,0,1,2.4-.45.823.823,0,0,0,.734-.818v-.761a5.273,5.273,0,0,0,1.333.167,5.134,5.134,0,0,0,1.6-.249v.876a.823.823,0,0,0,.723.817,14.93,14.93,0,0,1,2.264.453,3.371,3.371,0,0,1-3.313,2.776ZM20.9,65.527a.823.823,0,1,1-.823-.823A.825.825,0,0,1,20.9,65.527Zm2.419-9.74V55.23a6.949,6.949,0,0,0,1.974-2.812h.922a2.209,2.209,0,0,0,1.176-4.08l.23-.822c.448-1.61.034-2.319-.52-2.811a3.1,3.1,0,0,0,.093-3.048c-1.049-1.641-3.986-1.594-7.095-1.544h-.034c-2.159,0-5.029.676-6.62,2.567a4.334,4.334,0,0,0-.97,3.636l.346,1.983a2.209,2.209,0,0,0,1.115,4.118h.938a8.157,8.157,0,0,0,.624,1.256,6.092,6.092,0,0,0,1.6,1.764v.308a12.769,12.769,0,0,0-4.517,1.445,4.32,4.32,0,0,0-2.506,3.775v4.559a.823.823,0,0,0,1.646,0v-4.56c0-1.678,1.953-2.746,4.164-3.3l1.1,3.668a.823.823,0,0,0,1.334.379l1.887-1.673L22.1,61.713a.823.823,0,0,0,1.334-.379l1.082-3.6c2.09.572,3.919,1.627,3.919,3.236v4.559a.823.823,0,0,0,1.646,0V60.967C30.077,58.379,27.566,56.47,23.318,55.787Zm-3.11,1.951-1.412-1.5a5.282,5.282,0,0,0,1.279.155,5.133,5.133,0,0,0,1.6-.249v.037Zm6.006-6.966h-.435a10,10,0,0,0,.159-1.13h.276a.565.565,0,1,1,0,1.13Zm-12.278,0a.565.565,0,1,1,0-1.13h.279a9.983,9.983,0,0,0,.167,1.13h-.446ZM15,46.9a2.486,2.486,0,0,0-.6.838l-.3-1.705a2.665,2.665,0,0,1,.608-2.294,7.237,7.237,0,0,1,5.367-1.981h.054c2.164-.035,5.127-.082,5.682.785.24.375,0,1.065-.251,1.577a1.317,1.317,0,0,0,.4,1.767c.179.149.334.277.081,1.185l-.109.388a1.835,1.835,0,0,0-1.639-1.374c-.356-.026-.742-.059-1.147-.094-2.913-.252-6.539-.565-8.145.908Zm.826,1.917a.879.879,0,0,1,.287-.7,5.429,5.429,0,0,1,3.29-.687c1.216,0,2.534.114,3.6.206.413.036.806.07,1.167.1a.181.181,0,0,1,.172.183l-.01.9v.009c0,2.29-1.155,5.923-4.253,5.923s-4.253-3.633-4.253-5.923Zm2.37,10.809-.685-2.276.072-.01,1.45,1.544Zm4.031,0-.836-.741L22.8,57.374l.092.014ZM15.465,63.01v2.516a.823.823,0,0,1-1.646,0V63.01a.823.823,0,0,1,1.646,0Zm10.865,0v2.516a.823.823,0,0,1-1.646,0V63.01a.823.823,0,0,1,1.646,0ZM66,31.832,60.323,27.4a.823.823,0,0,0-1.329.649v.8H55.11a18.4,18.4,0,0,0,.195-2.675A18.146,18.146,0,0,0,24.329,13.344a18.323,18.323,0,0,0-2.356,2.892H15.325v-.8A.823.823,0,0,0,14,14.787L8.317,19.22a.823.823,0,0,0,0,1.3L14,24.95a.823.823,0,0,0,1.329-.649v-.8h3.883a18.407,18.407,0,0,0-.195,2.674A18.154,18.154,0,0,0,33.587,43.968v1.538H33.36a.823.823,0,0,0-.823.823v1.326a.823.823,0,0,0-.73.817v2.51a.823.823,0,0,0,.73.817v9.938a4.613,4.613,0,1,0,9.225,0V51.8a.823.823,0,0,0,.73-.817v-2.51a.823.823,0,0,0-.73-.817V46.329a.823.823,0,0,0-.823-.823h-.224V43.969a17.98,17.98,0,0,0,9.274-4.963,18.313,18.313,0,0,0,2.357-2.892h6.646v.8a.823.823,0,0,0,1.33.649L66,33.129a.823.823,0,0,0,0-1.3ZM14.5,21.855a.823.823,0,0,0-.821.761l-3.521-2.748,3.521-2.748a.823.823,0,0,0,.821.762h6.509a17.918,17.918,0,0,0-1.482,3.973H14.5ZM33.453,49.3h7.393v.864H33.453Zm6.663-2.143v.5H34.183v-.5Zm0,14.585a2.966,2.966,0,1,1-5.933,0V51.8h5.933Zm8.71-23.9a16.347,16.347,0,0,1-9.062,4.625.823.823,0,0,0-.695.813v2.227H35.233V43.279a.823.823,0,0,0-.693-.813,16.5,16.5,0,1,1,14.286-4.625Zm11.812-2.61a.823.823,0,0,0-.821-.764H53.309a17.911,17.911,0,0,0,1.481-3.97h5.027a.823.823,0,0,0,.821-.765l3.521,2.748ZM20.9,62.9a.823.823,0,1,1-.823-.823A.825.825,0,0,1,20.9,62.9ZM56.38,22.678a.822.822,0,1,1,.823.823A.825.825,0,0,1,56.38,22.678Zm2.25,0a.823.823,0,1,1,.823.823A.825.825,0,0,1,58.63,22.678Zm2.253,0a.822.822,0,1,1,.82.823A.822.822,0,0,1,60.883,22.678Zm2.25,0a.823.823,0,1,1,.823.823A.825.825,0,0,1,63.133,22.678ZM17.115,30.5a.823.823,0,1,1,.823-.823A.825.825,0,0,1,17.115,30.5Zm-2.25,0a.823.823,0,1,1,.823-.823A.825.825,0,0,1,14.866,30.5Zm-2.253,0a.823.823,0,1,1,.823-.823A.822.822,0,0,1,12.613,30.5Zm-2.25,0a.823.823,0,1,1,.823-.823A.825.825,0,0,1,10.363,30.5Z" transform="translate(0 0)"/>
      <path id="Trazado_879832" data-name="Trazado 879832" d="M159.208,362.988h.435a.565.565,0,1,0,0-1.13h-.276A10,10,0,0,1,159.208,362.988Z" transform="translate(-133.429 -312.216)" fill="#fcc9c0"/>
      <path id="Trazado_879833" data-name="Trazado 879833" d="M54.23,361.856a.565.565,0,1,0,0,1.13h.446a9.98,9.98,0,0,1-.167-1.13H54.23Z" transform="translate(-40.294 -312.214)" fill="#fcc9c0"/>
      <path id="Trazado_879834" data-name="Trazado 879834" d="M83.031,344.408l.01-.9a.181.181,0,0,0-.172-.183c-.361-.026-.755-.06-1.167-.1-1.067-.092-2.385-.206-3.6-.206a5.429,5.429,0,0,0-3.29.687.879.879,0,0,0-.287.7c0,2.29,1.155,5.923,4.253,5.923s4.253-3.633,4.253-5.923Z" transform="translate(-58.703 -295.598)" fill="#ffdbd3"/>
      <path id="Trazado_879835" data-name="Trazado 879835" d="M121.86,429.136l.836.741.672-2.239-.092-.014Z" transform="translate(-100.473 -370.25)" fill="#f96353"/>
      <path id="Trazado_879836" data-name="Trazado 879836" d="M68.525,298.934c.4.035.791.068,1.147.094A1.835,1.835,0,0,1,71.31,300.4l.109-.388c.252-.908.1-1.036-.081-1.185a1.317,1.317,0,0,1-.4-1.767c.247-.512.491-1.2.251-1.577-.554-.867-3.518-.82-5.682-.785h-.054a7.237,7.237,0,0,0-5.367,1.981,2.665,2.665,0,0,0-.608,2.294l.3,1.706a2.482,2.482,0,0,1,.6-.838C61.986,298.369,65.612,298.682,68.525,298.934Z" transform="translate(-45.384 -252.941)" fill="#656d78"/>
      <path id="Trazado_879837" data-name="Trazado 879837" d="M102.691,417.114a5.133,5.133,0,0,1-1.6.249,5.28,5.28,0,0,1-1.279-.155l1.412,1.5,1.464-1.562v-.037Z" transform="translate(-81.02 -360.975)" fill="#fcc9c0"/>
      <path id="Trazado_879838" data-name="Trazado 879838" d="M88.859,427.359l.685,2.276.836-.741-1.45-1.544Z" transform="translate(-71.352 -370.007)" fill="#f96353"/>
      <path id="Trazado_879839" data-name="Trazado 879839" d="M348,398.095a6.09,6.09,0,0,1-1.6-1.764,8.169,8.169,0,0,1-.624-1.256h-.938a2.2,2.2,0,0,1-.567-.076v1.833a3.256,3.256,0,0,0,1.338,2.616,15.852,15.852,0,0,1,2.389-.534Z" transform="translate(-296.731 -341.46)" fill="#b27946"/>
      <path id="Trazado_879840" data-name="Trazado 879840" d="M399.854,197.266a.823.823,0,0,1,.821.764l3.521-2.75-3.521-2.748a.823.823,0,0,1-.821.765h-5.027a17.914,17.914,0,0,1-1.481,3.97Z" transform="translate(-340.038 -162.798)" fill="#b4dd7f"/>
      <path id="Trazado_879841" data-name="Trazado 879841" d="M199.363,193.411a12.8,12.8,0,0,0,3.343,1.408v-9.874h-3.343Z" transform="translate(-168.863 -156.104)" fill="#ff826e"/>
      <path id="Trazado_879842" data-name="Trazado 879842" d="M230.686,340.682h5.933v.5h-5.933Z" transform="translate(-196.503 -293.53)" fill="#abc5c9"/>
      <path id="Trazado_879843" data-name="Trazado 879843" d="M241.8,154.407v11.017a13.158,13.158,0,0,0,3.34,0V151.27H241.8Z" transform="translate(-206.308 -126.389)" fill="#ff826e"/>
      <path id="Trazado_879844" data-name="Trazado 879844" d="M350.962,294.675a6.7,6.7,0,0,0-6.693,6.69v.836a2.205,2.205,0,0,1,.567-.076H345.9a4.59,4.59,0,0,0,4.363-2.532.823.823,0,0,1,1.425,0,4.59,4.59,0,0,0,4.363,2.532h1.063a2.2,2.2,0,0,1,.537.069v-.829A6.7,6.7,0,0,0,350.962,294.675Z" transform="translate(-296.731 -252.932)" fill="#b27946"/>
      <path id="Trazado_879845" data-name="Trazado 879845" d="M284.2,120.956v14.656a12.8,12.8,0,0,0,3.343-1.408V117.85H284.2Z" transform="translate(-243.728 -96.898)" fill="#ff826e"/>
      <path id="Trazado_879846" data-name="Trazado 879846" d="M30.719,90h5.027a17.922,17.922,0,0,1,1.482-3.973H30.719a.823.823,0,0,1-.821-.762l-3.521,2.748L29.9,90.762A.823.823,0,0,1,30.719,90Z" transform="translate(-16.216 -68.145)" fill="#b4dd7f"/>
      <path id="Trazado_879847" data-name="Trazado 879847" d="M149.582,74.136q.415.415.861.787V66.809a.823.823,0,0,1,.823-.823h4.166V62.849a.823.823,0,0,1,.823-.823h4.163V58.919a.823.823,0,0,1,.823-.823h4.989a.823.823,0,0,1,.823.823v16q.445-.373.861-.787A12.965,12.965,0,1,0,149.582,55.8h0A12.981,12.981,0,0,0,149.582,74.136Z" transform="translate(-121.589 -38.791)" fill="#69d6f4"/>
      <path id="Trazado_879848" data-name="Trazado 879848" d="M120.5,50.188a16.38,16.38,0,0,0,9.047,4.626.823.823,0,0,1,.693.813v2.227h3.837V55.626a.823.823,0,0,1,.695-.813,16.5,16.5,0,0,0,9.062-27.958A16.5,16.5,0,1,0,120.5,50.188Zm1.336-22a14.611,14.611,0,1,1,0,20.665A14.509,14.509,0,0,1,121.839,28.191Z" transform="translate(-95.01 -12.347)" fill="#cfd2d3"/>
      <path id="Trazado_879849" data-name="Trazado 879849" d="M230.686,390.186a2.966,2.966,0,1,0,5.933,0v-9.932h-5.933Z" transform="translate(-196.503 -328.449)" fill="#abc5c9"/>
      <path id="Trazado_879850" data-name="Trazado 879850" d="M224.478,358.909h7.393v.864h-7.393Z" transform="translate(-191.025 -309.614)" fill="#bacace"/>
      <path id="Trazado_879851" data-name="Trazado 879851" d="M345.282,373.163a10,10,0,0,1-.167-1.13h-.279a.565.565,0,1,0,0,1.13Z" transform="translate(-296.731 -321.195)" fill="#fcc9c0"/>
      <path id="Trazado_879852" data-name="Trazado 879852" d="M369.355,428.167v-.876a5.134,5.134,0,0,1-1.6.249,5.275,5.275,0,0,1-1.333-.167v.761a.823.823,0,0,1-.734.818,15.574,15.574,0,0,0-2.4.45,3.374,3.374,0,0,0,3.323,2.812h2.416a3.371,3.371,0,0,0,3.314-2.776,14.927,14.927,0,0,0-2.264-.453A.823.823,0,0,1,369.355,428.167Z" transform="translate(-313.515 -369.956)" fill="#fcc9c0"/>
      <path id="Trazado_879853" data-name="Trazado 879853" d="M369.7,359.809c2.766,0,3.982-2.895,4.211-5.145A5.972,5.972,0,0,1,369.7,352.4a5.971,5.971,0,0,1-4.211,2.263C365.716,356.915,366.932,359.809,369.7,359.809Z" transform="translate(-315.454 -303.871)" fill="#ffdbd3"/>
      <path id="Trazado_879854" data-name="Trazado 879854" d="M430.856,395.132a6.948,6.948,0,0,1-1.974,2.812v1.069a15.683,15.683,0,0,1,2.108.481,3.258,3.258,0,0,0,1.325-2.605v-1.825a2.2,2.2,0,0,1-.537.069Z" transform="translate(-371.396 -341.517)" fill="#b27946"/>
      <path id="Trazado_879855" data-name="Trazado 879855" d="M450.249,372.033h-.276a9.987,9.987,0,0,1-.159,1.13h.435a.573.573,0,0,0,.537-.395v-.339A.574.574,0,0,0,450.249,372.033Z" transform="translate(-389.866 -321.195)" fill="#fcc9c0"/>
      <g id="Grupo_1101784" data-name="Grupo 1101784" transform="translate(10.896 57.666)">
        <path id="Trazado_879856" data-name="Trazado 879856" d="M50.164,437.965v-4.559c0-1.609-1.83-2.665-3.919-3.236l-1.082,3.6a.823.823,0,0,1-1.334.379l-1.887-1.673-1.887,1.673a.823.823,0,0,1-1.334-.379l-1.1-3.668c-2.21.555-4.164,1.623-4.164,3.3v4.559a.823.823,0,0,1-.823.823h3.746a.823.823,0,0,1-.823-.823v-2.516a.823.823,0,1,1,1.646,0v2.516a.823.823,0,0,1-.823.823H41.8a.823.823,0,1,1,.007,0H47.24a.823.823,0,0,1-.823-.823v-2.516a.823.823,0,1,1,1.646,0v2.516a.823.823,0,0,1-.823.823h3.746A.823.823,0,0,1,50.164,437.965Zm-8.356-1.806a.823.823,0,1,1,.823-.823A.825.825,0,0,1,41.808,436.158Z" transform="translate(-32.629 -430.104)" fill="#ff826e"/>
        <path id="Trazado_879857" data-name="Trazado 879857" d="M340.773,455.484v-2.85c0-1.147-.926-2.011-2.212-2.621a5.02,5.02,0,0,1-4.874,3.847H331.27a5.023,5.023,0,0,1-4.89-3.9c-1.347.611-2.319,1.492-2.319,2.676v2.85a.823.823,0,0,1-.823.823h3.746a.823.823,0,0,1-.823-.823v-1.407a.823.823,0,1,1,1.646,0v1.407a.823.823,0,0,1-.823.823H337.85a.823.823,0,0,1-.823-.823v-1.407a.823.823,0,0,1,1.646,0v1.407a.823.823,0,0,1-.823.823H341.6A.823.823,0,0,1,340.773,455.484Z" transform="translate(-289.069 -447.624)" fill="#ff826e"/>
      </g>
    </g>
  </g>
</svg>
