<svg id="Grupo_1101722" data-name="Grupo 1101722" xmlns="http://www.w3.org/2000/svg" xmlns:xlink="http://www.w3.org/1999/xlink" width="324.634" height="329.113" viewBox="0 0 324.634 329.113">
  <defs>
    <clipPath id="clip-path">
      <rect id="Rectángulo_402047" data-name="Rectángulo 402047" width="162.131" height="68.914" fill="none"/>
    </clipPath>
    <clipPath id="clip-path-3">
      <rect id="Rectángulo_402041" data-name="Rectángulo 402041" width="17.355" height="20.946" fill="none"/>
    </clipPath>
    <clipPath id="clip-path-4">
      <rect id="Rectángulo_402042" data-name="Rectángulo 402042" width="33.713" height="17.266" fill="none"/>
    </clipPath>
    <clipPath id="clip-path-5">
      <rect id="Rectángulo_402051" data-name="Rectángulo 402051" width="208.77" height="175.529" fill="none"/>
    </clipPath>
    <clipPath id="clip-path-6">
      <rect id="Rectángulo_402052" data-name="Rectángulo 402052" width="324.634" height="329.113" rx="10" fill="#10314b"/>
    </clipPath>
    <clipPath id="clip-path-7">
      <rect id="Rectángulo_402040" data-name="Rectángulo 402040" width="345.357" height="877.454" fill="none"/>
    </clipPath>
    <clipPath id="clip-path-9">
      <rect id="Rectángulo_402036" data-name="Rectángulo 402036" width="59.153" height="132.408" fill="none"/>
    </clipPath>
  </defs>
  <rect id="Rectángulo_401917" data-name="Rectángulo 401917" width="180.553" height="329.113" rx="10" transform="translate(114.447)" fill="#706c65"/>
  <g id="Grupo_1101057" data-name="Grupo 1101057" transform="translate(121.563 19.688)">
    <g id="Grupo_1101056" data-name="Grupo 1101056" clip-path="url(#clip-path)">
      <g id="Grupo_1101055" data-name="Grupo 1101055" transform="translate(0 0)">
        <g id="Grupo_1101054" data-name="Grupo 1101054" clip-path="url(#clip-path)">
          <path id="Trazado_877987" data-name="Trazado 877987" d="M4,68.914H158.134a4,4,0,0,0,4-4V4a4,4,0,0,0-4-4H4A4,4,0,0,0,0,4v60.92a4,4,0,0,0,4,4" transform="translate(0 0)" fill="#e0e0e0"/>
          <path id="Trazado_877988" data-name="Trazado 877988" d="M12.25,33.113l.091-13.979a17.834,17.834,0,0,1,11.532,4.5A16.531,16.531,0,0,1,29.43,38.108a19.659,19.659,0,0,1-.326,2.031c0,.016-.005.032-.009.048h0L12.25,36.4Z" transform="translate(120.22 0.19)" fill="#e2dacc"/>
          <path id="Trazado_877989" data-name="Trazado 877989" d="M32.921,28.809a16.581,16.581,0,0,1,13.595-9.517c.176-.018.353-.034.533-.047.113-.008.225-.019.339-.025q.5-.027,1.014-.029l.046,0h.045v0h0L48.4,33.169l-.021,3.284L31.533,40.129l-.021.005h0a16.619,16.619,0,0,1-.374-3.624,18.138,18.138,0,0,1,1.783-7.7" transform="translate(82.19 0.19)" fill="#e2dacc"/>
          <g id="Grupo_1101050" data-name="Grupo 1101050" transform="translate(113.328 19.378)" opacity="0.2">
            <g id="Grupo_1101049" data-name="Grupo 1101049">
              <g id="Grupo_1101048" data-name="Grupo 1101048" clip-path="url(#clip-path-3)">
                <path id="Trazado_877990" data-name="Trazado 877990" d="M32.921,28.809a16.581,16.581,0,0,1,13.595-9.517c.176-.018.353-.034.533-.047.113-.008.225-.019.339-.025q.5-.027,1.014-.029l.046,0h.045v0h0L48.4,33.169l-.021,3.284L31.533,40.129l-.021.005h0a16.619,16.619,0,0,1-.374-3.624,18.138,18.138,0,0,1,1.783-7.7" transform="translate(-31.138 -19.187)"/>
              </g>
            </g>
          </g>
          <path id="Trazado_877991" data-name="Trazado 877991" d="M30.455,37.955,47.3,41.745a17.264,17.264,0,0,1-33.712-.114l16.848-3.675" transform="translate(101.113 0.377)" fill="#e2dacc"/>
          <g id="Grupo_1101053" data-name="Grupo 1101053" transform="translate(114.698 38.332)" opacity="0.1">
            <g id="Grupo_1101052" data-name="Grupo 1101052">
              <g id="Grupo_1101051" data-name="Grupo 1101051" clip-path="url(#clip-path-4)">
                <path id="Trazado_877992" data-name="Trazado 877992" d="M30.455,37.955,47.3,41.745a17.264,17.264,0,0,1-33.712-.114l16.848-3.675" transform="translate(-13.585 -37.956)"/>
              </g>
            </g>
          </g>
          <rect id="Rectángulo_402043" data-name="Rectángulo 402043" width="85.576" height="3.877" transform="translate(16.468 23.504)" fill="#fff"/>
          <rect id="Rectángulo_402044" data-name="Rectángulo 402044" width="85.576" height="3.877" transform="translate(16.468 33.725)" fill="#fff"/>
          <rect id="Rectángulo_402045" data-name="Rectángulo 402045" width="46.251" height="3.877" transform="translate(55.793 45.026)" fill="#fff"/>
        </g>
      </g>
    </g>
  </g>
  <g id="Grupo_1101061" data-name="Grupo 1101061" transform="translate(6.588 56.31)">
    <path id="Trazado_99257" data-name="Trazado 99257" d="M418.187,104.678a1.988,1.988,0,1,1-1.987-1.9A1.944,1.944,0,0,1,418.187,104.678Z" transform="translate(-414.214 -102.779)" fill="#10314b"/>
    <path id="Trazado_99258" data-name="Trazado 99258" d="M426.633,104.678a1.988,1.988,0,1,1-1.985-1.9A1.944,1.944,0,0,1,426.633,104.678Z" transform="translate(-404.784 -102.779)" fill="#10314b"/>
    <path id="Trazado_99259" data-name="Trazado 99259" d="M435.079,104.678a1.988,1.988,0,1,1-1.985-1.9A1.944,1.944,0,0,1,435.079,104.678Z" transform="translate(-395.354 -102.779)" fill="#10314b"/>
    <path id="Trazado_99260" data-name="Trazado 99260" d="M443.526,104.678a1.988,1.988,0,1,1-1.987-1.9A1.944,1.944,0,0,1,443.526,104.678Z" transform="translate(-385.924 -102.779)" fill="#10314b"/>
    <path id="Trazado_99261" data-name="Trazado 99261" d="M451.972,104.678a1.988,1.988,0,1,1-1.985-1.9A1.944,1.944,0,0,1,451.972,104.678Z" transform="translate(-376.494 -102.779)" fill="#10314b"/>
    <ellipse id="Elipse_3975" data-name="Elipse 3975" cx="1.986" cy="1.9" rx="1.986" ry="1.9" transform="translate(0 15.196)" fill="#10314b"/>
    <path id="Trazado_99268" data-name="Trazado 99268" d="M426.633,112.186a1.988,1.988,0,1,1-1.985-1.9A1.945,1.945,0,0,1,426.633,112.186Z" transform="translate(-404.784 -95.09)" fill="#10314b"/>
    <ellipse id="Elipse_3976" data-name="Elipse 3976" cx="1.986" cy="1.9" rx="1.986" ry="1.9" transform="translate(35.752 15.196)" fill="#10314b"/>
    <path id="Trazado_99269" data-name="Trazado 99269" d="M443.526,112.186a1.988,1.988,0,1,1-1.987-1.9A1.946,1.946,0,0,1,443.526,112.186Z" transform="translate(-385.924 -95.09)" fill="#10314b"/>
    <path id="Trazado_99270" data-name="Trazado 99270" d="M451.972,112.186a1.988,1.988,0,1,1-1.985-1.9A1.945,1.945,0,0,1,451.972,112.186Z" transform="translate(-376.494 -95.09)" fill="#10314b"/>
    <path id="Trazado_99274" data-name="Trazado 99274" d="M418.187,119.695a1.988,1.988,0,1,1-1.987-1.9A1.946,1.946,0,0,1,418.187,119.695Z" transform="translate(-414.214 -87.404)" fill="#10314b"/>
    <path id="Trazado_99275" data-name="Trazado 99275" d="M426.633,119.695a1.988,1.988,0,1,1-1.985-1.9A1.945,1.945,0,0,1,426.633,119.695Z" transform="translate(-404.784 -87.404)" fill="#10314b"/>
    <path id="Trazado_99276" data-name="Trazado 99276" d="M435.079,119.695a1.988,1.988,0,1,1-1.985-1.9A1.945,1.945,0,0,1,435.079,119.695Z" transform="translate(-395.354 -87.404)" fill="#10314b"/>
    <path id="Trazado_99277" data-name="Trazado 99277" d="M443.526,119.695a1.988,1.988,0,1,1-1.987-1.9A1.946,1.946,0,0,1,443.526,119.695Z" transform="translate(-385.924 -87.404)" fill="#10314b"/>
    <path id="Trazado_99278" data-name="Trazado 99278" d="M451.972,119.695a1.988,1.988,0,1,1-1.985-1.9A1.945,1.945,0,0,1,451.972,119.695Z" transform="translate(-376.494 -87.404)" fill="#10314b"/>
    <ellipse id="Elipse_3980" data-name="Elipse 3980" cx="1.986" cy="1.9" rx="1.986" ry="1.9" transform="translate(0 45.587)" fill="#10314b"/>
    <path id="Trazado_99285" data-name="Trazado 99285" d="M426.633,127.2a1.988,1.988,0,1,1-1.985-1.9A1.943,1.943,0,0,1,426.633,127.2Z" transform="translate(-404.784 -79.715)" fill="#10314b"/>
    <ellipse id="Elipse_3981" data-name="Elipse 3981" cx="1.986" cy="1.9" rx="1.986" ry="1.9" transform="translate(35.752 45.587)" fill="#10314b"/>
    <path id="Trazado_99286" data-name="Trazado 99286" d="M443.526,127.2a1.988,1.988,0,1,1-1.987-1.9A1.944,1.944,0,0,1,443.526,127.2Z" transform="translate(-385.924 -79.715)" fill="#10314b"/>
    <path id="Trazado_99287" data-name="Trazado 99287" d="M451.972,127.2a1.988,1.988,0,1,1-1.985-1.9A1.944,1.944,0,0,1,451.972,127.2Z" transform="translate(-376.494 -79.715)" fill="#10314b"/>
    <ellipse id="Elipse_3985" data-name="Elipse 3985" cx="1.986" cy="1.9" rx="1.986" ry="1.9" transform="translate(0 60.783)" fill="#10314b"/>
    <path id="Trazado_99291" data-name="Trazado 99291" d="M426.633,134.711a1.988,1.988,0,1,1-1.985-1.9A1.943,1.943,0,0,1,426.633,134.711Z" transform="translate(-404.784 -72.026)" fill="#10314b"/>
    <ellipse id="Elipse_3986" data-name="Elipse 3986" cx="1.986" cy="1.9" rx="1.986" ry="1.9" transform="translate(35.752 60.783)" fill="#10314b"/>
    <path id="Trazado_99292" data-name="Trazado 99292" d="M443.526,134.711a1.988,1.988,0,1,1-1.987-1.9A1.944,1.944,0,0,1,443.526,134.711Z" transform="translate(-385.924 -72.026)" fill="#10314b"/>
    <path id="Trazado_99293" data-name="Trazado 99293" d="M451.972,134.711a1.988,1.988,0,1,1-1.985-1.9A1.944,1.944,0,0,1,451.972,134.711Z" transform="translate(-376.494 -72.026)" fill="#10314b"/>
  </g>
  <g id="Grupo_1101062" data-name="Grupo 1101062" transform="translate(217.887 74.803)">
    <path id="Trazado_873354" data-name="Trazado 873354" d="M325.19,455.961a11.516,11.516,0,0,0,3.383,8.169l11.694,11.69-11.694,11.69a11.556,11.556,0,0,0,16.342,16.342l11.69-11.69,11.69,11.69a11.554,11.554,0,0,0,16.339-16.342l-11.69-11.69,11.69-11.69a11.554,11.554,0,0,0,0-16.339h0a11.555,11.555,0,0,0-16.339,0l-11.69,11.691-11.69-11.691a11.56,11.56,0,0,0-16.342,0h0a11.518,11.518,0,0,0-3.383,8.17Z" transform="translate(-325.19 -444.408)" fill="#3ba935"/>
    <path id="Trazado_113514" data-name="Trazado 113514" d="M325.19,449.661a5.237,5.237,0,0,0,1.538,3.715l5.318,5.316-5.318,5.316a5.255,5.255,0,0,0,7.431,7.431l5.316-5.316,5.316,5.316a5.254,5.254,0,0,0,7.43-7.431l-5.316-5.316,5.316-5.316a5.254,5.254,0,0,0,0-7.43h0a5.255,5.255,0,0,0-7.43,0l-5.316,5.316-5.316-5.316a5.257,5.257,0,0,0-7.431,0h0a5.238,5.238,0,0,0-1.538,3.715Z" transform="translate(-276.647 -395.866)" fill="#fac22d"/>
  </g>
  <g id="Grupo_1101060" data-name="Grupo 1101060" transform="translate(74.925 129.282)">
    <rect id="Rectángulo_402048" data-name="Rectángulo 402048" width="208.375" height="162.142" transform="translate(0.146 13.228)" fill="#fff"/>
    <g id="Grupo_1101059" data-name="Grupo 1101059">
      <g id="Grupo_1101058" data-name="Grupo 1101058" clip-path="url(#clip-path-5)">
        <path id="Trazado_877993" data-name="Trazado 877993" d="M.251,181.571c0-1.214.058-64.266.146-162.142l-.146.146,208.357.031h.018l-.176-.176c.007,58.444.013,113.724.018,162.142l.159-.159L.251,181.571l208.375.159h.159v-.159c.005-48.418.012-103.7.019-162.142v-.176h-.2L.251,19.283H.105v.146C.193,117.3.25,180.358.251,181.571" transform="translate(-0.105 -6.2)" fill="#263238"/>
        <path id="Trazado_877994" data-name="Trazado 877994" d="M84.8,201.2c.1,0,.176-17.625.176-39.362s-.079-39.366-.176-39.366-.176,17.622-.176,39.366S84.7,201.2,84.8,201.2" transform="translate(66.427 -39.442)" fill="#263238"/>
        <path id="Trazado_877995" data-name="Trazado 877995" d="M218.189,201.2c.1,0,.176-17.625.176-39.362s-.079-39.366-.176-39.366-.176,17.622-.176,39.366.079,39.362.176,39.362" transform="translate(-157.395 -39.442)" fill="#263238"/>
        <path id="Trazado_877996" data-name="Trazado 877996" d="M130.337,190.783c.1,0,.176-22.533.176-50.321s-.079-50.325-.176-50.325-.176,22.527-.176,50.325.079,50.321.176,50.321" transform="translate(-9.985 -29.029)" fill="#263238"/>
        <path id="Trazado_877997" data-name="Trazado 877997" d="M38.028,190.783c.1,0,.176-22.533.176-50.321s-.079-50.325-.176-50.325-.176,22.527-.176,50.325.079,50.321.176,50.321" transform="translate(144.904 -29.029)" fill="#263238"/>
        <path id="Trazado_877998" data-name="Trazado 877998" d="M270.545,190.783c.1,0,.176-22.533.176-50.321s-.079-50.325-.176-50.325-.176,22.527-.176,50.325.079,50.321.176,50.321" transform="translate(-245.245 -29.029)" fill="#263238"/>
        <path id="Trazado_877999" data-name="Trazado 877999" d="M170.27,183.389c.1,0,.176-26.017.176-58.1s-.079-58.108-.176-58.108-.176,26.011-.176,58.108.079,58.1.176,58.1" transform="translate(-76.99 -21.636)" fill="#263238"/>
        <path id="Trazado_878000" data-name="Trazado 878000" d="M83.793,122.116a.739.739,0,1,0,.738-.738.738.738,0,0,0-.738.738" transform="translate(66.693 -39.091)" fill="#263238"/>
        <path id="Trazado_878001" data-name="Trazado 878001" d="M129.331,89.785a.739.739,0,1,0,.738-.738.738.738,0,0,0-.738.738" transform="translate(-9.717 -28.679)" fill="#263238"/>
        <path id="Trazado_878002" data-name="Trazado 878002" d="M129.19,91.5a2.59,2.59,0,1,0-2.59-2.59,2.593,2.593,0,0,0,2.59,2.59m0-5.011a2.421,2.421,0,1,1-2.421,2.421,2.424,2.424,0,0,1,2.421-2.421" transform="translate(-8.838 -27.799)" fill="#263238"/>
        <path id="Trazado_878003" data-name="Trazado 878003" d="M169.264,66.827a.739.739,0,1,0,.738-.738.738.738,0,0,0-.738.738" transform="translate(-76.722 -21.285)" fill="#263238"/>
        <path id="Trazado_878004" data-name="Trazado 878004" d="M217.183,123.205a.739.739,0,1,0,.738-.738.738.738,0,0,0-.738.738" transform="translate(-157.127 -39.442)" fill="#263238"/>
        <path id="Trazado_878005" data-name="Trazado 878005" d="M269.565,89.785a.739.739,0,1,0,.738-.738.738.738,0,0,0-.738.738" transform="translate(-245.021 -28.679)" fill="#263238"/>
        <path id="Trazado_878006" data-name="Trazado 878006" d="M37.022,90.874a.739.739,0,1,0,.738-.738.738.738,0,0,0-.738.738" transform="translate(145.172 -29.029)" fill="#263238"/>
        <path id="Trazado_878007" data-name="Trazado 878007" d="M17.767,133.709a2.607,2.607,0,0,0,.582.188,12.454,12.454,0,0,1,1.676.574,16.148,16.148,0,0,1,5.381,4.084c2.015,2.181,4.032,5.221,6.564,8.635a41.8,41.8,0,0,0,4.46,5.177,24.7,24.7,0,0,0,2.9,2.394,20.1,20.1,0,0,0,3.487,1.907,19.665,19.665,0,0,0,8.356,1.405,22.507,22.507,0,0,0,4.495-.563,11.733,11.733,0,0,0,4.35-1.914,14.1,14.1,0,0,0,3.4-3.543c.938-1.357,1.779-2.792,2.593-4.254,1.622-2.935,3.308-5.891,5.224-8.857,1.881-3.007,3.626-6.175,5.573-9.29a44.478,44.478,0,0,1,6.823-8.8,19.826,19.826,0,0,1,4.583-3.283,15.211,15.211,0,0,1,5.445-1.595,19.362,19.362,0,0,1,5.794.327,19.566,19.566,0,0,1,5.5,2.087,28.621,28.621,0,0,1,8.6,8.017,88.9,88.9,0,0,1,6.143,9.88,100.81,100.81,0,0,0,5.952,9.665,47.52,47.52,0,0,0,7.206,8.215c.685.578,1.358,1.161,2.091,1.663a23.9,23.9,0,0,0,2.214,1.447,19.221,19.221,0,0,0,4.8,1.976,15.9,15.9,0,0,0,2.51.468,8.615,8.615,0,0,0,1.26.074c.42,0,.838.031,1.254.016a19.093,19.093,0,0,0,4.808-.892,32.558,32.558,0,0,0,8.127-4.246c2.413-1.662,4.621-3.382,6.778-4.935a36.176,36.176,0,0,1,6.436-3.9,21.29,21.29,0,0,1,6.407-1.82,15.791,15.791,0,0,1,5.757.371,9.683,9.683,0,0,1,1.245.4,7.989,7.989,0,0,1,1.163.459,14.955,14.955,0,0,1,2.034,1.127,21.718,21.718,0,0,1,3.06,2.449l1.064,1.167a9.782,9.782,0,0,1,.854.993l1.077,1.42a2.648,2.648,0,0,0,.4.465,2.575,2.575,0,0,0-.308-.525l-1-1.489a9.313,9.313,0,0,0-.822-1.035l-1.041-1.214a21.179,21.179,0,0,0-3.058-2.572,15.034,15.034,0,0,0-2.067-1.2,8.209,8.209,0,0,0-1.191-.495,9.821,9.821,0,0,0-1.279-.436,16.191,16.191,0,0,0-5.952-.474,21.764,21.764,0,0,0-6.619,1.793,36.566,36.566,0,0,0-6.6,3.906c-2.186,1.545-4.4,3.245-6.8,4.868a31.889,31.889,0,0,1-7.935,4.086,18.219,18.219,0,0,1-4.577.823c-.394.013-.79-.017-1.186-.022a8.062,8.062,0,0,1-1.192-.075,15.086,15.086,0,0,1-2.373-.455,21.593,21.593,0,0,1-8.7-4.918,46.744,46.744,0,0,1-7.023-8.065,100.583,100.583,0,0,1-5.873-9.587,89.24,89.24,0,0,0-6.2-10,29.583,29.583,0,0,0-8.92-8.308,20.181,20.181,0,0,0-11.92-2.542,16.267,16.267,0,0,0-5.812,1.709,20.845,20.845,0,0,0-4.821,3.462,45.283,45.283,0,0,0-6.971,9.023c-1.957,3.152-3.692,6.328-5.542,9.309-1.9,2.967-3.613,6-5.209,8.919-1.624,2.883-3.209,5.783-5.688,7.538a10.882,10.882,0,0,1-4.041,1.8,21.726,21.726,0,0,1-4.324.571,18.953,18.953,0,0,1-8.039-1.282,19.493,19.493,0,0,1-3.37-1.8,24.181,24.181,0,0,1-2.834-2.3,41.847,41.847,0,0,1-4.453-5.047,107.739,107.739,0,0,0-6.735-8.558,15.711,15.711,0,0,0-5.6-4,9.888,9.888,0,0,0-1.732-.482,2.588,2.588,0,0,0-.606-.083" transform="translate(0.54 -36.982)" fill="#e2dacc"/>
        <rect id="Rectángulo_402049" data-name="Rectángulo 402049" width="36.332" height="2.022" transform="translate(147.338 31.429)" fill="#263238"/>
        <rect id="Rectángulo_402050" data-name="Rectángulo 402050" width="17.954" height="2.022" transform="translate(165.716 36.16)" fill="#263238"/>
        <path id="Trazado_878008" data-name="Trazado 878008" d="M3.055,0H205.569a3.054,3.054,0,0,1,3.055,3.055V13.228H0V3.055A3.055,3.055,0,0,1,3.055,0" transform="translate(0.146)" fill="#263238"/>
        <path id="Trazado_878009" data-name="Trazado 878009" d="M11.752,9.456a1.423,1.423,0,1,0,1.423-1.423,1.423,1.423,0,0,0-1.423,1.423" transform="translate(186.205 -2.587)" fill="#fff"/>
        <path id="Trazado_878010" data-name="Trazado 878010" d="M20.915,9.456a1.423,1.423,0,1,0,1.423-1.423,1.423,1.423,0,0,0-1.423,1.423" transform="translate(170.83 -2.587)" fill="#fff"/>
        <path id="Trazado_878011" data-name="Trazado 878011" d="M30.079,9.456A1.423,1.423,0,1,0,31.5,8.033a1.424,1.424,0,0,0-1.424,1.423" transform="translate(155.454 -2.587)" fill="#fff"/>
      </g>
    </g>
  </g>
  <g id="Enmascarar_grupo_1098719" data-name="Enmascarar grupo 1098719" clip-path="url(#clip-path-6)">
    <g id="Grupo_1101047" data-name="Grupo 1101047" transform="translate(-110.045 12.051)">
      <g id="Grupo_1101046" data-name="Grupo 1101046" clip-path="url(#clip-path-7)">
        <g id="Grupo_1101045" data-name="Grupo 1101045">
          <g id="Grupo_1101044" data-name="Grupo 1101044" clip-path="url(#clip-path-7)">
            <path id="Trazado_877826" data-name="Trazado 877826" d="M137.97,310.6,157.7,290.781l-36.883-37.2L91.642,282.272l2.14,2.453c9.609,10.829,49.617,54.386,58.5,59.186,9.911,5.352-14.312-33.311-14.312-33.311" transform="translate(-91.642 519.266)" fill="#e2dacc"/>
            <path id="Trazado_877827" data-name="Trazado 877827" d="M120.83,283.445a18.172,18.172,0,0,0,3.224-12.611,17.67,17.67,0,0,0-5.919-11.377l-10.4,10.3Z" transform="translate(-107.164 531.29)" fill="#263238"/>
            <path id="Trazado_877828" data-name="Trazado 877828" d="M150.267,311.276s7.79,14.245,4.593,14.672-45.28-42.068-62.207-62.438l.893-.762,48.669,49.985s5.815-3.532,8.052-1.457" transform="translate(-92.653 538.029)" fill="#263238"/>
            <path id="Trazado_877829" data-name="Trazado 877829" d="M92.7,262.547a4.924,4.924,0,0,0,.564.707c.512.585,1.076,1.225,1.71,1.947q2.61,2.876,6.409,7.056c5.452,5.916,13.1,13.992,21.727,22.724s16.628,16.467,22.483,21.983q4.128,3.836,6.982,6.489c.716.64,1.35,1.21,1.929,1.731a4.788,4.788,0,0,0,.7.57,4.968,4.968,0,0,0-.616-.664l-1.847-1.816q-2.784-2.706-6.839-6.632c-5.772-5.6-13.709-13.379-22.343-22.108s-16.317-16.747-21.852-22.584q-3.877-4.087-6.553-6.912c-.667-.695-1.259-1.308-1.8-1.868a5.125,5.125,0,0,0-.658-.622" transform="translate(-92.363 537.619)" fill="#455a64"/>
            <path id="Trazado_877830" data-name="Trazado 877830" d="M94.186,281.217c.119.155,1.841-1.338,4.48-1.935,2.633-.64,4.837-.067,4.873-.259.085-.137-2.194-1.036-5.017-.36-2.831.649-4.474,2.469-4.337,2.554" transform="translate(-45.213 570.109)" fill="#455a64"/>
            <path id="Trazado_877831" data-name="Trazado 877831" d="M97.335,274.714a5.529,5.529,0,0,0,2.591-.241c1.393-.3,2.493-.689,2.453-.859s-1.195-.064-2.591.238-2.49.692-2.453.863" transform="translate(-53.667 560.112)" fill="#455a64"/>
            <path id="Trazado_877832" data-name="Trazado 877832" d="M98.006,272.555c-.009.174.963.375,2.176.445s2.2-.015,2.21-.189-.963-.375-2.173-.445-2.2.015-2.213.189" transform="translate(-55.728 557.677)" fill="#455a64"/>
            <path id="Trazado_877833" data-name="Trazado 877833" d="M97.672,270.653c-.125.122.625,1.1,1.676,2.188s2.005,1.865,2.13,1.743-.625-1.1-1.676-2.185-2.005-1.868-2.13-1.746" transform="translate(-53.77 554.194)" fill="#455a64"/>
            <path id="Trazado_877834" data-name="Trazado 877834" d="M97.013,269.628c-.152.07.36,1.439,1.515,2.792s2.423,2.082,2.514,1.941c.11-.146-.939-1.061-2.03-2.353s-1.835-2.463-2-2.38" transform="translate(-51.279 552.111)" fill="#455a64"/>
            <path id="Trazado_877835" data-name="Trazado 877835" d="M94.706,273.569a9.715,9.715,0,0,0,2.383,2.377,19.777,19.777,0,0,0,3.084,1.99,9.708,9.708,0,0,0,2.045.862,1.833,1.833,0,0,0,1.329-.143,1.333,1.333,0,0,0,.6-1.31,6.179,6.179,0,0,0-6.656-4.154,6.024,6.024,0,0,0-2.368.8c-.506.311-.731.549-.707.579a9.432,9.432,0,0,1,3.118-.933,6.062,6.062,0,0,1,3.352.728,5.22,5.22,0,0,1,2.627,3.042c.1.658-.5.954-1.167.78a9.956,9.956,0,0,1-1.9-.774,23.253,23.253,0,0,1-3.081-1.829c-1.673-1.182-2.578-2.091-2.652-2.018" transform="translate(-46.54 559.302)" fill="#455a64"/>
            <path id="Trazado_877836" data-name="Trazado 877836" d="M96.874,278.346a3.307,3.307,0,0,0,1.935-1.368,5.569,5.569,0,0,0,1.1-2.383,3.384,3.384,0,0,0-.753-3.2,1.34,1.34,0,0,0-1.835.356,3.685,3.685,0,0,0-.667,1.466,10.359,10.359,0,0,0-.329,2.563,4.815,4.815,0,0,0,.39,2.325c.1-.015-.043-.9.061-2.31a11.67,11.67,0,0,1,.442-2.423c.18-.829.866-1.954,1.57-1.46a3.024,3.024,0,0,1,.546,2.581,5.542,5.542,0,0,1-.887,2.216,12.18,12.18,0,0,1-1.573,1.637" transform="translate(-48.214 555.264)" fill="#455a64"/>
            <path id="Trazado_877837" data-name="Trazado 877837" d="M107.386,259.489c-.076.091,1.158.966,2.624,2.844a16.406,16.406,0,0,1,1.887,17.445c-1.033,2.149-2.051,3.267-1.96,3.34.03.024.311-.228.753-.744a13.814,13.814,0,0,0,1.606-2.392,15.915,15.915,0,0,0-1.938-17.933,13.87,13.87,0,0,0-2.079-2,3.111,3.111,0,0,0-.893-.564" transform="translate(-96.112 531.352)" fill="#455a64"/>
            <path id="Trazado_877838" data-name="Trazado 877838" d="M118.774,255.721c-.122-.125-3.688,3.121-7.964,7.247s-7.647,7.583-7.525,7.708,3.688-3.121,7.964-7.25,7.647-7.58,7.525-7.7" transform="translate(-88.193 523.636)" fill="#455a64"/>
            <path id="Trazado_877839" data-name="Trazado 877839" d="M102.624,267.687c-.131.1,1.871,2.92,4.843,5.967s5.724,5.141,5.827,5.01c.119-.14-2.438-2.423-5.373-5.452s-5.151-5.641-5.3-5.526" transform="translate(-80.689 548.138)" fill="#455a64"/>
            <path id="Trazado_877840" data-name="Trazado 877840" d="M109.623,265.288c-.18,0-.317.71-.631,1.509s-.67,1.426-.536,1.548.777-.393,1.131-1.32.207-1.746.037-1.737" transform="translate(-94.903 543.233)" fill="#455a64"/>
            <path id="Trazado_877841" data-name="Trazado 877841" d="M108.492,263.274c-.177,0-.326.622-.332,1.393s.125,1.4.3,1.4.326-.622.335-1.393-.128-1.4-.3-1.4" transform="translate(-93.073 539.108)" fill="#455a64"/>
            <path id="Trazado_877842" data-name="Trazado 877842" d="M108.519,261.5c-.1.152.393.64.744,1.378.366.728.448,1.42.628,1.435.168.03.387-.808-.058-1.713s-1.237-1.253-1.314-1.1" transform="translate(-95.432 535.401)" fill="#455a64"/>
            <path id="Trazado_877843" data-name="Trazado 877843" d="M109.543,260.324c-.161.07-.14.472.046.9s.466.716.628.646.14-.472-.046-.9-.466-.716-.628-.646" transform="translate(-98.492 533.046)" fill="#455a64"/>
            <path id="Trazado_877844" data-name="Trazado 877844" d="M89.947,301.824l-.677-27.957-52.378.93.558,40.912,3.249.152c14.467.546,73.6,1.752,83.209-1.347,10.719-3.459-33.961-12.691-33.961-12.691" transform="translate(107.353 560.8)" fill="#e2dacc"/>
            <path id="Trazado_877845" data-name="Trazado 877845" d="M78.767,297.238a18.166,18.166,0,0,0-6.882-11.048,17.655,17.655,0,0,0-12.31-3.59l.25,14.638Z" transform="translate(85.019 578.521)" fill="#263238"/>
            <path id="Trazado_877846" data-name="Trazado 877846" d="M111.181,284.774S126.859,289,124.96,291.6s-61.7,3.63-88.121,1.774L36.9,292.2l69.765-.6s1.466-6.647,4.514-6.827" transform="translate(107.964 583.134)" fill="#263238"/>
            <path id="Trazado_877847" data-name="Trazado 877847" d="M36.891,288.2a5.014,5.014,0,0,0,.9.082l2.588.113c2.591.067,5.772.149,9.527.244,8.046.152,19.164.213,31.44.015s23.394-.631,31.431-1.045c3.749-.222,6.927-.408,9.512-.561l2.584-.2a4.733,4.733,0,0,0,.9-.113,4.779,4.779,0,0,0-.905-.015c-.777.021-1.627.049-2.588.076q-3.881.146-9.521.36c-8.037.3-19.146.655-31.419.856s-23.382.21-31.425.174l-9.527-.046-2.591.009a4.949,4.949,0,0,0-.905.046" transform="translate(107.153 587.119)" fill="#455a64"/>
            <path id="Trazado_877848" data-name="Trazado 877848" d="M41.392,292.851c.2.021.3-2.255,1.7-4.575,1.356-2.344,3.295-3.541,3.182-3.7-.04-.159-2.267.869-3.73,3.377-1.487,2.493-1.311,4.937-1.152,4.9" transform="translate(173.24 582.698)" fill="#455a64"/>
            <path id="Trazado_877849" data-name="Trazado 877849" d="M47.143,287.76c.149.091.875-.823,1.618-2.039s1.222-2.277,1.073-2.368-.872.82-1.615,2.039-1.225,2.277-1.076,2.368" transform="translate(151.9 580.212)" fill="#455a64"/>
            <path id="Trazado_877850" data-name="Trazado 877850" d="M48.366,286.106c.119.128.936-.436,1.826-1.265s1.512-1.6,1.393-1.728-.939.439-1.826,1.265-1.512,1.6-1.393,1.728" transform="translate(146.398 579.696)" fill="#455a64"/>
            <path id="Trazado_877851" data-name="Trazado 877851" d="M48.524,282.7a6.2,6.2,0,0,0,2.74.3c1.512-.009,2.734-.158,2.734-.335a6.17,6.17,0,0,0-2.74-.3,6.16,6.16,0,0,0-2.734.332" transform="translate(143.473 578.205)" fill="#455a64"/>
            <path id="Trazado_877852" data-name="Trazado 877852" d="M48.607,281.376c-.055.158,1.286.737,3.066.835s3.179-.311,3.139-.475c-.03-.18-1.414-.055-3.1-.158s-3.051-.378-3.1-.2" transform="translate(142.408 576.06)" fill="#455a64"/>
            <path id="Trazado_877853" data-name="Trazado 877853" d="M44.229,286.527a9.72,9.72,0,0,0,3.365-.079,19.789,19.789,0,0,0,3.572-.85,9.937,9.937,0,0,0,2.036-.881,1.816,1.816,0,0,0,.814-1.061,1.322,1.322,0,0,0-.533-1.335,6.171,6.171,0,0,0-7.6,1.935,6.035,6.035,0,0,0-1.061,2.265,1.867,1.867,0,0,0-.07.911,9.46,9.46,0,0,1,1.484-2.9,6.069,6.069,0,0,1,2.844-1.917,5.218,5.218,0,0,1,4.014.2c.542.387.344,1.018-.244,1.384a10.1,10.1,0,0,1-1.877.841,23.118,23.118,0,0,1-3.45.96c-2.011.393-3.295.418-3.292.521" transform="translate(156.511 576.847)" fill="#455a64"/>
            <path id="Trazado_877854" data-name="Trazado 877854" d="M51.519,287.676a3.314,3.314,0,0,0,.347-2.344,5.526,5.526,0,0,0-.96-2.444,3.383,3.383,0,0,0-2.831-1.667,1.339,1.339,0,0,0-1.012,1.573,3.69,3.69,0,0,0,.6,1.493,10.241,10.241,0,0,0,1.624,2.008,4.906,4.906,0,0,0,1.951,1.332c.058-.085-.68-.594-1.627-1.643a11.757,11.757,0,0,1-1.445-2c-.472-.7-.811-1.975.03-2.143.841-.095,1.716.728,2.24,1.39a5.518,5.518,0,0,1,.991,2.173,12.362,12.362,0,0,1,.094,2.267" transform="translate(150.096 575.849)" fill="#455a64"/>
            <path id="Trazado_877855" data-name="Trazado 877855" d="M59.593,282.767c.015.119,1.5-.168,3.871.07a16.407,16.407,0,0,1,13.907,10.7c.838,2.231.942,3.736,1.058,3.721a2.994,2.994,0,0,0-.015-1.058,13.831,13.831,0,0,0-.619-2.813,15.92,15.92,0,0,0-14.294-11,13.827,13.827,0,0,0-2.88.122,3.1,3.1,0,0,0-1.027.256" transform="translate(85.273 578.202)" fill="#455a64"/>
            <path id="Trazado_877856" data-name="Trazado 877856" d="M64.277,275.315c-.174,0-.3,4.821-.268,10.764s.189,10.765.366,10.765.3-4.818.268-10.765-.192-10.764-.366-10.764" transform="translate(85.643 563.765)" fill="#455a64"/>
            <path id="Trazado_877857" data-name="Trazado 877857" d="M52.419,285.76c-.021.164,3.4.667,7.659.628s7.674-.582,7.653-.747c-.021-.183-3.441.085-7.656.113s-7.638-.177-7.656.006" transform="translate(117.869 584.781)" fill="#455a64"/>
            <path id="Trazado_877858" data-name="Trazado 877858" d="M60.328,285.7c-.125.131.293.719.655,1.5s.564,1.472.747,1.457c.168-.006.256-.832-.174-1.728s-1.119-1.356-1.228-1.228" transform="translate(99.695 584.996)" fill="#455a64"/>
            <path id="Trazado_877859" data-name="Trazado 877859" d="M61.468,284.151c-.122.125.226.664.777,1.2s1.1.878,1.219.753-.226-.664-.777-1.207-1.1-.875-1.219-.75" transform="translate(94.605 581.804)" fill="#455a64"/>
            <path id="Trazado_877860" data-name="Trazado 877860" d="M62.953,283.654c.04.177.734.158,1.509.418.78.238,1.335.658,1.472.536.137-.1-.314-.838-1.277-1.143s-1.759.027-1.7.189" transform="translate(87.546 580.195)" fill="#455a64"/>
            <path id="Trazado_877861" data-name="Trazado 877861" d="M64.72,283.207c-.061.165.244.43.683.588s.841.159.9-.006-.247-.427-.683-.588-.841-.159-.9.006" transform="translate(81.82 579.669)" fill="#455a64"/>
            <path id="Trazado_877862" data-name="Trazado 877862" d="M87.582,93.932C107.011,151.275,141.99,255.1,141.99,255.1c2.475,1.49,11.688,6.373,14.519,6.952,3.429.7,8.025,1.451,10.664,1.082,3.27-.457,5.4,3.292,3.255,5.379s-11.124,3.569-21.313.509-2.609,12.4.728,17.5,12.8,21.846,12.045,24.11c-1.106,3.322-5.19,1.938-8.406-3.237-3.252-5.233-12.889-20.2-14.294-19.414-2.77,1.545,13.928,28.194,13.928,28.194s3.837,4.675.9,6.955c-5.312,4.114-21.651-24.534-23.147-27.307-1.039-1.926-2.423-.411-1.2,1.6,1.262,2.066,15.492,25.485,11.185,28.158-4.459,2.767-14.4-20.7-18.509-25.043-4.654-4.928,9.353,19.545,5.294,22.492-1.512,1.1-2.792,1.707-9.82-12.465-4.468-9.009-11.2-28.77-15.668-42.482-14.925-29.947-57.69-122.4-71.822-185.334" transform="translate(81.633 169.436)" fill="#e5baab"/>
            <path id="Trazado_877863" data-name="Trazado 877863" d="M115.7,41.1S74.135,29.072,65.94,92.68c-5.132,39.855-16.823,136.089-21.3,185.578-.421,4.654,2.505,2.825,2.161,6.684-.4,4.468-4.373,8.107-4.38,11.307-.015,10.2,11.67,10.015,11.67,10.015l108.645,5.184s10.07.21,10.109-8.582c.03-6.687-4.355-9.652-4.678-13.818-4.62-59.5-4.538-207.68-11.237-228.039-6.391-19.423-10.5-19.822-41.232-19.9" transform="translate(43.214 82.313)" fill="#e2dacc"/>
            <path id="Trazado_877864" data-name="Trazado 877864" d="M79.84,41.507a24.434,24.434,0,0,0-2.551,2.7c-1.524,1.71-3.651,4.05-5.925,6.714s-4.209,5.187-5.522,7.071a18.511,18.511,0,0,0-1.966,3.157A25.952,25.952,0,0,0,66.2,58.257c1.4-1.807,3.371-4.273,5.644-6.924s4.343-5.047,5.785-6.833a19.626,19.626,0,0,0,2.207-2.993" transform="translate(70.851 84.989)" fill="#263238"/>
            <path id="Trazado_877865" data-name="Trazado 877865" d="M50.414,41.15a11.3,11.3,0,0,0,1.725.817c1.49.613,3.081,1.268,4.809,1.981,4.075,1.627,9.75,3.776,16.077,5.97s12.118,4.02,16.33,5.263l5,1.417a11.157,11.157,0,0,0,1.862.43,10.918,10.918,0,0,0-1.792-.664l-4.94-1.612c-4.172-1.35-9.926-3.243-16.25-5.434s-12.014-4.27-16.128-5.791l-4.876-1.789a11.173,11.173,0,0,0-1.816-.588" transform="translate(95.492 84.254)" fill="#263238"/>
            <path id="Trazado_877866" data-name="Trazado 877866" d="M50.769,42.536c-.177,0-.317,2.594-.317,5.794s.14,5.794.317,5.794.317-2.594.317-5.794-.143-5.794-.317-5.794" transform="translate(140.508 87.101)" fill="#263238"/>
            <path id="Trazado_877867" data-name="Trazado 877867" d="M47.9,48.163c0,.174,18.46.317,41.226.317s41.232-.143,41.232-.317-18.457-.317-41.232-.317-41.226.14-41.226.317" transform="translate(69.009 97.975)" fill="#e0e0e0"/>
            <path id="Trazado_877868" data-name="Trazado 877868" d="M46.723,54.06a5.185,5.185,0,0,0,.93.018l2.664-.073c2.645-.094,5.919-.213,9.789-.354l32.3-1.015c12.438-.226,23.684-.433,32.312-.588,3.874-.055,7.147-.1,9.8-.134.99-.021,1.868-.043,2.664-.061a4.588,4.588,0,0,0,.926-.064,5.248,5.248,0,0,0-.926-.064c-.8-.015-1.673-.037-2.664-.058l-9.8-.07c-8.271-.009-19.7.094-32.327.405s-24.037.78-32.3,1.2l-9.783.555c-.991.07-1.862.134-2.658.192a5.328,5.328,0,0,0-.923.11" transform="translate(64.857 105.655)" fill="#e0e0e0"/>
            <path id="Trazado_877869" data-name="Trazado 877869" d="M46.556,56.546c0,.174,20.855.317,46.578.317s46.584-.143,46.584-.317-20.852-.317-46.584-.317-46.578.143-46.578.317" transform="translate(63.75 115.141)" fill="#e0e0e0"/>
            <path id="Trazado_877870" data-name="Trazado 877870" d="M46.222,60.806c0,.174,21.617.317,48.282.317s48.282-.143,48.282-.317-21.611-.317-48.282-.317-48.282.143-48.282.317" transform="translate(61.7 123.864)" fill="#e0e0e0"/>
            <path id="Trazado_877871" data-name="Trazado 877871" d="M46.222,65.483c0,.177,22.111.317,49.379.317s49.382-.14,49.382-.317-22.105-.317-49.382-.317-49.379.14-49.379.317" transform="translate(59.503 133.441)" fill="#e0e0e0"/>
            <path id="Trazado_877872" data-name="Trazado 877872" d="M46.223,70.16c0,.174,22.416.317,50.053.317,27.652,0,50.059-.143,50.059-.317s-22.407-.317-50.059-.317c-27.637,0-50.053.143-50.053.317" transform="translate(58.149 143.018)" fill="#e0e0e0"/>
            <path id="Trazado_877873" data-name="Trazado 877873" d="M46.222,75.171c0,.174,22.8.317,50.924.317s50.927-.143,50.927-.317-22.8-.317-50.927-.317-50.924.14-50.924.317" transform="translate(56.413 153.279)" fill="#e0e0e0"/>
            <path id="Trazado_877874" data-name="Trazado 877874" d="M46.222,79.514c0,.177,23.187.317,51.781.317s51.784-.14,51.784-.317S126.608,79.2,98,79.2s-51.781.143-51.781.317" transform="translate(54.7 162.172)" fill="#e0e0e0"/>
            <path id="Trazado_877875" data-name="Trazado 877875" d="M46.222,84.282c0,.174,23.678.317,52.878.317s52.884-.143,52.884-.317-23.672-.317-52.884-.317-52.878.143-52.878.317" transform="translate(52.502 171.936)" fill="#e0e0e0"/>
            <path id="Trazado_877876" data-name="Trazado 877876" d="M46.222,89.05c0,.174,23.955.317,53.493.317,29.554,0,53.5-.143,53.5-.317s-23.946-.317-53.5-.317c-29.538,0-53.493.143-53.493.317" transform="translate(51.271 181.699)" fill="#e0e0e0"/>
            <path id="Trazado_877877" data-name="Trazado 877877" d="M46.222,93.818c0,.177,24.327.317,54.331.317s54.338-.14,54.338-.317-24.324-.317-54.338-.317-54.331.143-54.331.317" transform="translate(49.595 191.463)" fill="#e0e0e0"/>
            <path id="Trazado_877878" data-name="Trazado 877878" d="M46.222,98.585c0,.177,24.7.317,55.154.317s55.16-.14,55.16-.317-24.693-.317-55.16-.317-55.154.14-55.154.317" transform="translate(47.949 201.224)" fill="#e0e0e0"/>
            <path id="Trazado_877879" data-name="Trazado 877879" d="M45.38,103.353c0,.174,25.631.317,57.239.317,31.623,0,57.248-.143,57.248-.317s-25.625-.317-57.248-.317c-31.608,0-57.239.143-57.239.317" transform="translate(47.185 210.988)" fill="#e0e0e0"/>
            <path id="Trazado_877880" data-name="Trazado 877880" d="M44.687,108.121c0,.174,26.454.317,59.077.317s59.083-.143,59.083-.317-26.448-.317-59.083-.317-59.077.143-59.077.317" transform="translate(46.318 220.751)" fill="#e0e0e0"/>
            <path id="Trazado_877881" data-name="Trazado 877881" d="M44.536,112.889c0,.177,26.893.317,60.055.317,33.177,0,60.064-.14,60.064-.317s-26.887-.317-60.064-.317c-33.162,0-60.055.143-60.055.317" transform="translate(44.969 230.515)" fill="#e0e0e0"/>
            <path id="Trazado_877882" data-name="Trazado 877882" d="M44.537,117.657c0,.177,27.207.317,60.759.317s60.765-.14,60.765-.317-27.2-.317-60.765-.317-60.759.14-60.759.317" transform="translate(43.56 240.278)" fill="#e0e0e0"/>
            <path id="Trazado_877883" data-name="Trazado 877883" d="M43.958,123.011c0,.174,27.423.07,61.238-.235,33.83-.3,61.241-.695,61.241-.872s-27.417-.067-61.247.238c-33.814.3-61.235.692-61.232.869" transform="translate(44.95 249.455)" fill="#e0e0e0"/>
            <path id="Trazado_877884" data-name="Trazado 877884" d="M42.492,126.662c0,.174,28.417.594,63.472.936s63.478.478,63.481.3-28.414-.594-63.478-.936c-35.049-.341-63.472-.478-63.475-.3" transform="translate(46.41 259.208)" fill="#e0e0e0"/>
            <path id="Trazado_877885" data-name="Trazado 877885" d="M116.413,193.076a27.9,27.9,0,0,1-19.877-5.16c-5.724-4.145-10.188-9.789-14.147-15.644a146.161,146.161,0,0,1-24.629-72c-.375-5.76-1.021-29.724.253-39.379,3.584,27.591,12.038,57.58,19.13,74.395,9.125,21.63,17.823,37.258,33.147,55.042" transform="translate(54.432 124.693)" fill="#e2dacc"/>
            <g id="Grupo_1101043" data-name="Grupo 1101043" transform="translate(111.691 185.587)" opacity="0.2">
              <g id="Grupo_1101042" data-name="Grupo 1101042">
                <g id="Grupo_1101041" data-name="Grupo 1101041" clip-path="url(#clip-path-9)">
                  <path id="Trazado_877886" data-name="Trazado 877886" d="M116.413,193.076a27.9,27.9,0,0,1-19.877-5.16c-5.724-4.145-10.188-9.789-14.147-15.644a146.161,146.161,0,0,1-24.629-72c-.375-5.76-1.021-29.724.253-39.379,3.584,27.591,12.038,57.58,19.13,74.395,9.125,21.63,17.823,37.258,33.147,55.042" transform="translate(-57.259 -60.894)"/>
                </g>
              </g>
            </g>
            <path id="Trazado_877887" data-name="Trazado 877887" d="M50.165,108.6a112.383,112.383,0,0,0,10.841,10.259,140.143,140.143,0,0,0,13,9.686,155.511,155.511,0,0,0,17.3,9.734,154.891,154.891,0,0,0,18.493,7.232,139.183,139.183,0,0,0,15.726,3.932,112.172,112.172,0,0,0,14.8,1.9,6.465,6.465,0,0,0-1.024-.177l-2.941-.387c-2.557-.286-6.242-.878-10.752-1.777a148.507,148.507,0,0,1-15.635-4.05,161.235,161.235,0,0,1-18.4-7.247,161.243,161.243,0,0,1-17.253-9.652,148.139,148.139,0,0,1-13.032-9.542c-3.551-2.92-6.342-5.4-8.183-7.2-.817-.768-1.527-1.439-2.161-2.033a6.282,6.282,0,0,0-.783-.68" transform="translate(52.144 222.37)" fill="#263238"/>
            <path id="Trazado_877888" data-name="Trazado 877888" d="M50.791,99.378a2.391,2.391,0,0,0,.613-.152c.546-.174,1.109-.357,1.713-.552,1.835-.64,3.907-1.359,6.251-2.176,5.708-2.121,12.712-4.727,20.459-7.6,7.994-2.944,15.339-5.3,20.7-6.851l6.364-1.8c.61-.174,1.179-.338,1.731-.494a2.365,2.365,0,0,0,.591-.216,2.283,2.283,0,0,0-.625.091c-.558.122-1.14.247-1.759.381-1.527.335-3.721.884-6.425,1.6-5.4,1.445-12.788,3.74-20.8,6.687s-15.178,5.794-20.4,7.781c-2.319.887-4.364,1.67-6.178,2.365-.591.232-1.143.451-1.673.664a2.4,2.4,0,0,0-.57.271" transform="translate(81.348 162.856)" fill="#263238"/>
            <path id="Trazado_877889" data-name="Trazado 877889" d="M70.907,164.253s-.271-.823-.844-2.368q-.923-2.528-2.469-6.772c-2.088-5.9-5.135-14.443-8.07-25.235-2.892-10.8-4.965-24-7.1-38.63-1.082-7.257-1.6-15.211.972-22.83A31.012,31.012,0,0,1,59.542,58.01a46.7,46.7,0,0,1,4.416-4.4,18.541,18.541,0,0,1,5.172-3.484,20.725,20.725,0,0,1,12.209-1.25A28.783,28.783,0,0,1,92.5,53.453c6.854,4.41,10.018,12.011,12.383,18.887,4.666,14.01,8.872,26.643,12.422,37.313,3.517,10.5,6.379,19.054,8.418,25.144q1.454,4.284,2.319,6.827c.536,1.557.85,2.365.85,2.365s-.232-.835-.728-2.4q-.823-2.565-2.207-6.863c-1.99-6.1-4.788-14.678-8.226-25.211-3.514-10.682-7.677-23.33-12.294-37.362a59.089,59.089,0,0,0-4.526-10.472,25.95,25.95,0,0,0-8.061-8.738,29.438,29.438,0,0,0-11.4-4.69,21.362,21.362,0,0,0-12.578,1.3,19.222,19.222,0,0,0-5.337,3.587A47.523,47.523,0,0,0,59.067,57.6a31.6,31.6,0,0,0-6.254,10.618C50.2,75.991,50.75,84.055,51.85,91.33c2.164,14.641,4.282,27.835,7.241,38.663,3,10.8,6.111,19.326,8.268,25.2,2.185,5.87,3.548,9.055,3.548,9.055" transform="translate(61.232 97.981)" fill="#263238"/>
            <path id="Trazado_877890" data-name="Trazado 877890" d="M151.624,143.275,149.2,320.469a199.014,199.014,0,0,1-3.81,36.411c-3.273,16.348-9.058,37.67-18.521,50.885-14.373,20.069-64.971,76.8-64.971,76.8l42.58,49.769s90.3-71.923,96.134-138.342c2.962-33.738,0-235.481,0-235.481Z" transform="translate(-45.238 293.385)" fill="#263238"/>
            <path id="Trazado_877891" data-name="Trazado 877891" d="M154.511,132.682l1.1,458.43H85.033L72.577,192.256S52.145,178.809,48.548,161.6c-4.855-23.251-2.685-34.1-2.685-34.1Z" transform="translate(51.444 261.079)" fill="#263238"/>
            <rect id="Rectángulo_402037" data-name="Rectángulo 402037" width="76.693" height="11.06" transform="translate(133.551 841.131)" fill="#455a64"/>
            <rect id="Rectángulo_402038" data-name="Rectángulo 402038" width="76.691" height="11.059" transform="translate(62.827 831.015) rotate(-133.483)" fill="#455a64"/>
            <path id="Trazado_877892" data-name="Trazado 877892" d="M91.136,253.226a2.839,2.839,0,0,0,.43.53c.418.451.853.923,1.326,1.435,1.408,1.515,3.029,3.261,4.885,5.257,4.124,4.437,9.695,10.691,16.125,17.354,6.354,6.388,12.1,12.163,16.708,16.8,1.944,1.911,3.645,3.581,5.12,5.032l1.414,1.347a2.872,2.872,0,0,0,.524.439,2.8,2.8,0,0,0-.433-.53c-.421-.448-.856-.92-1.332-1.429l-4.974-5.175c-4.572-4.666-10.268-10.487-16.57-16.924L98.1,260.141c-2.1-2.188-3.828-3.932-5.035-5.123-.5-.482-.966-.926-1.411-1.35a2.774,2.774,0,0,0-.521-.442" transform="translate(-70.064 518.53)" fill="#263238"/>
            <path id="Trazado_877893" data-name="Trazado 877893" d="M54.268,128.413s.067.393.226,1.158a18.91,18.91,0,0,0,1.085,3.295,19.632,19.632,0,0,0,2.993,4.77,67.231,67.231,0,0,0,5.391,5.483,54.289,54.289,0,0,1,6.437,7.089c2.063,2.914,1.89,6.955,2.106,11,.274,8.223.585,17.567.933,27.887.344,10.338.725,21.654,1.131,33.8.341,12.157.7,25.137,1.085,38.8.71,27.326,1.759,57.361,2.392,88.9,1.055,63.063,2.011,120.144,2.706,161.562q1.161,60.55,1.286,66.912s.043-1.6.009-4.645c-.037-3.133-.091-7.6-.155-13.309-.165-11.651-.4-28.356-.692-48.964-.646-41.421-1.536-98.505-2.52-161.571-.634-31.541-1.7-61.576-2.441-88.9-.4-13.657-.783-26.64-1.143-38.794-.436-12.142-.841-23.458-1.21-33.8-.381-10.32-.725-19.664-1.027-27.883-.235-4.026-.064-8.137-2.207-11.155a53.678,53.678,0,0,0-6.519-7.1,69.6,69.6,0,0,1-5.419-5.425,19.874,19.874,0,0,1-3.02-4.7,20.268,20.268,0,0,1-1.137-3.258c-.18-.756-.29-1.143-.29-1.143" transform="translate(97.904 262.952)" fill="#455a64"/>
            <path id="Trazado_877894" data-name="Trazado 877894" d="M49.1,132.026c.146.1.6-.436,1-1.189s.61-1.423.448-1.493-.613.466-1.006,1.192-.591,1.393-.445,1.49" transform="translate(145.244 264.847)" fill="#455a64"/>
            <path id="Trazado_877895" data-name="Trazado 877895" d="M50.164,133.151c.11.134.7-.238,1.314-.835s1-1.173.872-1.289-.722.259-1.314.835-.981,1.155-.872,1.289" transform="translate(140.153 268.263)" fill="#455a64"/>
            <path id="Trazado_877896" data-name="Trazado 877896" d="M51.684,133.764c.07.162.741-.034,1.5-.436s1.3-.847,1.2-1-.765.049-1.5.436-1.271.835-1.2,1" transform="translate(133.468 270.877)" fill="#455a64"/>
            <path id="Trazado_877897" data-name="Trazado 877897" d="M53.507,133.8c.018.174.716.18,1.554.009s1.481-.442,1.432-.61-.747-.174-1.557-.012-1.448.439-1.429.613" transform="translate(125.79 272.481)" fill="#455a64"/>
            <path id="Trazado_877898" data-name="Trazado 877898" d="M55.487,133.348c-.037.171.622.4,1.475.515.847.134,1.548.024,1.551-.158,0-.168-.661-.341-1.478-.472-.817-.107-1.512-.055-1.548.116" transform="translate(117.738 272.707)" fill="#455a64"/>
            <path id="Trazado_877899" data-name="Trazado 877899" d="M57.446,132.591c-.085.152.478.564,1.259.914s1.46.5,1.518.338-.506-.576-1.259-.914-1.432-.491-1.518-.338" transform="translate(110.077 271.386)" fill="#455a64"/>
            <path id="Trazado_877900" data-name="Trazado 877900" d="M59.212,131.379c-.125.125.3.677.954,1.234s1.262.893,1.365.753-.323-.695-.954-1.234-1.24-.875-1.365-.753" transform="translate(103.417 268.974)" fill="#455a64"/>
            <path id="Trazado_877901" data-name="Trazado 877901" d="M60.65,129.777c-.155.082.1.731.564,1.451s.957,1.213,1.094,1.106-.113-.759-.564-1.451-.939-1.189-1.094-1.106" transform="translate(98.31 265.727)" fill="#455a64"/>
            <path id="Trazado_877902" data-name="Trazado 877902" d="M61.691,128.525c-.168.049-.229.323-.134.616s.3.478.469.421.226-.335.134-.616-.3-.469-.469-.421" transform="translate(95.684 263.166)" fill="#455a64"/>
            <path id="Trazado_877903" data-name="Trazado 877903" d="M55.815,139.2c.177-.006.3-.692.265-1.533s-.192-1.518-.369-1.512-.293.692-.265,1.533.2,1.518.369,1.512" transform="translate(120.3 278.802)" fill="#455a64"/>
            <path id="Trazado_877904" data-name="Trazado 877904" d="M55.745,141.2c.177-.006.3-.692.268-1.533s-.192-1.518-.366-1.512-.3.692-.268,1.533.192,1.518.366,1.512" transform="translate(120.571 282.893)" fill="#455a64"/>
            <path id="Trazado_877905" data-name="Trazado 877905" d="M55.679,143.2c.177-.006.3-.692.268-1.533s-.192-1.518-.366-1.515-.3.695-.268,1.536.192,1.518.366,1.512" transform="translate(120.838 286.984)" fill="#455a64"/>
            <path id="Trazado_877906" data-name="Trazado 877906" d="M55.615,145.2c.174-.006.3-.692.268-1.533s-.189-1.518-.366-1.515-.3.692-.268,1.536.192,1.518.366,1.512" transform="translate(121.097 291.078)" fill="#455a64"/>
            <path id="Trazado_877907" data-name="Trazado 877907" d="M55.552,147.2c.177-.006.3-.692.271-1.533s-.189-1.521-.366-1.515-.3.692-.271,1.533.192,1.521.366,1.515" transform="translate(121.349 295.173)" fill="#455a64"/>
            <path id="Trazado_877908" data-name="Trazado 877908" d="M55.489,149.2c.174-.006.3-.692.271-1.533s-.189-1.521-.363-1.515-.3.692-.271,1.533.186,1.521.363,1.515" transform="translate(121.599 299.269)" fill="#455a64"/>
            <path id="Trazado_877909" data-name="Trazado 877909" d="M55.429,151.2c.174-.006.3-.689.271-1.53s-.186-1.524-.363-1.518-.3.695-.271,1.536.189,1.521.363,1.512" transform="translate(121.838 303.364)" fill="#455a64"/>
            <path id="Trazado_877910" data-name="Trazado 877910" d="M55.364,153.2c.177-.006.3-.692.274-1.533s-.183-1.521-.363-1.515-.3.692-.268,1.533.183,1.521.357,1.515" transform="translate(122.079 307.461)" fill="#455a64"/>
            <path id="Trazado_877911" data-name="Trazado 877911" d="M55.31,155.2c.177-.006.3-.692.274-1.533s-.186-1.521-.36-1.518-.3.692-.274,1.536.186,1.521.36,1.515" transform="translate(122.308 311.559)" fill="#455a64"/>
            <path id="Trazado_877912" data-name="Trazado 877912" d="M55.254,157.2c.177-.006.3-.692.274-1.533s-.183-1.521-.36-1.518-.3.692-.274,1.533.186,1.521.36,1.518" transform="translate(122.534 315.656)" fill="#455a64"/>
            <path id="Trazado_877913" data-name="Trazado 877913" d="M55.195,159.2c.18,0,.3-.692.28-1.533s-.186-1.524-.36-1.518-.3.692-.277,1.533.18,1.524.357,1.518" transform="translate(122.758 319.756)" fill="#455a64"/>
            <path id="Trazado_877914" data-name="Trazado 877914" d="M55.142,161.206c.174-.006.3-.692.277-1.533s-.183-1.524-.36-1.518-.3.692-.274,1.533.18,1.521.357,1.518" transform="translate(122.975 323.855)" fill="#455a64"/>
            <path id="Trazado_877915" data-name="Trazado 877915" d="M55.089,163.209c.177,0,.3-.692.277-1.533s-.18-1.524-.357-1.518-.3.692-.277,1.533.183,1.521.357,1.518" transform="translate(123.187 327.957)" fill="#455a64"/>
            <path id="Trazado_877916" data-name="Trazado 877916" d="M55.038,165.212c.174,0,.3-.692.277-1.533s-.18-1.524-.354-1.518-.3.689-.28,1.533.183,1.521.357,1.518" transform="translate(123.393 332.058)" fill="#455a64"/>
            <path id="Trazado_877917" data-name="Trazado 877917" d="M54.987,167.217c.174,0,.3-.692.28-1.533s-.18-1.524-.357-1.521-.3.692-.28,1.536.18,1.521.357,1.518" transform="translate(123.596 336.158)" fill="#455a64"/>
            <path id="Trazado_877918" data-name="Trazado 877918" d="M54.935,169.22c.177,0,.3-.692.28-1.533s-.18-1.524-.354-1.521-.3.692-.28,1.536.177,1.521.354,1.518" transform="translate(123.798 340.26)" fill="#455a64"/>
            <path id="Trazado_877919" data-name="Trazado 877919" d="M54.887,171.224c.177,0,.3-.692.28-1.533s-.177-1.524-.354-1.521-.3.692-.28,1.536.18,1.521.354,1.518" transform="translate(123.992 344.363)" fill="#455a64"/>
            <path id="Trazado_877920" data-name="Trazado 877920" d="M54.84,173.228c.174,0,.3-.692.28-1.533s-.177-1.524-.35-1.521-.3.692-.283,1.533.18,1.524.354,1.521" transform="translate(124.183 348.467)" fill="#455a64"/>
            <path id="Trazado_877921" data-name="Trazado 877921" d="M54.793,175.232c.174,0,.3-.692.283-1.533s-.18-1.524-.354-1.521-.3.692-.283,1.533.177,1.524.354,1.521" transform="translate(124.37 352.57)" fill="#455a64"/>
            <path id="Trazado_877922" data-name="Trazado 877922" d="M54.741,177.236c.177,0,.3-.692.286-1.533s-.177-1.524-.354-1.521-.3.689-.28,1.533.174,1.524.347,1.521" transform="translate(124.559 356.674)" fill="#455a64"/>
            <path id="Trazado_877923" data-name="Trazado 877923" d="M54.7,179.241c.174,0,.3-.692.283-1.536s-.177-1.524-.35-1.518-.3.689-.283,1.533.177,1.524.35,1.521" transform="translate(124.737 360.78)" fill="#455a64"/>
            <path id="Trazado_877924" data-name="Trazado 877924" d="M54.656,181.245c.177,0,.3-.692.283-1.533s-.174-1.527-.35-1.521-.3.689-.283,1.533.177,1.524.35,1.521" transform="translate(124.915 364.883)" fill="#455a64"/>
            <path id="Trazado_877925" data-name="Trazado 877925" d="M54.612,183.252c.177,0,.3-.692.286-1.533s-.177-1.527-.35-1.524-.3.692-.286,1.536.177,1.524.35,1.521" transform="translate(125.09 368.987)" fill="#455a64"/>
            <path id="Trazado_877926" data-name="Trazado 877926" d="M54.57,185.258c.174,0,.3-.692.286-1.533s-.177-1.527-.35-1.524-.3.692-.286,1.536.174,1.524.35,1.521" transform="translate(125.26 373.095)" fill="#455a64"/>
            <path id="Trazado_877927" data-name="Trazado 877927" d="M54.525,187.263c.177,0,.3-.692.286-1.533s-.174-1.527-.35-1.524-.3.692-.283,1.536.174,1.524.347,1.521" transform="translate(125.433 377.2)" fill="#455a64"/>
            <path id="Trazado_877928" data-name="Trazado 877928" d="M54.484,189.268c.177,0,.3-.692.286-1.533s-.174-1.527-.347-1.524-.3.692-.286,1.536.174,1.524.347,1.521" transform="translate(125.599 381.306)" fill="#455a64"/>
            <path id="Trazado_877929" data-name="Trazado 877929" d="M54.444,191.274c.177,0,.3-.692.286-1.533s-.174-1.527-.347-1.524-.3.692-.286,1.536.171,1.524.347,1.521" transform="translate(125.761 385.414)" fill="#455a64"/>
            <path id="Trazado_877930" data-name="Trazado 877930" d="M54.4,193.28c.174,0,.3-.692.286-1.536s-.171-1.524-.347-1.521-.3.692-.286,1.536.171,1.524.347,1.521" transform="translate(125.923 389.521)" fill="#455a64"/>
            <path id="Trazado_877931" data-name="Trazado 877931" d="M54.363,195.285c.177,0,.3-.692.286-1.533s-.171-1.527-.347-1.524-.3.692-.286,1.536.174,1.524.347,1.521" transform="translate(126.086 393.627)" fill="#455a64"/>
            <path id="Trazado_877932" data-name="Trazado 877932" d="M54.324,197.291c.177,0,.3-.692.286-1.533s-.171-1.527-.344-1.524-.3.689-.29,1.536.174,1.524.347,1.521" transform="translate(126.243 397.735)" fill="#455a64"/>
            <path id="Trazado_877933" data-name="Trazado 877933" d="M54.285,199.3c.177,0,.3-.692.29-1.533s-.174-1.527-.347-1.524-.3.692-.29,1.536.171,1.524.347,1.521" transform="translate(126.398 401.842)" fill="#455a64"/>
            <path id="Trazado_877934" data-name="Trazado 877934" d="M54.247,201.3c.177,0,.3-.692.29-1.533s-.174-1.527-.347-1.524-.3.689-.29,1.533.174,1.527.347,1.524" transform="translate(126.552 405.95)" fill="#455a64"/>
            <path id="Trazado_877935" data-name="Trazado 877935" d="M54.209,203.31c.177,0,.3-.692.29-1.533s-.171-1.527-.347-1.524-.3.689-.29,1.536.171,1.524.347,1.521" transform="translate(126.706 410.06)" fill="#455a64"/>
            <path id="Trazado_877936" data-name="Trazado 877936" d="M54.171,205.316c.177,0,.3-.692.29-1.533s-.171-1.527-.347-1.524-.3.689-.29,1.533.171,1.527.347,1.524" transform="translate(126.86 414.168)" fill="#455a64"/>
            <path id="Trazado_877937" data-name="Trazado 877937" d="M54.134,207.322c.174,0,.3-.692.29-1.536s-.171-1.524-.347-1.521-.3.689-.29,1.533.171,1.527.347,1.524" transform="translate(127.009 418.275)" fill="#455a64"/>
            <path id="Trazado_877938" data-name="Trazado 877938" d="M54.094,209.328c.174,0,.3-.692.29-1.536s-.171-1.524-.347-1.521-.3.689-.286,1.533.171,1.527.344,1.524" transform="translate(127.162 422.383)" fill="#455a64"/>
            <path id="Trazado_877939" data-name="Trazado 877939" d="M54.057,211.335c.174,0,.3-.692.29-1.536s-.171-1.524-.344-1.521-.3.689-.29,1.533.171,1.527.344,1.524" transform="translate(127.312 426.493)" fill="#455a64"/>
            <path id="Trazado_877940" data-name="Trazado 877940" d="M54.02,213.341c.174,0,.3-.692.29-1.533s-.171-1.527-.344-1.524-.3.689-.29,1.533.168,1.527.344,1.524" transform="translate(127.462 430.6)" fill="#455a64"/>
            <path id="Trazado_877941" data-name="Trazado 877941" d="M53.983,215.347c.177,0,.3-.692.29-1.533s-.171-1.527-.344-1.524-.3.689-.29,1.533.171,1.527.344,1.524" transform="translate(127.611 434.708)" fill="#455a64"/>
            <path id="Trazado_877942" data-name="Trazado 877942" d="M53.946,217.353c.177,0,.3-.692.29-1.533s-.171-1.527-.344-1.524-.3.689-.29,1.533.171,1.527.344,1.524" transform="translate(127.761 438.816)" fill="#455a64"/>
            <path id="Trazado_877943" data-name="Trazado 877943" d="M53.91,219.359c.177,0,.3-.692.29-1.536s-.171-1.524-.344-1.521-.3.689-.29,1.533.171,1.527.344,1.524" transform="translate(127.907 442.924)" fill="#455a64"/>
            <path id="Trazado_877944" data-name="Trazado 877944" d="M53.873,221.366c.177,0,.3-.692.29-1.533s-.171-1.527-.344-1.524-.3.689-.29,1.533.171,1.527.344,1.524" transform="translate(128.057 447.033)" fill="#455a64"/>
            <path id="Trazado_877945" data-name="Trazado 877945" d="M53.836,223.372c.174,0,.3-.692.29-1.533s-.171-1.527-.344-1.524-.3.689-.29,1.533.171,1.527.344,1.524" transform="translate(128.206 451.141)" fill="#455a64"/>
            <path id="Trazado_877946" data-name="Trazado 877946" d="M53.8,225.378c.177,0,.3-.692.29-1.533s-.171-1.527-.344-1.524-.3.689-.29,1.536.171,1.524.344,1.521" transform="translate(128.356 455.249)" fill="#455a64"/>
            <path id="Trazado_877947" data-name="Trazado 877947" d="M53.762,227.383c.174,0,.3-.689.29-1.533s-.171-1.527-.347-1.524-.3.689-.286,1.533.168,1.527.344,1.524" transform="translate(128.506 459.354)" fill="#455a64"/>
            <path id="Trazado_877948" data-name="Trazado 877948" d="M53.726,229.389c.174,0,.3-.689.29-1.533s-.171-1.527-.347-1.524-.3.692-.286,1.536.168,1.524.344,1.521" transform="translate(128.655 463.462)" fill="#455a64"/>
            <path id="Trazado_877949" data-name="Trazado 877949" d="M53.685,231.395c.18,0,.308-.689.293-1.533s-.171-1.527-.347-1.524-.3.692-.286,1.536.171,1.524.341,1.521" transform="translate(128.809 467.57)" fill="#455a64"/>
            <path id="Trazado_877950" data-name="Trazado 877950" d="M53.653,233.4c.174,0,.3-.692.29-1.533s-.171-1.527-.347-1.524-.3.692-.29,1.536.171,1.524.347,1.521" transform="translate(128.956 471.675)" fill="#455a64"/>
            <path id="Trazado_877951" data-name="Trazado 877951" d="M53.615,235.406c.177,0,.3-.692.29-1.533s-.174-1.527-.347-1.524-.3.692-.29,1.536.174,1.524.347,1.521" transform="translate(129.11 475.783)" fill="#455a64"/>
            <path id="Trazado_877952" data-name="Trazado 877952" d="M53.577,237.411c.174,0,.3-.689.286-1.533s-.171-1.527-.344-1.524-.3.692-.29,1.536.174,1.524.347,1.521" transform="translate(129.267 479.889)" fill="#455a64"/>
            <path id="Trazado_877953" data-name="Trazado 877953" d="M53.538,239.416c.174,0,.3-.689.286-1.533s-.171-1.527-.347-1.524-.3.692-.286,1.536.174,1.524.347,1.521" transform="translate(129.425 483.994)" fill="#455a64"/>
            <path id="Trazado_877954" data-name="Trazado 877954" d="M53.5,241.421c.177,0,.3-.692.286-1.533s-.171-1.527-.347-1.524-.3.692-.286,1.536.174,1.524.347,1.521" transform="translate(129.583 488.1)" fill="#455a64"/>
            <path id="Trazado_877955" data-name="Trazado 877955" d="M53.46,243.424c.174,0,.3-.692.286-1.533s-.171-1.524-.347-1.521-.3.689-.286,1.533.174,1.524.347,1.521" transform="translate(129.744 492.208)" fill="#455a64"/>
            <path id="Trazado_877956" data-name="Trazado 877956" d="M53.42,245.428c.177,0,.3-.692.286-1.533s-.174-1.524-.347-1.521-.3.689-.286,1.533.174,1.524.347,1.521" transform="translate(129.906 496.311)" fill="#455a64"/>
            <path id="Trazado_877957" data-name="Trazado 877957" d="M53.379,247.432c.177,0,.3-.689.286-1.533s-.174-1.524-.347-1.521-.3.689-.286,1.533.174,1.524.347,1.521" transform="translate(130.072 500.415)" fill="#455a64"/>
            <path id="Trazado_877958" data-name="Trazado 877958" d="M53.34,249.436c.177,0,.3-.689.286-1.533s-.174-1.524-.35-1.521-.3.689-.286,1.533.177,1.524.35,1.521" transform="translate(130.236 504.519)" fill="#455a64"/>
            <path id="Trazado_877959" data-name="Trazado 877959" d="M53.3,251.44c.177,0,.3-.692.286-1.533s-.177-1.524-.35-1.521-.3.689-.286,1.533.177,1.524.35,1.521" transform="translate(130.406 508.622)" fill="#455a64"/>
            <path id="Trazado_877960" data-name="Trazado 877960" d="M53.257,253.444c.174,0,.3-.692.283-1.533s-.174-1.524-.347-1.521-.3.692-.286,1.533.174,1.524.35,1.521" transform="translate(130.578 512.726)" fill="#455a64"/>
            <path id="Trazado_877961" data-name="Trazado 877961" d="M53.214,255.447c.177,0,.3-.692.283-1.533s-.174-1.524-.35-1.521-.3.692-.283,1.533.177,1.524.35,1.521" transform="translate(130.752 516.827)" fill="#455a64"/>
            <path id="Trazado_877962" data-name="Trazado 877962" d="M53.169,257.448c.177,0,.3-.692.283-1.533s-.177-1.524-.35-1.518-.3.689-.283,1.533.177,1.521.35,1.518" transform="translate(130.934 520.931)" fill="#455a64"/>
            <path id="Trazado_877963" data-name="Trazado 877963" d="M53.124,259.45c.177,0,.3-.692.283-1.533s-.177-1.524-.354-1.518-.3.689-.28,1.533.177,1.521.35,1.518" transform="translate(131.116 525.031)" fill="#455a64"/>
            <path id="Trazado_877964" data-name="Trazado 877964" d="M53.081,261.453c.174,0,.3-.692.283-1.533s-.177-1.521-.354-1.518-.3.689-.283,1.533.177,1.521.354,1.518" transform="translate(131.3 529.132)" fill="#455a64"/>
            <path id="Trazado_877965" data-name="Trazado 877965" d="M53.036,263.455c.174,0,.3-.689.28-1.533s-.177-1.521-.354-1.518-.3.692-.28,1.533.177,1.521.354,1.518" transform="translate(131.485 533.232)" fill="#455a64"/>
            <path id="Trazado_877966" data-name="Trazado 877966" d="M52.988,265.456c.174,0,.3-.692.28-1.533s-.18-1.521-.354-1.518-.3.692-.28,1.533.177,1.521.354,1.518" transform="translate(131.679 537.329)" fill="#455a64"/>
            <path id="Trazado_877967" data-name="Trazado 877967" d="M52.939,267.458c.177,0,.3-.692.28-1.533s-.18-1.521-.354-1.518-.3.692-.28,1.533.18,1.521.354,1.518" transform="translate(131.877 541.429)" fill="#455a64"/>
            <path id="Trazado_877968" data-name="Trazado 877968" d="M52.893,269.457c.177,0,.3-.692.28-1.533s-.18-1.521-.357-1.515-.3.689-.28,1.53.183,1.521.357,1.518" transform="translate(132.072 545.528)" fill="#455a64"/>
            <path id="Trazado_877969" data-name="Trazado 877969" d="M52.843,271.457c.174,0,.3-.692.277-1.533s-.18-1.521-.354-1.515-.3.689-.28,1.533.183,1.518.357,1.515" transform="translate(132.278 549.623)" fill="#455a64"/>
            <path id="Trazado_877970" data-name="Trazado 877970" d="M52.791,273.457c.174-.006.3-.692.277-1.533s-.183-1.521-.357-1.515-.3.689-.277,1.533.183,1.518.357,1.515" transform="translate(132.488 553.719)" fill="#455a64"/>
            <path id="Trazado_877971" data-name="Trazado 877971" d="M52.739,275.457c.177,0,.3-.692.277-1.533s-.183-1.518-.36-1.515-.3.692-.274,1.533.183,1.518.357,1.515" transform="translate(132.702 557.814)" fill="#455a64"/>
            <path id="Trazado_877972" data-name="Trazado 877972" d="M52.685,277.17c.174-.006.3-.628.28-1.39s-.18-1.378-.357-1.372-.3.628-.28,1.39.183,1.378.357,1.372" transform="translate(132.915 561.91)" fill="#455a64"/>
            <path id="Trazado_877973" data-name="Trazado 877973" d="M88.375,128.7c.314-6.126,2-33.1,2-33.1s19.085-1.173,21.072-19.959S114.2,13.362,114.2,13.362a66.253,66.253,0,0,0-66.62,1.868l-4.751,2.944-.506,22.09,1.076,19.865.82,54.069,44.039,14.574c.061.015.119-.012.122-.073" transform="translate(102.189 10.819)" fill="#e5baab"/>
            <path id="Trazado_877974" data-name="Trazado 877974" d="M48.093,19.528a2.413,2.413,0,1,1-2.3-2.517,2.413,2.413,0,0,1,2.3,2.517" transform="translate(165.39 34.828)" fill="#263238"/>
            <path id="Trazado_877975" data-name="Trazado 877975" d="M52.7,19.673c-.326.3-2.039-1.3-4.629-1.548-2.584-.293-4.593.908-4.849.549-.128-.162.222-.719,1.1-1.268a6.413,6.413,0,0,1,7.567.8c.744.719.966,1.338.811,1.469" transform="translate(160.955 33.839)" fill="#263238"/>
            <path id="Trazado_877976" data-name="Trazado 877976" d="M56.527,17.121a2.413,2.413,0,1,1-3.38.482,2.416,2.416,0,0,1,3.38-.482" transform="translate(127.366 34.068)" fill="#263238"/>
            <path id="Trazado_877977" data-name="Trazado 877977" d="M62.144,19.256c-.326.3-2.039-1.3-4.629-1.548-2.584-.293-4.593.908-4.849.549-.128-.162.222-.722,1.1-1.268a6.409,6.409,0,0,1,7.564.8c.747.716.969,1.338.814,1.469" transform="translate(122.737 32.985)" fill="#263238"/>
            <path id="Trazado_877978" data-name="Trazado 877978" d="M47.646,39.7c0,.189,1.631.372,4.267.512a2.241,2.241,0,0,0,2.4-1,4.3,4.3,0,0,0-.116-2.822c-.5-1.9-.966-3.657-1.448-5.483-2.13-7.763-4.157-13.974-4.523-13.873s1.064,6.473,3.194,14.236c.518,1.819,1.015,3.566,1.554,5.458a3.693,3.693,0,0,1,.3,2.015c-.1.39-.677.485-1.353.494-2.639.107-4.273.271-4.273.46" transform="translate(145.628 34.884)" fill="#263238"/>
            <path id="Trazado_877979" data-name="Trazado 877979" d="M49.117,25.377c-2.551-1.859,7.065,4.642,12.362,4.876,0,0-3.477,4.553-8.713,2.06-5.44-2.584-3.648-6.937-3.648-6.937" transform="translate(135.474 51.282)" fill="#fff"/>
            <path id="Trazado_877980" data-name="Trazado 877980" d="M74.724,41.441a47.1,47.1,0,0,1-24.589-9.533s5.047,14.083,23.973,14.138Z" transform="translate(117.836 65.338)" fill="#d78776"/>
            <path id="Trazado_877981" data-name="Trazado 877981" d="M54.981,13.13C60.427,8.967,65.962,4.755,72.332,2.216s13.788-3.228,19.987-.3c2.853,1.347,5.349,3.4,8.29,4.544,6.172,2.4,13.776.616,19.173,4.459,4.94,3.52,5.977,11.014,3.118,16.366s-8.8,8.564-14.821,9.335S95.961,36,90.234,34c-3.362-1.173-7.043-2.569-10.365-1.289-3.176,1.225-5.367,4.715-8.759,5.013-2.953.262-6.434-1.923-8.585.113a5.8,5.8,0,0,0-1.359,3.307C60,47.624,56.179,60.726,55.012,67.2c-4.255,1.853-6.254-3.861-10.889-3.971-.753-14.327-6.915-28.722-3.313-42.61.89-3.429,2.511-6.879,5.471-8.829S53.762,10,55.841,12.871" transform="translate(99.928 0)" fill="#263238"/>
            <path id="Trazado_877982" data-name="Trazado 877982" d="M78.446,16.359C78.1,16.13,65.84,11.619,63.646,26.8S77.516,39.183,77.6,38.75s.841-22.392.841-22.392" transform="translate(73.565 31.859)" fill="#e5baab"/>
            <path id="Trazado_877983" data-name="Trazado 877983" d="M70.878,29.568c-.061-.058-.293.146-.768.286a2.667,2.667,0,0,1-1.984-.244c-1.518-.82-2.5-3.563-2.179-6.312a8.838,8.838,0,0,1,1.286-3.679,3.091,3.091,0,0,1,2.283-1.743,1.358,1.358,0,0,1,1.457.951c.143.454,0,.741.079.78.037.043.363-.207.332-.853a1.7,1.7,0,0,0-.46-1.036,2.019,2.019,0,0,0-1.408-.6,3.761,3.761,0,0,0-3.1,1.957,9.094,9.094,0,0,0-1.53,4.1c-.344,3.075.808,6.166,2.914,7.116a2.862,2.862,0,0,0,2.478-.052c.524-.308.652-.637.6-.671" transform="translate(76.408 35.041)" fill="#d78776"/>
            <path id="Trazado_877984" data-name="Trazado 877984" d="M64.128.978C63.7.88,62.78,3.285,62.073,6.351s-.936,5.635-.509,5.733,1.347-2.307,2.054-5.376.936-5.632.509-5.73" transform="translate(94.039 1.997)" fill="#263238"/>
            <path id="Trazado_877985" data-name="Trazado 877985" d="M62.217,1.225c-.4.174.277,2.636,1.518,5.5s2.572,5.044,2.975,4.87-.277-2.636-1.518-5.5-2.572-5.041-2.975-4.867" transform="translate(89.266 2.488)" fill="#263238"/>
            <path id="Trazado_877986" data-name="Trazado 877986" d="M55.039,146.794c1.9,6.031,3.5,9.92,5.391,11.987,8.649,9.454,83.486-71.88,83.486-71.88.378-2.819,1.164-13.069.573-15.854-.716-3.377-1.85-7.827-3.224-10.067-1.7-2.776.85-6.178,3.587-5.059s7.619,8.652,8.866,19.063,12.255-2.52,15.559-7.543,14.736-20.167,17.085-20.374c3.444-.3,3.8,3.928.384,8.869-3.459,5-13.209,19.6-11.947,20.56,2.493,1.9,20.042-23.684,20.042-23.684s2.722-5.309,5.946-3.544c5.818,3.179-13.684,29.221-15.6,31.663-1.335,1.7.582,2.356,1.917.457,1.378-1.954,16.973-24.031,21.09-21.191,4.267,2.941-13.066,21.16-15.382,26.582-2.624,6.147,14.016-16.144,18.283-13.635,1.591.936,2.645,1.853-7.415,13.782-6.4,7.583-21.642,21.444-32.3,30.879-21.233,25.272-94.75,109.349-129.125,104.622-7.531-1.033-14.547-4.663-18.887-11.8-9.89-16.275-17.418-29.4-23.367-45.13Z" transform="translate(133.246 96.347)" fill="#e5baab"/>
          </g>
        </g>
      </g>
    </g>
  </g>
</svg>
