<svg xmlns="http://www.w3.org/2000/svg" width="94" height="94" viewBox="0 0 94 94">
  <g id="Grupo_1101827" data-name="Grupo 1101827" transform="translate(-1173.025 -1601.813)">
    <g id="Grupo_1101729" data-name="Grupo 1101729" transform="translate(-0.025 -4369.188)">
      <circle id="Elipse_11604" data-name="Elipse 11604" cx="47" cy="47" r="47" transform="translate(1173.051 5971)" fill="#73c8e2"/>
    </g>
    <g id="datos" transform="translate(1186.513 1619.071)">
      <path id="Trazado_880007" data-name="Trazado 880007" d="M16.765,8.533H56.421A3.966,3.966,0,0,1,60.386,12.5V44.223a3.966,3.966,0,0,1-3.965,3.965H16.765A3.966,3.966,0,0,1,12.8,44.223V12.5A3.966,3.966,0,0,1,16.765,8.533Z" transform="translate(-7.542 -7.542)" fill="#87ced9"/>
      <g id="Grupo_1101821" data-name="Grupo 1101821" transform="translate(8.232 3.965)">
        <rect id="Rectángulo_405356" data-name="Rectángulo 405356" width="1.983" height="1.983" fill="#4398d1"/>
        <rect id="Rectángulo_405357" data-name="Rectángulo 405357" width="1.983" height="1.983" transform="translate(3.965)" fill="#4398d1"/>
        <rect id="Rectángulo_405358" data-name="Rectángulo 405358" width="1.983" height="1.983" transform="translate(7.931)" fill="#4398d1"/>
        <path id="Trazado_880008" data-name="Trazado 880008" d="M67.965,76.8h39.655a3.966,3.966,0,0,1,3.965,3.965V112.49a3.966,3.966,0,0,1-3.965,3.965H67.965A3.966,3.966,0,0,1,64,112.49V80.765A3.966,3.966,0,0,1,67.965,76.8Z" transform="translate(-61.026 -71.843)" fill="#4398d1"/>
      </g>
      <path id="Trazado_880009" data-name="Trazado 880009" d="M174.42,76.8h-4.71C162.6,99.422,149,110.856,139.58,116.455h34.84a3.966,3.966,0,0,0,3.965-3.965V80.765A3.966,3.966,0,0,0,174.42,76.8Z" transform="translate(-119.593 -67.878)" fill="#3f8fc4"/>
      <g id="Grupo_1101822" data-name="Grupo 1101822" transform="translate(14.181 11.897)">
        <rect id="Rectángulo_405359" data-name="Rectángulo 405359" width="1.983" height="1.983" transform="translate(0)" fill="#87ced9"/>
        <rect id="Rectángulo_405360" data-name="Rectángulo 405360" width="1.983" height="1.983" transform="translate(3.965)" fill="#87ced9"/>
        <rect id="Rectángulo_405361" data-name="Rectángulo 405361" width="1.983" height="1.983" transform="translate(7.931)" fill="#87ced9"/>
      </g>
      <g id="Grupo_1101823" data-name="Grupo 1101823" transform="translate(14.181 15.862)">
        <rect id="Rectángulo_405362" data-name="Rectángulo 405362" width="41.638" height="1.983" transform="translate(0 24.785)" fill="#3685ba"/>
        <rect id="Rectángulo_405363" data-name="Rectángulo 405363" width="1.983" height="5.948" transform="translate(1.983 16.853)" fill="#3685ba"/>
        <rect id="Rectángulo_405364" data-name="Rectángulo 405364" width="1.983" height="11.897" transform="translate(5.948 10.905)" fill="#3685ba"/>
        <rect id="Rectángulo_405365" data-name="Rectángulo 405365" width="1.983" height="8.922" transform="translate(9.914 13.879)" fill="#3685ba"/>
        <rect id="Rectángulo_405366" data-name="Rectángulo 405366" width="1.983" height="15.862" transform="translate(13.879 6.94)" fill="#3685ba"/>
        <rect id="Rectángulo_405367" data-name="Rectángulo 405367" width="1.983" height="17.845" transform="translate(17.845 4.957)" fill="#3685ba"/>
        <rect id="Rectángulo_405368" data-name="Rectángulo 405368" width="1.983" height="6.94" transform="translate(21.81 5.948)" fill="#3685ba"/>
        <rect id="Rectángulo_405369" data-name="Rectángulo 405369" width="1.983" height="10.905" transform="translate(25.776 1.983)" fill="#3685ba"/>
        <rect id="Rectángulo_405370" data-name="Rectángulo 405370" width="1.983" height="12.888" transform="translate(29.741)" fill="#3685ba"/>
        <rect id="Rectángulo_405371" data-name="Rectángulo 405371" width="1.983" height="18.836" transform="translate(33.707 3.966)" fill="#3685ba"/>
        <rect id="Rectángulo_405372" data-name="Rectángulo 405372" width="1.983" height="14.871" transform="translate(37.672 7.931)" fill="#3685ba"/>
      </g>
      <rect id="Rectángulo_405373" data-name="Rectángulo 405373" width="4.206" height="16.825" transform="translate(61.772 55.524) rotate(135)" fill="#fdb62f"/>
      <rect id="Rectángulo_405374" data-name="Rectángulo 405374" width="4.206" height="5.608" transform="translate(53.838 47.589) rotate(135)" fill="#fa962a"/>
      <circle id="Elipse_11638" data-name="Elipse 11638" cx="12.888" cy="12.888" r="12.888" transform="translate(28.06 25.776)" fill="#fdb62f"/>
      <circle id="Elipse_11639" data-name="Elipse 11639" cx="8.922" cy="8.922" r="8.922" transform="translate(32.026 29.741)" fill="#87ced9"/>
      <g id="Grupo_1101824" data-name="Grupo 1101824" transform="translate(32.026 29.741)">
        <path id="Trazado_880010" data-name="Trazado 880010" d="M245.171,349.867a8.81,8.81,0,0,0,.71,1.983h15.967a8.808,8.808,0,0,0,.71-1.983Z" transform="translate(-244.942 -338.962)" fill="#4398d1"/>
        <path id="Trazado_880011" data-name="Trazado 880011" d="M313.449,264.92v-8.864a8.394,8.394,0,0,0-1.983,0v8.864Z" transform="translate(-303.535 -255.997)" fill="#4398d1"/>
        <path id="Trazado_880012" data-name="Trazado 880012" d="M279.316,268.867v-8.4a8.88,8.88,0,0,0-1.983.986v7.417Z" transform="translate(-273.368 -259.944)" fill="#4398d1"/>
        <path id="Trazado_880013" data-name="Trazado 880013" d="M347.583,268.867v-7.417a8.876,8.876,0,0,0-1.983-.986v8.4Z" transform="translate(-333.703 -259.944)" fill="#4398d1"/>
        <path id="Trazado_880014" data-name="Trazado 880014" d="M245.183,284.578a8.881,8.881,0,0,0-1.983,5.6h1.983Z" transform="translate(-243.2 -281.258)" fill="#4398d1"/>
        <path id="Trazado_880015" data-name="Trazado 880015" d="M379.733,290.18h1.983a8.88,8.88,0,0,0-1.983-5.6Z" transform="translate(-363.871 -281.258)" fill="#4398d1"/>
      </g>
      <path id="Trazado_880016" data-name="Trazado 880016" d="M7.986,41.481l.5-1.919A2.975,2.975,0,0,1,6.25,36.681V4.957A2.974,2.974,0,0,1,9.224,1.983H48.879a2.974,2.974,0,0,1,2.974,2.974v.991h1.983V4.957A4.962,4.962,0,0,0,48.879,0H9.224A4.962,4.962,0,0,0,4.267,4.957V36.681A4.957,4.957,0,0,0,7.986,41.481Z"/>
      <rect id="Rectángulo_405375" data-name="Rectángulo 405375" width="1.983" height="1.983" transform="translate(8.232 3.965)"/>
      <rect id="Rectángulo_405376" data-name="Rectángulo 405376" width="1.983" height="1.983" transform="translate(12.198 3.965)"/>
      <rect id="Rectángulo_405377" data-name="Rectángulo 405377" width="1.983" height="1.983" transform="translate(16.164 3.965)"/>
      <path id="Trazado_880017" data-name="Trazado 880017" d="M129.662,163.3h1.576v-1.983h-1.15a13.356,13.356,0,0,0-.833-7.1v-9.749h-1.983v6.313a13.954,13.954,0,0,0-1.983-2.058V140.5h-1.983v6.835a13.811,13.811,0,0,0-1.983-.947v-9.853h-1.983v9.252a13.767,13.767,0,0,0-1.983-.279v-6.99h-1.983v6.99a13.77,13.77,0,0,0-1.983.279v-3.3H111.41v3.905a13.816,13.816,0,0,0-1.983.947v-5.843h-1.983v7.229a13.952,13.952,0,0,0-1.983,2.058v-7.3h-1.983v10.741a13.356,13.356,0,0,0-.833,7.1H89.6V163.3h13.473a13.849,13.849,0,0,0,21.259,7.384l9.179,9.179a.992.992,0,0,0,1.4,0l2.974-2.974a.992.992,0,0,0,0-1.4l-9.4-9.4A13.693,13.693,0,0,0,129.662,163.3Zm-25.191-3.965a11.9,11.9,0,1,1,11.9,11.9A11.9,11.9,0,0,1,104.471,159.336Zm31.314,16.853-1.572,1.572-8.339-8.339a14.044,14.044,0,0,0,1.492-1.653Z" transform="translate(-75.419 -120.672)"/>
      <path id="Trazado_880018" data-name="Trazado 880018" d="M244.581,247.467a9.914,9.914,0,1,0,9.914,9.914A9.914,9.914,0,0,0,244.581,247.467Zm-4.957,3.733v6.181h1.983v-7.347a7.843,7.843,0,0,1,1.983-.515v7.862h1.983v-7.862a7.837,7.837,0,0,1,1.983.515v7.347h1.983V251.2a7.859,7.859,0,0,1,2.713,8.164H236.91A7.859,7.859,0,0,1,239.624,251.2Zm4.957,14.112a7.932,7.932,0,0,1-6.858-3.966h13.717A7.932,7.932,0,0,1,244.581,265.312Z" transform="translate(-203.633 -218.717)"/>
      <path id="Trazado_880019" data-name="Trazado 880019" d="M55.467,73.223v31.724a4.963,4.963,0,0,0,4.957,4.957H73.312v-1.983H60.424a2.974,2.974,0,0,1-2.974-2.974V73.223a2.974,2.974,0,0,1,2.974-2.974h39.655a2.974,2.974,0,0,1,2.974,2.974v31.724a2.974,2.974,0,0,1-.744,1.967l1.487,1.312a4.948,4.948,0,0,0,1.239-3.279V73.223a4.963,4.963,0,0,0-4.957-4.957H60.424A4.962,4.962,0,0,0,55.467,73.223Z" transform="translate(-45.252 -60.335)"/>
      <rect id="Rectángulo_405378" data-name="Rectángulo 405378" width="1.983" height="1.983" transform="translate(14.181 11.897)"/>
      <rect id="Rectángulo_405379" data-name="Rectángulo 405379" width="1.983" height="1.983" transform="translate(18.146 11.897)"/>
      <rect id="Rectángulo_405380" data-name="Rectángulo 405380" width="1.983" height="1.983" transform="translate(22.112 11.897)"/>
      <rect id="Rectángulo_405381" data-name="Rectángulo 405381" width="1.983" height="5.948" transform="translate(16.164 32.715)"/>
      <rect id="Rectángulo_405382" data-name="Rectángulo 405382" width="1.983" height="11.897" transform="translate(20.129 26.767)"/>
      <rect id="Rectángulo_405383" data-name="Rectángulo 405383" width="1.983" height="8.922" transform="translate(24.094 29.741)"/>
    </g>
  </g>
</svg>
