<svg xmlns="http://www.w3.org/2000/svg" width="89" height="89" viewBox="0 0 89 89">
  <g id="Grupo_1101740" data-name="Grupo 1101740" transform="translate(-336.051 -4371)">
    <g id="Rectángulo_401655" data-name="Rectángulo 401655" transform="translate(336.051 4371)" fill="#fff" stroke="#3ba935" stroke-width="3">
      <rect width="89" height="89" rx="44.5" stroke="none"/>
      <rect x="1.5" y="1.5" width="86" height="86" rx="43" fill="none"/>
    </g>
    <g id="porcentaje" transform="translate(354.048 4389)">
      <circle id="Elipse_11504" data-name="Elipse 11504" cx="7.85" cy="7.85" r="7.85" transform="translate(0.889 37.281)" fill="#ff5252"/>
      <g id="Grupo_1099911" data-name="Grupo 1099911" transform="translate(0.485 36.723)">
        <path id="Trazado_874198" data-name="Trazado 874198" d="M12.211,320.429a8.214,8.214,0,1,1,8.214-8.214A8.224,8.224,0,0,1,12.211,320.429Zm0-15.462a7.248,7.248,0,1,0,7.248,7.248A7.256,7.256,0,0,0,12.211,304.966Z" transform="translate(-3.997 -304)" fill="#263238"/>
        <path id="Trazado_874199" data-name="Trazado 874199" d="M50.279,368.966h-5.8a.483.483,0,1,1,0-.966h5.8a.483.483,0,1,1,0,.966Z" transform="translate(-39.165 -360.269)" fill="#263238"/>
      </g>
      <ellipse id="Elipse_11505" data-name="Elipse 11505" cx="7.85" cy="7.493" rx="7.85" ry="7.493" transform="translate(36.572 1.598)" fill="#40c4ff"/>
      <g id="Grupo_1099912" data-name="Grupo 1099912" transform="translate(10.633 0.966)">
        <path id="Trazado_874200" data-name="Trazado 874200" d="M308.211,24.429a8.214,8.214,0,1,1,8.214-8.214A8.224,8.224,0,0,1,308.211,24.429Zm0-15.462a7.248,7.248,0,1,0,7.248,7.248A7.256,7.256,0,0,0,308.211,8.966Z" transform="translate(-274.388 -8)" fill="#263238"/>
        <path id="Trazado_874201" data-name="Trazado 874201" d="M88.48,116.96a.483.483,0,0,1-.483-.483V97.315A5.321,5.321,0,0,1,93.312,92h19.162a.483.483,0,0,1,0,.966H93.312a4.354,4.354,0,0,0-4.349,4.349v19.162A.483.483,0,0,1,88.48,116.96Z" transform="translate(-87.997 -81.853)" fill="#263238"/>
        <path id="Trazado_874202" data-name="Trazado 874202" d="M165.025,174.336H145.864a.483.483,0,1,1,0-.966h19.161a4.354,4.354,0,0,0,4.349-4.349V149.859a.483.483,0,1,1,.966,0v19.162A5.322,5.322,0,0,1,165.025,174.336Z" transform="translate(-138.449 -132.298)" fill="#263238"/>
        <path id="Trazado_874203" data-name="Trazado 874203" d="M346.279,72.966h-5.8a.483.483,0,1,1,0-.966h5.8a.483.483,0,0,1,0,.966Z" transform="translate(-309.556 -64.269)" fill="#263238"/>
        <path id="Trazado_874204" data-name="Trazado 874204" d="M364.48,54.765a.483.483,0,0,1-.483-.483v-5.8a.483.483,0,0,1,.966,0v5.8A.483.483,0,0,1,364.48,54.765Z" transform="translate(-330.656 -43.168)" fill="#263238"/>
      </g>
      <path id="Trazado_874205" data-name="Trazado 874205" d="M141.044,140.056a4.35,4.35,0,1,0,3.609,3.607A4.353,4.353,0,0,0,141.044,140.056Zm-.689,5.745a1.45,1.45,0,1,1,1.45-1.45A1.45,1.45,0,0,1,140.355,145.8Z" transform="translate(-119.576 -123.091)" fill="#ffd740"/>
      <path id="Trazado_874206" data-name="Trazado 874206" d="M136.834,145.665a5.018,5.018,0,0,1-.765-.059,4.852,4.852,0,1,1,.765.059Zm0-8.7a3.869,3.869,0,0,0-3.819,4.48,3.911,3.911,0,0,0,3.2,3.2,3.871,3.871,0,0,0,4.434-4.434,3.907,3.907,0,0,0-3.2-3.2h0A4.13,4.13,0,0,0,136.831,136.967Zm0,5.8a1.933,1.933,0,1,1,1.933-1.933A1.935,1.935,0,0,1,136.83,142.766Zm0-2.9a.966.966,0,1,0,.966.966A.967.967,0,0,0,136.83,139.867Z" transform="translate(-116.05 -119.572)" fill="#263238"/>
      <path id="Trazado_874207" data-name="Trazado 874207" d="M236.346,236a4.349,4.349,0,1,0,4.349,4.349A4.349,4.349,0,0,0,236.346,236Zm0,5.8a1.45,1.45,0,1,1,1.45-1.45A1.45,1.45,0,0,1,236.346,241.8Z" transform="translate(-203.969 -207.491)" fill="#ffd740"/>
      <path id="Trazado_874208" data-name="Trazado 874208" d="M232.837,241.664a4.832,4.832,0,1,1,4.832-4.832A4.837,4.837,0,0,1,232.837,241.664Zm0-8.7a3.866,3.866,0,1,0,3.866,3.866A3.869,3.869,0,0,0,232.837,232.966Zm0,5.8a1.933,1.933,0,1,1,1.933-1.933A1.935,1.935,0,0,1,232.837,238.765Zm0-2.9a.966.966,0,1,0,.966.966A.967.967,0,0,0,232.837,235.866Z" transform="translate(-200.46 -203.975)" fill="#263238"/>
      <path id="Trazado_874209" data-name="Trazado 874209" d="M145.443,166.365a1.449,1.449,0,0,1-1.025-2.474l15.462-15.462a1.449,1.449,0,0,1,2.05,2.05l-15.462,15.462A1.441,1.441,0,0,1,145.443,166.365Z" transform="translate(-126.596 -130.125)" fill="#ffd740"/>
      <g id="Grupo_1099913" data-name="Grupo 1099913" transform="translate(0.003)">
        <path id="Trazado_874210" data-name="Trazado 874210" d="M141.937,163.34a1.933,1.933,0,0,1-1.366-3.3l15.462-15.462a1.932,1.932,0,0,1,2.733,2.733L143.3,162.774A1.916,1.916,0,0,1,141.937,163.34ZM157.4,144.98a.963.963,0,0,0-.683.282l-15.462,15.462a.967.967,0,0,0,0,1.366.991.991,0,0,0,1.366,0l15.462-15.462a.965.965,0,0,0-.683-1.649Z" transform="translate(-123.093 -126.617)" fill="#263238"/>
        <path id="Trazado_874211" data-name="Trazado 874211" d="M7.32,10.159a.485.485,0,0,1-.342-.141L3.9,6.943.828,10.018a.483.483,0,1,1-.683-.683L3.562,5.919a.484.484,0,0,1,.683,0L7.32,8.994,16.158.155a.483.483,0,1,1,.683.683L7.661,10.019A.485.485,0,0,1,7.32,10.159Z" transform="translate(-0.003 -0.012)" fill="#263238"/>
        <path id="Trazado_874212" data-name="Trazado 874212" d="M104.922,4.832a.483.483,0,0,1-.483-.483V.966h-3.382a.483.483,0,1,1,0-.966h3.866a.483.483,0,0,1,.483.483V4.349A.483.483,0,0,1,104.922,4.832Z" transform="translate(-88.424)" fill="#263238"/>
        <path id="Trazado_874213" data-name="Trazado 874213" d="M425.447,392.966h-.966a.483.483,0,0,1,0-.966h.966a.483.483,0,1,1,0,.966Z" transform="translate(-372.779 -344.647)" fill="#263238"/>
        <path id="Trazado_874214" data-name="Trazado 874214" d="M295.943,392.966H280.48a.483.483,0,0,1,0-.966h15.462a.483.483,0,0,1,0,.966Z" transform="translate(-246.174 -344.647)" fill="#263238"/>
        <path id="Trazado_874215" data-name="Trazado 874215" d="M225.875,416.966h-17.4a.483.483,0,1,1,0-.966h17.4a.483.483,0,0,1,0,.966Z" transform="translate(-182.872 -365.748)" fill="#263238"/>
      </g>
    </g>
  </g>
</svg>
