<svg xmlns="http://www.w3.org/2000/svg" width="89" height="89" viewBox="0 0 89 89">
  <g id="Grupo_1101741" data-name="Grupo 1101741" transform="translate(-756.051 -4371)">
    <g id="Rectángulo_401656" data-name="Rectángulo 401656" transform="translate(756.051 4371)" fill="#fff" stroke="#3ba935" stroke-width="3">
      <rect width="89" height="89" rx="44.5" stroke="none"/>
      <rect x="1.5" y="1.5" width="86" height="86" rx="43" fill="none"/>
    </g>
    <g id="_040---Analytics" data-name="040---Analytics" transform="translate(770.07 4385)">
      <g id="Icons" transform="translate(0 1)">
        <path id="Shape" d="M27,32,18.56,56.59A26,26,0,0,1,1.69,26.05Z" fill="#f44335"/>
        <path id="Shape-2" data-name="Shape" d="M27,6V32c-4.16-1-.21-.06-25.31-5.95A26,26,0,0,1,23.6,6.22C24.38,6.12,27,6,27,6Z" fill="#f57c00"/>
        <path id="Shape-3" data-name="Shape" d="M24,7V31.29L1.69,26.05A26,26,0,0,1,23.6,6.22,1,1,0,0,1,24,7Z" fill="#ff9801"/>
        <path id="Shape-4" data-name="Shape" d="M59,44a14,14,0,1,1-4.646-10.417A14,14,0,0,1,59,44Z" fill="#549414"/>
        <ellipse id="Oval" cx="12.5" cy="13.92" rx="12.5" ry="13.92" transform="translate(31 30.08)" fill="#60a917"/>
        <circle id="Oval-2" data-name="Oval" cx="2" cy="2" r="2" transform="translate(38 37)" fill="#fff"/>
        <circle id="Oval-3" data-name="Oval" cx="2" cy="2" r="2" transform="translate(48 47)" fill="#fff"/>
        <path id="Shape-5" data-name="Shape" d="M55.37,16.94,31,26V0A26,26,0,0,1,55.37,16.94Z" fill="#9d27b0"/>
        <path id="Shape-6" data-name="Shape" d="M31,0V.19A26,26,0,0,1,52.37,16.94L31,24.88V26l24.37-9.06A26,26,0,0,0,31,0Z" fill="#6a1b9a"/>
        <path id="Shape-7" data-name="Shape" d="M53,32.51A14,14,0,1,0,37.47,55.8a26,26,0,0,1-18.91.79L27,32l24.38-9.06A25.82,25.82,0,0,1,53,32.51Z" fill="#ffeb3a"/>
      </g>
      <g id="Layer_10" transform="translate(-1)">
        <path id="Shape-8" data-name="Shape" d="M32,28c.28,0-1.33.56,24.72-9.12a1,1,0,0,0,.59-1.29A27.11,27.11,0,0,0,32,0a1,1,0,0,0-1,1V27A1,1,0,0,0,32,28ZM33,2A25.12,25.12,0,0,1,55.07,17.36L33,25.56Z"/>
        <path id="Shape-9" data-name="Shape" d="M55,33a26.87,26.87,0,0,0-1.68-9.44A1,1,0,0,0,52,23L29,31.56V7a1,1,0,0,0-1-1A27,27,0,1,0,38.4,57.91,15,15,0,0,0,55,33ZM27,8V31.74L3.93,26.31A24.87,24.87,0,0,1,27,8ZM3.46,28.26,26.7,33.72,19,56.28A25,25,0,0,1,3.46,28.26ZM20.85,56.93l7.94-23.16,23-8.54A24.53,24.53,0,0,1,53,31.72,15,15,0,0,0,36.43,56.54a24.8,24.8,0,0,1-15.58.39ZM46,58a13,13,0,1,1,9.192-3.808A13,13,0,0,1,46,58Z"/>
        <path id="Shape-10" data-name="Shape" d="M52.71,38.29a1,1,0,0,0-1.42,0l-12,12a1,1,0,0,0,1.42,1.42l12-12a1,1,0,0,0,0-1.42Z"/>
        <path id="Shape-11" data-name="Shape" d="M44,40a3,3,0,1,0-3,3A3,3,0,0,0,44,40Zm-4,0a1,1,0,1,1,1,1A1,1,0,0,1,40,40Z"/>
        <path id="Shape-12" data-name="Shape" d="M51,47a3,3,0,1,0,3,3A3,3,0,0,0,51,47Zm0,4a1,1,0,1,1,1-1A1,1,0,0,1,51,51Z"/>
      </g>
    </g>
  </g>
</svg>
