<svg xmlns="http://www.w3.org/2000/svg" xmlns:xlink="http://www.w3.org/1999/xlink" width="329" height="260" viewBox="0 0 329 260">
  <defs>
    <clipPath id="clip-path">
      <rect id="Rect치ngulo_405316" data-name="Rect치ngulo 405316" width="329" height="260" transform="translate(333.343 2269.409)" fill="#fff" stroke="#707070" stroke-width="1" opacity="0.59"/>
    </clipPath>
    <clipPath id="clip-path-2">
      <rect id="Rect치ngulo_405315" data-name="Rect치ngulo 405315" width="412" height="316" transform="translate(-0.354 0.168)" fill="none"/>
    </clipPath>
  </defs>
  <g id="Enmascarar_grupo_1098729" data-name="Enmascarar grupo 1098729" transform="translate(-333.343 -2269.409)" clip-path="url(#clip-path)">
    <g id="Grupo_1101745" data-name="Grupo 1101745" transform="translate(289.697 2242.24)">
      <g id="Grupo_1101744" data-name="Grupo 1101744" transform="translate(0 0)" clip-path="url(#clip-path-2)">
        <path id="Trazado_879671" data-name="Trazado 879671" d="M632.548,423.687c-17.122-30.435-51.985-53.863-86.587-60.81-16.375-3.288-33.733-2.738-49.613,2.472-17.545,5.757-30.677,17.956-45.016,28.8a112.2,112.2,0,0,1-17.082,10.994c-6.712,3.379-13.959,5.426-21.271,7.169-13.125,3.13-26.072,6.328-38.357,11.947-11.252,5.147-21.913,11.966-30.058,21.229a57.4,57.4,0,0,0-14.314,32.656,69.72,69.72,0,0,0,6.682,35.648,80.854,80.854,0,0,0,23.91,29.826,60.58,60.58,0,0,0,19.3,10.138,68.862,68.862,0,0,0,22.509,2.468c15.864-.615,8.9-17.94,24.686-19.129,7.179-.541,36.995,12.6,43.843,15.015,6.532,2.3,11.373,6.953,16.838,10.927,5.538,4.029,11.9,5.624,18.844,5.534a192.269,192.269,0,0,0,20.836-4.369,238.13,238.13,0,0,0,38.557-13.08c24.319-10.761,46.835-26.342,62.67-47.569a73.065,73.065,0,0,0,10.769-19.5,64.887,64.887,0,0,0,3.494-20.3c.228-13.992-3.763-27.834-10.644-40.066" transform="translate(-278.117 -304.048)" fill="#eaf5e9"/>
        <path id="Trazado_879672" data-name="Trazado 879672" d="M1480.1,951.2a65.065,65.065,0,0,0-2.082-12.4.6.6,0,0,0-.89-.3,2.254,2.254,0,0,0-.76-.381,7.975,7.975,0,0,0-2.678-.03l-5.456.372c-1.807.123-3.615.23-5.42.377a23.19,23.19,0,0,0-4.812.813,9.558,9.558,0,0,0-2.486,1.075,2.377,2.377,0,0,0-.966,1.209.59.59,0,0,0-1.119.132,72.548,72.548,0,0,0-.749,10.384,45.185,45.185,0,0,0,.822,9.726,19.53,19.53,0,0,0,1.494,4.432,8.03,8.03,0,0,0,2.592,3.325,3.814,3.814,0,0,0,3.254.462,29.925,29.925,0,0,0,2.124,10.848c.9,2.233,2.307,5.432,5.242,5.144a3.84,3.84,0,0,0,2.835-2.312,14.558,14.558,0,0,0,1.31-4c.116-.588.211-1.18.3-1.774a3,3,0,0,0,2.159.665,3.279,3.279,0,0,0,1.939-1.07,10.158,10.158,0,0,0,2.14-4.645,45.831,45.831,0,0,0,.88-5.291q.337-2.747.486-5.512a82.857,82.857,0,0,0-.152-11.244" transform="translate(-1222.306 -789.45)" fill="#ff5c33"/>
        <path id="Trazado_879673" data-name="Trazado 879673" d="M1497.112,941.852c-.781-4.224-1.7-8.136-4.631-11.461a10.253,10.253,0,0,0-2.779-2.215,2.39,2.39,0,0,1-1.236.391,12.473,12.473,0,0,0-11.182,8.1c-1.512,4.255-.146,12.838,6.125,9.182.583-.34,3.241-2.174,3.191-2.908a16.566,16.566,0,0,0,2.793,8.188c1.492,2.158,5.316,5.736,7.354,2.221,1.787-3.083.37-11.468.365-11.5" transform="translate(-1242.526 -781.199)" fill="#ffb43b"/>
        <path id="Trazado_879674" data-name="Trazado 879674" d="M1333.821,820.315a6.36,6.36,0,0,0-6.624-.431.763.763,0,0,0-.608-.154c-3.247.681-5.562,3.613-7.357,6.207-3.848,5.563-5.757,12-7.494,18.46-.809,3.007-2.141,6.842.436,9.383s6.489,1.433,9.117-.337c4.274-2.877,7.508-7.109,10.044-11.536,2.308-4.029,5.274-9.326,5.444-14.058.1-2.748-.61-5.83-2.96-7.534" transform="translate(-1102.873 -689.51)" fill="#4050ff"/>
        <path id="Trazado_879675" data-name="Trazado 879675" d="M1603.535,826.165c.17,4.732,3.136,10.029,5.444,14.058,2.536,4.427,5.771,8.659,10.044,11.536,2.628,1.77,6.548,2.871,9.117.337s1.245-6.376.436-9.383c-1.737-6.457-3.645-12.9-7.493-18.46-1.794-2.594-4.11-5.526-7.357-6.207a.763.763,0,0,0-.608.154,6.36,6.36,0,0,0-6.624.431c-2.35,1.7-3.059,4.787-2.96,7.534" transform="translate(-1349.172 -688.094)" fill="#4050ff"/>
        <path id="Trazado_879676" data-name="Trazado 879676" d="M1433.418,315.546c-2.16-8.526-4.657-18.505-10.366-25.362-1.831-2.2-4.517-4.933-7.6-4.867-3.08-.066-5.77,2.664-7.6,4.867-5.708,6.856-8.206,16.836-10.366,25.362-4.175,16.486-4.766,33.773-4.653,50.71q.079,11.592.631,23.189c.009.215.022.425.035.64h.058c0,3.266,9.815,5.914,21.922,5.914s21.922-2.648,21.922-5.914c.013-.215.026-.425.035-.64q.565-11.586.631-23.189c.114-16.937-.473-34.225-4.653-50.71" transform="translate(-1171.967 -240.544)" fill="#fff"/>
        <path id="Trazado_879677" data-name="Trazado 879677" d="M1476.388,301.1a63.5,63.5,0,0,1-27.381.039,38.5,38.5,0,0,1,6.1-10.953c1.831-2.2,4.521-4.933,7.6-4.867,3.079-.066,5.765,2.664,7.6,4.867a38.666,38.666,0,0,1,6.086,10.913" transform="translate(-1219.218 -240.543)" fill="#4050ff"/>
        <path id="Trazado_879678" data-name="Trazado 879678" d="M1394.995,909.507a76.759,76.759,0,0,0,44.016-.047.476.476,0,0,0-.253-.917,75.539,75.539,0,0,1-43.51.047.476.476,0,0,0-.253.917" transform="translate(-1173.513 -764.668)" fill="#4050ff"/>
        <path id="Trazado_879679" data-name="Trazado 879679" d="M1524.8,867.85a15.419,15.419,0,0,0-1.366-4.8c-1-1.887-2.471-1.929-3.5,0a15.422,15.422,0,0,0-1.367,4.8,80.071,80.071,0,0,0-.781,13.26c.053,4.177.024,8.726.956,12.727.572,2.455,1.938,5.528,4.1,4.071,1.035-.7,1.447-2.635,1.781-4.07.932-4,.9-8.549.957-12.727a80.058,80.058,0,0,0-.781-13.26" transform="translate(-1277.056 -725.224)" fill="#4050ff"/>
        <path id="Trazado_879680" data-name="Trazado 879680" d="M1491.229,616.393a10.241,10.241,0,1,1-10.241-10.241,10.241,10.241,0,0,1,10.241,10.241" transform="translate(-1237.502 -510.372)" fill="#180c45"/>
        <path id="Trazado_879681" data-name="Trazado 879681" d="M1473.479,595.561a13.206,13.206,0,1,1-.16-2.082,13.515,13.515,0,0,1,.16,2.082.475.475,0,0,0,.95,0,14.2,14.2,0,1,0-.181,2.255,15.18,15.18,0,0,0,.181-2.255.475.475,0,0,0-.95,0" transform="translate(-1216.753 -489.54)" fill="#4050ff"/>
        <path id="Trazado_879682" data-name="Trazado 879682" d="M924.781,294.238H867.754a5.492,5.492,0,0,1-5.492-5.491V237a5.491,5.491,0,0,1,5.492-5.491h57.028A5.491,5.491,0,0,1,930.273,237v51.748a5.492,5.492,0,0,1-5.491,5.491" transform="translate(-725.758 -195.291)" fill="#fff"/>
        <path id="Trazado_879683" data-name="Trazado 879683" d="M881.859,291.248c-5.51,0-11.019.02-16.529,0a5.089,5.089,0,0,1-4.885-3.407,6.683,6.683,0,0,1-.263-2.166V238.79c0-1.4-.007-2.81,0-4.215a5.1,5.1,0,0,1,2.664-4.524,5.655,5.655,0,0,1,2.743-.584h54.34a10.543,10.543,0,0,1,4.372.445,5.108,5.108,0,0,1,2.941,4.7c0,.831,0,1.663,0,2.495v21.987a.475.475,0,0,0,.95,0V241.325c0-2.269.023-4.54,0-6.809a6.037,6.037,0,0,0-3.412-5.424,6.778,6.778,0,0,0-2.924-.575H867.017c-1.9,0-3.72-.053-5.362,1.17a6.068,6.068,0,0,0-2.422,4.866c0,.454,0,.908,0,1.362v48.105c0,1.781-.139,3.558.789,5.178a6.064,6.064,0,0,0,5.277,3c1.075.005,2.15,0,3.225,0h13.336a.475.475,0,0,0,0-.95" transform="translate(-723.203 -192.775)" fill="#180c45"/>
        <path id="Trazado_879684" data-name="Trazado 879684" d="M955.639,353.338h-9.848V311.412a2.851,2.851,0,0,1,2.852-2.851h4.145a2.851,2.851,0,0,1,2.852,2.851Z" transform="translate(-796.007 -260.094)" fill="#4050ff"/>
        <path id="Trazado_879685" data-name="Trazado 879685" d="M1081.183,353.338h-9.848V311.412a2.851,2.851,0,0,1,2.852-2.851h4.145a2.851,2.851,0,0,1,2.851,2.851Z" transform="translate(-901.591 -260.094)" fill="#4050ff"/>
        <path id="Trazado_879686" data-name="Trazado 879686" d="M1021.25,428.2h-13.518V400.422a2.851,2.851,0,0,1,2.851-2.851h7.815a2.851,2.851,0,0,1,2.851,2.851Z" transform="translate(-848.1 -334.952)" fill="#ffb43b"/>
        <path id="Trazado_879687" data-name="Trazado 879687" d="M1146.795,457.526h-13.518V435.3a2.852,2.852,0,0,1,2.851-2.851h7.815a2.851,2.851,0,0,1,2.851,2.851Z" transform="translate(-953.685 -364.281)" fill="#ffb43b"/>
        <path id="Trazado_879688" data-name="Trazado 879688" d="M863.154,426.752h6.97a.476.476,0,0,0,0-.95h-6.97a.476.476,0,0,0,0,.95" transform="translate(-726.121 -358.695)" fill="#180c45"/>
        <path id="Trazado_879689" data-name="Trazado 879689" d="M863.154,553.478h6.97a.476.476,0,0,0,0-.95h-6.97a.476.476,0,0,0,0,.95" transform="translate(-726.121 -465.273)" fill="#180c45"/>
        <path id="Trazado_879690" data-name="Trazado 879690" d="M863.154,300.026h6.97a.476.476,0,0,0,0-.95h-6.97a.476.476,0,0,0,0,.95" transform="translate(-726.121 -252.117)" fill="#180c45"/>
        <path id="Trazado_879691" data-name="Trazado 879691" d="M1760.612,1248.218h-57.028a5.491,5.491,0,0,1-5.492-5.492v-51.747a5.492,5.492,0,0,1,5.492-5.492h57.028a5.492,5.492,0,0,1,5.492,5.492v51.747a5.492,5.492,0,0,1-5.492,5.492" transform="translate(-1428.703 -997.601)" fill="#fff"/>
        <path id="Trazado_879692" data-name="Trazado 879692" d="M1817.493,1355.042v27.907c0,.654.007,1.309,0,1.963a5.068,5.068,0,0,1-4.607,5.027c-1.277.094-2.583.016-3.862.016h-43.369c-1.732,0-3.466-.024-5.2,0h-.237a.476.476,0,0,0,0,.95h47.451c1.569,0,3.139.007,4.708,0a6.076,6.076,0,0,0,4.984-2.546,6.6,6.6,0,0,0,1.08-3.955v-29.361a.476.476,0,0,0-.95,0" transform="translate(-1480.568 -1139.813)" fill="#180c45"/>
        <path id="Trazado_879693" data-name="Trazado 879693" d="M1801.377,1299.347c1.556-7.841,3.634-17.218,11.648-20.937a12.376,12.376,0,0,1,5.952-1.052c2.289.123,4.547.622,6.843.631a12.175,12.175,0,0,0,9.736-5.027c3.013-3.882,3.983-8.827,4.881-13.542.114-.6-.8-.854-.917-.253-.82,4.3-1.661,8.807-4.181,12.49a13.415,13.415,0,0,1-4.031,3.914,10.551,10.551,0,0,1-5.92,1.46c-2.295-.068-4.552-.57-6.846-.642a13.1,13.1,0,0,0-5.675,1.056,17.547,17.547,0,0,0-7.941,7.457c-2.5,4.345-3.5,9.332-4.466,14.193-.118.6.8.853.917.253" transform="translate(-1514.787 -1059.279)" fill="#180c45"/>
        <path id="Trazado_879694" data-name="Trazado 879694" d="M1785.8,1488.218a4.022,4.022,0,1,1-4.022-4.022,4.022,4.022,0,0,1,4.022,4.022" transform="translate(-1495.702 -1248.819)" fill="#ffb43b"/>
        <path id="Trazado_879695" data-name="Trazado 879695" d="M1847.411,1361.492a4.022,4.022,0,1,1-4.022-4.022,4.022,4.022,0,0,1,4.022,4.022" transform="translate(-1547.516 -1142.241)" fill="#ffb43b"/>
        <path id="Trazado_879696" data-name="Trazado 879696" d="M1968.128,1361.492a4.022,4.022,0,1,1-4.022-4.022,4.022,4.022,0,0,1,4.022,4.022" transform="translate(-1649.041 -1142.241)" fill="#ffb43b"/>
        <path id="Trazado_879697" data-name="Trazado 879697" d="M2033.119,1234.767a4.022,4.022,0,1,1-4.023-4.022,4.022,4.022,0,0,1,4.023,4.022" transform="translate(-1703.699 -1035.664)" fill="#ffb43b"/>
        <path id="Trazado_879698" data-name="Trazado 879698" d="M1695.664,1380.732h6.97a.476.476,0,0,0,0-.951h-6.97a.476.476,0,0,0,0,.951" transform="translate(-1426.275 -1161.005)" fill="#180c45"/>
        <path id="Trazado_879699" data-name="Trazado 879699" d="M1695.664,1507.457h6.97a.476.476,0,0,0,0-.951h-6.97a.476.476,0,0,0,0,.951" transform="translate(-1426.275 -1267.583)" fill="#180c45"/>
        <path id="Trazado_879700" data-name="Trazado 879700" d="M1695.664,1254.005h6.97a.475.475,0,0,0,0-.95h-6.97a.475.475,0,0,0,0,.95" transform="translate(-1426.275 -1054.427)" fill="#180c45"/>
        <path id="Trazado_879701" data-name="Trazado 879701" d="M916.317,1135.626a19.8,19.8,0,0,0-3.117-4.168c-1.145-1.3-2.347-2.546-3.606-3.734a55.323,55.323,0,0,0-17.016-10.948c-1.022-.416-2.057-.795-3.1-1.145q-6.786-11.559-13.631-23.083-10.06-16.911-20.259-33.74c-1.7-2.794-3.29-5.822-5.807-7.981a9.856,9.856,0,0,0-4.826-2.284c-.042-.015-.083-.031-.127-.043a11.973,11.973,0,0,0-9.9,2.16,20.337,20.337,0,0,0-6.274,8.188c-3.081,6.757-3.659,14.432-2.657,21.725,1.051,7.647,3.838,14.934,7.1,21.885,3.166,6.743,6.632,13.383,10.352,19.837a129.72,129.72,0,0,0,12.315,18.083c4.548,5.49,9.689,10.83,15.934,14.384a24.306,24.306,0,0,0,9.709,3.247,21.7,21.7,0,0,0,10.583-1.914,90.191,90.191,0,0,0,10.057-5.473,109.687,109.687,0,0,0,9.773-6.395c2.669-1.994,6.358-4.818,4.5-8.6" transform="translate(-694.875 -882.117)" fill="#ffb43b"/>
        <path id="Trazado_879702" data-name="Trazado 879702" d="M871.427,874.174a12.575,12.575,0,0,0-3.725-1.387,6.161,6.161,0,0,0,1.245-2.358,8.106,8.106,0,0,0-1.245-6.086c-2-3.346-5.94-6.183-9.9-6.483a5.918,5.918,0,0,0-5.8,3.355,8.357,8.357,0,0,0,.022,7,9.294,9.294,0,0,0,1.1,3.137,14.882,14.882,0,0,0-.914,2.809,10.923,10.923,0,0,0,.583,7.236,10.026,10.026,0,0,0,4.879,4.825c.056.025.113.046.169.07a3.407,3.407,0,0,0,1.883,3.149,4.239,4.239,0,0,0,1.76.491,7.6,7.6,0,0,0,1.782-.085c2.071.838,4.857,1.712,7.008,1.3,8.449-1.606,8.458-12.693,1.16-16.974" transform="translate(-716.488 -722.047)" fill="#180c45"/>
        <path id="Trazado_879703" data-name="Trazado 879703" d="M618.906,1018.452a19.265,19.265,0,0,0-11.236-6.3,48.048,48.048,0,0,0-14.136.008c-9.352,1.085-19.939,3.009-28.319,7.3-2.07,1.061-4.084,2.223-6.046,3.471-.867.551-6.335,30.717-5.808,40.077.286,5.086,1.4,25.313,2.446,30.3a73.249,73.249,0,0,0,1.859,7.212,16.962,16.962,0,0,0,3.173,6.166,14.728,14.728,0,0,0,10.624,4.693,23.74,23.74,0,0,0,12.767-3.776,66.718,66.718,0,0,0,10.483-7.973,91.819,91.819,0,0,0,8.792-9.077,93.379,93.379,0,0,0,13.507-21.394,90.41,90.41,0,0,0,7.186-24.248c1.328-9.038,1.02-19.225-5.293-26.469" transform="translate(-465.938 -851.385)" fill="#ffb43b"/>
        <path id="Trazado_879704" data-name="Trazado 879704" d="M955.324,1208.193a86.507,86.507,0,0,1-3.923,25.446c-.182.585.735.836.916.253a87.419,87.419,0,0,0,3.957-25.7.475.475,0,0,0-.95,0" transform="translate(-800.705 -1016.311)" fill="#180c45"/>
        <path id="Trazado_879705" data-name="Trazado 879705" d="M1065.554,1225.232l-4.543,5.083-37.382-33.417a3.409,3.409,0,0,1,4.543-5.083Z" transform="translate(-860.513 -1002.194)" fill="#180c45"/>
        <path id="Trazado_879706" data-name="Trazado 879706" d="M1150.034,1304.537c.091-2.114-.955-3.943-2.072-5.654-1.252-1.918-2.528-3.821-3.8-5.729-1.867-2.812-4.894-8.935-9.237-6.676a5.352,5.352,0,0,0-2.564,5.3,11.111,11.111,0,0,0,.956,3.359,29.684,29.684,0,0,0,1.611,3.353,1.2,1.2,0,0,0,1.174.657q.868,1.462,1.737,2.924a22.693,22.693,0,0,0,3.629,5.261,5.758,5.758,0,0,0,5.227,1.6,4.616,4.616,0,0,0,3.335-4.4" transform="translate(-952.9 -1082.124)" fill="#c2573c"/>
        <path id="Trazado_879707" data-name="Trazado 879707" d="M1092.547,1262.248c-1.3-1.671-3.29-2.351-5.237-2.972-2.035-.649-9.7-2.963-12.473-3.613-3.286-.772-9.954-2.807-11.806,1.724a5.352,5.352,0,0,0,1.475,5.7c.825.824,8.183,2.279,9.219,2.8a29.716,29.716,0,0,0,3.4,1.516,1.2,1.2,0,0,0,1.32-.258c1.072.369,2.142.74,3.215,1.107a22.7,22.7,0,0,0,6.17,1.666,5.759,5.759,0,0,0,5.022-2.159,4.616,4.616,0,0,0-.3-5.514" transform="translate(-894.333 -1055.671)" fill="#c2573c"/>
        <path id="Trazado_879708" data-name="Trazado 879708" d="M860.4,1254.417c-5.965.483-11.159,3.341-16.469,5.84-2.9,1.365-10.049,4.742-10.049,4.742-.553.5-21.283,20.381-16.589,27.206,6.161,8.958,12.119,9.693,12.614,9.466,11.067-5.078,22.1-11.729,26.5-17.478-.462,7.658,5.23,6.363,7.121,5.758a13.338,13.338,0,0,0,5.379-4.029,20.978,20.978,0,0,0,2.506-3.408,15.457,15.457,0,0,0,2.393-4.484,11.652,11.652,0,0,0,.553-2.773,20.577,20.577,0,0,0,1.9-3.781,9.568,9.568,0,0,0-2.578-10.5c.284-.311-7.606-7.015-13.284-6.556" transform="translate(-687.359 -1055.553)" fill="#c2573c"/>
        <path id="Trazado_879709" data-name="Trazado 879709" d="M1134.692,1348.789a9.416,9.416,0,0,0-1.637-7.072,7.532,7.532,0,0,0-6.448-2.909c-.608.037-.612.987,0,.951a6.575,6.575,0,0,1,5.7,2.538,8.489,8.489,0,0,1,1.469,6.24c-.111.6.8.854.917.253" transform="translate(-947.69 -1126.535)" fill="#180c45"/>
        <path id="Trazado_879710" data-name="Trazado 879710" d="M1065.519,1406.644l4.9-6.245a.492.492,0,0,0,0-.672.478.478,0,0,0-.672,0l-4.9,6.245a.491.491,0,0,0,0,.672.478.478,0,0,0,.672,0" transform="translate(-896.022 -1177.664)" fill="#180c45"/>
        <path id="Trazado_879711" data-name="Trazado 879711" d="M1148.006,1284.376A74.688,74.688,0,0,1,1158.8,1294.4c.4.465,1.068-.21.672-.672a74.639,74.639,0,0,0-10.793-10.025c-.476-.372-1.154.3-.672.672" transform="translate(-965.933 -1080.111)" fill="#180c45"/>
        <path id="Trazado_879712" data-name="Trazado 879712" d="M1152.608,1350.791l-36.813-1.41c-2.595-.1-4.011-3.045-2.678-5.57l31.534-59.719a4.895,4.895,0,0,1,4.406-2.72l36.814,1.41c2.595.1,4.011,3.045,2.678,5.57l-31.534,59.719a4.895,4.895,0,0,1-4.406,2.721" transform="translate(-936.302 -1078.238)" fill="#180c45"/>
        <path id="Trazado_879713" data-name="Trazado 879713" d="M1383.211,1470.183a28.422,28.422,0,0,0-5.965-4.319,27.084,27.084,0,0,0-6.342-2.677c-2.143-.554-4.607-.642-6.235,1.11-1.73,1.863-.723,4.2.556,5.976.06.083.125.162.186.244-1.9-.62-4.017-1.027-5.491.349-1.844,1.722-1.169,4.544-.133,6.5a17.094,17.094,0,0,0,4.5,5.3,4.483,4.483,0,0,0-2.934.992c-1.941,1.684-.946,4.462.141,6.34a14.3,14.3,0,0,0,5.026,5.03c6.294,3.8,11.645,4.07,16.525-1.667,5.809-6.829,7.181-16.4.167-23.183" transform="translate(-1143.323 -1230.852)" fill="#c2573c"/>
        <path id="Trazado_879714" data-name="Trazado 879714" d="M1392.585,1583.725a46.118,46.118,0,0,1,11.847,5.063.475.475,0,0,0,.48-.821,47.057,47.057,0,0,0-12.074-5.159.476.476,0,0,0-.253.917" transform="translate(-1171.484 -1331.739)" fill="#180c45"/>
        <path id="Trazado_879715" data-name="Trazado 879715" d="M1400.912,1510.158a97.669,97.669,0,0,1,13.513,5.954c.539.288,1.02-.532.48-.821a99.337,99.337,0,0,0-13.74-6.051c-.578-.2-.827.714-.253.917" transform="translate(-1178.496 -1269.858)" fill="#180c45"/>
        <path id="Trazado_879716" data-name="Trazado 879716" d="M452.155,1135.81q-.623-3.125-1.3-6.234c-1.623-7.446-5.874-25.616-6.29-27.283-10.284,5.327-33.985,17.933-45.21,23.967,1.1-2.172,2.175-4.354,3.2-6.554q4.19-8.964,7.6-18.142c4.233-11.41,12.708-38.192-4.76-40.464-30.159-3.913-48.021,60.688-51.2,80.972-2.209,14.094,2.607,27.061,17.148,30.163,10.114,2.157,19.6-.979,28.961-4.468,7.923-2.952,15.934-5.667,23.772-8.846,5.838-2.367,13.893-6.9,17.29-12.409a7.31,7.31,0,0,0,.951-4.177c3.411-2.069,6.334-3.929,8.234-5.338.533-.395,1.063-.793,1.594-1.189" transform="translate(-298.043 -892.847)" fill="#ffb43b"/>
        <path id="Trazado_879717" data-name="Trazado 879717" d="M558.3,1348.042q10.882-6.652,22.121-12.7,11.192-6,22.721-11.344,6.65-3.084,13.4-5.956c.561-.239.077-1.058-.48-.821q-11.825,5.044-23.362,10.729-11.359,5.616-22.378,11.887-6.308,3.589-12.5,7.378c-.521.319-.044,1.141.48.821" transform="translate(-469.531 -1108.359)" fill="#180c45"/>
        <path id="Trazado_879718" data-name="Trazado 879718" d="M648.913,1313.583l9.617-26.413c.21-.575-.708-.823-.916-.252L648,1313.33c-.209.576.709.824.917.253" transform="translate(-545.531 -1082.634)" fill="#180c45"/>
        <path id="Trazado_879719" data-name="Trazado 879719" d="M791.637,881.118l1.462,18.843s-4.4,7.45-14.378,2.316l-.062-23.492Z" transform="translate(-655.446 -739.66)" fill="#c2573c"/>
        <path id="Trazado_879720" data-name="Trazado 879720" d="M782.5,994.2a4.564,4.564,0,0,0-.433-2.414c-.552-.784-1.393-.565-2.179-.388-.757.17-1.517.329-2.281.462a20.16,20.16,0,0,1-10.051-.415.84.84,0,0,0-.913.239.934.934,0,0,0-.7.206,9.665,9.665,0,0,0-1.612,1.52,2.377,2.377,0,0,0-.024,2.323,6.454,6.454,0,0,0,2.356,2.952c2.428,1.72,5.681,1.737,8.533,1.506,2.526-.2,6.316-.944,7.112-3.8a7.751,7.751,0,0,0,.189-2.193" transform="translate(-643.13 -834.224)" fill="#ffb43b"/>
        <path id="Trazado_879721" data-name="Trazado 879721" d="M779.4,1017.749c5.35,1.114,11.668.739,16.148-2.7.479-.367.006-1.193-.48-.82-4.283,3.285-10.293,3.668-15.416,2.6-.6-.124-.852.792-.253.917" transform="translate(-655.782 -853.494)" fill="#180c45"/>
        <path id="Trazado_879722" data-name="Trazado 879722" d="M721.934,773.214a7.81,7.81,0,0,1-2.453-3.266c-3.143-8.241,3.736-17.942,11.927-19.493a13.02,13.02,0,0,1,8.632,1.344c2.949,1.63,5.917,6.58,6.852,12.785a72.236,72.236,0,0,1,4.009,6.985c3.357,6.971,1.893,15.709-7.667,15.157-3.548-.2-6.613-2.657-9.115-4.968-1.783-1.647-3.25-3.628-5.183-5.113-1.634-1.256-3.706-1.451-5.482-2.421a10.234,10.234,0,0,1-1.52-1.011" transform="translate(-605.024 -631.543)" fill="#c2573c"/>
        <path id="Trazado_879723" data-name="Trazado 879723" d="M818.985,733.247c-1.8-3.921-8.38-8.452-12.746-6.4-5.339,2.506-3.409,7.91.367,10.58a6.95,6.95,0,0,0,2.3,1.023,8.033,8.033,0,0,0,6.184,2.079,5.02,5.02,0,0,0,4.184-2.5,5.646,5.646,0,0,0-.292-4.779" transform="translate(-675.877 -611.447)" fill="#180c45"/>
        <path id="Trazado_879724" data-name="Trazado 879724" d="M633.876,747.019a5.618,5.618,0,0,0-2.485-4.78,4.656,4.656,0,0,0-5.156-.2l-.013.011a12.977,12.977,0,0,0-6.776-.72,14.14,14.14,0,0,0-10.759,9.808,15.093,15.093,0,0,0-.8,5.291c-1.792,2.443-3.505,4.745-2.793,8.256a20.922,20.922,0,0,0-11.5,9.767c-5.243,9.9,1.989,24.558,14,19,4.744,3.594,13.181,2.476,14.784-4.083a7.106,7.106,0,0,1,.164-1,3.25,3.25,0,0,1,.49-.188,7.339,7.339,0,0,0,1.964-1.19A8.777,8.777,0,0,0,627.651,783a10.74,10.74,0,0,0-1.969-9.658,9.412,9.412,0,0,0-.26-4.51,9.131,9.131,0,0,0-2.644-4.043,15.979,15.979,0,0,0,4.211-4.545,7.735,7.735,0,0,0,1.477-4.886,5.4,5.4,0,0,0-.2-.971c3.1-1.212,5.6-3.9,5.606-7.365" transform="translate(-498.35 -623.919)" fill="#180c45"/>
        <path id="Trazado_879725" data-name="Trazado 879725" d="M864.825,916.982c-1.722.1-2.8-1.392-3.309-2.994a28.523,28.523,0,0,0,6.646.542,5.842,5.842,0,0,1-.774,1.15,3.711,3.711,0,0,1-2.562,1.3" transform="translate(-725.13 -769.266)" fill="#fae4d4"/>
        <path id="Trazado_879726" data-name="Trazado 879726" d="M776.294,873.376a5.167,5.167,0,1,1-6.614,3.107,5.167,5.167,0,0,1,6.614-3.107" transform="translate(-647.636 -734.852)" fill="#c2573c"/>
        <path id="Trazado_879727" data-name="Trazado 879727" d="M871.907,820.507a2.107,2.107,0,0,0,1.736.239l1.27-.185c1.8-.418.968-3.777-.851-3.723a3.51,3.51,0,0,0-1.855.605,2.4,2.4,0,0,0-.846,1.4,1.718,1.718,0,0,0,.546,1.661" transform="translate(-733.382 -687.562)" fill="#180c45"/>
        <path id="Trazado_879728" data-name="Trazado 879728" d="M811.174,833.443a1.369,1.369,0,0,0,1.182.733,2.222,2.222,0,0,0,.97-.277l1.2-.546,1.189-.539a2.114,2.114,0,0,0,1.335-1.137,1.728,1.728,0,0,0-.437-1.695,2.443,2.443,0,0,0-1.471-.723c-.956-.135-2.374.706-3.126,1.248a2.661,2.661,0,0,0-.892,1.171,2.092,2.092,0,0,0,.045,1.766" transform="translate(-682.608 -697.995)" fill="#180c45"/>
        <path id="Trazado_879729" data-name="Trazado 879729" d="M785.047,895.683a2.329,2.329,0,0,1-.439-.622,1.6,1.6,0,0,1-.132-.317,3.113,3.113,0,0,1-.106-.4c-.006-.032-.012-.064-.017-.1s-.009-.072,0-.019q-.011-.1-.016-.2a3.062,3.062,0,0,1,.007-.417c0-.013.012-.12,0-.044,0-.032.01-.065.016-.1.011-.064.025-.129.041-.192s.038-.143.062-.213c.01-.031.021-.062.033-.093,0-.01.043-.106.018-.047a.491.491,0,0,0-.171-.65.478.478,0,0,0-.65.171,3.589,3.589,0,0,0,.684,3.908.475.475,0,0,0,.672-.672" transform="translate(-659.426 -750.956)" fill="#180c45"/>
        <path id="Trazado_879730" data-name="Trazado 879730" d="M881.032,847.129c1.534-.919,2.6,1.195,2.835,2.165a1.6,1.6,0,0,1-.529,1.878c-1.021.593-1.875-.611-2.26-1.3-.429-.768-1.052-2.141-.046-2.744" transform="translate(-741.088 -712.846)" fill="#180c45"/>
        <path id="Trazado_879731" data-name="Trazado 879731" d="M837.1,858.069c1.534-.919,2.6,1.195,2.836,2.165a1.605,1.605,0,0,1-.529,1.878c-1.021.593-1.875-.611-2.26-1.3-.429-.768-1.052-2.141-.046-2.744" transform="translate(-704.144 -722.047)" fill="#180c45"/>
        <path id="Trazado_879732" data-name="Trazado 879732" d="M875.314,872.255a2.986,2.986,0,0,0,1.953-1.122,1.972,1.972,0,0,0,.135-2.143,6.739,6.739,0,0,0-1.869-1.593l-2.249-1.654a.479.479,0,0,0-.65.17.486.486,0,0,0,.171.65l1.844,1.357a18.837,18.837,0,0,1,1.679,1.26,1,1,0,0,1,.213,1.332,2.048,2.048,0,0,1-1.479.827.479.479,0,0,0-.332.585.486.486,0,0,0,.585.332" transform="translate(-734.425 -728.633)" fill="#180c45"/>
        <path id="Trazado_879733" data-name="Trazado 879733" d="M840.059,968.426a15.475,15.475,0,0,1-4.169-1.813c-.522-.321-1,.5-.48.821a16.379,16.379,0,0,0,4.4,1.909.476.476,0,0,0,.253-.917" transform="translate(-702.986 -813.463)" fill="#180c45"/>
        <path id="Trazado_879734" data-name="Trazado 879734" d="M853.809,1351.2a217.707,217.707,0,0,0,6.449,27.225q1.166,3.809,2.472,7.573c.2.574,1.117.328.916-.253a217.642,217.642,0,0,1-7.445-26.969q-.81-3.9-1.476-7.828c-.1-.6-1.018-.347-.917.252" transform="translate(-718.642 -1136.465)" fill="#180c45"/>
        <path id="Trazado_879735" data-name="Trazado 879735" d="M1404.57,1273.927c2.543.1,3.931,2.985,2.624,5.459a7.142,7.142,0,0,1-6.429,3.97l-14.289-.549c-2.525-.1-3.9-2.966-2.605-5.422a7.2,7.2,0,0,1,6.481-4Z" transform="translate(-1164.02 -1071.52)" fill="#fff"/>
        <path id="Trazado_879736" data-name="Trazado 879736" d="M1760.635,743.109a.475.475,0,0,1-.473-.434c-.607-7,.26-14.551,1.1-21.849,1.468-12.793,2.987-26.021-3.338-36.839-12.038-20.592-39.107-13.318-39.38-13.242a.475.475,0,0,1-.255-.916,48.98,48.98,0,0,1,15.491-1.216c7.807.668,18.475,3.794,24.964,14.893s4.948,24.48,3.461,37.427c-.832,7.251-1.693,14.75-1.095,21.659a.475.475,0,0,1-.433.514l-.041,0" transform="translate(-1445.394 -562.767)" fill="#180c45"/>
        <path id="Trazado_879737" data-name="Trazado 879737" d="M991.368,720.908a33.832,33.832,0,0,1-6.841-.682c-22.542-4.645-22.356-25.4-22.351-25.609a.475.475,0,0,1,.475-.465h.01a.476.476,0,0,1,.465.485,26.526,26.526,0,0,0,2.552,10.658c3.508,7.409,9.914,12.119,19.041,14a32.954,32.954,0,0,0,6.664.664c17.154,0,32.512-12.382,32.685-12.524a.475.475,0,0,1,.6.736c-.176.144-15.789,12.735-33.3,12.737" transform="translate(-809.786 -584.382)" fill="#180c45"/>
      </g>
    </g>
  </g>
</svg>
