<svg xmlns="http://www.w3.org/2000/svg" width="81" height="139" viewBox="0 0 81 139">
  <g id="Grupo_1101833" data-name="Grupo 1101833" transform="translate(-623.334 -591)">
    <g id="Grupo_1101516" data-name="Grupo 1101516" transform="translate(19.001 -3)">
      <rect id="Rectángulo_402235" data-name="Rectángulo 402235" width="51" height="139" rx="25.5" transform="translate(619.333 594)" fill="#3ba935"/>
      <g id="Grupo_1099888" data-name="Grupo 1099888" transform="translate(424.282 -1006)">
        <path id="Trazado_874180" data-name="Trazado 874180" d="M40.5,0A40.5,40.5,0,1,1,0,40.5,40.5,40.5,0,0,1,40.5,0Z" transform="translate(180.051 1629)" fill="#396370"/>
      </g>
    </g>
    <g id="surface1" transform="translate(636.327 633.093)">
      <path id="Trazado_880020" data-name="Trazado 880020" d="M265.633,225.754h7.335v25.672h-7.335Zm0,0" transform="translate(-241.795 -205.133)" fill="#ff5023"/>
      <path id="Trazado_880021" data-name="Trazado 880021" d="M510.832,184.891h7.335v29.34h-7.335Zm0,0" transform="translate(-464.989 -167.937)" fill="#ff5023"/>
      <path id="Trazado_880022" data-name="Trazado 880022" d="M388.234,409.656h7.335v9.168h-7.335Zm0,0" transform="translate(-353.393 -372.531)" fill="#ff5023"/>
      <path id="Trazado_880023" data-name="Trazado 880023" d="M20.434,266.621h7.335v22H20.434Zm0,0" transform="translate(-18.6 -242.332)" fill="#ff5023"/>
      <path id="Trazado_880024" data-name="Trazado 880024" d="M143.035,327.922h7.335v16.5h-7.335Zm0,0" transform="translate(-130.199 -298.132)" fill="#ff5023"/>
      <path id="Trazado_880025" data-name="Trazado 880025" d="M281.353,54.825a2.75,2.75,0,1,1-2.75-2.75A2.75,2.75,0,0,1,281.353,54.825Zm0,0" transform="translate(-251.097 -47.039)" fill="#00d7df"/>
      <path id="Trazado_880026" data-name="Trazado 880026" d="M403.95,238.723a2.751,2.751,0,1,1-2.75-2.75A2.751,2.751,0,0,1,403.95,238.723Zm0,0" transform="translate(-362.691 -214.435)" fill="#00d7df"/>
      <path id="Trazado_880027" data-name="Trazado 880027" d="M36.153,95.688a2.75,2.75,0,1,1-2.75-2.751A2.75,2.75,0,0,1,36.153,95.688Zm0,0" transform="translate(-27.902 -84.235)" fill="#00d7df"/>
      <path id="Trazado_880028" data-name="Trazado 880028" d="M158.751,156.989A2.751,2.751,0,1,1,156,154.238,2.751,2.751,0,0,1,158.751,156.989Zm0,0" transform="translate(-139.497 -140.035)" fill="#00d7df"/>
      <path id="Trazado_880029" data-name="Trazado 880029" d="M526.552,13.957a2.75,2.75,0,1,1-2.751-2.75A2.75,2.75,0,0,1,526.552,13.957Zm0,0" transform="translate(-474.291 -9.84)" fill="#00d7df"/>
      <path id="Trazado_880030" data-name="Trazado 880030" d="M10.215,542.473H63.393v3.667H10.215Zm0,0" transform="translate(-9.298 -493.429)" fill="#00d7df"/>
      <path id="Trazado_880031" data-name="Trazado 880031" d="M256.335,215.539a.917.917,0,0,0-.917.917v25.672a.917.917,0,0,0,.917.917h7.335a.917.917,0,0,0,.917-.917V216.456a.917.917,0,0,0-.917-.917Zm6.418,25.672h-5.5V217.373h5.5Zm0,0" transform="translate(-232.496 -195.834)" fill="#231f20"/>
      <path id="Trazado_880032" data-name="Trazado 880032" d="M501.534,174.672a.917.917,0,0,0-.917.917v29.34a.917.917,0,0,0,.917.917h7.335a.917.917,0,0,0,.917-.917v-29.34a.917.917,0,0,0-.917-.917Zm6.418,29.34h-5.5V176.506h5.5Zm0,0" transform="translate(-455.691 -158.635)" fill="#231f20"/>
      <path id="Trazado_880033" data-name="Trazado 880033" d="M378.933,399.438a.917.917,0,0,0-.917.917v9.168a.917.917,0,0,0,.917.917h7.335a.917.917,0,0,0,.917-.917v-9.168a.917.917,0,0,0-.917-.917Zm6.418,9.169h-5.5v-7.335h5.5Zm0,0" transform="translate(-344.092 -363.23)" fill="#231f20"/>
      <path id="Trazado_880034" data-name="Trazado 880034" d="M11.132,280.244h7.335a.917.917,0,0,0,.917-.917v-22a.917.917,0,0,0-.917-.917H11.132a.917.917,0,0,0-.917.917v22A.917.917,0,0,0,11.132,280.244Zm.917-22h5.5v20.171h-5.5Zm0,0" transform="translate(-9.298 -233.034)" fill="#231f20"/>
      <path id="Trazado_880035" data-name="Trazado 880035" d="M133.733,317.707a.917.917,0,0,0-.917.917v16.5a.917.917,0,0,0,.917.917h7.335a.917.917,0,0,0,.917-.917v-16.5a.917.917,0,0,0-.917-.917Zm6.418,16.5h-5.5V319.54h5.5Zm0,0" transform="translate(-120.897 -288.834)" fill="#231f20"/>
      <path id="Trazado_880036" data-name="Trazado 880036" d="M24.069,15.12a3.644,3.644,0,0,0,2.75-1.267l4.668,2.334a3.667,3.667,0,1,0,6.885-.792l5.566-4.633a3.541,3.541,0,0,0,3.332.477l7.077,10.624a3.667,3.667,0,1,0,5.226-.238l7.61-13.957a3.622,3.622,0,0,0,.895.117,3.694,3.694,0,1,0-2.5-1l-7.61,13.957a3.366,3.366,0,0,0-2.09.1L48.8,10.216a3.667,3.667,0,1,0-6.029-.867L37.2,13.981a3.618,3.618,0,0,0-4.882.572l-4.668-2.334a3.666,3.666,0,1,0-3.584,2.9ZM68.078,2.284a1.834,1.834,0,1,1-1.834,1.834A1.834,1.834,0,0,1,68.078,2.284Zm-9.169,22a1.834,1.834,0,1,1-1.833-1.834A1.833,1.833,0,0,1,58.909,24.289ZM46.074,5.952A1.834,1.834,0,1,1,44.24,7.785,1.834,1.834,0,0,1,46.074,5.952Zm-11,9.169a1.834,1.834,0,1,1-1.833,1.834A1.834,1.834,0,0,1,35.071,15.12Zm-11-5.5a1.834,1.834,0,1,1-1.834,1.834A1.834,1.834,0,0,1,24.069,9.619Zm0,0" transform="translate(-18.568 0)" fill="#231f20"/>
      <path id="Trazado_880037" data-name="Trazado 880037" d="M54.1,532.254H.917a.917.917,0,0,0-.917.917v3.667a.917.917,0,0,0,.917.917H54.1a.917.917,0,0,0,.917-.917v-3.667A.917.917,0,0,0,54.1,532.254Zm-.917,3.667H1.834v-1.834H53.178Zm0,0" transform="translate(0 -484.127)" fill="#231f20"/>
    </g>
  </g>
</svg>
