<svg xmlns="http://www.w3.org/2000/svg" width="81" height="81" viewBox="0 0 81 81">
  <g id="_9" data-name="9" transform="translate(-184.051 -2875)">
    <g id="Grupo_1101546" data-name="Grupo 1101546" transform="translate(4 -1344)">
      <rect id="Rectángulo_401652" data-name="Rectángulo 401652" width="81" height="81" rx="40.5" transform="translate(180.051 4219)" fill="#c49927"/>
    </g>
    <g id="Page-1" transform="translate(195.929 2886.877)">
      <g id="_067---Analytics" data-name="067---Analytics" transform="translate(0 0)">
        <path id="Shape" d="M9.587,35.908V55.944a1.908,1.908,0,0,1-1.908,1.908H2.908A1.914,1.914,0,0,1,1,55.944V35.908A1.914,1.914,0,0,1,2.908,34h4.77A1.914,1.914,0,0,1,9.587,35.908Z" transform="translate(-0.046 -1.561)" fill="#02a9f4"/>
        <path id="Shape-2" data-name="Shape" d="M7.862,34H5a1.914,1.914,0,0,1,1.908,1.908V55.944A1.908,1.908,0,0,1,5,57.852H7.862A1.908,1.908,0,0,0,9.77,55.944V35.908A1.914,1.914,0,0,0,7.862,34Z" transform="translate(-0.23 -1.561)" fill="#0377bc"/>
        <path id="Shape-3" data-name="Shape" d="M55.48,45.131,37.6,56.017a6.679,6.679,0,0,1-3.473.973H9.989l-.229-.048a1.935,1.935,0,0,0,.229-.906V36H12.66a8.6,8.6,0,0,1,2.1.258A8.77,8.77,0,0,1,18.1,37.908a8.635,8.635,0,0,0,4.293,1.822,7.708,7.708,0,0,0,1.145.086h4.99a4.921,4.921,0,0,1,1.5.239,4.733,4.733,0,0,1,2.6,2.08l.086.143a3.452,3.452,0,0,1-.525,4.217h2.242a3.752,3.752,0,0,0,1.212-.2l2.023-.677,7.633-2.538,7.633-2.547.372-.124a2.629,2.629,0,0,1,2.919.916v.01a2.6,2.6,0,0,1-.735,3.8Z" transform="translate(-0.448 -1.653)" fill="#ffe0b2"/>
        <g id="Grupo_1101794" data-name="Grupo 1101794" transform="translate(9.541 34.347)">
          <path id="Shape-4" data-name="Shape" d="M15.247,37.908a8.739,8.739,0,0,0,5.438,1.908h2.862a8.738,8.738,0,0,1-5.438-1.908A8.738,8.738,0,0,0,12.671,36H10v.009A8.738,8.738,0,0,1,15.247,37.908Z" transform="translate(-10 -36)" fill="#dfc49c"/>
          <path id="Shape-5" data-name="Shape" d="M30.523,42.318l.086.143a3.452,3.452,0,0,1-.525,4.217h2.242A3.735,3.735,0,0,0,33,46.613a3.448,3.448,0,0,0,.469-4.151l-.086-.143A4.76,4.76,0,0,0,29.292,40H26.43a4.76,4.76,0,0,1,4.093,2.318Z" transform="translate(-10.754 -36.184)" fill="#dfc49c"/>
          <path id="Shape-6" data-name="Shape" d="M57.249,41.539v-.01a2.628,2.628,0,0,0-2.919-.916l-.715.239a2.609,2.609,0,0,1,.772.677v.01a2.6,2.6,0,0,1-.735,3.8L35.773,56.222A6.679,6.679,0,0,1,32.3,57.2h2.862a6.679,6.679,0,0,0,3.473-.973l17.88-10.886a2.6,2.6,0,0,0,.735-3.8Z" transform="translate(-11.024 -36.206)" fill="#dfc49c"/>
        </g>
        <path id="Shape-7" data-name="Shape" d="M54.633,7.908V39.154L47,41.7V7.908A1.914,1.914,0,0,1,48.908,6h3.816A1.914,1.914,0,0,1,54.633,7.908Z" transform="translate(-2.158 -0.275)" fill="#ffdc00"/>
        <path id="Shape-8" data-name="Shape" d="M52.725,6H49.862A1.914,1.914,0,0,1,51.77,7.908V39.154L47,40.747V41.7l7.633-2.547V7.908A1.914,1.914,0,0,0,52.725,6Z" transform="translate(-2.158 -0.275)" fill="#fec108"/>
        <path id="Shape-9" data-name="Shape" d="M46.633,17.908V42.161L39,44.7V17.908A1.914,1.914,0,0,1,40.908,16h3.816a1.914,1.914,0,0,1,1.908,1.908Z" transform="translate(-1.791 -0.735)" fill="#a4c400"/>
        <path id="Shape-10" data-name="Shape" d="M38.633,27.908v17.25l-2.023.677a3.752,3.752,0,0,1-1.212.2H33.156a3.452,3.452,0,0,0,.525-4.217l-.086-.143A4.733,4.733,0,0,0,31,39.6V27.908A1.914,1.914,0,0,1,32.908,26h3.816A1.914,1.914,0,0,1,38.633,27.908Z" transform="translate(-1.423 -1.194)" fill="#60a917"/>
        <path id="Shape-11" data-name="Shape" d="M30.633,22.908V39.366a4.921,4.921,0,0,0-1.5-.239h-4.99A7.708,7.708,0,0,1,23,39.042V22.908A1.914,1.914,0,0,1,24.908,21h3.816A1.914,1.914,0,0,1,30.633,22.908Z" transform="translate(-1.056 -0.964)" fill="#009688"/>
        <path id="Shape-12" data-name="Shape" d="M22.633,32.908V39.5a8.634,8.634,0,0,1-4.293-1.822A8.77,8.77,0,0,0,15,36.028v-3.12A1.914,1.914,0,0,1,16.908,31h3.816A1.914,1.914,0,0,1,22.633,32.908Z" transform="translate(-0.689 -1.423)" fill="#00bcd4"/>
        <path id="Shape-13" data-name="Shape" d="M36.811,2.186,33.73,14.512a.954.954,0,0,1-1.69.341l-3.548-4.731L7.741,24.432A2.387,2.387,0,1,1,5.03,20.5L25.63,6.3,22.787,2.527A.954.954,0,0,1,23.55,1H35.885a.954.954,0,0,1,.925,1.186Z" transform="translate(-0.183 -0.046)" fill="#f44335"/>
        <path id="Shape-14" data-name="Shape" d="M37.19,1H34.327a.954.954,0,0,1,.925,1.185L32.4,13.594l.944,1.258a.954.954,0,0,0,1.69-.341L38.115,2.185A.954.954,0,0,0,37.189,1Z" transform="translate(-1.488 -0.046)" fill="#c81e1e"/>
        <path id="Shape-15" data-name="Shape" d="M2.862,58.163h4.77a2.848,2.848,0,0,0,2.118-.954H33.679A7.633,7.633,0,0,0,37.647,56.1l17.88-10.886a3.573,3.573,0,0,0,1.649-2.373,3.511,3.511,0,0,0-.6-2.74c-.017-.028-.035-.054-.055-.082a3.561,3.561,0,0,0-3.983-1.24L34.88,44.661a2.867,2.867,0,0,1-.906.147h-.548a4.389,4.389,0,0,0-.355-3.756l-.086-.143a5.756,5.756,0,0,0-4.9-2.781H23.089a7.78,7.78,0,0,1-4.843-1.7,9.651,9.651,0,0,0-2.981-1.614V32.4a.954.954,0,0,1,.954-.954h3.816a.954.954,0,0,1,.954.954v2.862a.954.954,0,0,0,1.908,0v-12.4a.954.954,0,0,1,.954-.954h3.816a.954.954,0,0,1,.954.954.954.954,0,0,0,1.908,0A2.862,2.862,0,0,0,27.668,20H23.852a2.862,2.862,0,0,0-2.862,2.862V29.7a2.871,2.871,0,0,0-.954-.163H16.219A2.862,2.862,0,0,0,13.357,32.4v1.985a9.564,9.564,0,0,0-1.145-.077H10.319A2.862,2.862,0,0,0,7.633,32.4H2.862A2.862,2.862,0,0,0,0,35.265v3.816a.954.954,0,0,0,1.908,0V35.265a.954.954,0,0,1,.954-.954h4.77a.954.954,0,0,1,.954.954V55.3a.954.954,0,0,1-.954.954H2.862a.954.954,0,0,1-.954-.954V43.852a.954.954,0,1,0-1.908,0V55.3a2.862,2.862,0,0,0,2.862,2.862ZM17.054,37.919a9.694,9.694,0,0,0,6.035,2.117H28.08a3.835,3.835,0,0,1,3.272,1.852l.086.143a2.493,2.493,0,0,1-.143,2.775H25.5a9.508,9.508,0,0,0-5.292,1.6l-.7.466a.954.954,0,1,0,1.059,1.588l.7-.466A7.613,7.613,0,0,1,25.5,46.714h8.48a4.75,4.75,0,0,0,1.509-.245l17.661-5.887a1.649,1.649,0,0,1,1.8.5c.016.028.035.054.054.081a1.659,1.659,0,0,1-.464,2.414L36.656,54.466a5.733,5.733,0,0,1-2.977.835H10.495V36.219h1.717a7.78,7.78,0,0,1,4.842,1.7Z" transform="translate(0 -0.918)"/>
        <path id="Shape-16" data-name="Shape" d="M53.852,35.531a.954.954,0,0,0,.954-.954V7.862A2.862,2.862,0,0,0,51.944,5H48.128a2.862,2.862,0,0,0-2.862,2.862v6.854a2.83,2.83,0,0,0-.954-.176H40.495A2.862,2.862,0,0,0,37.633,17.4v6.854a2.83,2.83,0,0,0-.954-.176H32.862A2.862,2.862,0,0,0,30,26.944v4.77a.954.954,0,0,0,1.908,0v-4.77a.954.954,0,0,1,.954-.954h3.816a.954.954,0,0,1,.954.954V40.3a.954.954,0,1,0,1.908,0V17.4a.954.954,0,0,1,.954-.954h3.816a.954.954,0,0,1,.954.954V36.485a.954.954,0,0,0,1.908,0V7.862a.954.954,0,0,1,.954-.954h3.816a.954.954,0,0,1,.954.954V34.577A.954.954,0,0,0,53.852,35.531Z" transform="translate(-1.377 -0.23)"/>
        <path id="Shape-17" data-name="Shape" d="M3.594,24.322A3.355,3.355,0,0,0,6.34,25.76a3.29,3.29,0,0,0,1.9-.589l20-13.79,3,4a1.908,1.908,0,0,0,3.377-.687L37.691,2.366A1.908,1.908,0,0,0,35.84,0H23.5a1.908,1.908,0,0,0-1.527,3.058l2.243,2.971L4.443,19.671a3.357,3.357,0,0,0-.849,4.651Zm1.933-3.081,20.6-14.207a.954.954,0,0,0,.22-1.361L23.5,1.908H35.841L32.758,14.235,29.21,9.5A.954.954,0,0,0,27.9,9.289L7.145,23.6a1.4,1.4,0,0,1-.805.252,1.431,1.431,0,0,1-.814-2.61Z" transform="translate(-0.138 0)"/>
      </g>
    </g>
  </g>
</svg>
